<?xml version="1.0" standalone="no"?>
<!DOCTYPE svg PUBLIC "-//W3C//DTD SVG 20010904//EN"
 "http://www.w3.org/TR/2001/REC-SVG-20010904/DTD/svg10.dtd">
<svg version="1.0" xmlns="http://www.w3.org/2000/svg"
 width="589.000000pt" height="589.000000pt" viewBox="0 0 589.000000 589.000000"
 preserveAspectRatio="xMidYMid meet">
<metadata>
Created by potrace 1.11, written by Peter Selinger 2001-2013
</metadata>
<g transform="translate(0.000000,589.000000) scale(0.100000,-0.100000)"
fill="#000000" stroke="none">
<path d="M2751 5839 c-491 -38 -960 -194 -1342 -447 -504 -336 -820 -785 -930
-1322 -6 -30 -12 -122 -14 -205 -2 -105 -8 -166 -20 -204 -14 -45 -15 -65 -6
-115 6 -34 15 -108 21 -165 6 -58 12 -106 14 -108 5 -5 189 361 211 420 21 57
78 111 134 128 61 18 121 -8 155 -66 43 -72 37 -101 -58 -292 -91 -183 -222
-424 -297 -545 l-47 -77 17 -55 c19 -63 29 -76 40 -57 6 9 22 -12 51 -66 152
-279 388 -535 678 -737 45 -32 82 -60 82 -63 0 -25 -369 -634 -514 -848 -77
-114 -263 -301 -381 -382 -49 -34 -98 -68 -109 -76 -18 -12 -18 -15 8 -65 l26
-52 38 19 c104 53 279 209 400 356 96 117 102 120 34 20 -120 -177 -263 -320
-432 -432 -47 -31 -87 -58 -89 -60 -3 -2 7 -28 22 -59 l27 -54 33 16 c57 29
160 106 225 168 l64 61 28 -34 27 -35 -30 -56 -31 -56 27 -47 c16 -26 34 -47
41 -47 8 0 40 44 71 98 32 53 59 99 61 101 2 2 16 -3 33 -10 l30 -13 -41 -78
c-46 -86 -45 -93 19 -123 44 -21 43 -23 114 118 45 88 52 97 67 86 9 -7 18
-14 20 -15 1 0 -5 -36 -13 -80 -21 -109 -20 -110 24 -127 59 -24 77 -14 89 46
l10 52 -1 -45 -2 -45 52 0 c29 1 54 3 57 6 3 3 13 57 23 120 l18 114 6 -168
c4 -120 9 -171 19 -177 12 -7 17 -7 73 5 l29 6 -7 104 c-5 69 -4 105 3 105 5
0 13 -26 16 -57 12 -109 18 -133 30 -133 7 0 34 14 60 31 45 30 47 34 42 68
-15 101 -18 152 -8 164 7 8 4 62 -8 172 -37 322 -51 495 -57 705 -6 215 2 456
16 479 5 8 28 2 82 -22 209 -96 495 -179 745 -218 177 -27 555 -37 742 -20
331 31 668 122 951 257 62 30 118 54 123 54 21 0 154 -327 241 -595 81 -249
126 -421 242 -922 5 -20 28 -32 95 -47 47 -10 51 2 30 94 -22 95 -23 110 -12
110 4 0 16 -33 26 -72 10 -40 22 -90 28 -112 l9 -38 55 4 c30 3 57 8 61 12 4
3 -5 44 -20 89 -32 98 -33 107 -9 107 11 0 25 -14 35 -35 16 -34 19 -36 55
-29 54 10 75 23 68 42 -5 15 -4 15 8 0 20 -26 61 -22 96 10 l31 27 -41 69
c-22 37 -40 71 -40 75 0 3 11 11 25 17 22 11 30 6 99 -58 l76 -70 0 77 0 77
-109 116 c-111 119 -202 227 -222 264 -6 11 66 -58 160 -154 l170 -173 1 102
0 101 -107 95 c-60 52 -126 114 -148 137 l-40 43 65 -50 c36 -27 102 -76 148
-107 l82 -58 0 75 0 74 -152 136 c-180 159 -261 242 -138 140 91 -75 268 -203
282 -203 4 0 8 29 8 64 l0 64 -83 60 c-169 120 -768 618 -764 633 2 7 174 149
180 149 2 0 29 25 60 57 l57 56 -22 15 c-13 8 -50 43 -83 77 -127 129 -170
293 -131 499 37 191 87 315 327 807 178 366 239 514 239 583 0 74 34 107 112
110 15 1 28 3 28 6 0 15 -64 168 -100 241 -266 528 -782 947 -1421 1154 -361
116 -763 164 -1148 134z m305 -164 c12 -22 33 -60 46 -85 13 -25 28 -51 35
-57 6 -7 17 -29 23 -48 6 -19 15 -35 20 -35 4 0 17 -21 30 -47 12 -27 34 -70
50 -98 15 -27 38 -70 52 -95 14 -25 43 -76 64 -115 22 -38 49 -88 59 -110 11
-22 22 -42 25 -45 6 -6 19 -29 91 -164 33 -61 65 -118 70 -126 5 -8 17 -31 27
-50 36 -74 20 -69 328 -105 115 -14 299 -36 409 -50 110 -13 268 -31 350 -40
83 -8 204 -22 270 -30 66 -9 148 -18 183 -22 34 -3 62 -9 62 -13 0 -7 -176
-158 -239 -205 -32 -24 -129 -104 -152 -125 -9 -8 -34 -30 -55 -48 -22 -18
-46 -38 -54 -46 -8 -7 -33 -26 -55 -42 -21 -16 -47 -36 -57 -44 -9 -8 -33 -28
-54 -45 -20 -16 -47 -39 -60 -50 -74 -66 -128 -111 -145 -120 -11 -5 -75 -55
-144 -110 -99 -79 -124 -104 -120 -120 2 -11 11 -54 20 -95 9 -41 24 -113 35
-160 11 -47 25 -116 30 -155 6 -38 15 -80 20 -93 6 -12 19 -80 31 -150 12 -70
25 -129 29 -132 4 -3 15 -57 25 -120 9 -63 20 -117 24 -120 4 -3 17 -61 29
-130 11 -69 24 -135 28 -147 l6 -22 -53 21 c-73 29 -137 58 -292 132 -271 130
-306 146 -312 146 -6 0 -144 65 -341 161 -55 27 -105 49 -111 49 -6 0 -16 6
-22 13 -6 8 -28 19 -49 25 -21 7 -76 31 -123 55 l-84 44 -105 -50 c-58 -28
-154 -74 -215 -103 -60 -29 -166 -79 -235 -112 -69 -33 -152 -71 -185 -85 -70
-29 -293 -134 -315 -148 -8 -5 -25 -14 -38 -19 -13 -5 -61 -28 -108 -50 -47
-22 -87 -40 -90 -40 -3 0 -26 -9 -51 -21 -25 -11 -47 -18 -50 -16 -2 3 3 32
11 65 9 33 16 71 16 85 0 14 4 28 9 31 4 3 11 27 14 53 3 27 13 80 22 118 18
75 41 190 55 270 5 28 18 91 29 140 11 50 32 146 47 215 27 131 73 325 80 344
4 11 -162 153 -291 249 -33 24 -69 53 -80 64 -52 49 -204 173 -214 173 -5 0
-14 6 -18 13 -11 16 -239 208 -287 241 -21 14 -49 36 -62 49 -12 12 -61 54
-108 92 -47 39 -85 73 -86 78 0 4 12 7 28 7 15 0 97 9 182 19 85 11 225 27
310 36 85 8 243 26 350 40 107 13 272 33 365 44 94 11 207 25 252 32 l82 11
32 56 c18 32 51 93 73 137 23 44 44 82 48 85 4 3 14 22 22 42 9 20 20 39 26
43 5 3 20 28 31 56 12 27 25 49 28 49 4 0 15 22 25 49 10 28 23 55 30 60 7 6
21 29 31 51 10 22 22 40 27 40 4 0 8 5 8 11 0 11 138 269 149 279 3 3 18 30
33 60 15 30 42 80 59 110 18 30 38 68 47 84 l15 29 15 -29 c9 -16 26 -47 38
-69z m-1709 -5397 c-3 -8 -6 -5 -6 6 -1 11 2 17 5 13 3 -3 4 -12 1 -19z"/>
<path d="M2485 4520 c-124 -26 -77 -29 515 -28 566 0 602 1 560 16 -38 13
-117 16 -540 18 -272 1 -513 -1 -535 -6z"/>
<path d="M2257 4378 c-38 -49 -84 -153 -201 -449 -111 -279 -129 -340 -124
-411 3 -39 21 5 181 421 98 255 176 465 173 468 -2 2 -15 -11 -29 -29z"/>
<path d="M3745 4325 c130 -351 321 -834 323 -822 7 33 -20 135 -69 266 -28 75
-55 141 -59 146 -4 6 -13 28 -20 50 -7 22 -18 54 -25 70 -8 17 -32 77 -55 134
-43 110 -82 186 -107 211 -9 10 -5 -10 12 -55z"/>
<path d="M1983 3331 c47 -57 124 -114 307 -226 96 -60 240 -149 320 -198 162
-101 246 -143 305 -152 l40 -7 -65 42 c-80 52 -816 506 -885 546 l-50 28 28
-33z"/>
<path d="M3775 3199 c-527 -323 -718 -443 -708 -446 29 -10 159 55 355 178 48
30 153 95 233 144 178 110 323 212 343 243 8 12 13 22 11 22 -2 0 -107 -64
-234 -141z"/>
<path d="M5354 4242 c-6 -4 -14 -29 -18 -57 -14 -104 -65 -229 -212 -526 -368
-742 -431 -975 -323 -1195 38 -76 107 -156 166 -190 l45 -27 26 22 c15 12 44
32 64 46 65 43 99 96 102 156 3 45 13 72 62 157 32 56 98 157 146 225 l88 122
0 631 0 632 -22 6 c-32 8 -111 7 -124 -2z"/>
<path d="M795 3752 c-23 -14 -42 -45 -79 -128 -26 -60 -89 -188 -138 -284
l-91 -174 12 -96 c13 -102 28 -160 41 -160 24 0 410 720 410 766 0 18 -28 64
-49 82 -22 18 -71 15 -106 -6z"/>
<path d="M5409 2745 c-101 -153 -149 -238 -149 -262 1 -28 36 19 81 109 47 94
103 184 136 220 14 14 23 34 21 44 -2 13 -31 -23 -89 -111z"/>
</g>
</svg>
