<svg xmlns="http://www.w3.org/2000/svg" xmlns:xlink="http://www.w3.org/1999/xlink" viewBox="0 0 506.4 276.5"><style><![CDATA[.e{fill:#9c9b9b}.f{fill:none}.g{stroke-width:8}.h{stroke:#fff}.i{stroke-linecap:round}.j{stroke-linejoin:round}.k{opacity:.2}.l{fill:#d9d9d8}.m{fill:#fff}.n{stroke-miterlimit:10}.o{fill:#e53625}.p{fill:#ef8579}.q{fill:#fbae18}.r{fill:#fdce67}.s{fill:#9dcaec}.t{stroke:#27aae1}]]></style><defs><clipPath id="A" transform="translate(-163.6 -174.3)"><path d="M211.3 430.7l73.2 32.3 28.8-65.2-73.2-32.3-28.7 65.2z" clip-rule="evenodd" class="f"/></clipPath><clipPath id="B" transform="translate(-163.6 -174.3)"><path d="M211.3 430.7l73.2 32.3 28.8-65.2-73.2-32.3-28.7 65.2z" class="f"/></clipPath><path id="C" d="M394 16.4v5c0 3.2 2.6 5.7 5.7 5.7h12c3.2 0 5.7-2.6 5.7-5.7v-5z"/><path id="D" d="M417.4 17.7H394c-.7 0-1.2-.6-1.2-1.2s.6-1.2 1.2-1.2h23.4c.7 0 1.2.6 1.2 1.2s-.6 1.2-1.2 1.2z"/><path id="E" d="M350 28.2v5c0 3.2 2.6 5.7 5.7 5.7h12c1.5 0 3-.6 4-1.7s1.7-2.5 1.7-4v-5z"/><path id="F" d="M373.4 29.4H350c-.6-.1-1-.6-1-1.2s.5-1.2 1-1.2h23.3c.5 0 1 .2 1.2.6s.2 1 0 1.3-.7.6-1.2.6z"/><path id="G" d="M461.3 29.4H438c-.6-.1-1-.6-1-1.2s.5-1.2 1-1.2h23.3c.5 0 1 .2 1.2.6s.2 1 0 1.3-.7.6-1.2.6z"/><path id="H" d="M335.5 45.2h-12c-3.2 0-5.7 2.6-5.7 5.7h23.3c0-3.2-2.6-5.7-5.7-5.7z"/><path id="I" d="M341.2 52H318c-.5 0-1-.2-1.2-.6s-.2-1 0-1.3.7-.6 1.2-.6h23.3c.5 0 1 .2 1.2.6s.2 1 0 1.3-.7.6-1.2.6z"/><path id="J" d="M341.2 61.6H318c-.7 0-1.2-.6-1.2-1.2s.6-1.2 1.2-1.2h23.3c.7 0 1.2.6 1.2 1.2s-.6 1.2-1.2 1.2z"/><path id="K" d="M493.4 52H470c-.5 0-1-.2-1.2-.6s-.2-1 0-1.3.7-.6 1.2-.6h23.3c.6.1 1 .6 1 1.2s-.5 1.2-1 1.2z"/><path id="L" d="M493.4 61.6H470c-.7 0-1.2-.6-1.2-1.2s.6-1.2 1.2-1.2h23.3c.7 0 1.2.6 1.2 1.2s-.6 1.2-1.2 1.2z"/></defs><g class="f n"><g stroke="#d9d9d8" class="g"><path d="M405.7 14.2V190"/><path d="M449.6 26l-88 152.2"/><path d="M481.8 58.2l-152.2 88"/><path d="M493.6 102H317.8"/><path d="M481.8 146l-152.2-88"/><path d="M449.6 178.2L361.7 26"/></g><path d="M343 102c0 25.3 15.3 48.2 38.7 58s50.4 4.3 68.3-13.6 23.3-45 13.6-68.3-32.5-38.7-58-38.7c-16.6 0-32.6 6.6-44.3 18.3S343 85.5 343 102z" stroke="#9c9b9b" stroke-width="12"/></g><path d="M386.4 102c0 10.7 8.6 19.3 19.3 19.3S425 112.8 425 102s-8.6-19.3-19.3-19.3c-5 0-10 2-13.7 5.7s-5.7 8.5-5.7 13.7z" class="e"/><path d="M398.6 102c0 3 1.7 5.4 4.4 6.5s5.7.5 7.7-1.5 2.6-5 1.5-7.7-3.7-4.4-6.5-4.4c-2 0-3.7.7-5 2s-2 3-2 5z" fill="#70706f"/><path d="M400.3 102c0-3 2.4-5.4 5.4-5.4M388 102c0-9.8 8-17.7 17.7-17.7" class="k f h i j" stroke-width="10"/><path d="M394 7h2.5v9.5H394zm21 0h2.5v9.5H415z" class="e"/><path d="M396.5 7H415v9.5h-18.4z" class="l"/><g class="o"><path d="M411.6 1.2h-12c-3.2 0-5.7 2.6-5.7 5.7h23.4c0-1.5-.6-3-1.7-4s-2.6-1.7-4-1.7z"/><use xlink:href="#C"/></g><g class="p"><path d="M417.4 8.2H394c-.6-.1-1-.6-1-1.2s.5-1.2 1-1.2h23.4c.5 0 1 .2 1.2.6s.2 1 0 1.3-.7.6-1.2.6z"/><use xlink:href="#D"/></g><path d="M408.8 1.2c-1.8-1.6-4.5-1.6-6.3 0z" class="e"/><path d="M411.6 25.6h-12" class="f g h i j k"/><path d="M350 18.7h2.5v9.5H350zm21 0h2.5v9.5H371z" class="e"/><path d="M352.5 18.7H371v9.5h-18.4z" class="l"/><g class="q"><path d="M367.7 13h-12c-3 0-5.7 2.5-5.7 5.7h23.3c0-3-2.6-5.7-5.7-5.7z"/><use xlink:href="#E"/></g><g class="r"><path d="M373.4 20H350c-.7 0-1.2-.6-1.2-1.2s.6-1.2 1.2-1.2h23.3c.7 0 1.2.6 1.2 1.2s-.6 1.2-1.2 1.2z"/><use xlink:href="#F"/></g><path d="M365 13c-1.8-1.6-4.5-1.6-6.3 0z" class="e"/><path d="M367.7 37.4h-12" class="f g h i j k"/><path d="M438 18.7h2.5v9.5H438zm20.8 0h2.5v9.5h-2.5z" class="e"/><path d="M440.4 18.7h18.4v9.5h-18.4z" class="l"/><g class="q"><path d="M455.6 13h-12c-3.2 0-5.7 2.6-5.7 5.7h23.3c0-1.5-.6-3-1.7-4s-2.5-1.7-4-1.7z"/><use xlink:href="#E" x="88"/></g><g class="r"><path d="M461.3 20H438c-.7 0-1.2-.6-1.2-1.2s.6-1.2 1.2-1.2h23.3c.7 0 1.2.6 1.2 1.2s-.6 1.2-1.2 1.2z"/><use xlink:href="#G"/></g><path d="M452.8 13c-1.8-1.6-4.5-1.6-6.3 0z" class="e"/><path d="M455.6 37.4h-12" class="f g h i j k"/><path d="M318 51h2.5v9.5H318zm20.8 0h2.5v9.5h-2.5z" class="e"/><path d="M320.4 51h18.4v9.5h-18.4z" class="l"/><g fill="#88c540"><use xlink:href="#H"/><use xlink:href="#C" x="-76" y="44"/></g><g fill="#b6d886"><use xlink:href="#I"/><use xlink:href="#J"/></g><path d="M332.7 45.2c-1.8-1.6-4.5-1.6-6.3 0z" class="e"/><path d="M335.5 69.6h-12" class="f g h i j k"/><path d="M470 51h2.5v9.5H470zm21 0h2.5v9.5H491z" class="e"/><path d="M472.6 51H491v9.5h-18.4z" class="l"/><g fill="#88c540"><use xlink:href="#H" x="152.2"/><use xlink:href="#C" x="76" y="44"/></g><g fill="#b6d886"><use xlink:href="#K"/><use xlink:href="#L"/></g><path d="M485 45.2c-1.8-1.6-4.5-1.6-6.3 0z" class="e"/><path d="M487.7 69.6h-12" class="f g h i j k"/><path d="M306 94.8h2.5v9.5H306zm21 0h2.5v9.5H327z" class="e"/><path d="M308.6 94.8H327v9.5h-18.4z" class="l"/><g fill="#38a7df"><use xlink:href="#H" x="-11.8" y="43.8"/><use xlink:href="#C" x="-88" y="87.9"/></g><path d="M329.5 96H306c-.6-.1-1-.6-1-1.2s.5-1.2 1-1.2h23.3c.5 0 1 .2 1.2.6s.2 1 0 1.3-.7.6-1.2.6zm0 9.5H306c-.7 0-1.2-.6-1.2-1.2s.6-1.2 1.2-1.2h23.3c.7 0 1.2.6 1.2 1.2s-.6 1.2-1.2 1.2z" class="s"/><path d="M323.7 113.5h-12" class="f g h i j k"/><path d="M482 94.8h2.5v9.5H482zm20.8 0h2.5v9.5h-2.5z" class="e"/><path d="M484.4 94.8h18.4v9.5h-18.4z" class="l"/><g fill="#1b75bc"><use xlink:href="#H" x="164" y="43.8"/><use xlink:href="#C" x="88" y="87.9"/></g><path d="M505.2 96H482c-.6-.1-1-.6-1-1.2s.5-1.2 1-1.2h23.3c.5 0 1 .2 1.2.6s.2 1 0 1.3-.7.6-1.2.6zm0 9.5H482c-.7 0-1.2-.6-1.2-1.2s.6-1.2 1.2-1.2h23.3c.7 0 1.2.6 1.2 1.2s-.6 1.2-1.2 1.2z" class="s"/><path d="M496.7 89c-1.8-1.6-4.5-1.6-6.3 0z" class="e"/><path d="M499.5 113.5h-12" class="f g h i j k"/><path d="M318 138.8h2.5v9.5H318zm20.8 0h2.5v9.5h-2.5z" class="e"/><path d="M320.4 138.8h18.4v9.5h-18.4z" class="l"/><g fill="#d73b95"><path d="M335.5 133h-12c-1.5 0-3 .6-4 1.7s-1.7 2.5-1.7 4h23.3c0-1.5-.6-3-1.7-4s-2.5-1.7-4-1.7z"/><use xlink:href="#C" x="-76" y="131.8"/></g><g fill="#df80b4"><use xlink:href="#I" y="88"/><use xlink:href="#J" y="87.9"/></g><path d="M332.7 133c-1.8-1.6-4.5-1.6-6.3 0z" class="e"/><path d="M335.5 157.4h-12" class="f g h i j k"/><path d="M470 138.8h2.5v9.5H470zm21 0h2.5v9.5H491z" class="e"/><path d="M472.6 138.8H491v9.5h-18.4z" class="l"/><g fill="#d73b95"><path d="M487.7 133h-12c-1.5 0-3 .6-4 1.7s-1.7 2.5-1.7 4h23.3c0-3.2-2.6-5.7-5.7-5.7z"/><use xlink:href="#C" x="76" y="131.8"/></g><g fill="#df80b4"><use xlink:href="#K" y="88"/><use xlink:href="#L" y="87.9"/></g><path d="M485 133c-1.8-1.6-4.5-1.6-6.3 0z" class="e"/><path d="M487.7 157.4h-12" class="f g h i j k"/><path d="M350 171h2.5v9.5H350zm21 0h2.5v9.5H371z" class="e"/><path d="M352.5 171H371v9.5h-18.4z" class="l"/><g class="o"><use xlink:href="#H" x="32.2" y="120"/><use xlink:href="#E" y="152.2"/></g><g class="p"><use xlink:href="#F" y="142.8"/><use xlink:href="#F" y="152.3"/></g><path d="M365 165.2c-1.8-1.6-4.5-1.6-6.3 0z" class="e"/><path d="M367.7 189.6h-12" class="f g h i j k"/><path d="M438 171h2.5v9.5H438zm20.8 0h2.5v9.5h-2.5z" class="e"/><path d="M440.4 171h18.4v9.5h-18.4z" class="l"/><g class="o"><path d="M455.6 165.2h-12c-3.2 0-5.7 2.6-5.7 5.7h23.3c0-1.5-.6-3-1.7-4s-2.5-1.7-4-1.7z"/><use xlink:href="#E" x="88" y="152.2"/></g><g class="p"><use xlink:href="#G" y="142.8"/><use xlink:href="#G" y="152.3"/></g><path d="M452.8 165.2c-1.8-1.6-4.5-1.6-6.3 0z" class="e"/><path d="M455.6 189.6h-12" class="f g h i j k"/><path d="M394 182.7h2.5v9.5H394zm21 0h2.5v9.5H415z" class="e"/><path d="M396.5 182.7H415v9.5h-18.4z" class="l"/><g class="q"><path d="M411.6 177h-12c-3.2 0-5.7 2.6-5.7 5.7h23.4c0-1.5-.6-3-1.7-4s-2.6-1.7-4-1.7z"/><use xlink:href="#C" y="175.8"/></g><g class="r"><path d="M417.4 184H394c-.6-.1-1-.6-1-1.2s.5-1.2 1-1.2h23.4c.5 0 1 .2 1.2.6s.2 1 0 1.3-.7.6-1.2.6z"/><use xlink:href="#D" y="175.7"/></g><path d="M408.8 177c-1.8-1.6-4.5-1.6-6.3 0z" class="e"/><path d="M411.6 201.4h-12" class="f g h i j k"/><path d="M306.3 94.8h2.5v9.5h-2.5zm20.7 0h2.5v9.5H327z" class="e"/><path d="M308.7 94.8H327v9.5h-18.4z" class="l"/><g fill="#1b75bc"><use xlink:href="#H" x="-11.5" y="43.8"/><use xlink:href="#C" x="-87.7" y="87.9"/></g><path d="M329.6 96h-23.3c-.6-.1-1-.6-1-1.2s.5-1.2 1-1.2h23.3c.5 0 1 .2 1.2.6s.2 1 0 1.3-.7.6-1.2.6zm0 9.5h-23.3c-.7 0-1.2-.6-1.2-1.2s.6-1.2 1.2-1.2h23.3c.7 0 1.2.6 1.2 1.2s-.6 1.2-1.2 1.2z" class="s"/><path d="M321 89c-1.8-1.6-4.5-1.6-6.3 0z" class="e"/><g class="f"><path d="M324 113.5h-12" class="g h i j k"/><path d="M202.2 229.4l-5.7 5.7q-2 2.6-2 4.3c0 1 .5 1.7 1.6 1.7 2-.1 4.2-.8 6-2a37 37 0 0 0 6.3-5.7 75 75 0 0 0 6.5-8.5l6.4-10.3q-5.5 4.2-10.4 8-4.8 3.8-8.5 7zm-51.6-64a48 48 0 0 0 5.1-7.7c1-1.8 1.8-4 2-6 0-.4-.2-.6-.5-.6-1.7 0-3.5.8-5.5 2.4a35 35 0 0 0-5.8 6.4 67 67 0 0 0-5.4 9 95 95 0 0 0-4.3 9.7c2.8-1.4 5.3-3.3 7.6-5.4a65 65 0 0 0 6.9-7.5z" class="n t"/></g><g fill="#354ea2" class="n t"><path d="M130.5 141a67 67 0 0 0 8.3-14.1c2-4.2 3-8.7 3-13.3 0-3.4-.7-6.7-2-9.8-1.5-3-4-5.8-6.7-7.8-3.6-2.4-7.6-4.2-11.8-5.2-5.7-1.4-11.5-2-17.3-2a92 92 0 0 0-25.6 3.6L54 102c-7.5 3.8-14.6 8.4-21.2 13.5a124 124 0 0 0-16.9 15.8 79 79 0 0 0-11.2 16.2q-4 8-4 14.6c-.1 3 .5 6 1.7 8.6 1 2 2.4 4 4.2 5.4 1.7 1.3 3.6 2.3 5.7 2.8a25 25 0 0 0 6.2.8c1.4 0 2.7-.1 4-.4a15 15 0 0 0 3.3-1.1c.8-.4 1.6-1 2.2-1.6.5-.5.8-1 .8-1.8 0-.7-.1-1.4-.5-2-.3-.5-.7-.8-1.3-1s-1.2-.3-1.8-.3q-1 0-2.2.1c-.6.1-1.2.1-1.8.1s-1.2-.1-1.7-.3-1-.6-1.2-1c-.4-.7-.5-1.5-.5-2.3a21 21 0 0 1 1.7-7.4 55 55 0 0 1 5-10l8-11.7a111 111 0 0 1 10.6-12 135 135 0 0 1 13-11.4 97 97 0 0 1 15-9.5c5.3-2.7 11-5 16.8-6.5a70 70 0 0 1 18.2-2.5q9.3 0 13.4 3.5c2.7 2.2 4.2 5.5 4 9-.1 3.5-.8 7-2.2 10.3a62 62 0 0 1-6 11.4L106 143a120 120 0 0 1-11.5 11.1 111 111 0 0 1-13 9.4c-4.4 2.7-9 5-13.8 6.8L80 148q3.3-5.8 5.5-10c1.5-2.7 2.2-4.7 2.2-6 0-1.4-.4-3-1-4-1.5-2.6-3.8-4.6-6.6-5.8a10 10 0 0 0-3.8-.8c-2 0-3.2.5-3.4 1.5-.3 1.3-.5 2.6-.4 4v.6c-.3.6-.7 1.2-1 1.8q-1 1.7-2.8 4.7l-21 39.4a8 8 0 0 1-2.9-1c-.7-.4-1.3-1-1.8-1.6-.4-.6-.8-1.2-1-1.8-.3-.6-.5-1.2-.6-1.8-.3-1.3-.8-2.5-1.4-3.6-.6-1-1.7-1.5-3.4-1.5-1.2-.1-2.4.5-3.2 1.5a5 5 0 0 0-1 3.8 10 10 0 0 0 .8 3.8 16 16 0 0 0 2.3 4.1c1 1.4 2.4 2.7 4 3.8a18 18 0 0 0 5.3 2.8l-3 11c-.7 3.3-1 6.6-1.2 10a25 25 0 0 0 4.2 13.5 17 17 0 0 0 4.9 4.8 12 12 0 0 0 6.3 2c2 0 3.6-.3 4.4-1 1-.7 1.3-2 1.3-3 0-.7-.2-1.4-.4-2l-2.5-7.2a21 21 0 0 1-.7-5.6 43 43 0 0 1 1.4-10.7 75 75 0 0 1 3.9-11.5 93 93 0 0 0 20.4-5.3c6.5-2.5 12.8-5.6 18.7-9.3l16-12a96 96 0 0 0 12.5-13.7zM282 157.8c-.2-.8-.8-1.5-1.7-1.8-1-.3-1.8-.2-2.6.2-1 .5-2 1.4-2.4 2.5v.1a57 57 0 0 1-9 12.7 141 141 0 0 1-13.6 12.5q2-4.8 4-9.4 1.8-4.7 3.2-8.5 1.4-3.8 2-6.5a16 16 0 0 0 .8-3.9c0-1.4-.4-2.8-1-4-1.4-2.8-3.5-5.2-6.2-7-1-.7-2-1-3.3-1.2-1.2-.1-2.4.5-3.2 1.4-.8 1-1 2.5-1 4.7-.3 1.3-.8 2.5-1.3 3.8q-1.3 3.3-3.4 9L216.8 197c-1.3 1.4-2.2 2-2.7 2-.2 0 0-.6.6-2s1.4-3 2.5-5l14.2-28c1-2 1.6-3.6 2-5 .4-1.2.7-2.4.8-3.6 0-2-.8-4-2.3-5.4-1.5-1.5-3.2-2.6-5-3.4-1.6-.7-3.4-1-5-1-1.5 0-2.3.5-2.3 1.6 0 1.2-.3 2.4-.6 3.5l-7 14.7a145 145 0 0 0-3.5 6.8l-4.8 9.5q-2.7 4.6-5.3 8.4l-5 6.2q-2.3 2.4-4 2.4c-.3 0-.5-.4-.5-1.2 0-1 .2-2.3.6-3.3q.6-2 1.4-4.2l6.4-14.5c.6-1.2 1-2.4 1-3.7.1-1-.3-2.2-1-3-1-.7-2-1.3-3-1.8l-1.8-1.2c-.6-.4-1.2-1-1.7-1.5-.6-.6-1-1.4-1.2-2.2-.3-1-.5-2-.5-3 0-1.8.4-3.5 1.2-5l4.7-9c.6-1 1-2.3 1-3.5s-.5-2.4-1.4-3.2c-1-1-2-1.6-3.3-2-1.3-.5-2.7-1-4-1.2l-3.8-.4a5 5 0 0 0-3.4 1.6c-1.2 1.3-2.2 2.7-3 4.3a29 29 0 0 0-2.2 6c-.6 2.2-.8 4.5-.8 6.8 0 1 .1 2.3.3 3.4.2 1 .4 2 .8 3l-3 6q-1.6 2.7-3.7 5.8-2.8 4.2-6.4 8.7c-2.3 3-5 5.6-7.7 8a39 39 0 0 1-8.6 6c-2.8 1.5-6 2.3-9 2.3a3 3 0 0 1-2.8-1.5 8 8 0 0 1-.8-3.9 19 19 0 0 1 .4-4c2.5-.6 4.8-1.6 7-3a48 48 0 0 0 7.2-5.2 52 52 0 0 0 6.6-6.7l5.5-7.4a39 39 0 0 0 3.8-7.3c1-2 1.3-4 1.4-6.2a8 8 0 0 0-2.1-5.8q-2-2.2-7-2.2c-5 0-10.2 1.2-14.8 3.5a49 49 0 0 0-13 9.1c-3.8 3.7-7 8-9.4 12.8a33 33 0 0 0-3.6 14.5c0 2.6.4 5.2 1.2 7.6a24 24 0 0 0 3.7 7.3c1.7 2.2 3.8 4 6.3 5.5 2.7 1.5 6 2.3 9 2.2a27 27 0 0 0 11.8-2.7 47 47 0 0 0 10.5-7c3.3-3 6.3-6 9-9.5q4-5.2 7.3-10.2 3.2-5 5.3-9l.7-1.3 1.5 1.2 1.7 1q-2.3 4.8-4 9.3-1.4 4-2.7 8c-.8 2.3-1.2 4.8-1.2 7.3a11 11 0 0 0 1 4.7c.6 1.5 1.5 3 2.7 4a19 19 0 0 0 4 3c1.7.8 3.6 1.2 5.4 1.2q3 0 6.5-2.7a41 41 0 0 0 6.8-7l1.3-1.6.5 1.4c.6 1.7 1.5 3.3 2.6 4.7 1 1.4 2.4 2.7 3.8 3.7 1.3 1 3 1.5 4.5 1.5 1-.1 2.2-.5 3-1a27 27 0 0 0 3.9-3.1 79 79 0 0 0 4.4-4.5 90 90 0 0 0 4.8-5.5q-1 2.4-1.6 3.8l-2.5 5-3.3 5.8q-6.8 4.8-12.8 9.3-6 4.5-10.6 8.5a51 51 0 0 0-7.2 7.6c-1.6 1.8-2.5 4.2-2.7 6.6a11 11 0 0 0 .7 3.6c.5 1.4 1.4 2.8 2.5 3.8 1.4 1.3 3 2.3 5 3a22 22 0 0 0 7.8 1.2q4.4 0 9.6-4.5c4-3.6 7.4-7.6 10.5-12a194 194 0 0 0 10.6-16.6q5.3-9.2 10-18.6 6-4.7 11.5-9.4 5.6-4.7 10.3-9.4l8.3-9.3a41 41 0 0 0 5.5-9c.5-1 .5-2.3.1-3.4zm-141.7 10.8a80 80 0 0 1 5.4-8.8c1.7-2.4 3.6-4.5 5.8-6.4 2-1.6 3.8-2.4 5.5-2.4.4 0 .5.2.5.6-.2 2-1 4.2-2 6a48 48 0 0 1-5.1 7.7 65 65 0 0 1-7 7.5 31 31 0 0 1-7.6 5.4c1.3-3.3 2.7-6.5 4.4-9.7zm74.4 56l-6.5 8.4a37 37 0 0 1-6.3 5.7c-1.7 1.3-3.8 2-6 2-1 0-1.6-.6-1.6-1.7s.7-2.6 2-4.3a44 44 0 0 1 5.7-5.7q3.6-3.2 8.5-7 5-3.8 10.4-8l-6.4 10.3z"/><path d="M412 211c.8-1.4 1.6-2 2.4-2 .8 0 1.6.2 2.2.7 1 .7 1.6 1.6 2.2 2.6-1 2.3-2.5 4.3-4.3 6-2 1.7-4 3-6.4 4a24 24 0 0 1-10 1.8c-4.2 0-8.4-.8-12.4-2.2-4.4-1.5-8.4-4-12-7a37 37 0 0 1-8.9-12.4q-3.5-7.6-3.5-18.3c0-2.6.3-5.3 1-7.8l2.7-9.3c-2.7-.7-5.4-1.7-8-3l-7-3.5q-7.8 8.7-15.7 16.6-7.8 8-15 14c-4 3.6-8.5 6.8-13 9.6q-6 3.6-10.2 3.6c-4.2.1-8.4-.6-12.3-2-3.2-1.2-6.2-3-8.8-5.3-2.3-2.2-4-5-5.3-7.8a26 26 0 0 1-1.7-9.4c.1-4.6 1-9 3-13.2 2.2-4.7 5.4-8.8 9.3-12.2 4.6-4 9.8-7 15.5-9 7-2.5 14.2-3.6 21.5-3.5a50 50 0 0 1 8.9.7l7.7 2a53 53 0 0 1 6.9 2.7q3.3 1.6 6.6 3.2 5-5.5 10-11.2 5-5.6 9.5-11l8.8-10.5q4.2-5 7.7-9.4l12.7-15c.2-.8.7-1.5 1.3-2 .7-.5 1.6-.8 2.5-.7a9 9 0 0 1 3.5 1.1c1.4.7 2.7 1.7 3.8 2.7 1.2 1 2.2 2.3 3 3.7.8 1.2 1.2 2.6 1.3 4-.1 2.2-.6 4.3-1.4 6.3q-1.4 4-3.5 9l-22 44.5c.8.3 1.5.8 2 1.6.3.6.5 1.2.5 2 0 1-.5 2-1.4 2.6-1.3 1-2.8 1.4-4.4 1.4a96 96 0 0 0-3.8 10.4 30 30 0 0 0-1.4 8.2q0 8.4 2.6 14c1.5 3.3 3.7 6.3 6.4 8.7 2.3 2 5 3.5 7.8 4.4a25 25 0 0 0 6.9 1.2c3.7 0 6.4-.6 8.3-1.8 1.5-.8 2.7-2 3.6-3.3zm-115.5-16.4c2 0 4.8-1 8-3l11-8.2q6-5.2 12.8-12 6.8-7 14-14.5l-11.4-4.8a39 39 0 0 0-12.8-2 27 27 0 0 0-13.2 3.3 37 37 0 0 0-10.3 8.3c-2.8 3.2-5 7-6.8 11-1.5 3.5-2.4 7.2-2.4 11-.1 3 .8 5.8 2.7 8q2.7 3 8.6 3zm59-39.8c2 1 4 2 6 3a46 46 0 0 0 6.3 2q3-7.3 6.8-15.3 3.8-8 7.4-15.7l4.6-9c.3-.7.8-2 1.4-3.6q-6 7.7-14.5 17.7-8.4 10-18.2 20.8z" stroke-width="2"/></g><g clip-path="url(#A)"><g clip-path="url(#B)"><path d="M96 263h0c0 0 0 .1 0 .1v.2l1-.1v-.1l1.4-1.6c.1-.1.2-.2.3-.3l.3-.3c.2-.2.3-.4.5-.6l1.2-1.4-.4-7.8h-.3c-.1 0-.2 0-.2-.1s-.1-.1-.1-.2 0-.2.1-.2.1-.1.2-.1h.3L96.8 205l-2.7-2.5-1 .1c0 0 0 .1 0 .1 0 0 0 .1 0 .1h0c0 0 0 .1 0 .1-.1.3-.4.4-.7.5-.4 0-.7-.2-.8-.5v-.2h-1v.1c0 .1 0 .1-.1.2 0 0 0 0 0 .1-.1.3-.4.5-.7.5-.3 0-.7-.2-.8-.5 0 0 0-.1 0-.1v-.1h-1v.1c0 0 0 .1 0 .1s0 .1 0 .1h0c-.1.3-.4.5-.7.5-.3 0-.6-.2-.8-.5v-.3h-1v.3c-.1.3-.4.5-.7.5-.3 0-.6-.2-.8-.5 0 0 0-.1 0-.1 0-.1 0-.1 0-.2h-1c0 .1 0 .2-.1.3-.1.3-.4.5-.7.5s-.6-.2-.8-.4c0-.1-.1-.2-.1-.3h-1c0 .1 0 .2 0 .3-.1.3-.4.5-.7.5-.3 0-.6-.2-.7-.4l-.1-.2c0-.1 0-.1 0-.2l-1 .1v.1c0 0 0 0 0 .1 0 0 0 .1 0 .1-.1.3-.4.5-.7.6s-.6-.1-.8-.4v-.2c0 0 0 0 0-.1l-1 .1v.3c-.1.3-.4.6-.7.6-.3 0-.6-.1-.7-.4l-.1-.1v-.1c0 0 0-.1 0-.1h-1l-3 2.8-1.2 1.4 2.5 44.6c.1 0 .2 0 .2.1s.1.1.1.2c0 .2-.1.3-.3.4h-.3l.4 7.8 4 3.7 1-.1v-.2c0-.1 0-.1.1-.2.1-.3.4-.5.7-.5.3 0 .7.2.8.5 0 0 0 .1 0 .1 0 0 0 0 0 0v.1l1-.1c0-.1 0-.2 0-.2 0 0 0 0 0-.1h0c.1-.3.4-.5.7-.5.3 0 .6.2.8.5 0 0 0 .1 0 .1h0 1c0-.1 0-.1 0-.2 0-.1 0-.1 0-.2.1-.3.4-.5.7-.5.3 0 .6.2.8.5v.1c0 0 0 .1 0 .1h1c0-.1 0-.2.1-.3.1-.3.4-.5.7-.5s.6.2.7.4c.1.1.1.2.1.3h1c0-.1 0-.1 0-.2 0 0 0 0 0-.1.1-.3.4-.5.7-.6.3 0 .6.2.7.4 0 0 0 .1 0 .1 0 0 0 .1 0 .1 0 .1 0 .1 0 .2l1-.1v-.1c.1-.3.4-.5.7-.6.3 0 .6.1.7.4v.2c0 0 0 .1 0 .1 0 0 0 .1 0 .1h1v-.1c0 0 0-.1 0-.1.1-.3.4-.6.7-.6.3 0 .6.1.7.4 0 0 0 .1 0 .1 0 .1 0 .1.1.2 0 0 0 .1 0 .1l1-.1v-.1c0 0 0-.1 0-.1 0-.3.2-.5.4-.6s.5-.1.7 0c.3 0 .6.1.7.4zm-23-10c-.1 0-.2 0-.2-.1s-.1-.1-.1-.2 0-.2.1-.2.1-.1.2-.1h.7c.1 0 .2 0 .2.1s.1.1.1.2c0 .1 0 .2-.1.2s-.1.1-.2.1h-.7zm25.3-2.2c.1 0 .2 0 .2.1s.1.1.1.2c0 .2-.1.3-.3.4H98c-.1 0-.2 0-.2-.1s-.1-.1-.1-.2 0-.2.1-.2.1-.1.2-.1h.7zm-7.4 1c-.1 0-.2 0-.2-.1s-.1-.1-.1-.2c0-.2.1-.3.3-.3h.7c.1 0 .2 0 .2.1s.1.1.1.2 0 .2-.1.2-.1.1-.2.1h-.7zm-2.2.1c-.1 0-.2 0-.2-.1s-.1-.1-.1-.2 0-.2.1-.2.1-.1.2-.1h.7c.2 0 .3.1.3.3s-.1.3-.3.3H89zm-2.2.1c-.1 0-.2 0-.2-.1 0-.1-.1-.1-.1-.2 0-.1 0-.2.1-.2.1-.1.1-.1.2-.1h.7c.1 0 .2 0 .2.1s.1.1.1.2c0 .2-.1.3-.3.3h-.7zm-1.6.1h-.7c-.1 0-.2 0-.2-.1s-.1-.1-.1-.2c0-.1.2-.2.3-.3h.7c.1 0 .2 0 .3.1.1.1.1.1.1.2 0 .1 0 .2-.1.2-.1.1-.1.1-.2.1zm-3 .2c-.1 0-.2 0-.2-.1s-.1-.1-.1-.2c0-.2.1-.3.3-.4h.7c.2 0 .3.1.3.3s-.1.3-.3.3h-.7zm-2.2.1c-.2 0-.3-.1-.3-.3s.1-.3.3-.3h.7c.1 0 .2 0 .2.1s.1.1.1.2c0 .2-.1.3-.3.4H80zm-2.2.1c-.1 0-.2 0-.2-.1s-.1-.1-.1-.2c0-.2.1-.3.3-.4h.7c.1 0 .2 0 .2.1s.1.1.1.2 0 .2-.1.2-.1.1-.2.1h-.7zm-1.6.1h-.7c-.1 0-.3-.1-.3-.2v-.2c0-.1.2-.3.3-.3h.8c.1 0 .2.1.3.3s-.1.3-.2.3H76zm17.3-1c-.1 0-.2 0-.2-.1s-.1-.1-.1-.2c0-.1 0-.2.1-.2s.1-.1.2-.1h.7c.2 0 .3.2.3.3s-.1.3-.3.3h-.7zm2-.4c0-.1.1-.3.2-.3 0 0 .1 0 .1 0h.7c.2 0 .3.1.3.2 0 .1 0 .1 0 .2 0 .2-.1.3-.3.3h-.8c-.1 0-.2-.2-.2-.3z" fill="#ef3d4f"/><g class="m"><path d="M97 260l1.5-1.7-.5-7c-.1 0-.2 0-.2-.1s-.1-.1-.1-.2 0-.2.1-.2.1-.1.2-.1h.3l-2-43.6-2.7-2.5-19.4 1-2.5 3 2.4 43.6c.1 0 .2 0 .2.1s.1.1.1.2 0 .2-.1.2-.1.1-.2.1h-.3l.3 7 2.7 2.4L97 260zm-1.5 0L77 261l-2-1.8-.6-52.3 18.5-1 2 1.8 2.4 50.3-2 2zm-11-38.6l8.8.8.1 1.6-8.6 1.8-.1-1.2 1.8-.3-.1-1.2-1.8-.1v-1.3zm6 1.8l.2-.1h-3v1l2.7-.5zm-5.7 4l8.7-.5-.1 2.4c-.1.3-.3.6-.7.8s-1 .3-1.3.4l-2 .2h-2c-.5 0-1-.1-1.3-.2s-.6-.4-.7-.7c-.2-.4-.3-1-.3-1.4zm1.3 1.2c0 .2 0 .4.1.5s.2.2.4.3c.1 0 .3.1.4.1l2.2-.1 1.7-.1c.2 0 .4 0 .5-.1.1 0 .3-.1.4-.1.2 0 .3-.2.4-.3v-.5zm-1 6.5l5.8-1.3-5.8.3v-1.2l8.7-.5.1 1.6-4 1 4 .5.1 1.6-8.7.5-.1-1.2 5.5-.4-5.5-.5v-.6zm9 4.3v1.3l-8.7.5v-1.3l8.7-.5zm-1.2 3l1.3-.1.2 3.7H93v-1.2l-7.4.4v-1l7.4-.4v-1.2zm-15.4-11.5c-.3 0-.7 0-1-.2-.1 0-.2-.1-.3-.2l-.3-.3c-.1-.1-.2-.3-.2-.4-.1-.2-.1-.4-.1-.6v-.6c0-.2.1-.3.2-.4l.3-.3c.1-.1.2-.2.3-.2.3-.2.6-.2 1-.3l5-.3a2 2 0 0 1 .5 0c.2 0 .3.1.4.1s.2.1.4.2l.3.3c.1.1.2.3.2.4a2 2 0 0 1 .1.6v.6c-.1.3-.3.6-.5.8-.1.1-.2.2-.3.2-.1.1-.3.1-.4.2-.2 0-.3.1-.5.1zm5-1.6c.1 0 .2 0 .3-.1.1 0 .2-.1.2-.1v-.1-.1c0-.1 0-.2-.1-.2-.1-.1-.1-.1-.2-.1l-5.3.3c-.1 0-.2 0-.3.1-.1 0-.2.1-.2.1s-.1.2-.1.3 0 .2.1.3.1.1.2.1h.3zm-2.2 4.8l.4-.1v-.1l-5 .3-.1-1.2 8.7-.5v1l-5 1.7 5-.3.1 1.2-8.7.5v-1.2l4.5-1.5zm4.4 4.4l.1 3-1.3.1v-1.6l-2.3.1.1 1.2h-1.4l-.1-1.2h-2.4l.1 1.6-1.3.1v-3l8.7-.5zm-4.6 20l.3-3.5h.6l.7 3.5H81v-.7h-.5v.7H80zm.8-2.4l-.1 1.2h.3l-.2-1z"/><path d="M84 257.5c0 .1 0 .3-.1.4a1 1 0 0 1-.1.1h-.1s-.1.1-.2.1-.1 0-.2.1H83c-.1 0-.1 0-.2-.1h-.1-.1a1 1 0 0 1-.1-.4l-.1-2.3c0-.1 0-.1.1-.2 0-.1 0-.1.1-.1.1-.1.2-.2.3-.2h.4l.2.1c.1 0 .1.1.1.1h.1c0 .1 0 .1.1.2v.2zm-.6-2v-.1s0-.1-.1-.1H83s0 .1-.1.1v2.2s0 .1.1.1h.2v-.2zm.6 0v-.3c.1 0 .2-.1.3-.1h.2v-.1h.3l.2 3.5h-.5l-.1-2.7H84zm1.3.3v-.5c0-.1 0-.2.1-.3 0-.1.1-.2.2-.2.1-.1.2-.1.3-.1h.3c.1 0 .2.1.2.2.1.1.1.2.1.3v.3a2 2 0 0 1-.1.6c0 .2-.1.4-.2.6s-.2.4-.2.6l-.2.4.8-.1v.5h-1.4v-.5l.4-.8c.1-.3.1-.2.1-.3l.1-.4c0-.1.1-.2.1-.4a2 2 0 0 0 0-.3v-.3s0-.1-.1-.1h-.2v.6H85zm3.2 1.5c0 .1 0 .3-.1.4 0 .1 0 .1-.1.1l-.1.1s-.1.1-.2.1-.1 0-.2.1h-.2c-.1 0-.1 0-.2-.1l-.2-.2a1 1 0 0 1-.1-.4V255c0-.1 0-.1.1-.2 0-.1 0-.1.1-.1.1-.1.2-.2.3-.2h.4l.2.1c.1 0 .1.1.1.1l.1.1c0 .1.1.1.1.2v.2zm-.6-2v-.1s0-.1-.1-.1h-.2s0 .1-.1.1v.1l.1 2s0 .1.1.1h.2v-.2zm1.2 1v-.4c.1 0 .2 0 .2-.1.1 0 .1-.1.1-.1v-.8s0-.1-.1-.1H89v.6h-.5v-.3a2 2 0 0 1 .1-.4c0-.1.1-.2.2-.3s.2-.1.4-.1c.1 0 .3 0 .4.1s.2.1.2.2.1.2.1.3v.6c0 .1-.1.2-.2.3.1.1.2.2.3.4 0 .2.1.4.1.6v.4c0 .1-.1.2-.1.2v.2c-.1 0-.2.1-.3.1-.3 0-.5-.1-.6-.3 0-.1-.1-.2-.1-.3v-.3h.5v.5s0 .1.1.1h.1s.1 0 .1-.1v-.8c0-.1-.1-.1-.1-.1h-.3zm1-1.3v-.2a1 1 0 0 1 .1-.3c0-.1.1-.2.2-.2.1-.1.2-.1.4-.1s.5.1.6.3c0 .1.1.2.1.3v.2l.1 2.2c0 .1 0 .2-.1.3 0 .1-.1.2-.2.2-.1.1-.2.1-.4.1-.1 0-.3 0-.4-.1s-.2-.1-.2-.2-.1-.2-.1-.3v-.5h.5v.5s0 .1.1.1h.1c.1 0 .1 0 .1-.1v-1 .1h-.1c-.1 0-.2 0-.3-.1-.1 0-.1-.1-.2-.2s-.1-.2-.1-.2v-.2zm.8-.2v-.1l-.1-.1s-.1 0-.1.1v1.2h.1s.1 0 .1-.1v-.1zm5-40.8l-.3-6.6-2.4-2.2-19 1-2.2 2.4.3 6.6 23.5-1.4z"/></g><g fill="#ef3d4f"><path d="M76.6 212.5l.3-3.5h.6l.7 3.5h-.5l-.1-.7H77v.7h-.5zm.8-2.4v1.2h.3l-.2-1zm1.2 2.3l-.2-3.5h1c.1 0 .3.1.3.3.1.2.1.3.2.5a6 6 0 0 1 .1.8v1c0 .2 0 .4-.1.5l-.3.3c-.2.1-.4.1-.6.1zm.5-.5h.2c.1 0 .1-.1.1-.2v-2c0-.1-.1-.1-.1-.1H79zm2 .4l-.4-2.3.1 2.4h-.5L80 209h.6l.4 1.6v.2-.2l.2-1.6h.6v3.5h-.5l-.1-2.2-.2 2.2zm1.3-3.6h.5v3.5h-.5l-.2-3.5zm.8.5v-.5l1.5-.1v.5h-.5l.1 3H84v-3h-.5zm4 2a1 1 0 0 1-.1.4v.1.1s-.1.1-.2.1-.2 0-.2.1h-.2c-.1 0-.1 0-.2-.1l-.2-.2c-.1-.1-.1-.2-.1-.4l-.1-2.3c0-.1 0-.1.1-.2 0-.1 0-.1.1-.1s.1-.1.1-.1c.1 0 .1-.1.2-.1h.4l.2.1v.2c0 .1.1.1.1.2v.2zm-.6-2v-.1s0-.1-.1-.1h-.1s-.1 0-.1.1v.2l.1 2s0 .1.1.1h.2v-.2zm1.3 1v-.2 2h-.5l-.2-3.5h.4l.6 2-.1-2h.5v3.5h-.4l-.2-2zm1.2-1.7h1.2v.5h-.7v1h.5v.6h-.5l.1 1h.7v.5l-1.2.1-.2-3.5zm3.6.5l.2.4h.5l-.3.4.1.5-.5-.2-.4.3.1-.5-.4-.3.5-.1.2-.5zM75 210v.4h.5l-.3.4.1.5-.4-.2-.4.3.1-.5-.4-.3.5-.1.2-.5z"/></g><g class="m"><path d="M95 255l.3.4h.5l-.3.4.1.5-.5-.2-.4.3v-.5l-.4-.3.5-.1.2-.5zm-18 1l.2.4h.5l-.3.4.1.5-.5-.2-.4.3.1-.5-.4-.3.5-.1v-.5zm-4.7-41l23.5-1.4v1l-23.6.3z"/></g><path d="M95 267.3v.1-12681l9.4 12672.8c-.1 0-.1-.1-.2-.2s0-.2 0-.2.1-.1.2-.2.2 0 .2 0l.3.1 20-41.5c0-.1-.1-.2-.1-.3l-1-3.2c0 0 0 0 0-.1l-.8-.4c0 0 0 .1-.1.1l-.1.1c0 0 0 .1-.1.1h-.1c-.2.2-.6.2-.8.1-.3-.2-.5-.5-.4-1 0 0 0-.1 0-.1v-.1l-1-.5c0 0 0 .1-.1.1 0 .1-.1.1-.1.1h-.1c-.2.2-.6.2-.8.1-.3-.2-.5-.5-.4-.8v-.2l-.8-.5c0 0 0 .1 0 .1 0 0 0 .1-.1.1v.1h-.1c-.2.2-.6.2-1 .1-.3-.2-.5-.5-.4-.8v-.3l-1-.4c0 0 0 .1 0 .1 0 0 0 0 0 .1h-.1-.1c-.2.2-.6.2-1 .1-.3-.2-.5-.5-.4-.8 0 0 0 0 0-.1 0-.1 0-.1.1-.2l-1-.4c0 .1-.1.2-.2.3-.2.2-.6.2-1 .1s-.4-.4-.4-.8c0-.1 0-.2.1-.3l-1-.4c0 .1-.1.2-.2.2-.2.2-.6.3-1 .1s-.5-.4-.4-.8c0-.1 0-.1 0-.2 0-.1 0-.1.1-.2l-1-.5c0 0 0 0 0 .1v.1l-.1.1c-.2.2-.6.3-1 .1-.3-.1-.4-.4-.4-.7 0 0 0-.1 0-.1 0 0 0-.1 0-.1v-.1l-1-.4c0 0 0 0 0 .1 0 0-.1.1-.1.1-.2.2-.6.3-1 .2s-.5-.4-.5-.7c0 0 0-.1 0-.1 0 0 0-.1 0-.1v-.1l-1-.4-5.2 1.7-20.6 39.7.3.2c.1 0 .1.1.2.2s0 .2 0 .2c-.1.2-.3.2-.4.1H79l-3.6 7 1.6 5.3.8.4c0 0 0-.1 0-.1h.1c0-.1.1-.1.1-.1.2-.2.6-.2.8-.1.3.2.5.5.4.8 0 0 0 .1 0 .1v.1l.8.4c0-.1.1-.1.1-.2.3-.2.6-.2 1-.1s.4.5.4.8c0 0 0 .1 0 .1v.1c0 0 0 0 0 .1l1 .4c0-.1.1-.1.1-.1l.1-.1c.2-.2.6-.3 1-.1.3.2.5.5.4.8 0 0 0 0 0 .1 0 0 0 0 0 .1l-.1.1.8.4c.1-.1.1-.2.2-.2.2-.2.6-.2 1-.1s.5.5.4.8c0 .1 0 .2-.1.3l.8.4c0-.1.1-.1.1-.2h.1c.2-.2.6-.3 1-.1.3.1.4.4.4.8v.2h-.1l.8.4v-.2h.1c.2-.2.6-.3 1-.1.3.1.4.4.4.7v.3c0 0 0 .1 0 .1l1 .4.1-.1c0 0 .1-.1.1-.1.2-.2.6-.3 1-.1.3.1.4.4.4.7 0 0 0 .1 0 .1 0 .1 0 .1 0 .2v.1l1 .4v-.1c0 0 .1-.1.1-.1.2-.3.6-.3 1-.2.3.1.4.4.4.7zm-14.5-20.5c-.2-.1-.2-.3-.1-.5s.3-.2.5-.1l.6.3c.2.1.2.3.1.4s-.3.2-.5.1l-.6-.3zm22.8 11c.2.1.2.3.1.5s-.3.2-.4.1l-.6-.3c-.2-.1-.2-.3-.1-.5s.3-.2.5-.1l.6.3zm-7-2.8c-.1 0-.2-.2-.2-.3s.1-.3.2-.3.3-.1.4 0l.6.3c.2.1.2.3.1.4s-.3.2-.4.1l-.6-.3zm-2-1c-.2-.1-.2-.3-.1-.5s.3-.2.5-.1l.6.3c.2.1.2.3.1.5s-.3.2-.4.1l-.6-.3zm-2-1c-.1 0-.1-.1-.2-.2 0-.1 0-.2 0-.2 0-.1.1-.1.2-.2.1 0 .2 0 .3 0l.6.3c.1.1.2.3.1.4s-.2.2-.4.2l-.6-.3zm-1.4-.7l-.6-.3c-.1 0-.1-.1-.2-.2s0-.2 0-.2c.1-.2.3-.2.4-.1l.6.3c.1 0 .1.1.2.2 0 .1 0 .2 0 .2 0 .1-.1.1-.2.2-.1 0-.2 0-.3 0zm-2.6-1.3c-.2-.1-.2-.3-.1-.4s.3-.2.4-.1l.6.3c.2.1.2.3.1.5s-.3.2-.5.1l-.6-.3zm-2-1c-.2-.1-.2-.3-.1-.4s.3-.2.4-.1l.6.3c.2.1.2.3.1.4s-.3.2-.4.1l-.6-.3zm-2-1c-.2-.1-.2-.3-.1-.4.1-.2.3-.2.4-.2l.6.3c.1 0 .1.1.2.2s0 .2 0 .2-.1.1-.2.2-.2 0-.2 0l-.6-.3zm-1.4-.7l-.6-.3c-.1-.1-.2-.2-.2-.4l.1-.1c.1-.1.3-.2.4-.1l.7.4c.1.1.1.3.1.4s-.2.2-.3.2h-.1zm15.3 8c-.1 0-.3-.1-.3-.3s0-.3.2-.3c0-.1.1-.1.2-.2s.2 0 .2 0l.6.3c.1 0 .1.1.2.2s0 .2 0 .2c-.1.2-.3.2-.4.1l-.6-.3zm1.8.6c.1-.1.2-.2.3-.2h.1l.6.3c.1.1.2.2.2.4v.1h0c-.1.1-.3.2-.4.1l-.6-.3h-.1c-.1-.1-.1-.3 0-.4z" fill="#354fa1"/><g class="m"><path d="M97.5 265l2-.7 3-6.2c-.2-.1-.2-.3-.1-.5s.3-.2.5-.1v.1l19-42.4-17.2-9-3.5 1-20 39c.2.1.2.3.1.4s-.3.2-.4.1H81l-3.2 6 1 3.5 17.2 9 1.4-.4zm-1.3-.7l-16.4-8.6-.8-2.6 26-45.6 16.4 8.6.8 2.6-26 45.6zm9.8-39l7 5.2-.7 1.4-8.3-2.8.6-1 1.7.6.6-1-1.5-1 .6-1zm4.2 4.6l.2.1v-.1l-.1-.2-2.3-1.6-.4.8 2.6 1zm-7 .6l7.7 4-.5 1c-.2.4-.5.8-.8 1.2-.3.2-.6.4-1 .4a4 4 0 0 1-1.3-.3l-2-1c-.7-.4-1.4-.7-1.8-1a4 4 0 0 1-1-.9c-.2-.3-.3-.6-.3-1 .1-.5.2-1 .5-1.4zm.5 1.7c-.1.2-.2.3-.2.5s.1.3.2.4l.3.3 4.3 2.3c.2 0 .3 0 .5-.1.1-.1.2-.3.3-.4zm-4 5l5.6 2-5.2-2.7.6-1 7.7 4-.7 1.4-4-1 3.2 2.5-.7 1.4-7.7-4 .5-1 5 2.4-4.4-3.2.3-.5zm5.5 8.3l-.6 1-7.7-4 .6-1 7.7 4zm-2.5 2l1.2.6-1.7 3.3-1.2-.6.6-1-6.5-3.4.6-1 6.5 3.4.6-1z"/><path d="M95.4 229.7c-.3-.2-.5-.4-.7-.6-.1-.1-.2-.2-.2-.3-.1-.1-.1-.3-.1-.4v-.5c0-.2.1-.4.2-.5.1-.2.2-.3.3-.5.1-.1.2-.2.4-.3.1-.1.3-.1.4-.1h.4c.3 0 .6.1 1 .3l4.5 2.4c.1.1.3.2.4.3l.3.3c.1.1.1.2.2.3s.1.3.1.4v.5c0 .2-.1.4-.2.6s-.2.3-.3.5c-.1.1-.2.2-.4.3-.1.1-.3.1-.4.1h-.4c-.2 0-.3 0-.5-.1a3 3 0 0 1-.5-.2zm5 1.2a1 1 0 0 0 .3.1h.3s.1 0 .1-.1.1-.1.1-.1v-.3c0-.1-.1-.2-.1-.2-.1-.1-.2-.1-.3-.2l-4.5-2.4c-.1 0-.2-.1-.3-.1h-.3c-.1 0-.2.1-.2.2v.3c0 .1.1.2.1.2.1.1.2.1.3.2zm-4.3 3h.4l-4.3-2.3.5-1 7.7 4-.5 1-5-1 4.4 2.3-.5 1-7.7-4 .5-1 4.6 1zm1.6 6l-1.4 2.6-1.2-.6.8-1.5-2-1-.6 1-1.2-.6.6-1-2-1-.8 1.5-1.2-.6L90 236l7.7 4zm-14 15l2-3 .6.3-1.2 3.3-.4-.2.3-.7-.4-.2-.4.6h-.4zm2-1.7h-.1l-.6 1 .3.2.4-1zm2 3a1 1 0 0 1-.2.3l-.1.1h-.4c-.1 0-.2 0-.2-.1s-.1-.1-.2-.1c0 0-.1-.1-.1-.2v-.4c0-.1 0-.3.1-.4l1-1.8c0-.1.1-.1.1-.2s.1-.1.1-.1l.1-.1h.4c.1 0 .2 0 .2.1s.1.1.2.1l.1.1v.6c0 .1 0 .1-.1.2zm.5-2v-.3h-.2-.1l-1 2h0s0 .1.1.1h.1s.1 0 .1-.1h.1zm.5.3l.2-.3h.3c.1 0 .1 0 .2-.1h.5l-1.6 3h-.5l1.3-2.4-.3-.2zm1 1l.1-.2c.1-.1.1-.2.2-.3s.1-.2.2-.2c.1-.1.2-.1.3-.1s.2 0 .3.1c.1 0 .2.1.3.2s.1.2.1.3v.3c0 .1-.1.2-.1.3-.1.2-.2.3-.3.5s-.3.3-.5.4l-1 .6.7.4-.2.4-1.2-.6.2-.4c.3-.1.5-.3.7-.5.1-.1.2-.1.3-.2l.3-.2.3-.3c.1-.1.1-.2.2-.3s0-.1.1-.1v-.2s0-.1-.1-.1h-.1s-.1 0-.1.1l-.1.1v.4l-.5-.2zm2 3a1 1 0 0 1-.2.3l-.1.1H91c-.1 0-.1 0-.2-.1s-.1-.1-.2-.1l-.1-.1v-.4c0-.1 0-.3.1-.4l1-2 .3-.2h.4c.1 0 .1 0 .2.1.1 0 .1.1.2.1l.1.1c0 .1 0 .1.1.2v.4c0 .1 0 .1-.1.2zm.5-2v-.1H92s-.1 0-.1.1l-.1.1-1 1.8s0 .1-.1.1v.1s0 .1.1.1h.1s.1 0 .1-.1v-.1zm.4 1.6l.2-.4.2.1h.2v-.1l.1-.2.1-.1s0-.1.1-.1v-.1s0-.1-.1-.1H93v.2.3l-.4-.2.2-.3c.1-.1.1-.2.2-.3s.2-.1.3-.1.3 0 .4.1.2.1.3.3c0 .1.1.2.1.3v.4c-.1.2-.2.4-.3.5s-.2.2-.3.2c.1.2.1.3 0 .5 0 .2-.1.4-.2.5H93c0 .1-.1.1-.1.2-.1.1-.1.1-.2.1s-.2.1-.2.1c-.1 0-.2 0-.3-.1-.2-.1-.4-.4-.3-.6 0-.1 0-.2.1-.3 0-.1.1-.2.1-.3l.4.2c0 .1-.1.2-.1.3s0 .1-.1.2v.1s0 .1.1.1h.1s.1 0 .1-.1l.3-.5c0-.1.1-.1.1-.2v-.2h-.1l-.1-.1zm1.6-.5v-.2l.2-.2c.1-.1.2-.1.3-.1s.3 0 .4.1c.1 0 .2.1.3.3.1.1.1.2.1.3v.3c0 .1 0 .1-.1.2l-1 2a1 1 0 0 1-.2.2c-.1.1-.2.1-.3.1s-.3 0-.4-.1-.2-.1-.3-.2c0-.1-.1-.2-.1-.3s0-.2.1-.3c0-.1.1-.1.1-.2l.1-.2.5.2-.2.5s0 .1.1.1h.2a1 1 0 0 0 .2-.2l.3-.6H94c-.2-.1-.3-.3-.3-.5v-.2c0-.1 0-.1.1-.2zm.8.3v-.1s0-.1-.1-.1h-.2l-.5 1s0 .1.1.1h.1s.1 0 .1-.1zm24.8-33.2l3-5.8-1-3-16.6-9-3 1-3 5.8 20.8 11z"/></g><g fill="#354fa1"><path d="M104 213.5l2-3 .6.3-1.2 3.4-.4-.2.3-.7-.4-.2-.4.6-.4-.2zm2-1.7v-.1.1l-.6 1 .3.2.4-1zm-.2 2.6l1.6-3 .4.2c.2.1.3.2.5.3.1.1.1.2.1.4s-.1.4-.1.5l-.4.8c-.1.3-.3.5-.4.8-.1.2-.2.3-.4.4-.1.1-.3.1-.4.1-.2 0-.4-.1-.5-.2zm.7-.2c.1 0 .1.1.2.1s.1 0 .2-.1v-.1h.1l.7-1.8c0-.1-.1-.1-.2-.1zm1.6 1.4l.8-2.2-1 2-.4-.2 1.6-3 .5.3-.5 1.8 1-1.4.5.3-1.6 3h-.4l1-2-1.4 1.8h0zm3-2.4l.4.2-1.6 3-.5-.2 1.6-3zm.5.8l.2-.5 1.3.7v.5l-.4-.2-1.4 2.6h-.4l1.4-2.6-.4-.2zm2.4 3.8c-.1.1-.1.2-.2.3l-.1.1c-.1 0-.1.1-.2.1h-.2v-.1l-.3-.3v-.4c0-.1 0-.3.1-.4l1.3-2s.1-.1.2-.1h.2c.1 0 .2 0 .2.1.1 0 .1.1.2.1 0 0 .1.1.1.2v.2a1 1 0 0 1 0 .2v.2c0 .1 0 .1-.1.2zm.5-2v-.2h-.1s-.1 0-.1.1l-.1.1-1 2v.1s0 .1.1.1h.1s.1 0 .1-.1l.1-.1zm.7 1.4v-.2l-1 1.8-.4-.2 1.6-3 .4.2-.4 2 1-1.8h.4l-1.6 3-.4-.2.4-2zm2-1l1 .5-.2.5-.6-.3-.4.8.4.2-.3.5-.4-.2-.4 1 .6.3-.2.5-1-.5 1.6-3zm2.4 2.5v.5l.4.3-.5.2-.2.5-.3-.4h-.5l.3-.4-.2-.5h.5l.4-.3zm-15.8-8.3v.5l.4.3-.5.2-.2.5-.3-.4h-.5l.3-.4v-.5l.5.2.4-.3z"/></g><g class="m"><path d="M98.3 259.7v.5l.4.3-.5.1-.2.5-.3-.4h-.5l.3-.4-.2-.5.5.2.4-.3zm-15.8-8.3v.5l.4.3-.5.2-.2.5-.3-.4h-.5l.3-.4-.2-.5.5.2.4-.3zm16-37l.5-1 20.3 11.8-20.8-11z"/></g><path d="M90.8 274.5c0 0 0 .1 0 .1l-.1.1-.1.1.5.8h.1l5.3 1 6.4-4.5-.2-.3c-.1-.2-.1-.4.1-.5.1-.1.2-.1.2-.1s.2.1.2.1l.2.3L140 244v-.3-.3l.5-3-.5-.7v.1h-.3c-.3 0-.6-.1-.7-.3-.2-.3-.2-.7 0-1 0 0 .1-.1.1-.1 0 0 0-.1.1-.1l-.6-.8c-.1 0-.1.1-.2.1h-.1c-.3 0-.6-.1-.8-.3-.2-.3-.2-.7 0-1l.2-.2-.6-.8h-.1-.3c-.3.1-.6-.1-.8-.3-.2-.3-.2-.7 0-1v-.1h0v-.1l-.6-.8h-.1-.2c-.3.1-.6-.1-.8-.3-.2-.3-.2-.6 0-1v-.1l.2-.2-.6-.8c-.1.1-.2.1-.3.1-.3.1-.6-.1-.8-.3s-.2-.6 0-1a1 1 0 0 1 .3.1l-.6-.8c-.1.1-.2.1-.3.1-.3.1-.6 0-.8-.3s-.2-.6 0-1c0 0 .1-.1.1-.1s.1-.1.1-.1l-.6-.8h-.1-.1-.1c-.3.1-.7 0-1-.3-.2-.3-.2-.6 0-1h.1c0 0 .1-.1.1-.1h0l-.6-.8h-.1c-.3.1-.7 0-1-.3-.2-.2-.2-.6-.1-.8 0 0 0-.1.1-.1v-.2l-.5-.7h-.1l-5.3-1-36 26.2c.1.1.1.4-.1.5s-.4.1-.5-.1l-.2-.3-6.4 4.5-1 5.5.5.8h.1.1c.1 0 .1 0 .2-.1.3 0 .6.1.8.3.2.3.2.7 0 1h-.1l.5.8c.1 0 .1-.1.2-.1h.1c.3-.1.6.1.8.3.2.3.2.6 0 1 0 0-.1.1-.1.1H82l.6.8.1-.1c0 0 .1 0 .2-.1.3-.1.6.1.8.3.2.3.2.6 0 1h0l-.1.1.6.8c.1-.1.2-.1.3-.1.3-.1.6.1.8.3.1.2.2.4.1.6s-.2.4-.3.5l.6.8c.1 0 .1-.1.2-.1h.1c.3-.1.7.1.8.3.2.3.2.6 0 1 0 0 0 .1-.1.1h0c0 0-.1.1-.1.1l.5.8h.3c.3-.1.7 0 .8.3.2.3.2.6 0 .8v.1.1l-.1.1.5.8.1-.1c0 0 .1 0 .1-.1.3-.1.7 0 1 .3.2.3.2.6 0 .8 0 0 0 .1 0 .1 0 .1-.1.1-.1.1l-.1.1.6.8v-.1c.3-.1.7 0 1 .3.2.2.2.6.1.8zm-3.5-25c-.1-.1-.1-.2-.1-.2s.1-.2.1-.2c.1-.1.2-.1.2-.1s.2.1.2.1l.4.6c.1.1.1.4-.1.5s-.4.1-.5-.1l-.4-.6zm15 20.5c.1.1.1.4-.1.5s-.4.1-.5-.1l-.4-.6c-.1-.1-.1-.2-.1-.2s.1-.2.1-.2c.1-.1.2-.1.2-.1s.2.1.2.1l.4.6zm-4.8-5.7c-.1-.2-.1-.4.1-.5.1-.1.2-.1.2-.1s.2.1.2.1l.4.6c.1.2.1.4-.1.5-.1 0-.2.1-.2.1s-.2-.1-.2-.1l-.4-.6zm-1.3-2c-.1-.1-.1-.2-.1-.2s.1-.2.1-.2.2-.1.2-.1.2.1.2.1l.4.5c.1.1.1.4-.1.5s-.4.1-.5-.1l-.4-.6zm-1.3-1.8c0-.1 0-.2 0-.3 0-.1.1-.1.1-.2.1 0 .1-.1.2-.1.1 0 .2.1.2.1l.4.6c.1.1.1.2.1.4s-.2.2-.3.2-.3-.1-.3-.2l-.4-.5zm-1-1.3l-.4-.6c-.1-.2-.1-.4.1-.5.1-.1.3-.1.4.1l.4.6c0 .1 0 .2 0 .3 0 .1-.1.2-.1.2-.1 0-.1.1-.2.1-.1 0-.2-.1-.2-.1zm-1.7-2.4c0-.1-.1-.2-.1-.2s.1-.2.1-.2c.1-.1.2-.1.2-.1s.2.1.2.1l.4.6c.1.2.1.4-.1.5-.1 0-.2.1-.2.1s-.2-.1-.2-.1l-.4-.6zM91 255c-.1-.1-.1-.2-.1-.2s.1-.2.1-.2.2-.1.2-.1.2.1.2.1l.4.5c.1.1.1.2.1.2s-.1.2-.1.2-.2.1-.2.1-.2-.1-.2-.1l-.4-.6zm-1.3-2c0-.1-.1-.2-.1-.2s.1-.2.1-.2c.1-.1.3-.1.4.1l.4.6c.1.1.1.2.1.2s-.1.2-.1.2-.2.1-.2.1-.2-.1-.2-.1l-.4-.6zm-1-1.3l-.4-.6c-.1-.1-.1-.3 0-.4h.1c.1-.1.3 0 .4.1l.4.6c0 0 0 .1 0 .1 0 .1 0 .3-.1.4-.1.1-.3.1-.4 0H89zm10 14.2c-.1-.1-.1-.2-.1-.2s.1-.2.1-.2.2-.1.2-.1.2.1.2.1l.4.6c.1.1.1.3-.1.4-.1.1-.2.1-.2.1s-.2-.1-.2-.1l-.4-.6zm1.4 1.4c.1-.1.3-.1.4 0 0 0 .1 0 .1.1l.4.5c.1.1.1.3 0 .4v.1h-.1c-.1.1-.3 0-.4-.1l-.4-.6c0 0 0-.1 0-.1 0-.1 0-.3.1-.4z" fill="#fee337"/><g class="m"><path d="M93.8 273.7l2.2.4 5.6-4h-.2c0-.1-.1-.2-.1-.2l.1-.2c.1-.1.2-.1.2-.1l.2.1v.2l35.6-25.3.6-3.6-11-16-3.6-.6L88 249.8c.1.2.1.4-.1.5-.1.1-.2.1-.2.1l-.2-.1-.2-.2-5.6 4-.6 3.6 11 16 1.4.3zm-.8-1.2l-10.6-15.3.5-2.7 43.7-28.7 10.2 17.4-.1.6-41 29.2-2.7-.5zm26.6-30.5l4 8-1.3 1-6-6.4 1-.7 1.2 1.3 1-.7-.8-1.6 1-.7zm1.6 6l.2.2v-.1l-1.4-2.7-.7.5 2 2zm-6.4-2.7l5 7.2-.8.6c-.4.3-.8.5-1.3.7-.3.1-.7 0-1-.1-.4-.2-.7-.6-1-1-.4-.4-.8-1-1.3-1.7s-1-1.3-1-1.8c-.2-.4-.4-.8-.5-1.3-.1-.4 0-.7.2-1 .3-.4.6-.7 1-1zm-.3 1.8c-.2.1-.3.2-.4.4s-.1.3 0 .5c0 .1.1.2.1.4.1.2.2.3.3.5l2 2.8.6.7c.1.1.3.2.5.1s.3-.1.5-.2zm-6 2.7l4 4.3-3.3-4.8 1-.7 5 7.2-1.3 1-3-2.7 1.6 3.7-1.3 1-5-7 1-.7 3.4 4.8-2.6-5.3.4-.3zm1 10l-1 .8-5-7 1-.7 5 7zm-3 .6l.8 1-3 2.2-.7-1 1-.7-4.2-6 1-.7 4.2 6 1-.7z"/><path d="M108 241a3 3 0 0 1-.4-1v-.4c0-.1 0-.3.1-.4.1-.2.1-.3.2-.4l.4-.4c.1-.1.3-.2.5-.3.2 0 .3-.1.5-.1.1 0 .3 0 .4.1l.4.2c.3.2.5.4.7.6l3 4.2c.1.1.2.3.2.5.1.1.1.3.1.4v.4c0 .1 0 .3-.1.4 0 .2-.1.3-.2.4-.1.2-.3.3-.4.4-.2.1-.3.2-.5.3-.2 0-.3.1-.5.1a2 2 0 0 1-.4-.1c-.1 0-.3-.1-.4-.2s-.2-.1-.3-.2-.2-.2-.3-.4zm4 3.5c.1.1.1.2.2.2.1.1.2.1.2.1h.1s.1 0 .1-.1c.1-.1.1-.1.1-.2v-.2a1 1 0 0 0-.1-.3l-3-4.2a1 1 0 0 0-.2-.2c-.1-.1-.2-.1-.2-.1s-.2 0-.3.1l-.2.2v.3c0 .1.1.2.1.3zm-5 .8l.3.3h.1l-2.8-4 1-.7 5 7-1 .7-4-3.3 2.8 4-1 .7-5-7.2 1-.7 3.6 3zm-1.4 6l-2.4 1.7-.7-1 1.3-1-1.3-2-1 .7-.8-1 1-.7-1.4-2-1.4 1-.7-1 2.4-1.7 5 7.2zM86.2 258l3.2-1.6.3.5-2.6 2.5-.3-.4.5-.5-.3-.4-.6.3-.3-.4zm2.4-.7v-.1h-.1l-1 .5.2.3.8-.8zm.4 3.7a1 1 0 0 1-.3.1h-.4c-.1 0-.1 0-.2-.1s-.1-.1-.1-.2-.1-.1-.1-.2v-.3c0-.1 0-.1.1-.1l.3-.3 1.7-1.2c.1 0 .1-.1.2-.1l.2-.1h.3c.1 0 .1.1.2.1s.1.1.2.2.1.1.1.2v.4c0 .1 0 .1-.1.2 0 .1-.1.1-.1.1v.1zm1.4-1.6l.1-.1v-.2s-.1 0-.1-.1h-.2l-1.8 1.4v.1s0 .1.1.1h.1l.1-.1zm.3.5l.3-.2c.1.1.1.1.2.1h.4l.2.3-3 2-.3-.4 2.2-1.6-.2-.3zm.4 1.3l.5-.3c.1 0 .2-.1.3-.1s.2 0 .3.1.2.1.3.2.1.2.1.3v.3c0 .1-.1.2-.2.3a2 2 0 0 1-.3.2c-.2.1-.3.2-.5.3s-.4.1-.6.2c-.2 0-.4.1-.6.1l-.5.1.5.7-.4.3-.8-1 .4-.3c.3 0 .6 0 .8-.1l.7-.2h.3c.1 0 .2-.1.3-.2h0s0-.1.1-.1v-.1l-.1-.1h-.1s-.1 0-.1.1l-.1.1-.2.1-.3-.4zm.4 3.6c-.1.1-.2.1-.4.2h-.3c-.1 0-.1 0-.2-.1l-.2-.2c-.1-.1-.1-.1-.1-.2v-.4c0-.1 0-.1.1-.2l.3-.3 2.2-1.4h.2c.1 0 .1.1.2.1s.1.1.2.2.1.1.1.2v.4c0 .1 0 .1-.1.1 0 .1-.1.1-.1.2l-.2.1zm1.4-1.6v-.1h.1 0-.1.1 0l-1.8 1.4v.1l.1.1h.2zm-.3 1.6l.3-.2c0 .1.1.1.2.2h.2c.1 0 .1 0 .2-.1l.4-.2v-.1s0-.1.1-.1v-.1h-.2c-.1 0-.1 0-.2.1l-.2.2-.3-.4h.3c.1-.1.2-.1.3-.1h.3c.1 0 .2.1.3.2s.1.2.1.4c0 .1 0 .2-.1.3 0 .1-.1.2-.2.2H94c-.2.1-.3.2-.5.3H93c0 .2-.1.3-.2.4l-.4.4H92c-.1 0-.2 0-.2-.1-.1 0-.2-.1-.2-.2-.1-.1-.1-.2-.1-.4 0-.1 0-.2.1-.3s.1-.2.2-.3l.3-.2.3.4c-.1.1-.2.1-.2.2-.1 0-.1.1-.1.1s0 .1-.1.1v.1h.2l.3-.1.3-.2c.1 0 .1-.1.2-.2 0 0 .1-.1 0-.2v-.1s0-.1-.1-.1zm1.6.3h.2c.1 0 .2-.1.3-.1h.3c.1.1.2.1.3.3s.1.2.1.4c0 .1 0 .2-.1.3a1 1 0 0 1-.2.2s-.1.1-.2.1l-1.8 1.3c-.1.1-.2.1-.3.1h-.3c-.1-.1-.2-.1-.3-.2s-.1-.2-.1-.4c0-.1 0-.2.1-.3 0-.1.1-.2.2-.2l.4-.2.3.4-.4.3s0 .1-.1.1v.1c0 .1.1.1.1.1a1 1 0 0 0 .3-.1l.5-.4-.2-.2c-.1-.1-.1-.2-.1-.3s0-.2.1-.3l.3-.3zm.6.6l.1-.1v-.1l-.1-.1h-.1l-1 .7v.1l.1.1h.1zm37-18l5.4-3.8.6-3.2-11-15.6-3.2-.5-5.3 3.8 13.4 19.4z"/></g><g fill="#fdd423"><path d="M123 230.6l3.2-1.6.3.5-2.5 2.5-.3-.4.5-.5-.3-.4-.6.3-.3-.4zm2.4-.7l-1 .5.2.3.8-.8zM124 232l2.8-2v.3c.1.1.2.3.3.5 0 .1 0 .3-.1.4-.1.2-.2.3-.4.4-.2.2-.4.3-.7.5s-.5.3-.7.5c-.2.1-.3.2-.5.2-.1 0-.3 0-.4-.1-.2-.1-.3-.3-.4-.4zm.7.1c0 .1.1.1.1.1h.3l.2-.1 1.4-1c0-.1.1-.1.1-.2s-.1-.1-.1-.2zm.8 2l1.7-1.7-2 1.4-.3-.4 2.8-2 .4.5-1 1.2 1.5-.7.4.5-3 2-.3-.4 1.8-1.3-2 1-.1-.2zm3.7-.8l.3.4-3 2-.3-.4 3-2zm0 1l.4-.3.8 1.2-.4.3-.3-.4-2.4 1.7-.3-.4 2.4-1.7-.3-.4zm.4 4.5c-.1.1-.2.1-.4.1h-.3c-.1 0-.1-.1-.2-.1s-.1-.1-.2-.2-.1-.1-.1-.2v-.4a1 1 0 0 1 .3-.4l2.2-1.4h.2c.1 0 .1 0 .2.1.1 0 .1.1.2.2a1 1 0 0 1 .1.2v.4s0 .1-.1.1c0 .1-.1.1-.1.2l-.2.1zm1.4-1.6s.1 0 .1-.1v-.2h-.3l-1.8 1.4v.1l.1.1h.2zm0 1.6h.1l-1.6 1-.3-.4 3-2 .3.4-1.3 1.6 1.6-1.2.3.4-3 2-.3-.4 1.2-1.5zm2 0l.7 1-.4.3-.4-.5-.7.5.3.4-.4.3-.3-.4-.8.6.4.5-.4.3-.7-1 3-2zm1.4 3.5l-.2.5.2.4-.5-.1-.3.4v-.5h-.4.4v-.5l.4.4.5-.1zm-10.2-14.7l-.2.4.2.4h-.5l-.4.4-.1-.5-.4-.2.4-.2v-.5l.3.4.5-.1z"/></g><g class="m"><path d="M97 269.2l-.2.4.2.4h-.5l-.4.4v-.5l-.4-.2.5-.2v-.5l.4.4h.5zm-10.2-14.7l-.2.5.2.4-.5-.1-.4.4-.1-.5-.4-.2.5-.2v-.5l.3.4.5-.1zm31.2-25.7l1-.6 12.6 20L118 229z"/></g></g></g></svg>