<svg id="Layer_1" data-name="Layer 1" xmlns="http://www.w3.org/2000/svg" viewBox="0 0 456.71 416.05"><defs><style>.cls-1{fill:#354ea2;}.cls-11,.cls-18,.cls-2,.cls-28{fill:#fff;}.cls-10,.cls-27,.cls-3{fill:#f9d834;}.cls-4{fill:#f26958;}.cls-5,.cls-6,.cls-8,.cls-9{font-size:21.61px;}.cls-12,.cls-13,.cls-14,.cls-16,.cls-20,.cls-21,.cls-22,.cls-24,.cls-26,.cls-5,.cls-6,.cls-8,.cls-9{fill:#7d7a75;font-family:Quicksand-Bold, Quicksand;font-weight:700;}.cls-5,.cls-7{letter-spacing:-0.02em;}.cls-6{letter-spacing:-0.05em;}.cls-8{letter-spacing:-0.05em;}.cls-9{letter-spacing:-0.03em;}.cls-10,.cls-11{font-size:97.09px;}.cls-10,.cls-11,.cls-17,.cls-18,.cls-27,.cls-28{font-family:TrashHand;}.cls-12,.cls-13,.cls-14,.cls-16{font-size:21.61px;}.cls-12{letter-spacing:-0.02em;}.cls-13,.cls-15{letter-spacing:-0.03em;}.cls-14{letter-spacing:-0.05em;}.cls-16{letter-spacing:-0.06em;}.cls-17,.cls-18{font-size:97.09px;}.cls-17{fill:#5ac7d3;}.cls-19{fill:#cc384a;}.cls-20,.cls-21,.cls-22,.cls-24,.cls-26{font-size:23.16px;}.cls-20,.cls-23{letter-spacing:-0.03em;}.cls-21,.cls-25{letter-spacing:-0.02em;}.cls-22{letter-spacing:-0.04em;}.cls-24{letter-spacing:-0.05em;}.cls-26{letter-spacing:-0.06em;}.cls-27,.cls-28{font-size:104.04px;}</style></defs><title>Bingo</title><g id="Bingo_Cards" data-name="Bingo Cards"><path class="cls-1" d="M582.27,493.58,374.66,436.75a8.52,8.52,0,0,1-6-10.47l83.88-306.43a8.53,8.53,0,0,1,10.47-6l207.61,56.83a8.52,8.52,0,0,1,6,10.46L592.74,487.61A8.53,8.53,0,0,1,582.27,493.58Z" transform="translate(-220.21 -78.88)"/><rect class="cls-2" x="428.76" y="223.26" width="38.58" height="38.58" rx="3.8" transform="translate(-124.4 531.78) rotate(-74.69)"/><rect class="cls-2" x="470.26" y="234.62" width="38.58" height="38.58" rx="3.8" transform="translate(-104.81 580.17) rotate(-74.69)"/><rect class="cls-2" x="511.76" y="245.98" width="38.58" height="38.58" rx="3.8" transform="translate(-85.22 628.56) rotate(-74.69)"/><rect class="cls-2" x="553.27" y="257.34" width="38.58" height="38.58" rx="3.8" transform="translate(-65.64 676.96) rotate(-74.69)"/><rect class="cls-2" x="594.77" y="268.7" width="38.58" height="38.58" rx="3.8" transform="translate(-46.05 725.35) rotate(-74.69)"/><rect class="cls-2" x="417.5" y="264.38" width="38.58" height="38.58" rx="3.8" transform="translate(-172.35 551.19) rotate(-74.69)"/><rect class="cls-2" x="459" y="275.74" width="38.58" height="38.58" rx="3.8" transform="translate(-152.76 599.58) rotate(-74.69)"/><rect class="cls-2" x="500.51" y="287.11" width="38.58" height="38.58" rx="3.8" transform="translate(-133.17 647.97) rotate(-74.69)"/><rect class="cls-2" x="542.01" y="298.47" width="38.58" height="38.58" rx="3.8" transform="translate(-113.58 696.37) rotate(-74.69)"/><rect class="cls-2" x="583.51" y="309.83" width="38.58" height="38.58" rx="3.8" transform="translate(-94 744.76) rotate(-74.69)"/><rect class="cls-2" x="406.25" y="305.51" width="38.58" height="38.58" rx="3.8" transform="translate(-220.3 570.6) rotate(-74.69)"/><rect class="cls-2" x="447.75" y="316.87" width="38.58" height="38.58" rx="3.8" transform="translate(-200.71 618.99) rotate(-74.69)"/><rect class="cls-3" x="489.25" y="328.23" width="38.58" height="38.58" rx="3.8" transform="translate(-181.12 667.38) rotate(-74.69)"/><rect class="cls-2" x="530.75" y="339.59" width="38.58" height="38.58" rx="3.8" transform="translate(-161.53 715.77) rotate(-74.69)"/><rect class="cls-2" x="572.26" y="350.95" width="38.58" height="38.58" rx="3.8" transform="translate(-141.94 764.16) rotate(-74.69)"/><rect class="cls-2" x="394.99" y="346.63" width="38.58" height="38.58" rx="3.8" transform="translate(-268.25 590.01) rotate(-74.69)"/><rect class="cls-2" x="436.49" y="357.99" width="38.58" height="38.58" rx="3.8" transform="translate(-248.66 638.4) rotate(-74.69)"/><rect class="cls-2" x="477.99" y="369.35" width="38.58" height="38.58" rx="3.8" transform="translate(-229.07 686.79) rotate(-74.69)"/><rect class="cls-2" x="519.5" y="380.71" width="38.58" height="38.58" rx="3.8" transform="translate(-209.48 735.18) rotate(-74.69)"/><rect class="cls-2" x="561" y="392.07" width="38.58" height="38.58" rx="3.8" transform="translate(-189.89 783.57) rotate(-74.69)"/><rect class="cls-2" x="383.73" y="387.75" width="38.58" height="38.58" rx="3.8" transform="translate(-316.19 609.42) rotate(-74.69)"/><rect class="cls-2" x="425.23" y="399.11" width="38.58" height="38.58" rx="3.8" transform="matrix(0.26, -0.96, 0.96, 0.26, -296.61, 657.81)"/><rect class="cls-2" x="466.74" y="410.47" width="38.58" height="38.58" rx="3.8" transform="matrix(0.26, -0.96, 0.96, 0.26, -277.02, 706.2)"/><rect class="cls-2" x="508.24" y="421.83" width="38.58" height="38.58" rx="3.8" transform="translate(-257.43 754.59) rotate(-74.69)"/><rect class="cls-2" x="549.74" y="433.2" width="38.58" height="38.58" rx="3.8" transform="translate(-237.84 802.98) rotate(-74.69)"/><path class="cls-4" d="M520.83,348a1,1,0,0,0-.6-.86l-6.58-2.87-1.36-7.05a1,1,0,0,0-.72-.77,1,1,0,0,0-1,.3l-4.76,5.37-7.12-.88a1,1,0,0,0-1,.44,1,1,0,0,0,0,1.05l3.63,6.19-3,6.5a1,1,0,0,0,.13,1,1,1,0,0,0,.51.34,1.11,1.11,0,0,0,.48,0l7-1.55,5.24,4.9a1,1,0,0,0,1.68-.63l.69-7.14,6.28-3.48A1,1,0,0,0,520.83,348Z" transform="translate(-220.21 -78.88)"/><text class="cls-5" transform="matrix(0.96, 0.26, -0.26, 0.96, 216.75, 168.86)">10</text><text class="cls-5" transform="matrix(0.96, 0.26, -0.26, 0.96, 257.21, 179.93)">22</text><text class="cls-5" transform="matrix(0.96, 0.26, -0.26, 0.96, 303.87, 192.7)">7</text><text class="cls-5" transform="matrix(0.96, 0.26, -0.26, 0.96, 342.26, 203.21)">13</text><text class="cls-5" transform="matrix(0.96, 0.26, -0.26, 0.96, 383.21, 214.42)">12</text><text class="cls-5" transform="matrix(0.96, 0.26, -0.26, 0.96, 209.28, 212.12)">8</text><text class="cls-6" transform="matrix(0.96, 0.26, -0.26, 0.96, 245.76, 222.11)">3<tspan class="cls-7" x="12.1" y="0">7</tspan></text><text class="cls-5" transform="matrix(0.96, 0.26, -0.26, 0.96, 288.3, 233.75)">14</text><text class="cls-5" transform="matrix(0.96, 0.26, -0.26, 0.96, 333.62, 246.16)">9</text><text class="cls-5" transform="matrix(0.96, 0.26, -0.26, 0.96, 374.48, 257.34)">8</text><text class="cls-5" transform="matrix(0.96, 0.26, -0.26, 0.96, 191.6, 251.37)">43</text><text class="cls-5" transform="matrix(0.96, 0.26, -0.26, 0.96, 236.69, 263.71)">18</text><text class="cls-8" transform="matrix(0.96, 0.26, -0.26, 0.96, 316.59, 285.59)">2<tspan class="cls-7" x="11.56" y="0">4</tspan></text><text class="cls-9" transform="matrix(0.96, 0.26, -0.26, 0.96, 360.23, 297.53)">31</text><text class="cls-9" transform="matrix(0.96, 0.26, -0.26, 0.96, 180.91, 291.32)">36</text><text class="cls-5" transform="matrix(0.96, 0.26, -0.26, 0.96, 226.19, 303.71)">21</text><text class="cls-5" transform="matrix(0.96, 0.26, -0.26, 0.96, 270.15, 315.75)">2</text><text class="cls-5" transform="matrix(0.96, 0.26, -0.26, 0.96, 308.63, 326.28)">15</text><text class="cls-5" transform="matrix(0.96, 0.26, -0.26, 0.96, 348.98, 337.33)">19</text><text class="cls-5" transform="matrix(0.96, 0.26, -0.26, 0.96, 170.02, 332.43)">28</text><text class="cls-6" transform="matrix(0.96, 0.26, -0.26, 0.96, 212.38, 344.03)">3<tspan class="cls-7" x="12.1" y="0">7</tspan></text><text class="cls-5" transform="matrix(0.96, 0.26, -0.26, 0.96, 252.88, 355.11)">25</text><text class="cls-5" transform="matrix(0.96, 0.26, -0.26, 0.96, 292.88, 366.06)">40</text><text class="cls-5" transform="matrix(0.96, 0.26, -0.26, 0.96, 340.75, 379.17)">4</text><text class="cls-10" transform="matrix(0.96, 0.26, -0.26, 0.96, 227.15, 118.22)">BINGO!</text><text class="cls-11" transform="matrix(0.96, 0.26, -0.26, 0.96, 225.66, 114.77)">BINGO!</text><path class="cls-3" d="M526.19,434.74,319.44,494.59a8.53,8.53,0,0,1-10.56-5.82L220.55,183.59A8.51,8.51,0,0,1,226.36,173l206.76-59.85A8.51,8.51,0,0,1,443.67,119L532,424.19A8.51,8.51,0,0,1,526.19,434.74Z" transform="translate(-220.21 -78.88)"/><rect class="cls-2" x="261.42" y="271.34" width="38.58" height="38.58" rx="3.8" transform="translate(-289.95 10.62) rotate(-16.14)"/><rect class="cls-2" x="302.75" y="259.38" width="38.58" height="38.58" rx="3.8" transform="translate(-284.99 21.65) rotate(-16.14)"/><rect class="cls-2" x="344.09" y="247.41" width="38.58" height="38.58" rx="3.8" transform="translate(-280.03 32.67) rotate(-16.14)"/><rect class="cls-2" x="385.42" y="235.45" width="38.58" height="38.58" rx="3.8" transform="translate(-275.08 43.69) rotate(-16.14)"/><rect class="cls-2" x="426.75" y="223.49" width="38.58" height="38.58" rx="3.8" transform="translate(-270.12 54.71) rotate(-16.14)"/><rect class="cls-2" x="273.28" y="312.29" width="38.58" height="38.58" rx="3.8" transform="translate(-300.87 15.54) rotate(-16.14)"/><rect class="cls-2" x="314.61" y="300.33" width="38.58" height="38.58" rx="3.8" transform="translate(-295.91 26.56) rotate(-16.14)"/><rect class="cls-2" x="355.94" y="288.37" width="38.58" height="38.58" rx="3.8" transform="translate(-290.95 37.58) rotate(-16.14)"/><rect class="cls-2" x="397.27" y="276.4" width="38.58" height="38.58" rx="3.8" transform="translate(-286 48.59) rotate(-16.14)"/><rect class="cls-2" x="438.61" y="264.44" width="38.58" height="38.58" rx="3.8" transform="translate(-281.04 59.62) rotate(-16.14)"/><rect class="cls-2" x="285.13" y="353.25" width="38.58" height="38.58" rx="3.8" transform="translate(-311.79 20.45) rotate(-16.14)"/><rect class="cls-2" x="326.46" y="341.29" width="38.58" height="38.58" rx="3.8" transform="translate(-306.83 31.47) rotate(-16.14)"/><rect class="cls-3" x="367.8" y="329.32" width="38.58" height="38.58" rx="3.8" transform="translate(-301.87 42.49) rotate(-16.14)"/><rect class="cls-2" x="409.13" y="317.36" width="38.58" height="38.58" rx="3.8" transform="matrix(0.96, -0.28, 0.28, 0.96, -296.92, 53.51)"/><rect class="cls-2" x="450.46" y="305.39" width="38.58" height="38.58" rx="3.8" transform="translate(-291.96 64.53) rotate(-16.14)"/><rect class="cls-2" x="296.98" y="394.2" width="38.58" height="38.58" rx="3.8" transform="translate(-322.7 25.36) rotate(-16.14)"/><rect class="cls-2" x="338.32" y="382.24" width="38.58" height="38.58" rx="3.8" transform="translate(-317.75 36.38) rotate(-16.14)"/><rect class="cls-2" x="379.65" y="370.28" width="38.58" height="38.58" rx="3.8" transform="translate(-312.79 47.4) rotate(-16.14)"/><rect class="cls-2" x="420.98" y="358.31" width="38.58" height="38.58" rx="3.8" transform="translate(-307.84 58.42) rotate(-16.14)"/><rect class="cls-2" x="462.32" y="346.35" width="38.58" height="38.58" rx="3.8" transform="translate(-302.88 69.44) rotate(-16.14)"/><rect class="cls-2" x="308.84" y="435.16" width="38.58" height="38.58" rx="3.8" transform="matrix(0.96, -0.28, 0.28, 0.96, -333.62, 30.27)"/><rect class="cls-2" x="350.17" y="423.19" width="38.58" height="38.58" rx="3.8" transform="translate(-328.67 41.29) rotate(-16.14)"/><rect class="cls-2" x="391.5" y="411.23" width="38.58" height="38.58" rx="3.8" transform="translate(-323.71 52.31) rotate(-16.14)"/><rect class="cls-2" x="432.84" y="399.27" width="38.58" height="38.58" rx="3.8" transform="matrix(0.96, -0.28, 0.28, 0.96, -318.76, 63.33)"/><rect class="cls-2" x="474.17" y="387.3" width="38.58" height="38.58" rx="3.8" transform="translate(-313.8 74.35) rotate(-16.14)"/><path class="cls-4" d="M397.82,342.61a1,1,0,0,0-1-.43l-7.1,1-4.84-5.3a1,1,0,0,0-1-.28,1,1,0,0,0-.7.78l-1.26,7.07-6.54,3a1,1,0,0,0-.06,1.79l6.33,3.38.8,7.13a1,1,0,0,0,.66.83,1,1,0,0,0,.61,0,1.18,1.18,0,0,0,.42-.24l5.17-5,7,1.44a1,1,0,0,0,1-.37,1,1,0,0,0,.11-1l-3.14-6.46,3.55-6.24A1,1,0,0,0,397.82,342.61Z" transform="translate(-220.21 -78.88)"/><text class="cls-12" transform="matrix(0.96, -0.28, 0.28, 0.96, 53.65, 221.94)">10</text><text class="cls-13" transform="matrix(0.96, -0.28, 0.28, 0.96, 93.95, 210.28)">22</text><text class="cls-13" transform="matrix(0.96, -0.28, 0.28, 0.96, 140.41, 196.83)">7</text><text class="cls-13" transform="matrix(0.96, -0.28, 0.28, 0.96, 178.65, 185.76)">13</text><text class="cls-13" transform="matrix(0.96, -0.28, 0.28, 0.96, 219.43, 173.96)">12</text><text class="cls-13" transform="matrix(0.96, -0.28, 0.28, 0.96, 69.85, 262.75)">8</text><text class="cls-14" transform="matrix(0.96, -0.28, 0.28, 0.96, 106.18, 252.23)">3<tspan class="cls-15" x="12.1" y="0">7</tspan></text><text class="cls-12" transform="matrix(0.96, -0.28, 0.28, 0.96, 148.55, 239.97)">14</text><text class="cls-12" transform="matrix(0.96, -0.28, 0.28, 0.96, 193.69, 226.9)">9</text><text class="cls-13" transform="matrix(0.96, -0.28, 0.28, 0.96, 234.38, 215.13)">8</text><text class="cls-13" transform="matrix(0.96, -0.28, 0.28, 0.96, 75.25, 305.46)">43</text><text class="cls-12" transform="matrix(0.96, -0.28, 0.28, 0.96, 120.15, 292.46)">18</text><text class="cls-16" transform="matrix(0.96, -0.28, 0.28, 0.96, 199.73, 269.43)">2<tspan class="cls-15" x="11.56" y="0">4</tspan></text><text class="cls-12" transform="matrix(0.96, -0.28, 0.28, 0.96, 243.19, 256.85)">31</text><text class="cls-12" transform="matrix(0.96, -0.28, 0.28, 0.96, 86.98, 345.12)">36</text><text class="cls-13" transform="matrix(0.96, -0.28, 0.28, 0.96, 132.07, 332.07)">21</text><text class="cls-13" transform="matrix(0.96, -0.28, 0.28, 0.96, 175.85, 319.39)">2</text><text class="cls-13" transform="matrix(0.96, -0.28, 0.28, 0.96, 214.17, 308.3)">15</text><text class="cls-12" transform="matrix(0.96, -0.28, 0.28, 0.96, 254.36, 296.67)">19</text><text class="cls-13" transform="matrix(0.96, -0.28, 0.28, 0.96, 99.13, 385.87)">28</text><text class="cls-14" transform="matrix(0.96, -0.28, 0.28, 0.96, 141.33, 373.66)">3<tspan class="cls-15" x="12.1" y="0">7</tspan></text><text class="cls-13" transform="matrix(0.96, -0.28, 0.28, 0.96, 181.66, 361.99)">25</text><text class="cls-13" transform="matrix(0.96, -0.28, 0.28, 0.96, 221.49, 350.46)">40</text><text class="cls-13" transform="matrix(0.96, -0.28, 0.28, 0.96, 269.17, 336.65)">4</text><text class="cls-17" transform="matrix(0.96, -0.28, 0.28, 0.96, 36.1, 173.32)">BINGO!</text><text class="cls-18" transform="matrix(0.96, -0.28, 0.28, 0.96, 33.03, 171.16)">BINGO!</text><rect class="cls-19" x="322.88" y="81.39" width="248.91" height="358.71" rx="6.59" transform="translate(-214.46 -88.5) rotate(1.24)"/><rect class="cls-2" x="333.18" y="195.92" width="41.34" height="41.34" rx="4.07" transform="translate(-90.55 486.79) rotate(-88.76)"/><rect class="cls-2" x="379.28" y="196.92" width="41.34" height="41.34" rx="4.07" transform="translate(-46.45 533.85) rotate(-88.76)"/><rect class="cls-2" x="425.37" y="197.91" width="41.34" height="41.34" rx="4.07" transform="translate(-2.35 580.91) rotate(-88.76)"/><rect class="cls-2" x="471.47" y="198.91" width="41.34" height="41.34" rx="4.07" transform="translate(41.76 627.98) rotate(-88.76)"/><rect class="cls-2" x="517.57" y="199.91" width="41.34" height="41.34" rx="4.07" transform="translate(85.86 675.04) rotate(-88.76)"/><rect class="cls-2" x="332.19" y="241.59" width="41.34" height="41.34" rx="4.07" transform="translate(-137.19 530.49) rotate(-88.76)"/><rect class="cls-2" x="378.29" y="242.59" width="41.34" height="41.34" rx="4.07" transform="translate(-93.08 577.55) rotate(-88.76)"/><rect class="cls-2" x="424.39" y="243.59" width="41.34" height="41.34" rx="4.07" transform="translate(-48.98 624.61) rotate(-88.76)"/><rect class="cls-2" x="470.48" y="244.59" width="41.34" height="41.34" rx="4.07" transform="translate(-4.88 671.68) rotate(-88.76)"/><rect class="cls-2" x="516.58" y="245.58" width="41.34" height="41.34" rx="4.07" transform="translate(39.23 718.74) rotate(-88.76)"/><rect class="cls-2" x="331.2" y="287.27" width="41.34" height="41.34" rx="4.07" transform="matrix(0.02, -1, 1, 0.02, -183.82, 574.19)"/><rect class="cls-2" x="377.3" y="288.27" width="41.34" height="41.34" rx="4.07" transform="translate(-139.72 621.25) rotate(-88.76)"/><rect class="cls-3" x="423.4" y="289.27" width="41.34" height="41.34" rx="4.07" transform="translate(-95.61 668.31) rotate(-88.76)"/><rect class="cls-2" x="469.5" y="290.26" width="41.34" height="41.34" rx="4.07" transform="translate(-51.51 715.38) rotate(-88.76)"/><rect class="cls-2" x="515.59" y="291.26" width="41.34" height="41.34" rx="4.07" transform="translate(-7.41 762.44) rotate(-88.76)"/><rect class="cls-2" x="330.21" y="332.95" width="41.34" height="41.34" rx="4.07" transform="translate(-230.45 617.89) rotate(-88.76)"/><rect class="cls-2" x="376.31" y="333.94" width="41.34" height="41.34" rx="4.07" transform="translate(-186.35 664.95) rotate(-88.76)"/><rect class="cls-2" x="422.41" y="334.94" width="41.34" height="41.34" rx="4.07" transform="translate(-142.25 712.01) rotate(-88.76)"/><rect class="cls-2" x="468.51" y="335.94" width="41.34" height="41.34" rx="4.07" transform="translate(-98.14 759.08) rotate(-88.76)"/><rect class="cls-2" x="514.61" y="336.94" width="41.34" height="41.34" rx="4.07" transform="translate(-54.04 806.14) rotate(-88.76)"/><rect class="cls-2" x="329.22" y="378.62" width="41.34" height="41.34" rx="4.07" transform="matrix(0.02, -1, 1, 0.02, -277.08, 661.59)"/><rect class="cls-2" x="375.32" y="379.62" width="41.34" height="41.34" rx="4.07" transform="translate(-232.98 708.65) rotate(-88.76)"/><rect class="cls-2" x="421.42" y="380.62" width="41.34" height="41.34" rx="4.07" transform="translate(-188.88 755.71) rotate(-88.76)"/><rect class="cls-2" x="467.52" y="381.62" width="41.34" height="41.34" rx="4.07" transform="translate(-144.77 802.78) rotate(-88.76)"/><rect class="cls-2" x="513.62" y="382.61" width="41.34" height="41.34" rx="4.07" transform="translate(-100.67 849.84) rotate(-88.76)"/><path class="cls-4" d="M457,307.23a1,1,0,0,0-.84-.74l-7.59-1.28-3.25-7a1.07,1.07,0,0,0-1.92,0L439.81,305l-7.63.94a1.07,1.07,0,0,0-.63,1.81l5.39,5.48-1.47,7.55a1.06,1.06,0,0,0,.41,1.05,1,1,0,0,0,.62.22,1.1,1.1,0,0,0,.5-.11l6.88-3.43,6.73,3.72a1.06,1.06,0,0,0,1.57-1.09l-1.13-7.6,5.62-5.25A1.06,1.06,0,0,0,457,307.23Z" transform="translate(-220.21 -78.88)"/><text class="cls-20" transform="translate(123.43 145.95) rotate(1.24)">10</text><text class="cls-20" transform="translate(168.37 146.93) rotate(1.24)">22</text><text class="cls-21" transform="translate(220.19 148.05) rotate(1.24)">7</text><text class="cls-20" transform="translate(262.84 148.97) rotate(1.24)">13</text><text class="cls-22" transform="translate(307.69 149.94) rotate(1.24)">4<tspan class="cls-23" x="14.34" y="0">1</tspan></text><text class="cls-20" transform="translate(126.93 192.87) rotate(1.24)">8</text><text class="cls-24" transform="translate(167.45 193.74) rotate(1.24)">3<tspan class="cls-25" x="12.97" y="0">7</tspan></text><text class="cls-20" transform="translate(214.7 194.77) rotate(1.24)">14</text><text class="cls-20" transform="translate(265.05 195.86) rotate(1.24)">9</text><text class="cls-20" transform="translate(307.34 196.77) rotate(1.24)">17</text><text class="cls-21" transform="translate(118.78 238.27) rotate(1.24)">43</text><text class="cls-20" transform="translate(168.86 239.36) rotate(1.24)">18</text><text class="cls-26" transform="translate(257.61 241.28) rotate(1.24)">2<tspan class="cls-25" x="12.39" y="0">4</tspan></text><text class="cls-21" transform="translate(309.73 242.4) rotate(1.24)">5</text><text class="cls-20" transform="translate(118.08 282.58) rotate(1.24)">36</text><text class="cls-20" transform="translate(168.37 283.67) rotate(1.24)">21</text><text class="cls-20" transform="translate(217.2 284.73) rotate(1.24)">2</text><text class="cls-20" transform="translate(259.94 285.65) rotate(1.24)">15</text><text class="cls-20" transform="translate(304.76 286.62) rotate(1.24)">19</text><text class="cls-20" transform="translate(117.46 328.15) rotate(1.24)">28</text><text class="cls-24" transform="translate(164.52 329.17) rotate(1.24)">3<tspan class="cls-25" x="12.97" y="0">7</tspan></text><text class="cls-20" transform="translate(209.5 330.14) rotate(1.24)">25</text><text class="cls-21" transform="translate(253.93 331.1) rotate(1.24)">40</text><text class="cls-21" transform="translate(307.11 332.25) rotate(1.24)">4</text><text class="cls-27" transform="translate(121.05 90.61) rotate(1.24)">BINGO!</text><text class="cls-28" transform="translate(118.6 87.42) rotate(1.24)">BINGO!</text></g></svg>