<svg xmlns="http://www.w3.org/2000/svg" viewBox="0 0 580.9 336.8"><style><![CDATA[.I{mix-blend-mode:overlay}.P{stroke-miterlimit:10}.Q{stroke-width:2}.R{stroke:#727072}.S{fill:#727072}.T{stroke:#27aae1}.U{fill:#79451c}.V{fill:#354ea2}]]></style><g fill="#f08821"><path d="M285.8 313.4L269.5 297c-30.7-31.5-30.4-81.8.7-113s81.4-31.4 113-.7l16.2 16.2c31.4 31.4 31.3 82.2 0 113.5s-82.2 31.3-113.5 0"/><path d="M374.3 224l-15.6-15.6a59 59 0 0 1 0-83.3 59 59 0 0 1 83.3 0l15.6 15.6a59 59 0 0 1 0 83.3 59 59 0 0 1-83.3 0"/></g><path d="M380.2 184.7L510.6 54.3l18 18-130.4 130.4z" fill="#868686"/><path d="M297.2 244.5l8.3-8.3 41.2 41.2-8.3 8.3z" class="U"/><path d="M581 34l-32-32L514 36.7l-4.5 16.6 20 20 16.6-4.5L581 34z" fill="#f0b363"/><path d="M561 38.3c-1.5-1.5-1.5-3.8 0-5.3.7-.7 1.6-1 2.6-1 2 .1 3.6 1.7 3.7 3.7 0 1-.4 2-1 2.7-1.5 1.4-3.8 1.4-5.3 0zm-10.6 10.5c-.7-.7-1-1.7-1-2.7s.4-2 1-2.6 1.6-1 2.6-1c2 .1 3.7 1.7 3.7 3.7 0 1.5-1 3-2.3 3.4s-3 .3-4-.8zM540 59.2c-1.5-1.5-1.5-3.8 0-5.3.7-.7 1.6-1 2.6-1 2 .1 3.7 1.7 3.7 3.7 0 1-.4 2-1 2.6a4 4 0 0 1-2.6 1c-1 0-2-.4-2.6-1zm4.6-37.2c-1.4-1.5-1.4-3.8 0-5.3.7-.7 1.7-1 2.7-1 2 .1 3.6 1.7 3.7 3.7 0 2-1.7 3.7-3.7 3.7-1 0-2-.4-2.6-1zM534 32.5c-1-1-1.4-2.7-.8-4s2-2.3 3.4-2.3c2 .1 3.7 1.7 3.7 3.7 0 1.5-1 3-2.3 3.4s-3 .3-4-.8zM523.7 43c-1-1-1.4-2.7-.8-4a4 4 0 0 1 3.5-2.3c2 .1 3.7 1.7 3.7 3.7 0 1-.4 2-1 2.7-1.5 1.4-3.8 1.4-5.3 0z" class="U"/><path d="M415.8 167c-14.7-14.7-38.5-14.7-53.2 0s-14.7 38.5 0 53.2 38.5 14.7 53.2 0c14.7-14.7 14.7-38.5 0-53.2z" fill="#e76824"/><circle cx="527.9" cy="328.6" r="29.1" transform="matrix(.38 -.92 .92 .38 -116.44 555.63)" class="U"/><path d="M312 251L511.5 55.2 314 253zm6 6L517.6 61.2 320 259zm6 6L523.6 67.2 326 265zm6 6L529.6 73.2 332 271z" fill="#d9d9d8"/><g class="I P Q R"><path d="M137.4 114.8c1 .5 2 1.2 3 2 .8.6 1.6 1.4 2.3 2q.6-2.4 1.2-4.8.7-2.4 1.5-5-2.4 1.6-4.4 3-2 1.5-3.5 2.7z" fill="none"/><path d="M263.8 28c-1-1.7-2.5-3.2-4-4.6-3-2.6-6.6-4.6-10.4-5.7-1.3-.4-2.7-.5-4-.4-1 .2-1.6.8-1.6 1.7-.1 2.6-.6 5-1.5 7.5-1.2 3.4-2.5 6.7-4 10q-2.5 5.4-6 11.7-3.4 6.2-7 12.8l-5 9.3q-8.6.7-16.7 2-8 1.2-15.4 2.6 2.6-5 5-9L206.5 45q5-7.8 8.2-13.2c2.2-3.6 3.2-6.4 3.2-8.2 0-2-.6-4.2-1.7-6a20 20 0 0 0-4.1-5c-1.6-1.4-3.5-2.6-5.5-3.4-1.8-.8-3.7-1.2-5.6-1.3a85 85 0 0 0-21.3 2.9 169 169 0 0 0-23.1 7.9l-23.5 11.6q-11.8 6.7-22.5 14-10.7 7.3-20 15.2l-16 15c-4 4.2-7.6 8.8-10.7 13.7q-4 6.4-4 11c-.1 3 .4 5.8 1.6 8.6 1 2.4 2.5 4.5 4.3 6.3a18 18 0 0 0 6.2 3.9c2.4 1 5 1.4 7.4 1.4 1.7.1 3.4-.1 5-.6 1-.2 1.7-1 2-1.7a4 4 0 0 0-.3-2.7l-3.2-7.5c-.6-1.4-1-3-1-4.4q0-8.3 6-17.5a99 99 0 0 1 15.7-18.2l22-17.3a258 258 0 0 1 24.7-14.9 227 227 0 0 1 23.9-11 91 91 0 0 1 19.6-5.6l-4 6q-3 4.5-7.2 10.6-4.2 6.2-8.8 13.8-4.7 7.6-9.5 16.3-4.8 8.8-9.2 18.3l-15.2 6a89 89 0 0 0-11.5 6.3c-2.7 1.7-5 3.8-7.2 6.2q-2.5 3-2.5 5.7c0 1.7.4 3.4 1.2 5 .8 1.7 1.8 3.2 3 4.7 1 1.3 2.2 2.5 3.4 3.6.7.8 1.7 1.3 2.7 1.4 2-.1 4.2.8 5.5 2.4a16 16 0 0 1 3.1 5.7c.7 2.2 1 4.5 1.3 6.8q.3 3.5.3 5.8v.7c.1 3.5.7 7 1.8 10.2 1 3.3 2.6 6.5 4.6 9.4 2 2.7 4.3 5 7 7 2.7 1.8 6 2.8 9.2 2.7 3 0 5.2-.4 6.4-1.4a5 5 0 0 0 1.8-4.2c0-1-.2-2.2-.6-3.2l-1.3-3.8q-1.2-3-2.4-7a28 28 0 0 1-1.2-8.5 92 92 0 0 1 4.1-26.8 192 192 0 0 1 10.2-26.2q7.7-3 16.6-5.7 9-2.8 18.3-4.8-3.4 7-6.6 13.8-3 7-5.5 13.5c-1.5 4.2-2.8 8.6-3.7 13-1 4-1.3 8-1.4 12 0 3.2.5 6.3 1.5 9.3 1 3 2.4 5.7 4.2 8a23 23 0 0 0 6.3 5.7c2.3 1.4 5 2.2 7.7 2q3.7 0 5.2-1.3c1-1 1.5-2.3 1.4-3.7 0-.8-.2-1.5-.4-2.2l-1-3a40 40 0 0 1-1.4-5 32 32 0 0 1-.6-6.7c.1-4.6.7-9 2-13.6a119 119 0 0 1 5.1-14.8q3-7.6 7-15.3 4-7.7 8-15a75 75 0 0 1 3.9-.1h4c2 .1 3.8-.3 5.4-1.3a4 4 0 0 0 1.8-3.3c0-1.3-.6-2.4-1.6-3.2-1.3-1-3-1.5-4.7-1.4l-1.7.1c-.6.1-1 .1-1.7.1l2-3.4Q253 60 256 55q3-5 5-9a81 81 0 0 0 3.3-7.4 16 16 0 0 0 1.2-5.4c0-2-.6-3.7-1.7-5.2zm-120 86q-.6 2.3-1.2 4.8c-.7-.8-1.5-1.5-2.3-2-1-.7-2-1.3-3-2q1.6-1 3.5-2.7 2-1.5 4.4-3-1 2.5-1.5 5z" class="S"/></g><g class="P Q T"><path d="M137.4 107.8c1 .5 2 1.2 3 2 .8.6 1.6 1.4 2.3 2q.6-2.4 1.2-4.8.7-2.4 1.5-5-2.4 1.6-4.4 3-2 1.5-3.5 2.7z" fill="none"/><path d="M263.8 21c-1-1.7-2.5-3.2-4-4.6-3-2.6-6.6-4.6-10.4-5.7-1.3-.4-2.7-.5-4-.4-1 .2-1.6.8-1.6 1.7-.1 2.6-.6 5-1.5 7.5-1.2 3.4-2.5 6.7-4 10q-2.5 5.4-6 11.7-3.4 6.2-7 12.8l-5 9.3q-8.6.7-16.7 2-8 1.2-15.4 2.6 2.6-5 5-9L206.5 38q5-7.8 8.2-13.2c2.2-3.6 3.2-6.4 3.2-8.2 0-2-.6-4.2-1.7-6a20 20 0 0 0-4.1-5c-1.6-1.4-3.5-2.6-5.5-3.4-1.8-.8-3.7-1.2-5.6-1.3A85 85 0 0 0 179.9 4a169 169 0 0 0-23.1 7.9l-23.5 11.6q-11.8 6.7-22.5 14-10.7 7.3-20 15.2l-16 15c-4 4.2-7.6 8.8-10.7 13.7q-4 6.4-4 11c-.1 3 .4 5.8 1.6 8.6 1 2.4 2.5 4.5 4.3 6.3a18 18 0 0 0 6.2 3.9c2.4 1 5 1.4 7.4 1.4 1.7.1 3.4-.1 5-.6 1-.2 1.7-1 2-1.7a4 4 0 0 0-.3-2.7l-3.2-7.5c-.6-1.4-1-3-1-4.4q0-8.3 6-17.5a99 99 0 0 1 15.7-18.2l22-17.3a258 258 0 0 1 24.7-14.9 227 227 0 0 1 23.9-11 91 91 0 0 1 19.6-5.6l-4 6q-3 4.5-7.2 10.6-4.2 6.2-8.8 13.8-4.7 7.6-9.5 16.3-4.8 8.8-9.2 18.3l-15.2 6a89 89 0 0 0-11.5 6.3c-2.7 1.7-5 3.8-7.2 6.2q-2.5 3-2.5 5.7c0 1.7.4 3.4 1.2 5 .8 1.7 1.8 3.2 3 4.7 1 1.3 2.2 2.5 3.4 3.6.7.8 1.7 1.3 2.7 1.4 2-.1 4.2.8 5.5 2.4a16 16 0 0 1 3.1 5.7c.7 2.2 1 4.5 1.3 6.8q.3 3.5.3 5.8v.7c.1 3.5.7 7 1.8 10.2 1 3.3 2.6 6.5 4.6 9.4 2 2.7 4.3 5 7 7 2.7 1.8 6 2.8 9.2 2.7 3 0 5.2-.4 6.4-1.4a5 5 0 0 0 1.8-4.2c0-1-.2-2.2-.6-3.2l-1.3-3.8q-1.2-3-2.4-7a28 28 0 0 1-1.2-8.5 92 92 0 0 1 4.1-26.8 192 192 0 0 1 10.2-26.2q7.7-3 16.6-5.7 9-2.8 18.3-4.8-3.4 7-6.6 13.8-3 7-5.5 13.5c-1.5 4.2-2.8 8.6-3.7 13-1 4-1.3 8-1.4 12 0 3.2.5 6.3 1.5 9.3 1 3 2.4 5.7 4.2 8a23 23 0 0 0 6.3 5.7c2.3 1.4 5 2.2 7.7 2q3.7 0 5.2-1.3c1-1 1.5-2.3 1.4-3.7 0-.8-.2-1.5-.4-2.2l-1-3a40 40 0 0 1-1.4-5 32 32 0 0 1-.6-6.7c.1-4.6.7-9 2-13.6a119 119 0 0 1 5.1-14.8q3-7.6 7-15.3 4-7.7 8-15a75 75 0 0 1 3.9-.1h4c2 .1 3.8-.3 5.4-1.3a4 4 0 0 0 1.8-3.3c0-1.3-.6-2.4-1.6-3.2-1.3-1-3-1.5-4.7-1.4l-1.7.1c-.6.1-1 .1-1.7.1l2-3.4Q253 53 256 48q3-5 5-9a81 81 0 0 0 3.3-7.4 16 16 0 0 0 1.2-5.4c0-2-.6-3.7-1.7-5.2zm-120 86q-.6 2.3-1.2 4.8c-.7-.8-1.5-1.5-2.3-2-1-.7-2-1.3-3-2q1.6-1 3.5-2.7 2-1.5 4.4-3-1 2.5-1.5 5z" class="V"/></g><g class="I"><path d="M448.5 111.6a5 5 0 0 0-1.7-1.7c-1-.6-2.2-.8-3.4-.8-1.8.1-3.5.8-5 2-2 1.5-3.7 3.3-5.2 5.2l-5 7.3a75 75 0 0 0-4.2 8.2l-3 8a25 25 0 0 0-1.1 6.6c0 1 .1 1.7.4 2.5.3.6.8 1 1.5 1 2-.1 4-1 5.5-2.6 2-2 3.7-4 5.2-6.4a64 64 0 0 0 4.5-8 75 75 0 0 0 3.1-7.6v.1l1.2-5.3c0-2 .4-3.5 1-4.3s1.8-1.3 3-1.2 2.3.5 3.2 1.2c-.1-.4-.1-1 .1-1.3.1-.3.1-.7 0-1 0-.6-.2-1.3-.5-1.8zm-42 66.2l-5.2 5.2c-1.3 1.6-2 3-2 4s.5 1.5 1.4 1.5c2-.1 4-.8 5.4-2a32 32 0 0 0 5.8-5.2l5.8-7.7q3-4.4 5.8-9.4-5 3.8-9.5 7.2-4.5 3.4-7.7 6.3z" fill="none" class="P Q R"/><path d="M400 95.2c3.6 0 7-1.2 9.8-3.4 1-1 2-2 2.8-3.3 1.8-3 1-7-1.8-9.4-1-.7-2-1.2-3-1.5-1-.4-2.3-.5-3.4-.5a4 4 0 0 0-2.8 1.4 15 15 0 0 0-2.5 3.6 23 23 0 0 0-1.8 4.4c-.4 1.3-.6 2.7-.7 4 0 1 .2 2.3.8 3.3.5.8 1.5 1.3 2.5 1.3zm79 17.8c-.2-.8-.8-1.4-1.5-1.7-.8-.3-1.6-.3-2.4.1-1 .5-1.8 1.3-2.2 2.2a51 51 0 0 1-8.3 11.4c-3.8 4-8 7.8-12.2 11.4q1.3-3.5 2.2-6.5a18 18 0 0 0 .8-4.3c0-1.3-.4-2.6-1-3.7-.7-1.3-1.6-2.5-2.6-3.6 1-.2 1.7-1 2.5-2.7.2-.7.3-1.4.3-2a12 12 0 0 0-.2-3.2 19 19 0 0 0-1.2-3.6 12 12 0 0 0-2.5-3.4c-1.2-1-2.6-2-4-2.6a18 18 0 0 0-6-1c-3 0-5.8.6-8.5 1.7-3 1.2-5.6 2.7-8 4.6-2.6 2-5 4.2-7 6.7-.3.1-.6.3-.8.6v.1l-.4.8-4.6 6.8a46 46 0 0 0-3.2 7.1l-3.4 5.4a91 91 0 0 1-5.6 7.6 45 45 0 0 1-5.4 5.7q-2.6 2.2-4.7 2.2c-.2 0-.3-.3-.3-1 .1-1.5.4-3 1-4.5q1-3 2.4-6.3 1.5-3.4 3.2-7l8-17.8c.2-.6.4-1.2.5-2-.1-1.6-.8-3-2-4-1.2-1.3-2.6-2.4-4.2-3.2-1.3-.8-2.7-1.2-4.2-1.4-1.3-.1-2 .4-2 1.4-.3 1.6-.8 3.2-1.6 4.7q-1.6 3.6-4 8.5l-1.2 2.4-14.7 22a53 53 0 0 1-4.9 5.6c-1.5 1.4-2.7 2.2-3.6 2.2-.2 0-.3-.2-.3-.8.1-1.6.4-3 1-4.6.6-2 1.4-4 2.4-6.3a120 120 0 0 1 3.2-7l3.4-7q2.2-4.6 3.8-8a13 13 0 0 0 1.6-4.8c0-1-.3-2.3-1-3.3-.6-1-1.3-2-2-3-.8-1-1.7-1.7-2.7-2.5-.8-.6-1.6-1-2.6-1.3-.2-.1-.5-.2-.8-.2h-.5c-.6 0-1.5.5-2.8 1.6l-4.4 4-11 12.7 1.7-4.3c.4-1 .6-2 .6-3.2 0-1.6-.4-3-1.2-4.5a13 13 0 0 0-2.8-3.4c-1-1-2.2-1.7-3.5-2.2-1-.4-2-.7-3-.8-1 .6-2.2 1.3-3 2.2l-4.4 4.3-10.6 12q1-2.4 1.7-4.3c.4-1 .6-2.2.7-3.4 0-2-.7-3.7-2-5-1.3-1.4-3-2.5-4.7-3.3-1.5-.7-3-1-4.7-1-1.4.1-2 .6-2 1.6a24 24 0 0 1-2 7.4q-2 4.5-4.8 9.7-1.6 3.2-3.2 6.3l-2.8 6.2a47 47 0 0 0-2 6c-.5 1.8-.7 3.6-.8 5.5 0 1.8.3 3.5 1 5 .6 1.5 1.5 2.8 2.6 4 1 1 2.2 2 3.5 2.6 1.2.6 2.4 1 3.7 1 .8.1 1.6-.1 2.3-.4.4-.2.8-.7 1-1 .1-.6.1-1 0-1.7l-1-4.6c0-.3.1-.6.1-1 1-2.3 2.4-4.5 3.8-6.6a154 154 0 0 1 5.9-8l13.6-16.4c.1-.1 0 0 0 .1s-.3.5-.5 1-.6 1.2-1.2 2.2a145 145 0 0 0-3.1 6.2L325 133a47 47 0 0 0-2 6c-.5 1.8-.7 3.6-.8 5.5 0 1.8.3 3.5 1 5 .6 1.5 1.5 2.8 2.6 4 1 1 2.2 2 3.5 2.6 1.2.6 2.4 1 3.8 1 .8 0 1.5-.1 2.2-.4.4-.3.8-.7 1-1a3 3 0 0 0 0-1.7l-.4-2c-.1-.2-.1-.4-.1-.7s-.1-.5-.1-.7l-.2-.8c0-.2 0-.4.1-.7 0-.2.1-.5.1-1a47 47 0 0 1 3.7-6.3q2.5-3.7 5.6-7.7 3-4 6.6-8.2 3.5-4 6.6-7.8-1.7 3.6-3.4 7.3l-3 7.2-2.2 6.5c-.5 1.6-.8 3.3-1 5q0 6 3 9.4a10 10 0 0 0 7.8 3.5c2.3-.2 4.4-1 6-2.5a46 46 0 0 0 6.8-6.4 82 82 0 0 0 3.2-3.9q0 5.8 3 9.3c2 2.3 4.8 3.6 7.8 3.5 2.6-.1 5.2-1 7.4-2.5 2.7-1.8 5.2-4 7.3-6.3a88 88 0 0 0 5-6c.2 1 .4 2 .7 3 .6 2 1.6 4.2 3 6 1.2 1.8 2.8 3.3 4.7 4.4 2 1 4.2 1.7 6.5 1.7 1.3 0 2.5-.3 3.7-.8 1.3-.6 2.5-1.3 3.6-2l-.5 1q-6.7 4.7-12.7 9-6 4.4-10.6 8.3a53 53 0 0 0-7.3 7.4q-2.7 3.5-2.7 6.4a10 10 0 0 0 .7 3.3c.5 1.3 1.3 2.5 2.3 3.5 1.3 1.2 2.8 2 4.5 2.8 2.3.8 4.8 1.2 7.2 1a13 13 0 0 0 6.4-2 38 38 0 0 0 6.9-5.8 75 75 0 0 0 6.9-8.4q3.4-4.8 6.7-10.2 3.2-5.4 6-11 3-5.6 5.3-11 5.2-4.2 10.2-8.4 5-4.2 9-8.4l7.3-8.2a32 32 0 0 0 4.8-8c.5-1 .6-2.2.2-3.2zm-61 60.7l-5.8 7.7a32 32 0 0 1-5.8 5.2c-1.6 1.2-3.5 2-5.4 2-1 0-1.4-.5-1.4-1.5s.6-2.4 2-4c1.6-2 3.3-3.6 5.2-5.2q3.3-3 7.7-6.3 4.4-3.4 9.5-7.2-3 5-5.8 9.4zm31.2-59.2a2 2 0 0 0-.1 1.3c-1-.7-2-1-3.2-1.2-1 0-2.2.4-3 1.2s-1 2.3-1 4.3v.4l-1.2 4.8a75 75 0 0 1-3.1 7.6 64 64 0 0 1-4.5 8c-1.5 2.3-3.2 4.5-5.2 6.4-1.4 1.6-3.4 2.5-5.5 2.6-.6 0-1.2-.3-1.5-1-.3-.8-.5-1.7-.4-2.5a25 25 0 0 1 1.1-6.6c.8-2.7 1.8-5.4 3-8a75 75 0 0 1 4.2-8.2l5-7.3c1.5-2 3.2-3.7 5.2-5.2 1.4-1.2 3-2 5-2 1.2-.1 2.3.2 3.4.8a5 5 0 0 1 1.7 1.7c.3.6.5 1.2.6 1.8 0 .3 0 .7-.1 1z" class="P Q R S"/></g><path d="M448.5 104.6a5 5 0 0 0-1.7-1.7c-1-.6-2.2-.8-3.4-.8-1.8.1-3.5.8-5 2-2 1.5-3.7 3.3-5.2 5.2l-5 7.3a75 75 0 0 0-4.2 8.2l-3 8a25 25 0 0 0-1.1 6.6c0 1 .1 1.7.4 2.5.3.6.8 1 1.5 1 2-.1 4-1 5.5-2.6 2-2 3.7-4 5.2-6.4a64 64 0 0 0 4.5-8 75 75 0 0 0 3.1-7.6v.1l1.2-5.3c0-2 .4-3.5 1-4.3s1.8-1.3 3-1.2 2.3.5 3.2 1.2c-.1-.4-.1-1 .1-1.3.1-.3.1-.7 0-1 0-.6-.2-1.3-.5-1.8zm-42 66.2l-5.2 5.2c-1.3 1.6-2 3-2 4s.5 1.5 1.4 1.5c2-.1 4-.8 5.4-2a32 32 0 0 0 5.8-5.2l5.8-7.7q3-4.4 5.8-9.4-5 3.8-9.5 7.2-4.5 3.4-7.7 6.3z" fill="none" class="P Q T"/><path d="M400 88.2c3.6 0 7-1.2 9.8-3.4 1-1 2-2 2.8-3.3 1.8-3 1-7-1.8-9.4-1-.7-2-1.2-3-1.5-1-.4-2.3-.5-3.4-.5a4 4 0 0 0-2.8 1.4 15 15 0 0 0-2.5 3.6 23 23 0 0 0-1.8 4.4c-.4 1.3-.6 2.7-.7 4 0 1 .2 2.3.8 3.3.5.8 1.5 1.3 2.5 1.3zm79 17.8c-.2-.8-.8-1.4-1.5-1.7-.8-.3-1.6-.3-2.4.1-1 .5-1.8 1.3-2.2 2.2a51 51 0 0 1-8.3 11.4c-3.8 4-8 7.8-12.2 11.4q1.3-3.5 2.2-6.5a18 18 0 0 0 .8-4.3c0-1.3-.4-2.6-1-3.7-.7-1.3-1.6-2.5-2.6-3.6 1-.2 1.7-1 2.5-2.7.2-.7.3-1.4.3-2a12 12 0 0 0-.2-3.2 19 19 0 0 0-1.2-3.6 12 12 0 0 0-2.5-3.4c-1.2-1-2.6-2-4-2.6a18 18 0 0 0-6-1c-3 0-5.8.6-8.5 1.7-3 1.2-5.6 2.7-8 4.6-2.6 2-5 4.2-7 6.7-.3.1-.6.3-.8.6v.1l-.4.8-4.6 6.8a46 46 0 0 0-3.2 7.1l-3.4 5.4a91 91 0 0 1-5.6 7.6 45 45 0 0 1-5.4 5.7q-2.6 2.2-4.7 2.2c-.2 0-.3-.3-.3-1 .1-1.5.4-3 1-4.5q1-3 2.4-6.3 1.5-3.4 3.2-7l8-17.8c.2-.6.4-1.2.5-2-.1-1.6-.8-3-2-4-1.2-1.3-2.6-2.4-4.2-3.2-1.3-.8-2.7-1.2-4.2-1.4-1.3-.1-2 .4-2 1.4-.3 1.6-.8 3.2-1.6 4.7q-1.6 3.6-4 8.5l-1.2 2.4-14.7 22a53 53 0 0 1-4.9 5.6c-1.5 1.4-2.7 2.2-3.6 2.2-.2 0-.3-.2-.3-.8.1-1.6.4-3 1-4.6.6-2 1.4-4 2.4-6.3a120 120 0 0 1 3.2-7l3.4-7q2.2-4.6 3.8-8a13 13 0 0 0 1.6-4.8c0-1-.3-2.3-1-3.3-.6-1-1.3-2-2-3-.8-1-1.7-1.7-2.7-2.5-.8-.6-1.6-1-2.6-1.3-.2-.1-.5-.2-.8-.2h-.5c-.6 0-1.5.5-2.8 1.6l-4.4 4-11 12.7 1.7-4.3c.4-1 .6-2 .6-3.2 0-1.6-.4-3-1.2-4.5a13 13 0 0 0-2.8-3.4c-1-1-2.2-1.7-3.5-2.2-1-.4-2-.7-3-.8-1 .6-2.2 1.3-3 2.2l-4.4 4.3-10.6 12q1-2.4 1.7-4.3c.4-1 .6-2.2.7-3.4 0-2-.7-3.7-2-5-1.3-1.4-3-2.5-4.7-3.3-1.5-.7-3-1-4.7-1-1.4.1-2 .6-2 1.6a24 24 0 0 1-2 7.4q-2 4.5-4.8 9.7-1.6 3.2-3.2 6.3l-2.8 6.2a47 47 0 0 0-2 6c-.5 1.8-.7 3.6-.8 5.5 0 1.8.3 3.5 1 5 .6 1.5 1.5 2.8 2.6 4 1 1 2.2 2 3.5 2.6 1.2.6 2.4 1 3.7 1 .8.1 1.6-.1 2.3-.4.4-.2.8-.7 1-1 .1-.6.1-1 0-1.7l-1-4.6c0-.3.1-.6.1-1 1-2.3 2.4-4.5 3.8-6.6a154 154 0 0 1 5.9-8l13.6-16.4c.1-.1 0 0 0 .1s-.3.5-.5 1-.6 1.2-1.2 2.2a145 145 0 0 0-3.1 6.2L325 126a47 47 0 0 0-2 6c-.5 1.8-.7 3.6-.8 5.5 0 1.8.3 3.5 1 5 .6 1.5 1.5 2.8 2.6 4 1 1 2.2 2 3.5 2.6 1.2.6 2.4 1 3.8 1 .8 0 1.5-.1 2.2-.4.4-.3.8-.7 1-1a3 3 0 0 0 0-1.7l-.4-2c-.1-.2-.1-.4-.1-.7s-.1-.5-.1-.7l-.2-.8c0-.2 0-.4.1-.7 0-.2.1-.5.1-1a47 47 0 0 1 3.7-6.3q2.5-3.7 5.6-7.7 3-4 6.6-8.2 3.5-4 6.6-7.7-1.7 3.6-3.4 7.3l-3 7.2-2.2 6.5c-.5 1.6-.8 3.3-1 5q0 6 3 9.4a10 10 0 0 0 7.8 3.5c2.3-.2 4.4-1 6-2.5a46 46 0 0 0 6.8-6.4 82 82 0 0 0 3.2-3.9q0 5.8 3 9.3c2 2.3 4.8 3.6 7.8 3.5 2.6-.1 5.2-1 7.4-2.5 2.7-1.8 5.2-4 7.3-6.3a88 88 0 0 0 5-6c.2 1 .4 2 .7 3 .6 2 1.6 4.2 3 6 1.2 1.8 2.8 3.3 4.7 4.4 2 1 4.2 1.7 6.5 1.7 1.3 0 2.5-.3 3.7-.8 1.3-.6 2.5-1.3 3.6-2l-.5 1q-6.7 4.7-12.7 9-6 4.4-10.6 8.3a53 53 0 0 0-7.3 7.4q-2.7 3.5-2.7 6.4a10 10 0 0 0 .7 3.3c.5 1.3 1.3 2.5 2.3 3.5 1.3 1.2 2.8 2 4.5 2.8 2.3.8 4.8 1.2 7.2 1a13 13 0 0 0 6.4-2 38 38 0 0 0 6.9-5.8 75 75 0 0 0 6.9-8.4q3.4-4.8 6.7-10.2 3.2-5.4 6-11 3-5.6 5.3-11 5.2-4.2 10.2-8.4 5-4.2 9-8.4l7.3-8.2a32 32 0 0 0 4.8-8c.5-1 .6-2.2.2-3.2zm-61 60.7l-5.8 7.7a32 32 0 0 1-5.8 5.2c-1.6 1.2-3.5 2-5.4 2-1 0-1.4-.5-1.4-1.5s.6-2.4 2-4c1.6-2 3.3-3.6 5.2-5.2q3.3-3 7.7-6.3 4.4-3.4 9.5-7.2-3 5-5.8 9.4zm31.2-59.2a2 2 0 0 0-.1 1.3c-1-.7-2-1-3.2-1.2-1 0-2.2.4-3 1.2s-1 2.3-1 4.3v.4l-1.2 4.8a75 75 0 0 1-3.1 7.6 64 64 0 0 1-4.5 8c-1.5 2.3-3.2 4.5-5.2 6.4-1.4 1.6-3.4 2.5-5.5 2.6-.6 0-1.2-.3-1.5-1-.3-.8-.5-1.7-.4-2.5a25 25 0 0 1 1.1-6.6c.8-2.7 1.8-5.4 3-8a75 75 0 0 1 4.2-8.2l5-7.3c1.5-2 3.2-3.7 5.2-5.2 1.4-1.2 3-2 5-2 1.2-.1 2.3.2 3.4.8a5 5 0 0 1 1.7 1.7c.3.6.5 1.2.6 1.8 0 .3 0 .7-.1 1z" class="V P Q T"/><g class="I P Q R S"><path d="M259.6 108.3l21.3 14-35.2 42.3s-3 3.2-8.2-.2c0 0-5.4-4-2-9zm37 4l-34.3-22.7c-1-.8-1.2-2.2-.5-3.2s2-1.4 3.2-.8l34.3 22.7c.8.4 1.3 1.3 1.2 2.2s-.6 1.7-1.4 2-1.8.3-2.5-.3z"/><path d="M262.3 90.4c-1.8 5-1.7 10.5.4 15.3l18.8 12.4c1.4 0 3-.1 4.3-.4a22 22 0 0 0 10-5zm39.7 3c-1.6-8-7.7-14-15.5-16s-16 1-21 7.4l34.4 22.7c2.4-4.3 3-9.3 2-14zm-3 70.8a69 69 0 0 0-27.9 11.5c-18 12.5-26 12.4-29.6 10-5-3.2-4.6-13-4-16.5l-4-2.6c-.2 1.2-2.6 17.4 5.8 22.8 3 2 6.7 2.4 11.2 1.4 6.2-1.2 13.8-5 23.2-11.6a66 66 0 0 1 25.9-10.8z"/></g><g class="P Q T V"><path d="M259.6 101.3l21.3 14-35.2 42.3s-3 3.2-8.2-.2c0 0-5.4-4-2-9zm37 4l-34.3-22.7c-1-.8-1.2-2.2-.5-3.2s2-1.4 3.2-.8l34.3 22.7c.8.4 1.3 1.3 1.2 2.2s-.6 1.7-1.4 2-1.8.3-2.5-.3z"/><path d="M262.3 83.4c-1.8 5-1.7 10.5.4 15.3l18.8 12.4c1.4 0 3-.1 4.3-.4a22 22 0 0 0 10-5zm39.7 3c-1.6-8-7.7-14-15.5-16s-16 1-21 7.4l34.4 22.7c2.4-4.3 3-9.3 2-14zm-3 70.8a69 69 0 0 0-27.9 11.5c-18 12.5-26 12.4-29.6 10-5-3.2-4.6-13-4-16.5l-4-2.6c-.2 1.2-2.6 17.4 5.8 22.8 3 2 6.7 2.4 11.2 1.4 6.2-1.2 13.8-5 23.2-11.6a66 66 0 0 1 25.9-10.8z"/></g><path d="M126 186c1.7-3.8 2.6-8 2.7-12a21 21 0 0 0-2-9c-1.4-2.8-3.5-5.3-6-7a34 34 0 0 0-10.7-4.7 65 65 0 0 0-15.8-1.7 85 85 0 0 0-23.4 3.3 120 120 0 0 0-22 8.7c-6.8 3.4-13.4 7.4-19.5 12a113 113 0 0 0-15.4 14.4 72 72 0 0 0-10.2 14.7Q0 212 0 218c-.1 2.7.4 5.4 1.5 7.8 1 2 2.2 3.6 4 5 1.5 1.2 3.3 2 5.2 2.6a23 23 0 0 0 5.6.7c1.2 0 2.5-.1 3.7-.4 1-.2 2-.6 3-1 .7-.3 1.4-.8 2-1.4.5-.4.7-1 .8-1.7 0-.6-.1-1.3-.4-2-.3-.4-.7-.7-1-1a4 4 0 0 0-1.7-.2l-2 .1c-.5.1-1 .1-1.6.1-.5 0-1-.1-1.6-.3-.5-.2-1-.5-1-1-.3-.7-.5-1.4-.4-2 .1-2.3.7-4.6 1.6-6.8 1.2-3.2 2.8-6.3 4.6-9.2l7.2-10.6 9.7-11A121 121 0 0 1 51 175.3a88 88 0 0 1 13.6-8.7c5-2.5 10-4.5 15.3-6a62 62 0 0 1 16.6-2.2q8.5 0 12.2 3.2c2.5 2 3.8 5 3.8 8.2-.1 3.2-.8 6.4-2 9.3a65 65 0 0 1-5.5 10.4l-9 11a108 108 0 0 1-10.5 10.1 87 87 0 0 1-12 8.6 71 71 0 0 1-12.6 6.2L77 196c1.3-2.5 2-4.3 2-5.4 0-1.3-.3-2.6-1-3.8-1.4-2.4-3.5-4.2-6-5.3a10 10 0 0 0-3.5-.8c-1.8 0-3 .4-3 1.3a13 13 0 0 0-.4 3.5v.6l-7.8 13q-2.4 4-5 8.8-2.6 4.8-5 10-2.6 5-4.7 10.2c-1-.1-1.8-.5-2.7-1-.6-.4-1.2-1-1.7-1.5-.4-.5-.7-1-1-1.7-.2-.5-.4-1-.6-1.6a16 16 0 0 0-1.2-3.3c-.7-1-2-1.5-3-1.4-1-.1-2.2.4-3 1.3-.7 1-1 2.2-1 3.4a10 10 0 0 0 .7 3.4c.5 1.4 1.2 2.6 2 3.8 1 1.3 2.2 2.5 3.5 3.5 1.5 1 3 2 4.8 2.6l-3 10a43 43 0 0 0-1 9.1 23 23 0 0 0 1 6.3 27 27 0 0 0 2.8 6c1.2 1.7 2.7 3.2 4.4 4.4 1.7 1 3.7 1.7 5.7 1.7 1.4.1 2.8-.2 4-1 .8-.7 1.2-1.7 1-2.7 0-.7-.1-1.3-.4-2l-1-2.4h.1l-1.4-4.2c-.5-1.7-.7-3.4-.7-5a41 41 0 0 1 1.3-9.8c1-3.6 2-7 3.6-10.5A71 71 0 0 0 75 231a98 98 0 0 0 17.1-8.5l14.7-11a88 88 0 0 0 11.6-12.5 58 58 0 0 0 7.5-13zm10.2 10.6c2 0 3.7-.3 5.5-1 1.6-.6 3-1.4 4.3-2.4 1-1 2-2 2.8-3.3 1.2-2 1.3-4.7.2-7-.5-1-1.2-1.8-2-2.5-1-.7-2-1.2-3-1.5-1-.4-2.3-.5-3.5-.5a4 4 0 0 0-2.8 1.4c-1 1-1.8 2.2-2.5 3.5l-1.8 4.4c-.4 1.3-.6 2.7-.7 4a6 6 0 0 0 .8 3.3c.5 1 1.5 1.4 2.5 1.3zm179.2 17.6c-.2-.8-.8-1.4-1.5-1.7-.8-.3-1.6-.2-2.4.1-1 .5-1.7 1.3-2.2 2.2a50 50 0 0 1-8.3 11.6l-12.4 11.4q2-4.4 3.6-8.6l5-13.7c.4-1 .6-2.3.7-3.5a8 8 0 0 0-1-3.7c-.7-1.3-1.5-2.5-2.5-3.6l-3-2.7c-1-.6-2-1-3-1-1-.1-2.2.4-3 1.3-.8 1.3-1.2 2.7-1 4.2-.3 1.2-.7 2.3-1.2 3.4q-1.2 3-3 8-1.5 2.3-4 5.6-2.4 3.3-5 7-2.7 3.8-5.5 7.5l-5.2 6.7-4.2 4.8c-1.2 1.2-2 2-2.5 2-.2 0 0-.6.5-1.8s1.3-2.7 2.2-4.6l13-25.4a54 54 0 0 0 1.9-4.6c.4-1 .6-2.2.7-3.3a7 7 0 0 0-2-5 13 13 0 0 0-4.7-3c-1.5-.6-3-1-4.7-1-1.4 0-2 .5-2 1.4 0 1-.2 2.2-.6 3.2l-1.5 4q-1 2.2-2.2 4.6l-.3.7-1.5 2.4c-1.3 2-2.7 4-4.2 5.8l-5.6 6a32 32 0 0 1-6.5 5c3.7-7.4 5.6-15.6 5.6-24 0-1.5-.2-3-.5-4.4-.3-1.3-1-2.5-2-3.5a9 9 0 0 0-3.7-2.3c-2-.6-4-1-6-.8-1.7 0-3.3.3-4.8 1a23 23 0 0 0-4.6 2.4c-1.5 1-3 2.2-4.2 3.5l-4 4.2q-1-.3-2.2-.5l-2-.2c-1 .1-1.8.6-2.4 1.3-.1 0-.2.1-.3.1-1 .5-1.8 1.2-2.3 2.2h0l-.2.5-3.2 4.8c-1.6 2.8-3 5.8-4 8.8l-.7 2.3-2.5 4.2q-2.4 4-4.7 7.2c-1.3 2-2.7 3.6-4.3 5.2-1.3 1.3-2.5 2-3.4 2-.1 0-.2-.3-.2-.8a16 16 0 0 1 .9-4.6 84 84 0 0 1 2.4-6.3c1-2.3 2-4.6 3.2-7l7-15c.8-1.5 1.3-3 1.6-4.8 0-1.2-.3-2.3-.8-3.4a13 13 0 0 0-2-3c-.8-1-1.7-1.7-2.7-2.4-.8-.6-1.7-1-2.6-1.4-.2-.1-.5-.2-.8-.2h-.6q-1 0-2.8 1.6-2 1.6-4.4 4.2l-11.2 13q1-2.5 2-4.5c.4-1 .7-2.2.7-3.3 0-2-.7-3.7-2-5a15 15 0 0 0-4.7-3.3c-1.5-.7-3-1-4.7-1q-2 .1-2 1.6a24 24 0 0 1-2 7.4l-1 2.3c-.2.1-.4.3-.5.5v.1c-.5 1-1.3 2.6-2.5 4.7l-9 15.3a91 91 0 0 1-5.6 7.6c-1.6 2-3.5 4-5.4 5.7q-2.6 2.2-4.7 2.2c-.2 0-.3-.3-.3-1 .1-1.5.4-3 1-4.5.6-2 1.4-4 2.4-6.3a200 200 0 0 1 3.2-7.1l8-18c.3-.6.4-1.2.5-2a6 6 0 0 0-1.9-4.1c-1.2-1.3-2.6-2.4-4.2-3.2-1.3-.7-2.7-1.2-4.2-1.4-1.3-.1-2 .4-2 1.4-.3 1.6-.8 3.2-1.6 4.7q-1.6 3.6-4 8.5l-7 15.6a78 78 0 0 0-2.5 7 20 20 0 0 0-1 5.3q0 6 3 9.4c2 2.3 4.8 3.6 7.8 3.5 2.6-.1 5.2-1 7.4-2.5a40 40 0 0 0 7.3-6.3 74 74 0 0 0 3.1-3.6c0 1.7.3 3.4 1 5 .6 1.5 1.5 2.8 2.6 4 1 1 2.2 2 3.5 2.6 1.2.6 2.4 1 3.7 1 .8 0 1.6-.1 2.3-.4.5-.2.8-.6 1-1 .1-.5.1-1 0-1.7l-.5-2c-.1-.2-.1-.4-.1-.7s0-.4-.1-.7l-.2-.8v-.6l.2-1a62 62 0 0 1 3.5-6q2.4-3.6 5.5-7.6 3-4 6.6-8.2 3.5-4.2 6.6-8-1.6 3.5-3.3 7.2l-3 7-2 6.3c-.5 1.6-.8 3.2-.8 5q0 6 3 9.4a10 10 0 0 0 7.7 3.5c2.3-.1 4.5-1 6.3-2.5 2.4-2 4.6-4 6.5-6.4l4-5.2c.2 1 .5 2 1 3 .8 2.2 2 4.3 3.8 6 1.5 1.6 3.3 2.8 5.3 3.7a16 16 0 0 0 6 1.2c4-.1 8-1.4 11.2-3.8a41 41 0 0 0 9.7-9.8 23 23 0 0 0 7.5-2.4 37 37 0 0 0 5-3.2c-.1.2-.1.4-.2.6-.5 1.8-.7 3.6-.8 5.5 0 1.4.3 2.8.8 4a17 17 0 0 0 2.4 4.3 16 16 0 0 0 3.5 3.4 7 7 0 0 0 4.1 1.4c1-.1 2-.5 3-1.2a25 25 0 0 0 3.6-2.8 58 58 0 0 0 4-4.1c1.4-1.6 3-3.2 4.3-5l-6.7 13q-6.2 4.4-11.6 8.5l-9.7 7.8a44 44 0 0 0-6.6 7c-1.4 1.7-2.3 3.8-2.4 6a10 10 0 0 0 .7 3.3c.5 1.3 1.3 2.5 2.3 3.5 1.3 1.2 2.8 2 4.5 2.7a20 20 0 0 0 7.1 1.1q4 0 8.7-4a70 70 0 0 0 9.6-10.8 168 168 0 0 0 9.7-15.1q4.8-8.4 9-17 5.4-4.3 10.5-8.6 5-4.3 9.4-8.6l7.6-8.5c2-2.5 3.7-5.2 5-8 .5-1 .6-2 .3-3zm-98.8 35c-2 1.2-4 1.8-6.2 1.8-1 .1-2-.2-2.7-1-.5-.7-.8-1.6-.8-2.5a18 18 0 0 1 .8-5 55 55 0 0 1 2-5.7 24 24 0 0 0 5.5 4.5 26 26 0 0 0 6.8 3c-1.5 2-3.4 3.5-5.4 4.8zm17.3-30.7l-1.6 6.5-2.6 7-3.4 6.8c-1.5-.1-3-.8-3.8-2-.7-1-1-2.4-1-3.7.1-2.6.6-5 1.5-7.5a54 54 0 0 1 3.6-7.7 43 43 0 0 1 4-6c1.3-1.6 2.3-2.4 3-2.4s1 1.3 1 3.8c0 1.8-.2 3.6-.6 5.3zm20.2 56.8l-6 7.7c-1.7 2-3.6 3.7-5.7 5.2-1.5 1.2-3.4 2-5.4 2-1 0-1.4-.5-1.4-1.5s.6-2.4 2-4c1.6-2 3.3-3.6 5.2-5.2q3.3-3 7.7-6.3 4.4-3.4 9.5-7.2-2.8 5-5.8 9.4z" class="I S"/><path d="M126 179c1.7-3.8 2.6-8 2.7-12a21 21 0 0 0-2-9c-1.4-2.8-3.5-5.3-6-7a34 34 0 0 0-10.7-4.7 65 65 0 0 0-15.8-1.7 85 85 0 0 0-23.4 3.3 120 120 0 0 0-22 8.7c-6.8 3.4-13.4 7.4-19.5 12a113 113 0 0 0-15.4 14.4 72 72 0 0 0-10.2 14.7Q0 205 0 211c-.1 2.7.4 5.4 1.5 7.8 1 2 2.2 3.6 4 5 1.5 1.2 3.3 2 5.2 2.6a23 23 0 0 0 5.6.7c1.2 0 2.5-.1 3.7-.4 1-.2 2-.6 3-1 .7-.3 1.4-.8 2-1.4.5-.4.7-1 .8-1.7 0-.6-.1-1.3-.4-2-.3-.4-.7-.7-1-1a4 4 0 0 0-1.7-.2l-2 .1c-.5.1-1 .1-1.6.1-.5 0-1-.1-1.6-.3-.5-.2-1-.5-1-1-.3-.7-.5-1.4-.4-2 .1-2.3.7-4.6 1.6-6.8 1.2-3.2 2.8-6.3 4.6-9.2l7.2-10.6 9.7-11A121 121 0 0 1 51 168.3a88 88 0 0 1 13.6-8.7c5-2.5 10-4.5 15.3-6a62 62 0 0 1 16.6-2.2q8.5 0 12.2 3.2c2.5 2 3.8 5 3.8 8.2-.1 3.2-.8 6.4-2 9.3a65 65 0 0 1-5.5 10.4l-9 11a108 108 0 0 1-10.5 10.1 87 87 0 0 1-12 8.6 71 71 0 0 1-12.6 6.2L77 189c1.3-2.5 2-4.3 2-5.4 0-1.3-.3-2.6-1-3.8-1.4-2.4-3.5-4.2-6-5.3a10 10 0 0 0-3.5-.8c-1.8 0-3 .4-3 1.3a13 13 0 0 0-.4 3.5v.6l-7.8 13q-2.4 4-5 8.8-2.6 4.8-5 10-2.6 5-4.7 10.2c-1-.1-1.8-.5-2.7-1-.6-.4-1.2-1-1.7-1.5-.4-.5-.7-1-1-1.7-.2-.5-.4-1-.6-1.6a16 16 0 0 0-1.2-3.3c-.7-1-2-1.5-3-1.4-1-.1-2.2.4-3 1.3-.7 1-1 2.2-1 3.4a10 10 0 0 0 .7 3.4c.5 1.4 1.2 2.6 2 3.8 1 1.3 2.2 2.5 3.5 3.5 1.5 1 3 2 4.8 2.6l-3 10a43 43 0 0 0-1 9.1 23 23 0 0 0 1 6.3 27 27 0 0 0 2.8 6c1.2 1.7 2.7 3.2 4.4 4.4 1.7 1 3.7 1.7 5.7 1.7 1.4.1 2.8-.2 4-1 .8-.7 1.2-1.7 1-2.7 0-.7-.1-1.3-.4-2l-1-2.4h.1l-1.4-4.2c-.5-1.7-.7-3.4-.7-5a41 41 0 0 1 1.3-9.8c1-3.6 2-7 3.6-10.5A71 71 0 0 0 75 224a98 98 0 0 0 17.1-8.5l14.7-11a88 88 0 0 0 11.6-12.5 58 58 0 0 0 7.5-13zm10.2 10.6c2 0 3.7-.3 5.5-1 1.6-.6 3-1.4 4.3-2.4 1-1 2-2 2.8-3.3 1.2-2 1.3-4.7.2-7-.5-1-1.2-1.8-2-2.5-1-.7-2-1.2-3-1.5-1-.4-2.3-.5-3.5-.5a4 4 0 0 0-2.8 1.4c-1 1-1.8 2.2-2.5 3.5l-1.8 4.4c-.4 1.3-.6 2.7-.7 4a6 6 0 0 0 .8 3.3c.5 1 1.5 1.4 2.5 1.3zm179.2 17.6c-.2-.8-.8-1.4-1.5-1.7-.8-.3-1.6-.2-2.4.1-1 .5-1.7 1.3-2.2 2.2a50 50 0 0 1-8.3 11.6l-12.4 11.4q2-4.4 3.6-8.6l5-13.7c.4-1 .6-2.3.7-3.5a8 8 0 0 0-1-3.7c-.7-1.3-1.5-2.5-2.5-3.6l-3-2.7c-1-.6-2-1-3-1-1-.1-2.2.4-3 1.3-.8 1.3-1.2 2.7-1 4.2-.3 1.2-.7 2.3-1.2 3.4q-1.2 3-3 8-1.5 2.3-4 5.6-2.4 3.3-5 7-2.7 3.8-5.5 7.5l-5.2 6.7-4.2 4.8c-1.2 1.2-2 2-2.5 2-.2 0 0-.6.5-1.8s1.3-2.7 2.2-4.6l13-25.4a54 54 0 0 0 1.9-4.6c.4-1 .6-2.2.7-3.3a7 7 0 0 0-2-5 13 13 0 0 0-4.7-3c-1.5-.6-3-1-4.7-1-1.4 0-2 .5-2 1.4 0 1-.2 2.2-.6 3.2l-1.5 4q-1 2.2-2.2 4.6l-.3.7-1.5 2.4c-1.3 2-2.7 4-4.2 5.8l-5.6 6a32 32 0 0 1-6.5 5c3.7-7.4 5.6-15.6 5.6-24 0-1.5-.2-3-.5-4.4-.3-1.3-1-2.5-2-3.5a9 9 0 0 0-3.7-2.3c-2-.6-4-1-6-.8-1.7 0-3.3.3-4.8 1a23 23 0 0 0-4.6 2.4c-1.5 1-3 2.2-4.2 3.5l-4 4.2q-1-.3-2.2-.5l-2-.2c-1 .1-1.8.6-2.4 1.3-.1 0-.2.1-.3.1-1 .5-1.8 1.2-2.3 2.2h0l-.2.5-3.2 4.8c-1.6 2.8-3 5.8-4 8.8l-.7 2.3-2.5 4.2q-2.4 4-4.7 7.2c-1.3 2-2.7 3.6-4.3 5.2-1.3 1.3-2.5 2-3.4 2-.1 0-.2-.3-.2-.8a16 16 0 0 1 .9-4.6 84 84 0 0 1 2.4-6.3c1-2.3 2-4.6 3.2-7l7-15c.8-1.5 1.3-3 1.6-4.8 0-1.2-.3-2.3-.8-3.4a13 13 0 0 0-2-3c-.8-1-1.7-1.7-2.7-2.4-.8-.6-1.7-1-2.6-1.4-.2-.1-.5-.2-.8-.2h-.6q-1 0-2.8 1.6-2 1.6-4.4 4.2l-11.2 13q1-2.5 2-4.5c.4-1 .7-2.2.7-3.3 0-2-.7-3.7-2-5a15 15 0 0 0-4.7-3.3c-1.5-.7-3-1-4.7-1q-2 .1-2 1.6a24 24 0 0 1-2 7.4l-1 2.3c-.2.1-.4.3-.5.5v.1c-.5 1-1.3 2.6-2.5 4.7l-9 15.3a91 91 0 0 1-5.6 7.6c-1.6 2-3.5 4-5.4 5.7q-2.6 2.2-4.7 2.2c-.2 0-.3-.3-.3-1 .1-1.5.4-3 1-4.5.6-2 1.4-4 2.4-6.3a200 200 0 0 1 3.2-7.1l8-18c.3-.6.4-1.2.5-2a6 6 0 0 0-1.9-4.1c-1.2-1.3-2.6-2.4-4.2-3.2-1.3-.7-2.7-1.2-4.2-1.4-1.3-.1-2 .4-2 1.4-.3 1.6-.8 3.2-1.6 4.7q-1.6 3.6-4 8.5l-7 15.6a78 78 0 0 0-2.5 7 20 20 0 0 0-1 5.3q0 6 3 9.4c2 2.3 4.8 3.6 7.8 3.5 2.6-.1 5.2-1 7.4-2.5a40 40 0 0 0 7.3-6.3 74 74 0 0 0 3.1-3.6c0 1.7.3 3.4 1 5 .6 1.5 1.5 2.8 2.6 4 1 1 2.2 2 3.5 2.6 1.2.6 2.4 1 3.7 1 .8 0 1.6-.1 2.3-.4.5-.2.8-.6 1-1 .1-.5.1-1 0-1.7l-.5-2c-.1-.2-.1-.4-.1-.7s0-.4-.1-.7l-.2-.8v-.6l.2-1a62 62 0 0 1 3.5-6q2.4-3.6 5.5-7.6 3-4 6.6-8.2 3.5-4.2 6.6-8-1.6 3.5-3.3 7.2l-3 7-2 6.3c-.5 1.6-.8 3.2-.8 5q0 6 3 9.4a10 10 0 0 0 7.7 3.5c2.3-.1 4.5-1 6.3-2.5 2.4-2 4.6-4 6.5-6.4l4-5.2c.2 1 .5 2 1 3 .8 2.2 2 4.3 3.8 6 1.5 1.6 3.3 2.8 5.3 3.7a16 16 0 0 0 6 1.2c4-.1 8-1.4 11.2-3.8a41 41 0 0 0 9.7-9.8 23 23 0 0 0 7.5-2.4 37 37 0 0 0 5-3.2c-.1.2-.1.4-.2.6-.5 1.8-.7 3.6-.8 5.5 0 1.4.3 2.8.8 4a17 17 0 0 0 2.4 4.3 16 16 0 0 0 3.5 3.4 7 7 0 0 0 4.1 1.4c1-.1 2-.5 3-1.2a25 25 0 0 0 3.6-2.8 58 58 0 0 0 4-4.1c1.4-1.6 3-3.2 4.3-5l-6.7 13q-6.2 4.4-11.6 8.5l-9.7 7.8a44 44 0 0 0-6.6 7c-1.4 1.7-2.3 3.8-2.4 6a10 10 0 0 0 .7 3.3c.5 1.3 1.3 2.5 2.3 3.5 1.3 1.2 2.8 2 4.5 2.7a20 20 0 0 0 7.1 1.1q4 0 8.7-4a70 70 0 0 0 9.6-10.8 168 168 0 0 0 9.7-15.1q4.8-8.4 9-17 5.4-4.3 10.5-8.6 5-4.3 9.4-8.6l7.6-8.5c2-2.5 3.7-5.2 5-8 .5-1 .6-2 .3-3zm-98.8 35c-2 1.2-4 1.8-6.2 1.8-1 .1-2-.2-2.7-1-.5-.7-.8-1.6-.8-2.5a18 18 0 0 1 .8-5 55 55 0 0 1 2-5.7 24 24 0 0 0 5.5 4.5 26 26 0 0 0 6.8 3c-1.5 2-3.4 3.5-5.4 4.8zm17.3-30.7l-1.6 6.5-2.6 7-3.4 6.8c-1.5-.1-3-.8-3.8-2-.7-1-1-2.4-1-3.7.1-2.6.6-5 1.5-7.5a54 54 0 0 1 3.6-7.7 43 43 0 0 1 4-6c1.3-1.6 2.3-2.4 3-2.4s1 1.3 1 3.8c0 1.8-.2 3.6-.6 5.3zm20.2 56.8l-6 7.7c-1.7 2-3.6 3.7-5.7 5.2-1.5 1.2-3.4 2-5.4 2-1 0-1.4-.5-1.4-1.5s.6-2.4 2-4c1.6-2 3.3-3.6 5.2-5.2q3.3-3 7.7-6.3 4.4-3.4 9.5-7.2-2.8 5-5.8 9.4z" fill="#cc384a"/></svg>