<svg xmlns="http://www.w3.org/2000/svg" viewBox="0 0 580.93 336.77"><defs><style>.cls-1{isolation:isolate;}.cls-2{fill:#f08821;}.cls-3{fill:#868686;}.cls-4{fill:#79451c;}.cls-5{fill:#f0b363;}.cls-6{fill:#e76824;}.cls-7{fill:#d9d9d8;}.cls-10,.cls-12,.cls-8{fill:none;}.cls-8{opacity:0.1;}.cls-9{mix-blend-mode:overlay;}.cls-10,.cls-11{stroke:#727072;}.cls-10,.cls-11,.cls-12,.cls-13{stroke-miterlimit:10;stroke-width:2px;}.cls-11,.cls-14{fill:#727072;}.cls-12,.cls-13{stroke:#27aae1;}.cls-13{fill:#354ea2;}.cls-15{fill:#cc384a;}</style></defs><title>Himig Pinoy</title><g class="cls-1"><g id="Layer_1" data-name="Layer 1"><g id="Himig"><path class="cls-2" d="M424.45,448.26,408.22,432A80.28,80.28,0,0,1,521.76,318.49L538,334.73A80.28,80.28,0,0,1,424.45,448.26" transform="translate(-138.68 -134.91)"/><path class="cls-2" d="M513,359.05,497.43,343.5a59.1,59.1,0,0,1,0-83.34h0a59.09,59.09,0,0,1,83.33,0l15.56,15.56a59.09,59.09,0,0,1,0,83.33h0a59.1,59.1,0,0,1-83.34,0" transform="translate(-138.68 -134.91)"/><rect class="cls-3" x="500.84" y="250.66" width="184.47" height="25.5" transform="translate(-151.23 361.61) rotate(-45)"/><rect class="cls-4" x="454.72" y="366.76" width="11.78" height="58.22" transform="translate(-283.69 306.74) rotate(-45)"/><polygon class="cls-5" points="580.93 34.05 548.84 1.97 514.12 36.69 509.66 53.33 529.57 73.24 546.21 68.78 580.93 34.05"/><path class="cls-4" d="M699.56,173.2a3.73,3.73,0,0,1,0-5.27,3.67,3.67,0,0,1,2.64-1.09,3.85,3.85,0,0,1,3.72,3.71,3.75,3.75,0,0,1-1.09,2.65,3.75,3.75,0,0,1-5.27,0Z" transform="translate(-138.68 -134.91)"/><path class="cls-4" d="M689.08,183.67A3.68,3.68,0,0,1,688,181a3.7,3.7,0,0,1,3.72-3.73,3.85,3.85,0,0,1,3.72,3.72,3.73,3.73,0,0,1-6.36,2.64Z" transform="translate(-138.68 -134.91)"/><path class="cls-4" d="M678.61,194.15a3.73,3.73,0,0,1,0-5.27,3.71,3.71,0,0,1,2.64-1.09,3.85,3.85,0,0,1,3.72,3.72,3.7,3.7,0,0,1-3.73,3.72A3.68,3.68,0,0,1,678.61,194.15Z" transform="translate(-138.68 -134.91)"/><path class="cls-4" d="M683.28,156.92a3.75,3.75,0,0,1,0-5.27,3.75,3.75,0,0,1,2.65-1.09,3.86,3.86,0,0,1,3.72,3.72,3.74,3.74,0,0,1-3.73,3.73A3.67,3.67,0,0,1,683.28,156.92Z" transform="translate(-138.68 -134.91)"/><path class="cls-4" d="M672.81,167.4a3.73,3.73,0,0,1,2.64-6.36,3.85,3.85,0,0,1,3.72,3.72,3.73,3.73,0,0,1-6.36,2.64Z" transform="translate(-138.68 -134.91)"/><path class="cls-4" d="M662.33,177.88a3.73,3.73,0,0,1,2.64-6.37,3.85,3.85,0,0,1,3.72,3.72,3.75,3.75,0,0,1-1.09,2.65,3.75,3.75,0,0,1-5.27,0Z" transform="translate(-138.68 -134.91)"/><path class="cls-6" d="M554.46,302a37.63,37.63,0,1,0,0,53.22,37.67,37.67,0,0,0,0-53.22Z" transform="translate(-138.68 -134.91)"/><circle class="cls-4" cx="527.85" cy="328.63" r="29.11" transform="translate(-116.44 555.63) rotate(-67.5)"/><rect class="cls-7" x="410.65" y="286.68" width="279.57" height="2.66" transform="translate(-181.11 338.67) rotate(-45)"/><rect class="cls-7" x="416.66" y="292.69" width="279.57" height="2.66" transform="translate(-183.6 344.68) rotate(-45)"/><rect class="cls-7" x="422.67" y="298.7" width="279.57" height="2.66" transform="translate(-186.09 350.69) rotate(-45)"/><rect class="cls-7" x="428.68" y="304.71" width="279.57" height="2.66" transform="translate(-188.58 356.7) rotate(-45)"/><path class="cls-8" d="M598.15,284.27m0,0a54.58,54.58,0,0,1-38.61,87.49l-4.71.42.9,4.63a76,76,0,0,1-128.26,68.44L411.23,429a76,76,0,0,1,68.43-128.26l4.64.9.42-4.71a54.69,54.69,0,0,1,87.49-38.61" transform="translate(-138.68 -134.91)"/><g class="cls-9"><path class="cls-10" d="M276.1,249.68a21.86,21.86,0,0,1,2.87,1.87,16.24,16.24,0,0,1,2.29,2.15q.57-2.44,1.22-4.8t1.51-5q-2.44,1.58-4.38,3.08T276.1,249.68Z" transform="translate(-138.68 -134.91)"/><path class="cls-11" d="M402.44,162.9a22.47,22.47,0,0,0-4-4.58A28.41,28.41,0,0,0,388,152.58a9.47,9.47,0,0,0-4-.36c-1.09.2-1.64.77-1.64,1.72a24.24,24.24,0,0,1-1.51,7.46,102.52,102.52,0,0,1-4,9.89q-2.51,5.44-5.88,11.68t-7,12.82l-4.87,9.3q-8.61.71-16.7,1.91T327,209.61q2.58-5,4.95-9c1.57-2.63,3.08-5.06,4.51-7.31s2.87-4.45,4.3-6.6l4.45-6.67q5-7.76,8.24-13.2c2.15-3.63,3.22-6.36,3.22-8.17a11.9,11.9,0,0,0-1.65-6,20.06,20.06,0,0,0-4.08-5,20.35,20.35,0,0,0-5.45-3.44,14.25,14.25,0,0,0-5.59-1.29,85,85,0,0,0-21.35,2.94,169,169,0,0,0-23.08,7.88A224.21,224.21,0,0,0,272,165.34q-11.76,6.66-22.51,14t-20,15.2a187.45,187.45,0,0,0-16,15.12,85.65,85.65,0,0,0-10.68,13.69q-3.87,6.38-3.87,11.1A20.7,20.7,0,0,0,200.5,243a19.81,19.81,0,0,0,4.3,6.3A18.07,18.07,0,0,0,211,253.2a20.18,20.18,0,0,0,7.38,1.36,16.35,16.35,0,0,0,5.09-.58,2.86,2.86,0,0,0,2-1.72,4,4,0,0,0-.29-2.72c-.43-1-1-2.29-1.65-3.73-.47-1.05-1-2.31-1.57-3.79a11.92,11.92,0,0,1-.86-4.37q0-8.31,6-17.49A99.1,99.1,0,0,1,242.78,202a187.73,187.73,0,0,1,21.86-17.27,257.81,257.81,0,0,1,24.65-14.91,227.22,227.22,0,0,1,23.93-11,91.2,91.2,0,0,1,19.64-5.59L329,159.1q-3,4.46-7.17,10.61T313,183.47q-4.67,7.59-9.46,16.34t-9.25,18.34a151.31,151.31,0,0,0-15.19,6,89.19,89.19,0,0,0-11.46,6.31,32.47,32.47,0,0,0-7.24,6.23q-2.51,3.09-2.51,5.67a11.28,11.28,0,0,0,1.22,4.94,24.43,24.43,0,0,0,2.94,4.66,24.18,24.18,0,0,0,3.44,3.58,4.9,4.9,0,0,0,2.72,1.43,6.92,6.92,0,0,1,5.52,2.44,16,16,0,0,1,3.08,5.73,32.27,32.27,0,0,1,1.29,6.81q.28,3.51.29,5.81v.71a36.54,36.54,0,0,0,1.79,10.18,34.72,34.72,0,0,0,4.58,9.39,26.39,26.39,0,0,0,7,6.95,16.3,16.3,0,0,0,9.24,2.72c3.06,0,5.18-.45,6.38-1.36a5,5,0,0,0,1.79-4.23,9.77,9.77,0,0,0-.57-3.22c-.39-1.1-.82-2.37-1.29-3.8q-1.16-3-2.37-6.88a28.12,28.12,0,0,1-1.22-8.46,92.11,92.11,0,0,1,4.09-26.8A192.1,192.1,0,0,1,318,226.75q7.74-2.87,16.63-5.66t18.34-4.8q-3.44,6.89-6.59,13.76t-5.52,13.54a105.57,105.57,0,0,0-3.72,13,56.37,56.37,0,0,0-1.36,11.9,29.84,29.84,0,0,0,1.5,9.32,26.39,26.39,0,0,0,4.23,8.09,22.89,22.89,0,0,0,6.31,5.67,14.76,14.76,0,0,0,7.73,2.15q3.74,0,5.16-1.29a4.76,4.76,0,0,0,1.44-3.73,6.88,6.88,0,0,0-.43-2.22,30.43,30.43,0,0,1-.86-2.94,40.06,40.06,0,0,1-1.36-5,32.15,32.15,0,0,1-.65-6.73,52.65,52.65,0,0,1,1.94-13.55,119,119,0,0,1,5.08-14.83q3.15-7.59,7.1-15.34t8.1-15c1.62-.09,2.93-.14,3.94-.14h3.94a8.86,8.86,0,0,0,5.37-1.34,4,4,0,0,0,1.8-3.32,4.25,4.25,0,0,0-1.58-3.24,6.91,6.91,0,0,0-4.73-1.42c-.57,0-1.15,0-1.72.08s-1.15.07-1.72.07l2.15-3.44q3.3-5.44,6.16-10.39t4.95-9.1a80.82,80.82,0,0,0,3.29-7.39,15.93,15.93,0,0,0,1.22-5.37A9.2,9.2,0,0,0,402.44,162.9Zm-120,86q-.64,2.35-1.22,4.8a16.24,16.24,0,0,0-2.29-2.15,21.86,21.86,0,0,0-2.87-1.87q1.57-1.14,3.51-2.65T284,244Q283.12,246.53,282.48,248.9Z" transform="translate(-138.68 -134.91)"/></g><path class="cls-12" d="M276.1,242.68a21.86,21.86,0,0,1,2.87,1.87,16.24,16.24,0,0,1,2.29,2.15q.57-2.44,1.22-4.8t1.51-5q-2.44,1.58-4.38,3.08T276.1,242.68Z" transform="translate(-138.68 -134.91)"/><path class="cls-13" d="M402.44,155.9a22.47,22.47,0,0,0-4-4.58A28.41,28.41,0,0,0,388,145.58a9.47,9.47,0,0,0-4-.36c-1.09.2-1.64.77-1.64,1.72a24.24,24.24,0,0,1-1.51,7.46,102.52,102.52,0,0,1-4,9.89q-2.51,5.44-5.88,11.68t-7,12.82l-4.87,9.3q-8.61.71-16.7,1.91T327,202.61q2.58-5,4.95-9c1.57-2.63,3.08-5.06,4.51-7.31s2.87-4.45,4.3-6.6l4.45-6.67q5-7.76,8.24-13.2c2.15-3.63,3.22-6.36,3.22-8.17a11.9,11.9,0,0,0-1.65-6,20.06,20.06,0,0,0-4.08-5,20.35,20.35,0,0,0-5.45-3.44,14.25,14.25,0,0,0-5.59-1.29,85,85,0,0,0-21.35,2.94,169,169,0,0,0-23.08,7.88A224.21,224.21,0,0,0,272,158.34q-11.76,6.66-22.51,14t-20,15.2a187.45,187.45,0,0,0-16,15.12,85.65,85.65,0,0,0-10.68,13.69q-3.87,6.38-3.87,11.1A20.7,20.7,0,0,0,200.5,236a19.81,19.81,0,0,0,4.3,6.3A18.07,18.07,0,0,0,211,246.2a20.18,20.18,0,0,0,7.38,1.36,16.35,16.35,0,0,0,5.09-.58,2.86,2.86,0,0,0,2-1.72,4,4,0,0,0-.29-2.72c-.43-1-1-2.29-1.65-3.73-.47-1.05-1-2.31-1.57-3.79a11.92,11.92,0,0,1-.86-4.37q0-8.31,6-17.49A99.1,99.1,0,0,1,242.78,195a187.73,187.73,0,0,1,21.86-17.27,257.81,257.81,0,0,1,24.65-14.91,227.22,227.22,0,0,1,23.93-11,91.2,91.2,0,0,1,19.64-5.59L329,152.1q-3,4.46-7.17,10.61T313,176.47q-4.67,7.59-9.46,16.34t-9.25,18.34a151.31,151.31,0,0,0-15.19,6,89.19,89.19,0,0,0-11.46,6.31,32.47,32.47,0,0,0-7.24,6.23q-2.51,3.09-2.51,5.67a11.28,11.28,0,0,0,1.22,4.94,24.43,24.43,0,0,0,2.94,4.66,24.18,24.18,0,0,0,3.44,3.58,4.9,4.9,0,0,0,2.72,1.43,6.92,6.92,0,0,1,5.52,2.44,16,16,0,0,1,3.08,5.73,32.27,32.27,0,0,1,1.29,6.81q.28,3.51.29,5.81v.71a36.54,36.54,0,0,0,1.79,10.18,34.72,34.72,0,0,0,4.58,9.39,26.39,26.39,0,0,0,7,6.95,16.3,16.3,0,0,0,9.24,2.72c3.06,0,5.18-.45,6.38-1.36a5,5,0,0,0,1.79-4.23,9.77,9.77,0,0,0-.57-3.22c-.39-1.1-.82-2.37-1.29-3.8q-1.16-3-2.37-6.88a28.12,28.12,0,0,1-1.22-8.46,92.11,92.11,0,0,1,4.09-26.8A192.1,192.1,0,0,1,318,219.75q7.74-2.87,16.63-5.66t18.34-4.8q-3.44,6.89-6.59,13.76t-5.52,13.54a105.57,105.57,0,0,0-3.72,13,56.37,56.37,0,0,0-1.36,11.9,29.84,29.84,0,0,0,1.5,9.32,26.39,26.39,0,0,0,4.23,8.09,22.89,22.89,0,0,0,6.31,5.67,14.76,14.76,0,0,0,7.73,2.15q3.74,0,5.16-1.29a4.76,4.76,0,0,0,1.44-3.73,6.88,6.88,0,0,0-.43-2.22,30.43,30.43,0,0,1-.86-2.94,40.06,40.06,0,0,1-1.36-5,32.15,32.15,0,0,1-.65-6.73,52.65,52.65,0,0,1,1.94-13.55,119,119,0,0,1,5.08-14.83q3.15-7.59,7.1-15.34t8.1-15c1.62-.09,2.93-.14,3.94-.14h3.94a8.86,8.86,0,0,0,5.37-1.34,4,4,0,0,0,1.8-3.32,4.25,4.25,0,0,0-1.58-3.24,6.91,6.91,0,0,0-4.73-1.42c-.57,0-1.15,0-1.72.08s-1.15.07-1.72.07l2.15-3.44q3.3-5.44,6.16-10.39t4.95-9.1a80.82,80.82,0,0,0,3.29-7.39,15.93,15.93,0,0,0,1.22-5.37A9.2,9.2,0,0,0,402.44,155.9Zm-120,86q-.64,2.35-1.22,4.8a16.24,16.24,0,0,0-2.29-2.15,21.86,21.86,0,0,0-2.87-1.87q1.57-1.14,3.51-2.65T284,237Q283.12,239.53,282.48,241.9Z" transform="translate(-138.68 -134.91)"/><g class="cls-9"><path class="cls-10" d="M587.16,246.46a5,5,0,0,0-1.71-1.71,6.27,6.27,0,0,0-3.38-.76,8.25,8.25,0,0,0-4.9,2,30.29,30.29,0,0,0-5.18,5.24,64,64,0,0,0-5,7.27,74.9,74.9,0,0,0-4.18,8.23,63.48,63.48,0,0,0-2.9,8,24.89,24.89,0,0,0-1.1,6.61,6.16,6.16,0,0,0,.43,2.53,1.51,1.51,0,0,0,1.47.9,8.11,8.11,0,0,0,5.52-2.62,35.69,35.69,0,0,0,5.23-6.37,64.23,64.23,0,0,0,4.47-8,75.08,75.08,0,0,0,3.14-7.56v.1c.25-1,.49-1.86.71-2.71s.4-1.6.53-2.24V255c0-2,.36-3.46,1.09-4.28a3.71,3.71,0,0,1,2.9-1.24,5.89,5.89,0,0,1,3.24,1.15,1.82,1.82,0,0,1,.09-1.34,2.93,2.93,0,0,0,.05-1A4.36,4.36,0,0,0,587.16,246.46Z" transform="translate(-138.68 -134.91)"/><path class="cls-10" d="M545.12,312.7a47.28,47.28,0,0,0-5.18,5.23c-1.27,1.56-1.91,2.87-1.91,3.95s.48,1.52,1.43,1.52a9.7,9.7,0,0,0,5.42-1.95,31.93,31.93,0,0,0,5.76-5.23,71.42,71.42,0,0,0,5.84-7.7q3-4.42,5.81-9.37-5,3.81-9.47,7.23T545.12,312.7Z" transform="translate(-138.68 -134.91)"/><path class="cls-11" d="M538.6,230.1a15.64,15.64,0,0,0,9.8-3.37,11.52,11.52,0,0,0,2.81-3.29,7.2,7.2,0,0,0-1.81-9.36,9.29,9.29,0,0,0-2.95-1.53A11.8,11.8,0,0,0,543,212a4,4,0,0,0-2.81,1.43A14.94,14.94,0,0,0,537.7,217a23,23,0,0,0-1.76,4.42,15.37,15.37,0,0,0-.66,4.14,6.06,6.06,0,0,0,.8,3.28A2.78,2.78,0,0,0,538.6,230.1Z" transform="translate(-138.68 -134.91)"/><path class="cls-11" d="M617.59,247.79a2.55,2.55,0,0,0-1.52-1.66,3.14,3.14,0,0,0-2.38.09,4.76,4.76,0,0,0-2.23,2.24v.09a50.83,50.83,0,0,1-8.28,11.37A138.42,138.42,0,0,1,591,271.28q1.34-3.51,2.19-6.51a18.08,18.08,0,0,0,.85-4.33,8.15,8.15,0,0,0-1-3.71,16.54,16.54,0,0,0-2.57-3.61c.89-.19,1.71-1.08,2.47-2.67a11.13,11.13,0,0,0,.29-2.09,12.92,12.92,0,0,0-.24-3.18,14.4,14.4,0,0,0-1.24-3.62,12.14,12.14,0,0,0-2.52-3.42,12.54,12.54,0,0,0-4.09-2.57,16.22,16.22,0,0,0-6.08-1,22.57,22.57,0,0,0-8.52,1.71,35.42,35.42,0,0,0-8.08,4.62,46.65,46.65,0,0,0-7.13,6.69,1.27,1.27,0,0,0-.81.58v.1l-.41.8a49.66,49.66,0,0,0-4.59,6.76,46.22,46.22,0,0,0-3.21,7.06c-1.08,1.76-2.2,3.53-3.4,5.35a91,91,0,0,1-5.56,7.61,45.14,45.14,0,0,1-5.42,5.66q-2.62,2.24-4.71,2.23c-.19,0-.28-.28-.28-.85a15.45,15.45,0,0,1,1-4.52q.95-2.89,2.42-6.33t3.24-7.13L536.8,258l1.9-4c.63-1.37,1.2-2.63,1.71-3.81s.92-2.2,1.24-3.09a6.85,6.85,0,0,0,.47-1.9,5.93,5.93,0,0,0-1.9-4.09,16.82,16.82,0,0,0-4.18-3.23,10.49,10.49,0,0,0-4.19-1.38c-1.27-.1-1.9.36-1.9,1.38a16.31,16.31,0,0,1-1.62,4.66q-1.62,3.61-3.9,8.46c-.16.36-.33.73-.5,1.09l-.73,1.29c-1.21,2.09-2.6,4.44-4.19,7s-3.28,5.27-5.09,8-3.58,5.28-5.32,7.56a52.9,52.9,0,0,1-4.85,5.62c-1.49,1.45-2.68,2.18-3.57,2.18-.19,0-.29-.25-.29-.76a15.64,15.64,0,0,1,1-4.61c.63-1.93,1.42-4,2.37-6.28s2-4.59,3.19-7,2.3-4.77,3.38-7q2.18-4.56,3.8-8a14.31,14.31,0,0,0,1.62-4.81,7.17,7.17,0,0,0-.86-3.28,15.69,15.69,0,0,0-2.09-3.09,16.63,16.63,0,0,0-2.66-2.47,7.71,7.71,0,0,0-2.57-1.33,2.13,2.13,0,0,0-.76-.19h-.48c-.57,0-1.49.52-2.76,1.57a52.93,52.93,0,0,0-4.37,4.13c-1.65,1.72-3.44,3.68-5.38,5.9s-3.85,4.47-5.75,6.75a44.23,44.23,0,0,0,1.66-4.28,10.48,10.48,0,0,0,.62-3.23,8.5,8.5,0,0,0-1.19-4.47,14.08,14.08,0,0,0-2.8-3.42,12.27,12.27,0,0,0-3.47-2.19,8.49,8.49,0,0,0-3.09-.76,12.1,12.1,0,0,0-3.09,2.19c-1.31,1.14-2.76,2.56-4.38,4.27s-3.35,3.62-5.18,5.71-3.65,4.22-5.43,6.37q1.05-2.37,1.72-4.32a10.81,10.81,0,0,0,.66-3.38,6.92,6.92,0,0,0-2.09-5,15.24,15.24,0,0,0-4.66-3.29,10.48,10.48,0,0,0-4.66-1c-1.4.06-2.09.6-2.09,1.62a18.73,18.73,0,0,1-2.09,7.37q-2.1,4.51-4.76,9.74-1.62,3.15-3.19,6.28c-1,2.09-2,4.17-2.8,6.23a50.68,50.68,0,0,0-2,6,21.52,21.52,0,0,0-.76,5.47,12.14,12.14,0,0,0,1.05,5.14,14.51,14.51,0,0,0,2.61,3.95,11.68,11.68,0,0,0,3.47,2.56,8.54,8.54,0,0,0,3.71.91,4.78,4.78,0,0,0,2.33-.43,1.91,1.91,0,0,0,.91-1.14,3.9,3.9,0,0,0,0-1.67c-.13-.63-.29-1.33-.48-2.09a5.49,5.49,0,0,1-.29-1,5.89,5.89,0,0,1-.09-1,4.48,4.48,0,0,1,.05-.61c0-.29.08-.59.14-.91a43.51,43.51,0,0,1,3.85-6.56c1.74-2.54,3.71-5.21,5.9-8s4.47-5.66,6.85-8.51,4.64-5.48,6.8-7.89c.06-.07,0,0,0,.14s-.27.47-.52.95-.64,1.22-1.15,2.23c-1.07,2-2.12,4.11-3.13,6.24s-1.94,4.21-2.76,6.27a50.68,50.68,0,0,0-2,6,21.52,21.52,0,0,0-.76,5.47,12.6,12.6,0,0,0,1,5.14,13.54,13.54,0,0,0,2.57,3.95,11.27,11.27,0,0,0,3.52,2.56,8.77,8.77,0,0,0,3.75.91,4.56,4.56,0,0,0,2.24-.43,2.14,2.14,0,0,0,.95-1.14,3,3,0,0,0,0-1.67c-.16-.63-.33-1.33-.52-2.09l.09.1a3.75,3.75,0,0,1-.14-.67,4.89,4.89,0,0,0-.14-.67l-.2-.76a5.73,5.73,0,0,1,.05-.66c0-.25.08-.54.15-.86a46.9,46.9,0,0,1,3.7-6.32q2.47-3.66,5.57-7.71t6.56-8.18q3.46-4.12,6.61-7.75-1.71,3.61-3.42,7.33c-1.14,2.47-2.18,4.88-3.09,7.22s-1.67,4.51-2.24,6.47a18.48,18.48,0,0,0-.86,4.95q0,5.9,3.1,9.37a10,10,0,0,0,7.75,3.47,10.72,10.72,0,0,0,6.13-2.48,42.55,42.55,0,0,0,6.8-6.37c1.09-1.23,2.17-2.54,3.24-3.91q0,5.83,3,9.29a9.78,9.78,0,0,0,7.75,3.47,13.37,13.37,0,0,0,7.37-2.48,39.65,39.65,0,0,0,7.33-6.32,79.39,79.39,0,0,0,5.09-6.12,23.36,23.36,0,0,0,.71,3.12,20.84,20.84,0,0,0,2.9,6,15.14,15.14,0,0,0,4.71,4.38,12.51,12.51,0,0,0,6.51,1.66,9.4,9.4,0,0,0,3.71-.76,17.74,17.74,0,0,0,3.62-2.09l-.48,1.05q-6.66,4.74-12.7,9.13t-10.65,8.32a53.1,53.1,0,0,0-7.32,7.42q-2.72,3.47-2.71,6.42a10,10,0,0,0,.66,3.28,9.44,9.44,0,0,0,2.33,3.47,13.71,13.71,0,0,0,4.52,2.76,19.64,19.64,0,0,0,7.23,1.14,12.13,12.13,0,0,0,6.42-2.14,37.88,37.88,0,0,0,6.85-5.76,75.18,75.18,0,0,0,6.89-8.41q3.42-4.81,6.66-10.18t6.13-11q2.91-5.62,5.28-10.85,5.24-4.19,10.18-8.41t9.08-8.37a88,88,0,0,0,7.28-8.18,39.23,39.23,0,0,0,4.85-7.85A4.51,4.51,0,0,0,617.59,247.79Zm-61.11,60.73a71.42,71.42,0,0,1-5.84,7.7,31.93,31.93,0,0,1-5.76,5.23,9.7,9.7,0,0,1-5.42,1.95c-1,0-1.43-.51-1.43-1.52s.64-2.39,1.91-3.95a47.28,47.28,0,0,1,5.18-5.23q3.28-2.9,7.7-6.32t9.47-7.23Q559.42,304.1,556.48,308.52Zm31.2-59.21a1.82,1.82,0,0,0-.09,1.34,5.89,5.89,0,0,0-3.24-1.15,3.71,3.71,0,0,0-2.9,1.24c-.73.82-1.09,2.25-1.09,4.28v.38c-.13.64-.31,1.38-.53,2.24s-.46,1.76-.71,2.71v-.1a75.08,75.08,0,0,1-3.14,7.56,64.23,64.23,0,0,1-4.47,8,35.69,35.69,0,0,1-5.23,6.37,8.11,8.11,0,0,1-5.52,2.62,1.51,1.51,0,0,1-1.47-.9,6.16,6.16,0,0,1-.43-2.53,24.89,24.89,0,0,1,1.1-6.61,63.48,63.48,0,0,1,2.9-8,74.9,74.9,0,0,1,4.18-8.23,64,64,0,0,1,5-7.27,30.29,30.29,0,0,1,5.18-5.24,8.25,8.25,0,0,1,4.9-2,6.27,6.27,0,0,1,3.38.76,5,5,0,0,1,1.71,1.71,4.36,4.36,0,0,1,.57,1.81A2.93,2.93,0,0,1,587.68,249.31Z" transform="translate(-138.68 -134.91)"/></g><path class="cls-12" d="M587.16,239.46a5,5,0,0,0-1.71-1.71,6.27,6.27,0,0,0-3.38-.76,8.25,8.25,0,0,0-4.9,2,30.29,30.29,0,0,0-5.18,5.24,64,64,0,0,0-5,7.27,74.9,74.9,0,0,0-4.18,8.23,63.48,63.48,0,0,0-2.9,8,24.89,24.89,0,0,0-1.1,6.61,6.16,6.16,0,0,0,.43,2.53,1.51,1.51,0,0,0,1.47.9,8.11,8.11,0,0,0,5.52-2.62,35.69,35.69,0,0,0,5.23-6.37,64.23,64.23,0,0,0,4.47-8,75.08,75.08,0,0,0,3.14-7.56v.1c.25-.95.49-1.86.71-2.71s.4-1.6.53-2.24V248c0-2,.36-3.46,1.09-4.28a3.71,3.71,0,0,1,2.9-1.24,5.89,5.89,0,0,1,3.24,1.15,1.82,1.82,0,0,1,.09-1.34,2.93,2.93,0,0,0,.05-1A4.36,4.36,0,0,0,587.16,239.46Z" transform="translate(-138.68 -134.91)"/><path class="cls-12" d="M545.12,305.7a47.28,47.28,0,0,0-5.18,5.23c-1.27,1.56-1.91,2.87-1.91,3.95s.48,1.52,1.43,1.52a9.7,9.7,0,0,0,5.42-1.95,31.93,31.93,0,0,0,5.76-5.23,71.42,71.42,0,0,0,5.84-7.7q3-4.42,5.81-9.37-5,3.81-9.47,7.23T545.12,305.7Z" transform="translate(-138.68 -134.91)"/><path class="cls-13" d="M538.6,223.1a15.64,15.64,0,0,0,9.8-3.37,11.52,11.52,0,0,0,2.81-3.29,7.2,7.2,0,0,0-1.81-9.36,9.29,9.29,0,0,0-2.95-1.53A11.8,11.8,0,0,0,543,205a4,4,0,0,0-2.81,1.43A14.94,14.94,0,0,0,537.7,210a23,23,0,0,0-1.76,4.42,15.37,15.37,0,0,0-.66,4.14,6.06,6.06,0,0,0,.8,3.28A2.78,2.78,0,0,0,538.6,223.1Z" transform="translate(-138.68 -134.91)"/><path class="cls-13" d="M617.59,240.79a2.55,2.55,0,0,0-1.52-1.66,3.14,3.14,0,0,0-2.38.09,4.76,4.76,0,0,0-2.23,2.24v.09a50.83,50.83,0,0,1-8.28,11.37A138.42,138.42,0,0,1,591,264.28q1.34-3.51,2.19-6.51a18.08,18.08,0,0,0,.85-4.33,8.15,8.15,0,0,0-1-3.71,16.54,16.54,0,0,0-2.57-3.61c.89-.19,1.71-1.08,2.47-2.67a11.13,11.13,0,0,0,.29-2.09,12.92,12.92,0,0,0-.24-3.18,14.4,14.4,0,0,0-1.24-3.62,12.14,12.14,0,0,0-2.52-3.42,12.54,12.54,0,0,0-4.09-2.57,16.22,16.22,0,0,0-6.08-1,22.57,22.57,0,0,0-8.52,1.71,35.42,35.42,0,0,0-8.08,4.62,46.65,46.65,0,0,0-7.13,6.69,1.27,1.27,0,0,0-.81.58v.1l-.41.8a49.66,49.66,0,0,0-4.59,6.76,46.22,46.22,0,0,0-3.21,7.06c-1.08,1.76-2.2,3.53-3.4,5.35a91,91,0,0,1-5.56,7.61,45.14,45.14,0,0,1-5.42,5.66q-2.62,2.24-4.71,2.23c-.19,0-.28-.28-.28-.85a15.45,15.45,0,0,1,1-4.52q.95-2.89,2.42-6.33t3.24-7.13L536.8,251l1.9-4c.63-1.37,1.2-2.63,1.71-3.81s.92-2.2,1.24-3.09a6.85,6.85,0,0,0,.47-1.9,5.93,5.93,0,0,0-1.9-4.09,16.82,16.82,0,0,0-4.18-3.23,10.49,10.49,0,0,0-4.19-1.38c-1.27-.1-1.9.36-1.9,1.38a16.31,16.31,0,0,1-1.62,4.66q-1.62,3.61-3.9,8.46c-.16.36-.33.73-.5,1.09l-.73,1.29c-1.21,2.09-2.6,4.44-4.19,7s-3.28,5.27-5.09,8-3.58,5.28-5.32,7.56a52.9,52.9,0,0,1-4.85,5.62c-1.49,1.45-2.68,2.18-3.57,2.18-.19,0-.29-.25-.29-.76a15.64,15.64,0,0,1,1-4.61c.63-1.93,1.42-4,2.37-6.28s2-4.59,3.19-7,2.3-4.77,3.38-7q2.18-4.56,3.8-8a14.31,14.31,0,0,0,1.62-4.81,7.17,7.17,0,0,0-.86-3.28,15.69,15.69,0,0,0-2.09-3.09,16.63,16.63,0,0,0-2.66-2.47,7.71,7.71,0,0,0-2.57-1.33,2.13,2.13,0,0,0-.76-.19h-.48c-.57,0-1.49.52-2.76,1.57a52.93,52.93,0,0,0-4.37,4.13c-1.65,1.72-3.44,3.68-5.38,5.9s-3.85,4.47-5.75,6.75a44.23,44.23,0,0,0,1.66-4.28,10.48,10.48,0,0,0,.62-3.23,8.5,8.5,0,0,0-1.19-4.47,14.08,14.08,0,0,0-2.8-3.42,12.27,12.27,0,0,0-3.47-2.19,8.49,8.49,0,0,0-3.09-.76,12.1,12.1,0,0,0-3.09,2.19c-1.31,1.14-2.76,2.56-4.38,4.27s-3.35,3.62-5.18,5.71-3.65,4.22-5.43,6.37q1.05-2.37,1.72-4.32a10.81,10.81,0,0,0,.66-3.38,6.92,6.92,0,0,0-2.09-5,15.24,15.24,0,0,0-4.66-3.29,10.48,10.48,0,0,0-4.66-1c-1.4.06-2.09.6-2.09,1.62a18.73,18.73,0,0,1-2.09,7.37q-2.1,4.51-4.76,9.74-1.62,3.15-3.19,6.28c-1,2.09-2,4.17-2.8,6.23a50.68,50.68,0,0,0-2,6,21.52,21.52,0,0,0-.76,5.47,12.14,12.14,0,0,0,1.05,5.14,14.51,14.51,0,0,0,2.61,3.95,11.68,11.68,0,0,0,3.47,2.56,8.54,8.54,0,0,0,3.71.91,4.78,4.78,0,0,0,2.33-.43,1.91,1.91,0,0,0,.91-1.14,3.9,3.9,0,0,0,0-1.67c-.13-.63-.29-1.33-.48-2.09a5.49,5.49,0,0,1-.29-1,5.89,5.89,0,0,1-.09-1,4.48,4.48,0,0,1,.05-.61c0-.29.08-.59.14-.91a43.51,43.51,0,0,1,3.85-6.56c1.74-2.54,3.71-5.21,5.9-8s4.47-5.66,6.85-8.51,4.64-5.48,6.8-7.89c.06-.07,0,0,0,.14s-.27.47-.52.95-.64,1.22-1.15,2.23c-1.07,2-2.12,4.11-3.13,6.24s-1.94,4.21-2.76,6.27a50.68,50.68,0,0,0-2,6,21.52,21.52,0,0,0-.76,5.47,12.6,12.6,0,0,0,1,5.14,13.54,13.54,0,0,0,2.57,3.95,11.27,11.27,0,0,0,3.52,2.56,8.77,8.77,0,0,0,3.75.91,4.56,4.56,0,0,0,2.24-.43,2.14,2.14,0,0,0,.95-1.14,3,3,0,0,0,0-1.67c-.16-.63-.33-1.33-.52-2.09l.09.1a3.75,3.75,0,0,1-.14-.67,4.89,4.89,0,0,0-.14-.67l-.2-.76a5.73,5.73,0,0,1,.05-.66c0-.25.08-.54.15-.86a46.9,46.9,0,0,1,3.7-6.32q2.47-3.66,5.57-7.71t6.56-8.18q3.46-4.12,6.61-7.75-1.71,3.61-3.42,7.33c-1.14,2.47-2.18,4.88-3.09,7.22s-1.67,4.51-2.24,6.47a18.48,18.48,0,0,0-.86,4.95q0,5.9,3.1,9.37a10,10,0,0,0,7.75,3.47,10.72,10.72,0,0,0,6.13-2.48,42.55,42.55,0,0,0,6.8-6.37c1.09-1.23,2.17-2.54,3.24-3.91q0,5.83,3,9.29a9.78,9.78,0,0,0,7.75,3.47,13.37,13.37,0,0,0,7.37-2.48,39.65,39.65,0,0,0,7.33-6.32,79.39,79.39,0,0,0,5.09-6.12,23.36,23.36,0,0,0,.71,3.12,20.84,20.84,0,0,0,2.9,6,15.14,15.14,0,0,0,4.71,4.38,12.51,12.51,0,0,0,6.51,1.66,9.4,9.4,0,0,0,3.71-.76,17.74,17.74,0,0,0,3.62-2.09l-.48,1.05q-6.66,4.74-12.7,9.13t-10.65,8.32a53.1,53.1,0,0,0-7.32,7.42q-2.72,3.47-2.71,6.42a10,10,0,0,0,.66,3.28,9.44,9.44,0,0,0,2.33,3.47,13.71,13.71,0,0,0,4.52,2.76,19.64,19.64,0,0,0,7.23,1.14,12.13,12.13,0,0,0,6.42-2.14,37.88,37.88,0,0,0,6.85-5.76,75.18,75.18,0,0,0,6.89-8.41q3.42-4.81,6.66-10.18t6.13-11q2.91-5.62,5.28-10.85,5.24-4.19,10.18-8.41t9.08-8.37a88,88,0,0,0,7.28-8.18,39.23,39.23,0,0,0,4.85-7.85A4.51,4.51,0,0,0,617.59,240.79Zm-61.11,60.73a71.42,71.42,0,0,1-5.84,7.7,31.93,31.93,0,0,1-5.76,5.23,9.7,9.7,0,0,1-5.42,1.95c-1,0-1.43-.51-1.43-1.52s.64-2.39,1.91-3.95a47.28,47.28,0,0,1,5.18-5.23q3.28-2.9,7.7-6.32t9.47-7.23Q559.42,297.1,556.48,301.52Zm31.2-59.21a1.82,1.82,0,0,0-.09,1.34,5.89,5.89,0,0,0-3.24-1.15,3.71,3.71,0,0,0-2.9,1.24c-.73.82-1.09,2.25-1.09,4.28v.38c-.13.64-.31,1.38-.53,2.24s-.46,1.76-.71,2.71v-.1a75.08,75.08,0,0,1-3.14,7.56,64.23,64.23,0,0,1-4.47,8,35.69,35.69,0,0,1-5.23,6.37,8.11,8.11,0,0,1-5.52,2.62,1.51,1.51,0,0,1-1.47-.9,6.16,6.16,0,0,1-.43-2.53,24.89,24.89,0,0,1,1.1-6.61,63.48,63.48,0,0,1,2.9-8,74.9,74.9,0,0,1,4.18-8.23,64,64,0,0,1,5-7.27,30.29,30.29,0,0,1,5.18-5.24,8.25,8.25,0,0,1,4.9-2,6.27,6.27,0,0,1,3.38.76,5,5,0,0,1,1.71,1.71,4.36,4.36,0,0,1,.57,1.81A2.93,2.93,0,0,1,587.68,242.31Z" transform="translate(-138.68 -134.91)"/><g class="cls-9"><path class="cls-11" d="M398.24,243.18l21.26,14-35.17,42.32s-2.92,3.23-8.16-.23c0,0-5.42-4-2.11-9Z" transform="translate(-138.68 -134.91)"/><path class="cls-11" d="M435.32,247.08,401,224.37a2.41,2.41,0,0,1,2.66-4L438,243.05a2.41,2.41,0,1,1-2.66,4Z" transform="translate(-138.68 -134.91)"/><path class="cls-11" d="M400.94,225.32a20.77,20.77,0,0,0,.45,15.33l18.78,12.4a19.7,19.7,0,0,0,4.3-.41,20.6,20.6,0,0,0,10-5.15Z" transform="translate(-138.68 -134.91)"/><path class="cls-11" d="M440.59,228.27a20.66,20.66,0,0,0-36.5-8.61l34.35,22.71A20.63,20.63,0,0,0,440.59,228.27Z" transform="translate(-138.68 -134.91)"/><path class="cls-11" d="M437.79,299.06c-14.35,1.81-27.36,11.15-27.87,11.53-17.91,12.49-26,12.37-29.6,10.07-5.05-3.21-4.65-12.9-4-16.54l-4-2.64c-.2,1.23-2.6,17.43,5.76,22.75,2.94,1.88,6.65,2.36,11.18,1.43,6.16-1.25,13.84-5.11,23.16-11.62.12-.09,12.7-9.11,25.94-10.78Z" transform="translate(-138.68 -134.91)"/></g><path class="cls-13" d="M398.24,236.18l21.26,14-35.17,42.32s-2.92,3.23-8.16-.23c0,0-5.42-4-2.11-9Z" transform="translate(-138.68 -134.91)"/><path class="cls-13" d="M435.32,240.08,401,217.37a2.41,2.41,0,0,1,2.66-4L438,236.05a2.41,2.41,0,1,1-2.66,4Z" transform="translate(-138.68 -134.91)"/><path class="cls-13" d="M400.94,218.32a20.77,20.77,0,0,0,.45,15.33l18.78,12.4a19.7,19.7,0,0,0,4.3-.41,20.6,20.6,0,0,0,10-5.15Z" transform="translate(-138.68 -134.91)"/><path class="cls-13" d="M440.59,221.27a20.66,20.66,0,0,0-36.5-8.61l34.35,22.71A20.63,20.63,0,0,0,440.59,221.27Z" transform="translate(-138.68 -134.91)"/><path class="cls-13" d="M437.79,292.06c-14.35,1.81-27.36,11.15-27.87,11.53-17.91,12.49-26,12.37-29.6,10.07-5.05-3.21-4.65-12.9-4-16.54l-4-2.64c-.2,1.23-2.6,17.43,5.76,22.75,2.94,1.88,6.65,2.36,11.18,1.43,6.16-1.25,13.84-5.11,23.16-11.62.12-.09,12.7-9.11,25.94-10.78Z" transform="translate(-138.68 -134.91)"/><g id="Pinoy"><g class="cls-9"><path class="cls-14" d="M264.65,320.93a31.36,31.36,0,0,0,2.71-12.13,20.52,20.52,0,0,0-1.95-8.94,18.61,18.61,0,0,0-6.14-7.08,32.34,32.34,0,0,0-10.74-4.71,63.38,63.38,0,0,0-15.79-1.71,85,85,0,0,0-23.35,3.28,120.11,120.11,0,0,0-22,8.65A122.42,122.42,0,0,0,168,310.61,113,113,0,0,0,152.61,325a71.77,71.77,0,0,0-10.22,14.74Q138.67,347,138.68,353a17.37,17.37,0,0,0,1.52,7.8,14.34,14.34,0,0,0,3.85,4.9,13.46,13.46,0,0,0,5.18,2.56,23,23,0,0,0,5.61.72,17.26,17.26,0,0,0,3.71-.38,13.7,13.7,0,0,0,3-1,6.64,6.64,0,0,0,2-1.43,2.41,2.41,0,0,0,.77-1.66,3.36,3.36,0,0,0-.43-1.86,2.53,2.53,0,0,0-1.14-.9,4,4,0,0,0-1.67-.24c-.63,0-1.3.08-2,.14a11.69,11.69,0,0,1-1.61.1,4.18,4.18,0,0,1-1.57-.29,2.28,2.28,0,0,1-1.14-1,4.21,4.21,0,0,1-.43-2.14,20.32,20.32,0,0,1,1.57-6.76,58.73,58.73,0,0,1,4.56-9.22,114.22,114.22,0,0,1,7.23-10.61,107,107,0,0,1,9.66-11,121.15,121.15,0,0,1,11.84-10.37,88,88,0,0,1,13.64-8.65,80.25,80.25,0,0,1,15.27-5.95,61.67,61.67,0,0,1,16.6-2.23q8.46,0,12.22,3.18a10.31,10.31,0,0,1,3.75,8.23,25.48,25.48,0,0,1-2,9.32,58.68,58.68,0,0,1-5.52,10.41,85.77,85.77,0,0,1-8.37,10.7,108.09,108.09,0,0,1-10.51,10.09,100.25,100.25,0,0,1-11.89,8.6,70.83,70.83,0,0,1-12.6,6.23c1-2.22,2-4.2,2.85-5.94s1.79-3.39,2.71-5l2.72-4.56,2.85-4.8c2-3.56,3.71-6.58,5-9.09s2-4.29,2-5.37a7.59,7.59,0,0,0-1-3.76,12.47,12.47,0,0,0-6-5.28,9.37,9.37,0,0,0-3.48-.76c-1.84,0-2.88.45-3.13,1.33a13,13,0,0,0-.38,3.52v.57a13.2,13.2,0,0,1-1,1.62c-.63,1-1.49,2.44-2.56,4.28l-4.24,7.09q-2.41,4-5,8.75T186,352.79q-2.56,5.08-4.66,10.23a7.28,7.28,0,0,1-2.66-.95,6.42,6.42,0,0,1-1.67-1.48,8.72,8.72,0,0,1-1-1.66,10.54,10.54,0,0,1-.57-1.62A12.47,12.47,0,0,0,174.2,354a3.28,3.28,0,0,0-3.09-1.38,3.39,3.39,0,0,0-2.9,1.33,5.54,5.54,0,0,0-1,3.43,10,10,0,0,0,.71,3.42,14.8,14.8,0,0,0,2.14,3.76,19.65,19.65,0,0,0,3.52,3.47,16.85,16.85,0,0,0,4.85,2.57,79,79,0,0,0-2.85,9.89,43.17,43.17,0,0,0-1.05,9.13,21.53,21.53,0,0,0,1,6.32,21.88,21.88,0,0,0,2.81,5.95,15.58,15.58,0,0,0,4.42,4.37,10.28,10.28,0,0,0,5.75,1.71,6.64,6.64,0,0,0,4-.9,3.25,3.25,0,0,0,1.14-2.71,5.67,5.67,0,0,0-.38-1.9c-.26-.7-.57-1.49-1-2.38l.09.09A41.78,41.78,0,0,1,191,396a18.22,18.22,0,0,1-.67-5.09,41,41,0,0,1,1.28-9.75,69.26,69.26,0,0,1,3.57-10.5,84.63,84.63,0,0,0,18.59-4.81,98,98,0,0,0,17.08-8.46,105.36,105.36,0,0,0,14.69-11,88,88,0,0,0,11.56-12.5A61.67,61.67,0,0,0,264.65,320.93Z" transform="translate(-138.68 -134.91)"/><path class="cls-14" d="M274.87,331.54a15.23,15.23,0,0,0,5.47-1,15.42,15.42,0,0,0,4.33-2.42,11.29,11.29,0,0,0,2.8-3.28,7.23,7.23,0,0,0,.24-6.9,7.43,7.43,0,0,0-2-2.47,9.27,9.27,0,0,0-2.95-1.52,11.49,11.49,0,0,0-3.47-.53,4,4,0,0,0-2.81,1.43,15.15,15.15,0,0,0-2.47,3.52,23.28,23.28,0,0,0-1.76,4.42,15.15,15.15,0,0,0-.67,4.14,6,6,0,0,0,.81,3.28A2.76,2.76,0,0,0,274.87,331.54Z" transform="translate(-138.68 -134.91)"/><path class="cls-14" d="M454.1,349.08a2.42,2.42,0,0,0-1.52-1.66,3.31,3.31,0,0,0-2.38.14A4.72,4.72,0,0,0,448,349.8v.09a49.91,49.91,0,0,1-8.28,11.56,125.3,125.3,0,0,1-12.36,11.36q1.91-4.37,3.57-8.6c1.11-2.83,2.07-5.39,2.9-7.71s1.47-4.29,1.95-5.94a15.09,15.09,0,0,0,.71-3.52,8,8,0,0,0-1-3.66,16.25,16.25,0,0,0-2.47-3.57,16.45,16.45,0,0,0-3.14-2.71,5.63,5.63,0,0,0-3-1.1,3.57,3.57,0,0,0-2.94,1.29,6.73,6.73,0,0,0-1.05,4.23,22.27,22.27,0,0,1-1.19,3.43q-1.19,3-3.09,8.08-1.53,2.28-3.9,5.61t-5.09,7.09q-2.71,3.75-5.51,7.46c-1.88,2.48-3.62,4.7-5.24,6.66s-3,3.57-4.23,4.8-2,1.86-2.47,1.86c-.19,0,0-.59.52-1.76s1.29-2.71,2.24-4.61,2-4.05,3.28-6.42,2.49-4.81,3.76-7.28c1.07-2.09,2.12-4.14,3.13-6.13s1.92-3.86,2.71-5.57,1.43-3.25,1.91-4.61a10.73,10.73,0,0,0,.71-3.28,6.63,6.63,0,0,0-2.09-4.9,14.58,14.58,0,0,0-4.66-3.09,12.47,12.47,0,0,0-4.66-1.05c-1.4,0-2.1.48-2.1,1.43a11.58,11.58,0,0,1-.57,3.23,35.71,35.71,0,0,1-1.52,4.09q-.94,2.19-2.19,4.61c-.11.24-.23.47-.35.7-.41.69-.89,1.49-1.45,2.4a56.41,56.41,0,0,1-4.19,5.8,64,64,0,0,1-5.56,6,31.61,31.61,0,0,1-6.52,4.85A53.45,53.45,0,0,0,380.16,347a17.67,17.67,0,0,0-.53-4.42,7.89,7.89,0,0,0-1.9-3.52,9,9,0,0,0-3.71-2.29,18.62,18.62,0,0,0-5.94-.81,13.58,13.58,0,0,0-4.85.91,23,23,0,0,0-4.62,2.38,25.25,25.25,0,0,0-4.18,3.47,43.18,43.18,0,0,0-3.66,4.28q-1-.29-2.19-.48a13.61,13.61,0,0,0-2.09-.19,4.22,4.22,0,0,0-2.41,1.27c-.12,0-.23.06-.35.11a4.67,4.67,0,0,0-2.28,2.24v.19c-.07.16-.15.35-.23.52a41.22,41.22,0,0,0-3.25,4.8,55.32,55.32,0,0,0-4.08,8.8c-.28.76-.52,1.51-.73,2.26-.8,1.4-1.61,2.8-2.46,4.21q-2.38,3.94-4.71,7.18a42.31,42.31,0,0,1-4.33,5.23c-1.33,1.33-2.47,2-3.42,2-.13,0-.19-.26-.19-.76a16,16,0,0,1,.95-4.62c.63-1.93,1.43-4,2.38-6.27s2-4.6,3.18-7,2.3-4.77,3.38-7c1.46-3.05,2.71-5.72,3.76-8a14.7,14.7,0,0,0,1.57-4.8,7.66,7.66,0,0,0-.81-3.38,13,13,0,0,0-2-3,15.6,15.6,0,0,0-2.66-2.38,10.42,10.42,0,0,0-2.57-1.38,1.61,1.61,0,0,0-.76-.19h-.57q-.86,0-2.76,1.62t-4.42,4.23c-1.68,1.74-3.49,3.73-5.42,5.94s-3.88,4.51-5.85,6.85q1.14-2.48,1.86-4.47a10.43,10.43,0,0,0,.71-3.33,6.94,6.94,0,0,0-2.09-5,15,15,0,0,0-4.66-3.28,10.53,10.53,0,0,0-4.66-1.05q-2.1.1-2.1,1.62a18.73,18.73,0,0,1-2.09,7.37c-.35.76-.71,1.53-1.09,2.32a1.2,1.2,0,0,0-.53.49v.09c-.5,1-1.33,2.59-2.47,4.71s-2.49,4.5-4,7.13-3.25,5.34-5.09,8.13a91,91,0,0,1-5.56,7.61,44.46,44.46,0,0,1-5.42,5.66q-2.62,2.24-4.71,2.24c-.19,0-.29-.29-.29-.86a15.86,15.86,0,0,1,.95-4.52c.64-1.93,1.44-4,2.43-6.32s2.06-4.66,3.23-7.13,2.27-4.79,3.28-7c.64-1.33,1.27-2.68,1.91-4s1.2-2.63,1.71-3.8.92-2.21,1.23-3.1a6.54,6.54,0,0,0,.48-1.9,6,6,0,0,0-1.9-4.09,16.86,16.86,0,0,0-4.19-3.23,10.56,10.56,0,0,0-4.18-1.38c-1.27-.1-1.9.36-1.9,1.38a16.21,16.21,0,0,1-1.62,4.66q-1.62,3.62-3.9,8.46l-3.57,7.76c-1.23,2.69-2.36,5.29-3.37,7.8s-1.84,4.83-2.48,7a19.94,19.94,0,0,0-.95,5.33q0,5.89,3,9.37a9.78,9.78,0,0,0,7.75,3.47,13.36,13.36,0,0,0,7.37-2.47,40.06,40.06,0,0,0,7.32-6.33c1.05-1.13,2.08-2.33,3.1-3.58a12.18,12.18,0,0,0,1,5,14.54,14.54,0,0,0,2.62,4,11.47,11.47,0,0,0,3.47,2.57,8.63,8.63,0,0,0,3.71.9,4.73,4.73,0,0,0,2.28-.43,1.82,1.82,0,0,0,.95-1.14,3.56,3.56,0,0,0,0-1.66c-.13-.64-.28-1.33-.47-2.1v.1a1.93,1.93,0,0,1-.1-.67,2.19,2.19,0,0,0-.09-.66l-.19-.76a4.93,4.93,0,0,1,0-.57,8.71,8.71,0,0,1,.15-.86,51.5,51.5,0,0,1,3.51-5.94q2.38-3.57,5.47-7.61t6.57-8.23q3.46-4.19,6.61-7.89-1.62,3.51-3.29,7.23c-1.11,2.47-2.1,4.85-3,7.13s-1.6,4.39-2.14,6.32a18.85,18.85,0,0,0-.81,4.9q0,5.89,3,9.37a9.82,9.82,0,0,0,7.71,3.47,10.59,10.59,0,0,0,6.32-2.47,38.25,38.25,0,0,0,6.47-6.37c1.33-1.64,2.63-3.39,3.9-5.23a19.66,19.66,0,0,0,.9,3.13,18.25,18.25,0,0,0,3.76,6,15.47,15.47,0,0,0,5.32,3.66,15.89,15.89,0,0,0,6.14,1.24,19.31,19.31,0,0,0,11.22-3.8,40.7,40.7,0,0,0,9.7-9.8,23.1,23.1,0,0,0,7.52-2.42,37.11,37.11,0,0,0,5-3.19c-.05.2-.12.41-.17.62a21.41,21.41,0,0,0-.76,5.47,11.87,11.87,0,0,0,.85,4.09,17,17,0,0,0,2.38,4.28,16,16,0,0,0,3.47,3.37,7,7,0,0,0,4.14,1.38A5.61,5.61,0,0,0,395,392a25,25,0,0,0,3.56-2.8c1.27-1.17,2.62-2.54,4-4.09s2.87-3.22,4.33-5l-1.47,3.42c-.35.82-.65,1.47-.91,1.95l-.66,1.24c-.19.34-.43.76-.72,1.23s-.66,1.11-1.14,1.9-1.09,1.92-1.85,3.38q-6.18,4.38-11.65,8.47c-3.65,2.72-6.86,5.3-9.66,7.75a47.58,47.58,0,0,0-6.61,6.89,10.29,10.29,0,0,0-2.42,6,10,10,0,0,0,.66,3.29,9.35,9.35,0,0,0,2.34,3.47,13.28,13.28,0,0,0,4.51,2.71,20.08,20.08,0,0,0,7.14,1.09q4,0,8.7-4.14a65.4,65.4,0,0,0,9.56-10.84,167.8,167.8,0,0,0,9.65-15.12q4.8-8.42,9-17,5.42-4.27,10.51-8.56t9.36-8.56a93.52,93.52,0,0,0,7.57-8.46,38.37,38.37,0,0,0,5-8.09A4.34,4.34,0,0,0,454.1,349.08ZM355.28,384a11.81,11.81,0,0,1-6.22,1.76,3.32,3.32,0,0,1-2.67-.91,3.77,3.77,0,0,1-.76-2.52,17.55,17.55,0,0,1,.81-4.85,55.58,55.58,0,0,1,2-5.7,24.08,24.08,0,0,0,5.47,4.51,25.22,25.22,0,0,0,6.8,2.9A22.28,22.28,0,0,1,355.28,384Zm17.27-30.72a56,56,0,0,1-1.62,6.46,66.48,66.48,0,0,1-2.57,6.9,59.27,59.27,0,0,1-3.42,6.75,5.2,5.2,0,0,1-3.81-1.9,6.43,6.43,0,0,1-1-3.71,21.58,21.58,0,0,1,1.52-7.51,52.26,52.26,0,0,1,3.57-7.71,42.94,42.94,0,0,1,4-6c1.33-1.61,2.31-2.42,2.95-2.42s.95,1.27.95,3.8A30.17,30.17,0,0,1,372.55,353.27Zm20.16,56.78a67.8,67.8,0,0,1-5.9,7.7,33.66,33.66,0,0,1-5.75,5.23,9.49,9.49,0,0,1-5.37,1.95c-.95,0-1.43-.51-1.43-1.52s.63-2.39,1.9-4a47.48,47.48,0,0,1,5.19-5.23q3.27-2.89,7.7-6.32t9.46-7.23Q395.66,405.63,392.71,410.05Z" transform="translate(-138.68 -134.91)"/></g><path class="cls-15" d="M264.65,313.93a31.36,31.36,0,0,0,2.71-12.13,20.52,20.52,0,0,0-1.95-8.94,18.61,18.61,0,0,0-6.14-7.08,32.34,32.34,0,0,0-10.74-4.71,63.38,63.38,0,0,0-15.79-1.71,85,85,0,0,0-23.35,3.28,120.11,120.11,0,0,0-22,8.65A122.42,122.42,0,0,0,168,303.61,113,113,0,0,0,152.61,318a71.77,71.77,0,0,0-10.22,14.74Q138.67,340,138.68,346a17.37,17.37,0,0,0,1.52,7.8,14.34,14.34,0,0,0,3.85,4.9,13.46,13.46,0,0,0,5.18,2.56,23,23,0,0,0,5.61.72,17.26,17.26,0,0,0,3.71-.38,13.7,13.7,0,0,0,3-1,6.64,6.64,0,0,0,2-1.43,2.41,2.41,0,0,0,.77-1.66,3.36,3.36,0,0,0-.43-1.86,2.53,2.53,0,0,0-1.14-.9,4,4,0,0,0-1.67-.24c-.63,0-1.3.08-2,.14a11.69,11.69,0,0,1-1.61.1,4.18,4.18,0,0,1-1.57-.29,2.28,2.28,0,0,1-1.14-1,4.21,4.21,0,0,1-.43-2.14,20.32,20.32,0,0,1,1.57-6.76,58.73,58.73,0,0,1,4.56-9.22,114.22,114.22,0,0,1,7.23-10.61,107,107,0,0,1,9.66-11,121.15,121.15,0,0,1,11.84-10.37,88,88,0,0,1,13.64-8.65,80.25,80.25,0,0,1,15.27-5.95,61.67,61.67,0,0,1,16.6-2.23q8.46,0,12.22,3.18a10.31,10.31,0,0,1,3.75,8.23,25.48,25.48,0,0,1-2,9.32,58.68,58.68,0,0,1-5.52,10.41,85.77,85.77,0,0,1-8.37,10.7,108.09,108.09,0,0,1-10.51,10.09,100.25,100.25,0,0,1-11.89,8.6,70.83,70.83,0,0,1-12.6,6.23c1-2.22,2-4.2,2.85-5.94s1.79-3.39,2.71-5l2.72-4.56,2.85-4.8c2-3.56,3.71-6.58,5-9.09s2-4.29,2-5.37a7.59,7.59,0,0,0-1-3.76,12.47,12.47,0,0,0-6-5.28,9.37,9.37,0,0,0-3.48-.76c-1.84,0-2.88.45-3.13,1.33a13,13,0,0,0-.38,3.52v.57a13.2,13.2,0,0,1-1,1.62c-.63,1-1.49,2.44-2.56,4.28l-4.24,7.09q-2.41,4-5,8.75T186,345.79q-2.56,5.08-4.66,10.23a7.28,7.28,0,0,1-2.66-.95,6.42,6.42,0,0,1-1.67-1.48,8.72,8.72,0,0,1-1-1.66,10.54,10.54,0,0,1-.57-1.62A12.47,12.47,0,0,0,174.2,347a3.28,3.28,0,0,0-3.09-1.38,3.39,3.39,0,0,0-2.9,1.33,5.54,5.54,0,0,0-1,3.43,10,10,0,0,0,.71,3.42,14.8,14.8,0,0,0,2.14,3.76,19.65,19.65,0,0,0,3.52,3.47,16.85,16.85,0,0,0,4.85,2.57,79,79,0,0,0-2.85,9.89,43.17,43.17,0,0,0-1.05,9.13,21.53,21.53,0,0,0,1,6.32,21.88,21.88,0,0,0,2.81,5.95,15.58,15.58,0,0,0,4.42,4.37,10.28,10.28,0,0,0,5.75,1.71,6.64,6.64,0,0,0,4-.9,3.25,3.25,0,0,0,1.14-2.71,5.67,5.67,0,0,0-.38-1.9c-.26-.7-.57-1.49-1-2.38l.09.09A41.78,41.78,0,0,1,191,389a18.22,18.22,0,0,1-.67-5.09,41,41,0,0,1,1.28-9.75,69.26,69.26,0,0,1,3.57-10.5,84.63,84.63,0,0,0,18.59-4.81,98,98,0,0,0,17.08-8.46,105.36,105.36,0,0,0,14.69-11,88,88,0,0,0,11.56-12.5A61.67,61.67,0,0,0,264.65,313.93Z" transform="translate(-138.68 -134.91)"/><path class="cls-15" d="M274.87,324.54a15.23,15.23,0,0,0,5.47-1,15.42,15.42,0,0,0,4.33-2.42,11.29,11.29,0,0,0,2.8-3.28,7.23,7.23,0,0,0,.24-6.9,7.43,7.43,0,0,0-2-2.47,9.27,9.27,0,0,0-2.95-1.52,11.49,11.49,0,0,0-3.47-.53,4,4,0,0,0-2.81,1.43,15.15,15.15,0,0,0-2.47,3.52,23.28,23.28,0,0,0-1.76,4.42,15.15,15.15,0,0,0-.67,4.14,6,6,0,0,0,.81,3.28A2.76,2.76,0,0,0,274.87,324.54Z" transform="translate(-138.68 -134.91)"/><path class="cls-15" d="M454.1,342.08a2.42,2.42,0,0,0-1.52-1.66,3.31,3.31,0,0,0-2.38.14A4.72,4.72,0,0,0,448,342.8v.09a49.91,49.91,0,0,1-8.28,11.56,125.3,125.3,0,0,1-12.36,11.36q1.91-4.37,3.57-8.6c1.11-2.83,2.07-5.39,2.9-7.71s1.47-4.29,1.95-5.94a15.09,15.09,0,0,0,.71-3.52,8,8,0,0,0-1-3.66,16.25,16.25,0,0,0-2.47-3.57,16.45,16.45,0,0,0-3.14-2.71,5.63,5.63,0,0,0-3-1.1,3.57,3.57,0,0,0-2.94,1.29,6.73,6.73,0,0,0-1.05,4.23,22.27,22.27,0,0,1-1.19,3.43q-1.19,3-3.09,8.08-1.53,2.28-3.9,5.61t-5.09,7.09q-2.71,3.75-5.51,7.46c-1.88,2.48-3.62,4.7-5.24,6.66s-3,3.57-4.23,4.8-2,1.86-2.47,1.86c-.19,0,0-.59.52-1.76s1.29-2.71,2.24-4.61,2-4.05,3.28-6.42,2.49-4.81,3.76-7.28c1.07-2.09,2.12-4.14,3.13-6.13s1.92-3.86,2.71-5.57,1.43-3.25,1.91-4.61a10.73,10.73,0,0,0,.71-3.28,6.63,6.63,0,0,0-2.09-4.9,14.58,14.58,0,0,0-4.66-3.09,12.47,12.47,0,0,0-4.66-1.05c-1.4,0-2.1.48-2.1,1.43a11.58,11.58,0,0,1-.57,3.23,35.71,35.71,0,0,1-1.52,4.09q-.94,2.19-2.19,4.61c-.11.24-.23.47-.35.7-.41.69-.89,1.49-1.45,2.4a56.41,56.41,0,0,1-4.19,5.8,64,64,0,0,1-5.56,6,31.61,31.61,0,0,1-6.52,4.85A53.45,53.45,0,0,0,380.16,340a17.67,17.67,0,0,0-.53-4.42,7.89,7.89,0,0,0-1.9-3.52,9,9,0,0,0-3.71-2.29,18.62,18.62,0,0,0-5.94-.81,13.58,13.58,0,0,0-4.85.91,23,23,0,0,0-4.62,2.38,25.25,25.25,0,0,0-4.18,3.47,43.18,43.18,0,0,0-3.66,4.28q-1-.29-2.19-.48a13.61,13.61,0,0,0-2.09-.19,4.22,4.22,0,0,0-2.41,1.27c-.12,0-.23.06-.35.11a4.67,4.67,0,0,0-2.28,2.24v.19c-.07.16-.15.35-.23.52a41.22,41.22,0,0,0-3.25,4.8,55.32,55.32,0,0,0-4.08,8.8c-.28.76-.52,1.51-.73,2.26-.8,1.4-1.61,2.8-2.46,4.21q-2.38,3.94-4.71,7.18a42.31,42.31,0,0,1-4.33,5.23c-1.33,1.33-2.47,2-3.42,2-.13,0-.19-.26-.19-.76a16,16,0,0,1,.95-4.62c.63-1.93,1.43-4,2.38-6.27s2-4.6,3.18-7,2.3-4.77,3.38-7c1.46-3.05,2.71-5.72,3.76-8a14.7,14.7,0,0,0,1.57-4.8,7.66,7.66,0,0,0-.81-3.38,13,13,0,0,0-2-3,15.6,15.6,0,0,0-2.66-2.38,10.42,10.42,0,0,0-2.57-1.38,1.61,1.61,0,0,0-.76-.19h-.57q-.86,0-2.76,1.62t-4.42,4.23c-1.68,1.74-3.49,3.73-5.42,5.94s-3.88,4.51-5.85,6.85q1.14-2.48,1.86-4.47a10.43,10.43,0,0,0,.71-3.33,6.94,6.94,0,0,0-2.09-5,15,15,0,0,0-4.66-3.28,10.53,10.53,0,0,0-4.66-1.05q-2.1.1-2.1,1.62a18.73,18.73,0,0,1-2.09,7.37c-.35.76-.71,1.53-1.09,2.32a1.2,1.2,0,0,0-.53.49v.09c-.5,1-1.33,2.59-2.47,4.71s-2.49,4.5-4,7.13-3.25,5.34-5.09,8.13a91,91,0,0,1-5.56,7.61,44.46,44.46,0,0,1-5.42,5.66q-2.62,2.24-4.71,2.24c-.19,0-.29-.29-.29-.86a15.86,15.86,0,0,1,.95-4.52c.64-1.93,1.44-4,2.43-6.32s2.06-4.66,3.23-7.13,2.27-4.79,3.28-7c.64-1.33,1.27-2.68,1.91-4s1.2-2.63,1.71-3.8.92-2.21,1.23-3.1a6.54,6.54,0,0,0,.48-1.9,6,6,0,0,0-1.9-4.09,16.86,16.86,0,0,0-4.19-3.23,10.56,10.56,0,0,0-4.18-1.38c-1.27-.1-1.9.36-1.9,1.38a16.21,16.21,0,0,1-1.62,4.66q-1.62,3.62-3.9,8.46l-3.57,7.76c-1.23,2.69-2.36,5.29-3.37,7.8s-1.84,4.83-2.48,7a19.94,19.94,0,0,0-.95,5.33q0,5.89,3,9.37a9.78,9.78,0,0,0,7.75,3.47,13.36,13.36,0,0,0,7.37-2.47,40.06,40.06,0,0,0,7.32-6.33c1.05-1.13,2.08-2.33,3.1-3.58a12.18,12.18,0,0,0,1,5,14.54,14.54,0,0,0,2.62,4,11.47,11.47,0,0,0,3.47,2.57,8.63,8.63,0,0,0,3.71.9,4.73,4.73,0,0,0,2.28-.43,1.82,1.82,0,0,0,.95-1.14,3.56,3.56,0,0,0,0-1.66c-.13-.64-.28-1.33-.47-2.1v.1a1.93,1.93,0,0,1-.1-.67,2.19,2.19,0,0,0-.09-.66l-.19-.76a4.93,4.93,0,0,1,0-.57,8.71,8.71,0,0,1,.15-.86,51.5,51.5,0,0,1,3.51-5.94q2.38-3.57,5.47-7.61t6.57-8.23q3.46-4.19,6.61-7.89-1.62,3.51-3.29,7.23c-1.11,2.47-2.1,4.85-3,7.13s-1.6,4.39-2.14,6.32a18.85,18.85,0,0,0-.81,4.9q0,5.89,3,9.37a9.82,9.82,0,0,0,7.71,3.47,10.59,10.59,0,0,0,6.32-2.47,38.25,38.25,0,0,0,6.47-6.37c1.33-1.64,2.63-3.39,3.9-5.23a19.66,19.66,0,0,0,.9,3.13,18.25,18.25,0,0,0,3.76,6,15.47,15.47,0,0,0,5.32,3.66,15.89,15.89,0,0,0,6.14,1.24,19.31,19.31,0,0,0,11.22-3.8,40.7,40.7,0,0,0,9.7-9.8,23.1,23.1,0,0,0,7.52-2.42,37.11,37.11,0,0,0,5-3.19c-.05.2-.12.41-.17.62a21.41,21.41,0,0,0-.76,5.47,11.87,11.87,0,0,0,.85,4.09,17,17,0,0,0,2.38,4.28,16,16,0,0,0,3.47,3.37,7,7,0,0,0,4.14,1.38A5.61,5.61,0,0,0,395,385a25,25,0,0,0,3.56-2.8c1.27-1.17,2.62-2.54,4-4.09s2.87-3.22,4.33-5l-1.47,3.42c-.35.82-.65,1.47-.91,1.95l-.66,1.24c-.19.34-.43.76-.72,1.23s-.66,1.11-1.14,1.9-1.09,1.92-1.85,3.38q-6.18,4.38-11.65,8.47c-3.65,2.72-6.86,5.3-9.66,7.75a47.58,47.58,0,0,0-6.61,6.89,10.29,10.29,0,0,0-2.42,6,10,10,0,0,0,.66,3.29,9.35,9.35,0,0,0,2.34,3.47,13.28,13.28,0,0,0,4.51,2.71,20.08,20.08,0,0,0,7.14,1.09q4,0,8.7-4.14a65.4,65.4,0,0,0,9.56-10.84,167.8,167.8,0,0,0,9.65-15.12q4.8-8.42,9-17,5.42-4.27,10.51-8.56t9.36-8.56a93.52,93.52,0,0,0,7.57-8.46,38.37,38.37,0,0,0,5-8.09A4.34,4.34,0,0,0,454.1,342.08ZM355.28,377a11.81,11.81,0,0,1-6.22,1.76,3.32,3.32,0,0,1-2.67-.91,3.77,3.77,0,0,1-.76-2.52,17.55,17.55,0,0,1,.81-4.85,55.58,55.58,0,0,1,2-5.7,24.08,24.08,0,0,0,5.47,4.51,25.22,25.22,0,0,0,6.8,2.9A22.28,22.28,0,0,1,355.28,377Zm17.27-30.72a56,56,0,0,1-1.62,6.46,66.48,66.48,0,0,1-2.57,6.9,59.27,59.27,0,0,1-3.42,6.75,5.2,5.2,0,0,1-3.81-1.9,6.43,6.43,0,0,1-1-3.71,21.58,21.58,0,0,1,1.52-7.51,52.26,52.26,0,0,1,3.57-7.71,42.94,42.94,0,0,1,4-6c1.33-1.61,2.31-2.42,2.95-2.42s.95,1.27.95,3.8A30.17,30.17,0,0,1,372.55,346.27Zm20.16,56.78a67.8,67.8,0,0,1-5.9,7.7,33.66,33.66,0,0,1-5.75,5.23,9.49,9.49,0,0,1-5.37,1.95c-.95,0-1.43-.51-1.43-1.52s.63-2.39,1.9-4a47.48,47.48,0,0,1,5.19-5.23q3.27-2.89,7.7-6.32t9.46-7.23Q395.66,398.63,392.71,403.05Z" transform="translate(-138.68 -134.91)"/></g></g></g></g></svg>