<svg id="Layer_1" data-name="Layer 1" xmlns="http://www.w3.org/2000/svg" xmlns:xlink="http://www.w3.org/1999/xlink" viewBox="0 0 506.44 276.47"><defs><style>.cls-1,.cls-11,.cls-2,.cls-21,.cls-3,.cls-4,.cls-7{fill:none;}.cls-1{clip-rule:evenodd;}.cls-3{stroke:#d9d9d8;}.cls-21,.cls-22,.cls-23,.cls-3,.cls-4{stroke-miterlimit:10;}.cls-11,.cls-3{stroke-width:8px;}.cls-4{stroke:#9c9b9b;stroke-width:12px;}.cls-5{fill:#9c9b9b;}.cls-6{fill:#70706f;}.cls-11,.cls-7{stroke:#fff;stroke-linecap:round;stroke-linejoin:round;opacity:0.15;}.cls-7{stroke-width:10px;}.cls-8{fill:#d9d9d8;}.cls-9{fill:#e53625;}.cls-10{fill:#ef8579;}.cls-12{fill:#fbae18;}.cls-13{fill:#fdce67;}.cls-14{fill:#88c540;}.cls-15{fill:#b6d886;}.cls-16{fill:#38a7df;}.cls-17{fill:#9dcaec;}.cls-18{fill:#1b75bc;}.cls-19{fill:#d73b95;}.cls-20{fill:#df80b4;}.cls-21,.cls-22,.cls-23{stroke:#27aae1;}.cls-22,.cls-23{fill:#354ea2;}.cls-23{stroke-width:2px;}.cls-24{clip-path:url(#clip-path);}.cls-25{clip-path:url(#clip-path-2);}.cls-26{fill:#ef3d4f;}.cls-27{fill:#fff;}.cls-28{fill:#354fa1;}.cls-29{fill:#fee337;}.cls-30{fill:#fdd423;}</style><clipPath id="clip-path" transform="translate(-163.62 -174.32)"><polygon class="cls-1" points="211.25 430.71 284.41 462.98 313.17 397.78 240 365.51 211.25 430.71 211.25 430.71"/></clipPath><clipPath id="clip-path-2" transform="translate(-163.62 -174.32)"><polygon class="cls-2" points="211.25 430.71 284.41 462.98 313.17 397.78 240 365.51 211.25 430.71 211.25 430.71"/></clipPath></defs><title>Perya</title><g id="Perya"><line class="cls-3" x1="405.68" y1="14.24" x2="405.68" y2="190"/><line class="cls-3" x1="449.62" y1="26.02" x2="361.74" y2="178.23"/><line class="cls-3" x1="481.78" y1="58.18" x2="329.57" y2="146.06"/><line class="cls-3" x1="493.56" y1="102.12" x2="317.8" y2="102.12"/><line class="cls-3" x1="481.78" y1="146.06" x2="329.57" y2="58.18"/><line class="cls-3" x1="449.62" y1="178.23" x2="361.74" y2="26.02"/><path class="cls-4" d="M506.65,276.44A62.65,62.65,0,1,0,569.3,213.8,62.64,62.64,0,0,0,506.65,276.44Z" transform="translate(-163.62 -174.32)"/><path class="cls-5" d="M550,276.44a19.32,19.32,0,1,0,19.32-19.32A19.32,19.32,0,0,0,550,276.44Z" transform="translate(-163.62 -174.32)"/><path class="cls-6" d="M562.24,276.44a7.06,7.06,0,1,0,7.06-7.06A7.05,7.05,0,0,0,562.24,276.44Z" transform="translate(-163.62 -174.32)"/><path class="cls-7" d="M563.87,276.44A5.44,5.44,0,0,1,569.3,271" transform="translate(-163.62 -174.32)"/><path class="cls-7" d="M551.6,276.44a17.71,17.71,0,0,1,17.7-17.69" transform="translate(-163.62 -174.32)"/><rect class="cls-5" x="394.02" y="6.95" width="2.45" height="9.47"/><rect class="cls-5" x="414.88" y="6.95" width="2.45" height="9.47"/><rect class="cls-8" x="396.48" y="6.95" width="18.4" height="9.47"/><path class="cls-9" d="M575.23,175.54H563.37a5.74,5.74,0,0,0-5.73,5.73H581A5.73,5.73,0,0,0,575.23,175.54Z" transform="translate(-163.62 -174.32)"/><path class="cls-9" d="M557.64,190.74v5.11a5.74,5.74,0,0,0,5.73,5.73h11.86a5.73,5.73,0,0,0,5.72-5.73v-5.11Z" transform="translate(-163.62 -174.32)"/><path class="cls-10" d="M581,182.49H557.64a1.23,1.23,0,0,1,0-2.45H581a1.23,1.23,0,1,1,0,2.45Z" transform="translate(-163.62 -174.32)"/><path class="cls-10" d="M581,192H557.64a1.23,1.23,0,0,1,0-2.46H581a1.23,1.23,0,1,1,0,2.46Z" transform="translate(-163.62 -174.32)"/><path class="cls-5" d="M572.46,175.54a4.72,4.72,0,0,0-6.33,0Z" transform="translate(-163.62 -174.32)"/><path class="cls-11" d="M575.23,199.94H563.37" transform="translate(-163.62 -174.32)"/><rect class="cls-5" x="350.08" y="18.72" width="2.45" height="9.47"/><rect class="cls-5" x="370.94" y="18.72" width="2.45" height="9.47"/><rect class="cls-8" x="352.54" y="18.72" width="18.4" height="9.47"/><path class="cls-12" d="M531.29,187.32H519.43A5.73,5.73,0,0,0,513.7,193H537A5.72,5.72,0,0,0,531.29,187.32Z" transform="translate(-163.62 -174.32)"/><path class="cls-12" d="M513.7,202.51v5.11a5.73,5.73,0,0,0,5.73,5.73h11.86a5.72,5.72,0,0,0,5.72-5.73v-5.11Z" transform="translate(-163.62 -174.32)"/><path class="cls-13" d="M537,194.27H513.7a1.23,1.23,0,0,1,0-2.46H537a1.23,1.23,0,1,1,0,2.46Z" transform="translate(-163.62 -174.32)"/><path class="cls-13" d="M537,203.74H513.7a1.23,1.23,0,0,1,0-2.45H537a1.23,1.23,0,1,1,0,2.45Z" transform="translate(-163.62 -174.32)"/><path class="cls-5" d="M528.52,187.32a4.69,4.69,0,0,0-6.33,0Z" transform="translate(-163.62 -174.32)"/><path class="cls-11" d="M531.29,211.71H519.43" transform="translate(-163.62 -174.32)"/><rect class="cls-5" x="437.96" y="18.72" width="2.45" height="9.47"/><rect class="cls-5" x="458.82" y="18.72" width="2.45" height="9.47"/><rect class="cls-8" x="440.42" y="18.72" width="18.4" height="9.47"/><path class="cls-12" d="M619.17,187.32H607.31a5.73,5.73,0,0,0-5.73,5.72h23.31A5.72,5.72,0,0,0,619.17,187.32Z" transform="translate(-163.62 -174.32)"/><path class="cls-12" d="M601.58,202.51v5.11a5.73,5.73,0,0,0,5.73,5.73h11.86a5.72,5.72,0,0,0,5.72-5.73v-5.11Z" transform="translate(-163.62 -174.32)"/><path class="cls-13" d="M624.89,194.27H601.58a1.23,1.23,0,0,1,0-2.46h23.31a1.23,1.23,0,1,1,0,2.46Z" transform="translate(-163.62 -174.32)"/><path class="cls-13" d="M624.89,203.74H601.58a1.23,1.23,0,0,1,0-2.45h23.31a1.23,1.23,0,1,1,0,2.45Z" transform="translate(-163.62 -174.32)"/><path class="cls-5" d="M616.4,187.32a4.69,4.69,0,0,0-6.33,0Z" transform="translate(-163.62 -174.32)"/><path class="cls-11" d="M619.17,211.71H607.31" transform="translate(-163.62 -174.32)"/><rect class="cls-5" x="317.92" y="50.89" width="2.45" height="9.47"/><rect class="cls-5" x="338.77" y="50.89" width="2.45" height="9.47"/><rect class="cls-8" x="320.37" y="50.89" width="18.4" height="9.47"/><path class="cls-14" d="M499.12,219.48H487.26a5.73,5.73,0,0,0-5.72,5.73h23.3A5.73,5.73,0,0,0,499.12,219.48Z" transform="translate(-163.62 -174.32)"/><path class="cls-14" d="M481.54,234.68v5.11a5.73,5.73,0,0,0,5.72,5.73h11.86a5.73,5.73,0,0,0,5.72-5.73v-5.11Z" transform="translate(-163.62 -174.32)"/><path class="cls-15" d="M504.84,226.43h-23.3a1.23,1.23,0,1,1,0-2.45h23.3a1.23,1.23,0,1,1,0,2.45Z" transform="translate(-163.62 -174.32)"/><path class="cls-15" d="M504.84,235.91h-23.3a1.23,1.23,0,0,1,0-2.46h23.3a1.23,1.23,0,1,1,0,2.46Z" transform="translate(-163.62 -174.32)"/><path class="cls-5" d="M496.36,219.48a4.72,4.72,0,0,0-6.33,0Z" transform="translate(-163.62 -174.32)"/><path class="cls-11" d="M499.12,243.88H487.26" transform="translate(-163.62 -174.32)"/><rect class="cls-5" x="470.13" y="50.89" width="2.45" height="9.47"/><rect class="cls-5" x="490.98" y="50.89" width="2.45" height="9.47"/><rect class="cls-8" x="472.58" y="50.89" width="18.4" height="9.47"/><path class="cls-14" d="M651.33,219.48H639.47a5.73,5.73,0,0,0-5.72,5.73h23.31A5.74,5.74,0,0,0,651.33,219.48Z" transform="translate(-163.62 -174.32)"/><path class="cls-14" d="M633.75,234.68v5.11a5.73,5.73,0,0,0,5.72,5.73h11.86a5.74,5.74,0,0,0,5.73-5.73v-5.11Z" transform="translate(-163.62 -174.32)"/><path class="cls-15" d="M657.06,226.43H633.75a1.23,1.23,0,1,1,0-2.45h23.31a1.23,1.23,0,0,1,0,2.45Z" transform="translate(-163.62 -174.32)"/><path class="cls-15" d="M657.06,235.91H633.75a1.23,1.23,0,0,1,0-2.46h23.31a1.23,1.23,0,0,1,0,2.46Z" transform="translate(-163.62 -174.32)"/><path class="cls-5" d="M648.57,219.48a4.72,4.72,0,0,0-6.33,0Z" transform="translate(-163.62 -174.32)"/><path class="cls-11" d="M651.33,243.88H639.47" transform="translate(-163.62 -174.32)"/><rect class="cls-5" x="306.14" y="94.83" width="2.45" height="9.47"/><rect class="cls-5" x="327" y="94.83" width="2.45" height="9.47"/><rect class="cls-8" x="308.6" y="94.83" width="18.4" height="9.47"/><path class="cls-16" d="M487.35,263.42H475.49a5.74,5.74,0,0,0-5.73,5.73h23.31A5.73,5.73,0,0,0,487.35,263.42Z" transform="translate(-163.62 -174.32)"/><path class="cls-16" d="M469.76,278.62v5.11a5.74,5.74,0,0,0,5.73,5.73h11.86a5.73,5.73,0,0,0,5.72-5.73v-5.11Z" transform="translate(-163.62 -174.32)"/><path class="cls-17" d="M493.07,270.37H469.76a1.23,1.23,0,0,1,0-2.45h23.31a1.23,1.23,0,1,1,0,2.45Z" transform="translate(-163.62 -174.32)"/><path class="cls-17" d="M493.07,279.85H469.76a1.23,1.23,0,0,1,0-2.46h23.31a1.23,1.23,0,1,1,0,2.46Z" transform="translate(-163.62 -174.32)"/><path class="cls-5" d="M484.58,263.42a4.72,4.72,0,0,0-6.33,0Z" transform="translate(-163.62 -174.32)"/><path class="cls-11" d="M487.35,287.82H475.49" transform="translate(-163.62 -174.32)"/><rect class="cls-5" x="481.9" y="94.83" width="2.45" height="9.47"/><rect class="cls-5" x="502.76" y="94.83" width="2.45" height="9.47"/><rect class="cls-8" x="484.36" y="94.83" width="18.4" height="9.47"/><path class="cls-18" d="M663.11,263.42H651.25a5.74,5.74,0,0,0-5.73,5.73h23.31A5.73,5.73,0,0,0,663.11,263.42Z" transform="translate(-163.62 -174.32)"/><path class="cls-18" d="M645.52,278.62v5.11a5.74,5.74,0,0,0,5.73,5.73h11.86a5.73,5.73,0,0,0,5.72-5.73v-5.11Z" transform="translate(-163.62 -174.32)"/><path class="cls-17" d="M668.83,270.37H645.52a1.23,1.23,0,0,1,0-2.45h23.31a1.23,1.23,0,1,1,0,2.45Z" transform="translate(-163.62 -174.32)"/><path class="cls-17" d="M668.83,279.85H645.52a1.23,1.23,0,0,1,0-2.46h23.31a1.23,1.23,0,1,1,0,2.46Z" transform="translate(-163.62 -174.32)"/><path class="cls-5" d="M660.34,263.42a4.72,4.72,0,0,0-6.33,0Z" transform="translate(-163.62 -174.32)"/><path class="cls-11" d="M663.11,287.82H651.25" transform="translate(-163.62 -174.32)"/><rect class="cls-5" x="317.92" y="138.77" width="2.45" height="9.47"/><rect class="cls-5" x="338.77" y="138.77" width="2.45" height="9.47"/><rect class="cls-8" x="320.37" y="138.77" width="18.4" height="9.47"/><path class="cls-19" d="M499.12,307.36H487.26a5.72,5.72,0,0,0-5.72,5.73h23.3A5.72,5.72,0,0,0,499.12,307.36Z" transform="translate(-163.62 -174.32)"/><path class="cls-19" d="M481.54,322.56v5.11a5.73,5.73,0,0,0,5.72,5.73h11.86a5.73,5.73,0,0,0,5.72-5.73v-5.11Z" transform="translate(-163.62 -174.32)"/><path class="cls-20" d="M504.84,314.31h-23.3a1.23,1.23,0,1,1,0-2.45h23.3a1.23,1.23,0,1,1,0,2.45Z" transform="translate(-163.62 -174.32)"/><path class="cls-20" d="M504.84,323.79h-23.3a1.23,1.23,0,0,1,0-2.46h23.3a1.23,1.23,0,0,1,0,2.46Z" transform="translate(-163.62 -174.32)"/><path class="cls-5" d="M496.36,307.36a4.72,4.72,0,0,0-6.33,0Z" transform="translate(-163.62 -174.32)"/><path class="cls-11" d="M499.12,331.76H487.26" transform="translate(-163.62 -174.32)"/><rect class="cls-5" x="470.13" y="138.77" width="2.45" height="9.47"/><rect class="cls-5" x="490.98" y="138.77" width="2.45" height="9.47"/><rect class="cls-8" x="472.58" y="138.77" width="18.4" height="9.47"/><path class="cls-19" d="M651.33,307.36H639.47a5.72,5.72,0,0,0-5.72,5.73h23.31A5.73,5.73,0,0,0,651.33,307.36Z" transform="translate(-163.62 -174.32)"/><path class="cls-19" d="M633.75,322.56v5.11a5.73,5.73,0,0,0,5.72,5.73h11.86a5.74,5.74,0,0,0,5.73-5.73v-5.11Z" transform="translate(-163.62 -174.32)"/><path class="cls-20" d="M657.06,314.31H633.75a1.23,1.23,0,1,1,0-2.45h23.31a1.23,1.23,0,0,1,0,2.45Z" transform="translate(-163.62 -174.32)"/><path class="cls-20" d="M657.06,323.79H633.75a1.23,1.23,0,0,1,0-2.46h23.31a1.23,1.23,0,0,1,0,2.46Z" transform="translate(-163.62 -174.32)"/><path class="cls-5" d="M648.57,307.36a4.72,4.72,0,0,0-6.33,0Z" transform="translate(-163.62 -174.32)"/><path class="cls-11" d="M651.33,331.76H639.47" transform="translate(-163.62 -174.32)"/><rect class="cls-5" x="350.08" y="170.94" width="2.45" height="9.47"/><rect class="cls-5" x="370.94" y="170.94" width="2.45" height="9.47"/><rect class="cls-8" x="352.54" y="170.94" width="18.4" height="9.47"/><path class="cls-9" d="M531.29,339.53H519.43a5.73,5.73,0,0,0-5.73,5.72H537A5.72,5.72,0,0,0,531.29,339.53Z" transform="translate(-163.62 -174.32)"/><path class="cls-9" d="M513.7,354.73v5.11a5.73,5.73,0,0,0,5.73,5.72h11.86a5.72,5.72,0,0,0,5.72-5.72v-5.11Z" transform="translate(-163.62 -174.32)"/><path class="cls-10" d="M537,346.48H513.7a1.23,1.23,0,0,1,0-2.45H537a1.23,1.23,0,1,1,0,2.45Z" transform="translate(-163.62 -174.32)"/><path class="cls-10" d="M537,356H513.7a1.23,1.23,0,0,1,0-2.45H537a1.23,1.23,0,1,1,0,2.45Z" transform="translate(-163.62 -174.32)"/><path class="cls-5" d="M528.52,339.53a4.69,4.69,0,0,0-6.33,0Z" transform="translate(-163.62 -174.32)"/><path class="cls-11" d="M531.29,363.93H519.43" transform="translate(-163.62 -174.32)"/><rect class="cls-5" x="437.96" y="170.94" width="2.45" height="9.47"/><rect class="cls-5" x="458.82" y="170.94" width="2.45" height="9.47"/><rect class="cls-8" x="440.42" y="170.94" width="18.4" height="9.47"/><path class="cls-9" d="M619.17,339.53H607.31a5.73,5.73,0,0,0-5.73,5.72h23.31A5.72,5.72,0,0,0,619.17,339.53Z" transform="translate(-163.62 -174.32)"/><path class="cls-9" d="M601.58,354.73v5.11a5.73,5.73,0,0,0,5.73,5.72h11.86a5.72,5.72,0,0,0,5.72-5.72v-5.11Z" transform="translate(-163.62 -174.32)"/><path class="cls-10" d="M624.89,346.48H601.58a1.23,1.23,0,0,1,0-2.45h23.31a1.23,1.23,0,1,1,0,2.45Z" transform="translate(-163.62 -174.32)"/><path class="cls-10" d="M624.89,356H601.58a1.23,1.23,0,0,1,0-2.45h23.31a1.23,1.23,0,1,1,0,2.45Z" transform="translate(-163.62 -174.32)"/><path class="cls-5" d="M616.4,339.53a4.69,4.69,0,0,0-6.33,0Z" transform="translate(-163.62 -174.32)"/><path class="cls-11" d="M619.17,363.93H607.31" transform="translate(-163.62 -174.32)"/><rect class="cls-5" x="394.02" y="182.71" width="2.45" height="9.47"/><rect class="cls-5" x="414.88" y="182.71" width="2.45" height="9.47"/><rect class="cls-8" x="396.48" y="182.71" width="18.4" height="9.47"/><path class="cls-12" d="M575.23,351.3H563.37a5.73,5.73,0,0,0-5.73,5.73H581A5.72,5.72,0,0,0,575.23,351.3Z" transform="translate(-163.62 -174.32)"/><path class="cls-12" d="M557.64,366.5v5.11a5.74,5.74,0,0,0,5.73,5.73h11.86a5.73,5.73,0,0,0,5.72-5.73V366.5Z" transform="translate(-163.62 -174.32)"/><path class="cls-13" d="M581,358.25H557.64a1.23,1.23,0,0,1,0-2.45H581a1.23,1.23,0,1,1,0,2.45Z" transform="translate(-163.62 -174.32)"/><path class="cls-13" d="M581,367.73H557.64a1.23,1.23,0,0,1,0-2.46H581a1.23,1.23,0,1,1,0,2.46Z" transform="translate(-163.62 -174.32)"/><path class="cls-5" d="M572.46,351.3a4.72,4.72,0,0,0-6.33,0Z" transform="translate(-163.62 -174.32)"/><path class="cls-11" d="M575.23,375.7H563.37" transform="translate(-163.62 -174.32)"/><rect class="cls-5" x="306.26" y="94.83" width="2.45" height="9.47"/><rect class="cls-5" x="327.12" y="94.83" width="2.45" height="9.47"/><rect class="cls-8" x="308.72" y="94.83" width="18.4" height="9.47"/><path class="cls-18" d="M487.47,263.42H475.61a5.74,5.74,0,0,0-5.73,5.73h23.31A5.73,5.73,0,0,0,487.47,263.42Z" transform="translate(-163.62 -174.32)"/><path class="cls-18" d="M469.88,278.62v5.11a5.74,5.74,0,0,0,5.73,5.73h11.86a5.73,5.73,0,0,0,5.72-5.73v-5.11Z" transform="translate(-163.62 -174.32)"/><path class="cls-17" d="M493.19,270.37H469.88a1.23,1.23,0,0,1,0-2.45h23.31a1.23,1.23,0,1,1,0,2.45Z" transform="translate(-163.62 -174.32)"/><path class="cls-17" d="M493.19,279.85H469.88a1.23,1.23,0,0,1,0-2.46h23.31a1.23,1.23,0,0,1,0,2.46Z" transform="translate(-163.62 -174.32)"/><path class="cls-5" d="M484.7,263.42a4.72,4.72,0,0,0-6.33,0Z" transform="translate(-163.62 -174.32)"/><path class="cls-11" d="M487.47,287.82H475.61" transform="translate(-163.62 -174.32)"/><path class="cls-21" d="M365.86,403.67a51.27,51.27,0,0,0-5.69,5.74q-2.09,2.56-2.09,4.33c0,1.12.52,1.67,1.57,1.67a10.39,10.39,0,0,0,5.9-2.14,36.85,36.85,0,0,0,6.31-5.74,74.77,74.77,0,0,0,6.48-8.45c2.15-3.24,4.28-6.67,6.36-10.29q-5.54,4.18-10.38,7.94T365.86,403.67Z" transform="translate(-163.62 -174.32)"/><path class="cls-21" d="M314.24,339.73A48,48,0,0,0,319.3,332a14.27,14.27,0,0,0,1.94-6.05c0-.42-.18-.63-.53-.63-1.67,0-3.49.82-5.48,2.45a35.22,35.22,0,0,0-5.84,6.37A66.56,66.56,0,0,0,304,343a82.64,82.64,0,0,0-4.33,9.7,33.76,33.76,0,0,0,7.62-5.43A64.82,64.82,0,0,0,314.24,339.73Z" transform="translate(-163.62 -174.32)"/><path class="cls-22" d="M294.09,315.4a67.09,67.09,0,0,0,8.3-14.14,34.21,34.21,0,0,0,3-13.31,22.58,22.58,0,0,0-2.14-9.81,20.27,20.27,0,0,0-6.74-7.78,35.54,35.54,0,0,0-11.79-5.17,69.62,69.62,0,0,0-17.33-1.88,93.42,93.42,0,0,0-25.63,3.6,131.28,131.28,0,0,0-24.17,9.5,133.63,133.63,0,0,0-21.24,13.52,123.77,123.77,0,0,0-16.92,15.77,78.83,78.83,0,0,0-11.22,16.18q-4.06,8-4.07,14.61a19.16,19.16,0,0,0,1.67,8.56,15.64,15.64,0,0,0,4.23,5.38,14.69,14.69,0,0,0,5.69,2.82,25.43,25.43,0,0,0,6.16.78,18.63,18.63,0,0,0,4.07-.42,14.93,14.93,0,0,0,3.29-1.09,7.53,7.53,0,0,0,2.24-1.57,2.66,2.66,0,0,0,.84-1.83,3.6,3.6,0,0,0-.47-2,2.75,2.75,0,0,0-1.26-1,4.19,4.19,0,0,0-1.82-.26q-1,0-2.19.15a14.29,14.29,0,0,1-1.78.11,4.54,4.54,0,0,1-1.72-.32,2.54,2.54,0,0,1-1.25-1.09,4.6,4.6,0,0,1-.47-2.35,22.33,22.33,0,0,1,1.72-7.41,64.59,64.59,0,0,1,5-10.13A124.66,124.66,0,0,1,196,313.16a119.51,119.51,0,0,1,10.6-12.06,135.18,135.18,0,0,1,13-11.38,97.19,97.19,0,0,1,15-9.5,88.46,88.46,0,0,1,16.75-6.52,67.48,67.48,0,0,1,18.22-2.45q9.29,0,13.41,3.49a11.29,11.29,0,0,1,4.13,9A27.77,27.77,0,0,1,284.9,294a64.63,64.63,0,0,1-6,11.44,94.78,94.78,0,0,1-9.19,11.74,119.81,119.81,0,0,1-11.53,11.07,110.88,110.88,0,0,1-13,9.44,78.54,78.54,0,0,1-13.83,6.84c1.11-2.43,2.15-4.61,3.13-6.52s2-3.73,3-5.43,2-3.38,3-5l3.13-5.28q3.34-5.84,5.53-10c1.47-2.74,2.2-4.71,2.2-5.89a8.24,8.24,0,0,0-1.1-4.13,13.7,13.7,0,0,0-6.58-5.79,10,10,0,0,0-3.81-.84c-2,0-3.17.49-3.44,1.47a14.38,14.38,0,0,0-.42,3.86v.62a15.19,15.19,0,0,1-1.05,1.78q-1,1.67-2.81,4.7c-1.33,2.23-2.87,4.82-4.65,7.77s-3.62,6.16-5.53,9.61-3.81,7-5.69,10.75-3.59,7.47-5.12,11.22a8,8,0,0,1-2.92-1,7.14,7.14,0,0,1-1.83-1.62,8.86,8.86,0,0,1-1.09-1.82,10.94,10.94,0,0,1-.63-1.78,13.79,13.79,0,0,0-1.41-3.6c-.59-1-1.72-1.51-3.39-1.51a3.74,3.74,0,0,0-3.19,1.46,6.08,6.08,0,0,0-1.09,3.76,10.84,10.84,0,0,0,.78,3.75,16,16,0,0,0,2.35,4.13,21.47,21.47,0,0,0,3.86,3.81,18.66,18.66,0,0,0,5.33,2.82,83.6,83.6,0,0,0-3.13,10.85,47.35,47.35,0,0,0-1.15,10,25,25,0,0,0,4.17,13.47,17.08,17.08,0,0,0,4.86,4.8,11.23,11.23,0,0,0,6.31,1.88c2.09,0,3.55-.33,4.39-1a3.57,3.57,0,0,0,1.25-3,6.11,6.11,0,0,0-.42-2.09c-.28-.77-.62-1.64-1-2.61l.1.1a48.32,48.32,0,0,1-1.56-4.64,20.22,20.22,0,0,1-.73-5.59,44.56,44.56,0,0,1,1.41-10.7,75,75,0,0,1,3.91-11.53,93,93,0,0,0,20.41-5.28,107.57,107.57,0,0,0,18.74-9.29,115.12,115.12,0,0,0,16.13-12.11A95.89,95.89,0,0,0,294.09,315.4Z" transform="translate(-163.62 -174.32)"/><path class="cls-22" d="M445.72,332.16a2.68,2.68,0,0,0-1.67-1.83,3.67,3.67,0,0,0-2.61.16,5.16,5.16,0,0,0-2.45,2.45v.11a55.25,55.25,0,0,1-9.08,12.68,141.18,141.18,0,0,1-13.57,12.48q2.09-4.8,3.91-9.45t3.18-8.46q1.36-3.81,2.14-6.52a16,16,0,0,0,.79-3.86,8.84,8.84,0,0,0-1.1-4A18.31,18.31,0,0,0,419.1,319a6.17,6.17,0,0,0-3.29-1.2,3.94,3.94,0,0,0-3.23,1.4c-.77.94-1.15,2.49-1.15,4.65a24.69,24.69,0,0,1-1.31,3.76q-1.31,3.35-3.39,8.87c-1.11,1.67-2.54,3.73-4.28,6.16s-3.6,5-5.58,7.78-4,5.48-6.06,8.19-4,5.16-5.74,7.31-3.33,3.92-4.65,5.27-2.23,2-2.71,2c-.21,0,0-.64.57-1.93s1.41-3,2.46-5.06,2.24-4.44,3.6-7.05,2.73-5.27,4.12-8c1.18-2.29,2.33-4.54,3.45-6.73s2.1-4.23,3-6.11,1.57-3.56,2.09-5.06a11.7,11.7,0,0,0,.78-3.6,7.26,7.26,0,0,0-2.29-5.38,15.77,15.77,0,0,0-5.12-3.39,13.62,13.62,0,0,0-5.12-1.15c-1.53,0-2.29.52-2.29,1.57a12.61,12.61,0,0,1-.63,3.54,39.65,39.65,0,0,1-1.67,4.49c-.69,1.61-1.5,3.29-2.4,5.07s-1.81,3.56-2.71,5.37c-1.19,2.23-2.35,4.49-3.5,6.79-1,1.93-1.84,3.85-2.66,5.75-.7,1.24-1.41,2.49-2.14,3.75q-2.67,4.59-5.27,8.35a51.07,51.07,0,0,1-4.91,6.16q-2.3,2.4-3.86,2.4c-.35,0-.52-.38-.52-1.15a12.51,12.51,0,0,1,.57-3.34q.57-2,1.41-4.17c.55-1.47,1.18-3,1.88-4.55s1.35-3,2-4.43c1-2,1.81-3.85,2.51-5.48a10.74,10.74,0,0,0,1-3.71,3.69,3.69,0,0,0-1.15-3A14.92,14.92,0,0,0,358,341.3c-.56-.35-1.15-.74-1.78-1.15a9.11,9.11,0,0,1-1.72-1.52,6.65,6.65,0,0,1-1.25-2.19,9.19,9.19,0,0,1-.47-3.08,12.3,12.3,0,0,1,1.2-5.06,47.65,47.65,0,0,1,2.66-5.07c.77-1.46,1.46-2.8,2.09-4a7.57,7.57,0,0,0,.94-3.49,4.25,4.25,0,0,0-1.36-3.19,10.1,10.1,0,0,0-3.29-2.08,18.67,18.67,0,0,0-4.12-1.15,22.68,22.68,0,0,0-3.76-.37,5,5,0,0,0-3.44,1.62,16.12,16.12,0,0,0-3,4.28,28.41,28.41,0,0,0-2.19,6,27.75,27.75,0,0,0-.84,6.79,21.78,21.78,0,0,0,.26,3.39,12.84,12.84,0,0,0,.79,2.87c-.35.77-.7,1.5-1.05,2.2l-1.2,2.45c-.22.45-.46,1-.73,1.47q-1.6,2.69-3.7,5.84-2.82,4.21-6.42,8.66a69.58,69.58,0,0,1-7.68,8.09,41.21,41.21,0,0,1-8.56,6,19.35,19.35,0,0,1-9.08,2.35,3,3,0,0,1-2.82-1.51,8,8,0,0,1-.83-3.92,19,19,0,0,1,.42-4,24.57,24.57,0,0,0,7-2.87,47.91,47.91,0,0,0,7.15-5.17,63.41,63.41,0,0,0,6.63-6.68,66.54,66.54,0,0,0,5.53-7.41,44.76,44.76,0,0,0,3.81-7.26,16.9,16.9,0,0,0,1.41-6.21,8,8,0,0,0-2.14-5.85q-2.13-2.19-7-2.19a33.76,33.76,0,0,0-14.78,3.5,49.21,49.21,0,0,0-13,9.13,46.64,46.64,0,0,0-9.35,12.79,32.33,32.33,0,0,0-3.55,14.46,26.24,26.24,0,0,0,1.2,7.62,23.37,23.37,0,0,0,3.71,7.31,20.85,20.85,0,0,0,6.26,5.53,17.55,17.55,0,0,0,9,2.19,26.87,26.87,0,0,0,11.8-2.71,46.79,46.79,0,0,0,10.54-7,68.58,68.58,0,0,0,9-9.5q4.06-5.21,7.25-10.18t5.33-9.08c.24-.47.47-.9.69-1.34.51.44,1,.84,1.5,1.19s1.16.8,1.72,1.15q-2.3,4.8-4.07,9.29-1.45,3.86-2.72,8.09a26.35,26.35,0,0,0-1.25,7.25,12.43,12.43,0,0,0,.94,4.7,12.86,12.86,0,0,0,2.66,4.07,14.07,14.07,0,0,0,4.13,2.92,12.36,12.36,0,0,0,5.43,1.15q3,0,6.47-2.71a42.28,42.28,0,0,0,6.84-7c.42-.53.83-1.08,1.25-1.63.13.46.28.93.47,1.42a17.81,17.81,0,0,0,2.61,4.7,17.38,17.38,0,0,0,3.81,3.71,7.7,7.7,0,0,0,4.54,1.51,6.14,6.14,0,0,0,3.08-1.15,27,27,0,0,0,3.91-3.08c1.39-1.28,2.87-2.78,4.44-4.48s3.15-3.54,4.75-5.48q-1,2.4-1.62,3.75c-.38.91-.71,1.62-1,2.14s-.52,1-.73,1.36-.47.84-.78,1.36-.73,1.22-1.26,2.09-1.2,2.1-2,3.7q-6.8,4.8-12.79,9.29t-10.6,8.51a50.87,50.87,0,0,0-7.25,7.57,11.2,11.2,0,0,0-2.66,6.58,10.8,10.8,0,0,0,.73,3.6,10.1,10.1,0,0,0,2.55,3.81,14.58,14.58,0,0,0,5,3,22.07,22.07,0,0,0,7.83,1.2q4.39,0,9.56-4.54a71.73,71.73,0,0,0,10.49-11.9,181.52,181.52,0,0,0,10.59-16.6q5.28-9.24,9.87-18.63,5.94-4.69,11.53-9.4t10.29-9.39a103.92,103.92,0,0,0,8.3-9.29,42.24,42.24,0,0,0,5.48-8.88A4.8,4.8,0,0,0,445.72,332.16ZM304,343a66.56,66.56,0,0,1,5.43-8.83,35.22,35.22,0,0,1,5.84-6.37c2-1.63,3.81-2.45,5.48-2.45.35,0,.53.21.53.63A14.27,14.27,0,0,1,319.3,332a48,48,0,0,1-5.06,7.73,64.82,64.82,0,0,1-7,7.51,33.76,33.76,0,0,1-7.62,5.43A82.64,82.64,0,0,1,304,343Zm74.38,56.11a74.77,74.77,0,0,1-6.48,8.45,36.85,36.85,0,0,1-6.31,5.74,10.39,10.39,0,0,1-5.9,2.14c-1,0-1.57-.55-1.57-1.67s.7-2.62,2.09-4.33a51.27,51.27,0,0,1,5.69-5.74q3.6-3.18,8.46-6.94t10.38-7.94C382.62,392.41,380.49,395.84,378.34,399.08Z" transform="translate(-163.62 -174.32)"/><path class="cls-23" d="M575.68,385.19c.76-1.39,1.56-2.08,2.4-2.08a3.46,3.46,0,0,1,2.19.73,10.54,10.54,0,0,1,2.19,2.61,21.31,21.31,0,0,1-4.28,6.05,23.15,23.15,0,0,1-6.37,4.13,24.09,24.09,0,0,1-10,1.82,38.24,38.24,0,0,1-12.37-2.19,34.74,34.74,0,0,1-11.85-7,36.92,36.92,0,0,1-8.92-12.38q-3.51-7.56-3.5-18.32a36.63,36.63,0,0,1,.94-7.83,77.86,77.86,0,0,1,2.71-9.29,51.39,51.39,0,0,1-7.93-2.87c-2.51-1.15-4.87-2.31-7.1-3.5q-7.83,8.67-15.66,16.55t-15,13.94a98.38,98.38,0,0,1-13.15,9.6q-6,3.56-10.18,3.55a34.68,34.68,0,0,1-12.32-2,26.15,26.15,0,0,1-8.77-5.33,20.78,20.78,0,0,1-5.27-7.83,25.94,25.94,0,0,1-1.73-9.39A30.84,30.84,0,0,1,434.85,341a37.42,37.42,0,0,1,9.34-12.16,49.58,49.58,0,0,1,15.5-9,60.68,60.68,0,0,1,21.51-3.5,50,50,0,0,1,8.87.73A62.41,62.41,0,0,1,497.8,319a53.21,53.21,0,0,1,6.94,2.71q3.28,1.57,6.63,3.24,5-5.54,9.92-11.17t9.5-11.12l8.82-10.54q4.23-5.07,7.67-9.35L560,267.65a3.59,3.59,0,0,1,1.3-2,3.42,3.42,0,0,1,2.45-.68,9,9,0,0,1,3.45,1.15,18.65,18.65,0,0,1,3.81,2.71,17.47,17.47,0,0,1,3.08,3.71,7.69,7.69,0,0,1,1.25,4,20.27,20.27,0,0,1-1.36,6.31q-1.35,3.92-3.54,8.88c-1.47,3.3-3.14,6.84-5,10.59s-3.79,7.56-5.74,11.38-4,7.75-5.79,11.33-3.67,7.33-5.48,11.22a3.93,3.93,0,0,1,2,1.57,3.82,3.82,0,0,1,.52,1.88,3.39,3.39,0,0,1-1.35,2.61,7.6,7.6,0,0,1-4.39,1.35,96,96,0,0,0-3.81,10.44,29.87,29.87,0,0,0-1.41,8.15q0,8.44,2.61,13.93a25.49,25.49,0,0,0,6.37,8.67,21.67,21.67,0,0,0,7.83,4.38,25.11,25.11,0,0,0,6.89,1.2c3.69,0,6.45-.59,8.3-1.77a10.36,10.36,0,0,0,3.6-3.34ZM460.21,368.8c2.09,0,4.77-1,8-3.08a95.31,95.31,0,0,0,11-8.24q6.06-5.18,12.84-12.06t13.89-14.51a93.71,93.71,0,0,0-11.38-4.8,39,39,0,0,0-12.84-2,27.08,27.08,0,0,0-13.21,3.29,37.07,37.07,0,0,0-10.33,8.3,40.55,40.55,0,0,0-6.79,10.86,28.52,28.52,0,0,0-2.45,11,12.2,12.2,0,0,0,2.66,8.09Q454.27,368.8,460.21,368.8Zm59-39.77a54.59,54.59,0,0,0,6.11,2.92,46,46,0,0,0,6.31,2q3-7.31,6.79-15.3t7.41-15.71c1.11-2.16,1.93-3.72,2.45-4.7s.94-1.74,1.25-2.29.63-1.19.94-1.88.79-1.88,1.41-3.55q-6.15,7.73-14.51,17.69T519.2,329Z" transform="translate(-163.62 -174.32)"/><g id="Ticket"><g class="cls-24"><g class="cls-25"><path class="cls-26" d="M259.72,437.33l0,.09a.16.16,0,0,1,0,.09l0,.09s0,.07,0,.1l.9-.05.08-.1,1.4-1.56a3.58,3.58,0,0,1,.26-.29l.25-.29c.17-.19.34-.39.52-.58l1.21-1.37-.38-7.81-.32,0a.32.32,0,0,1-.34-.3.33.33,0,0,1,.31-.35l.32,0-2.17-44.6-1.34-1.21h0l-.25-.22-.23-.22-.66-.59-1.54-1.39,0,0-.05-.05-.91.06a.17.17,0,0,1,0,.1.28.28,0,0,1,0,.09s0,.06,0,.09a.69.69,0,0,1,0,.1.79.79,0,0,1-.68.46.77.77,0,0,1-.79-.52l0-.12s0-.07,0-.11l-1,.06V377a.65.65,0,0,1-.05.2.14.14,0,0,1,0,.07.79.79,0,0,1-.69.48.77.77,0,0,1-.78-.5.5.5,0,0,1,0-.13s0-.08,0-.12l-1,.06v.09a.28.28,0,0,1,0,.09.29.29,0,0,0,0,.09l0,.08a.81.81,0,0,1-.7.5.78.78,0,0,1-.77-.48l0-.07s0,0,0-.07,0,0,0-.06v-.07l-1,.05v.1s0,0,0,.07,0,.06,0,.09l0,.07h0a.8.8,0,0,1-.7.51.78.78,0,0,1-.76-.46.26.26,0,0,1,0-.08.71.71,0,0,1,0-.21l-1,0a.86.86,0,0,1-.05.32.81.81,0,0,1-.71.53.79.79,0,0,1-.76-.44.82.82,0,0,1-.07-.31l-1,.06a.92.92,0,0,1,0,.29h0a.82.82,0,0,1-.72.55.79.79,0,0,1-.75-.44h0l-.06-.15a.88.88,0,0,1,0-.17l-1,.06v.08a.13.13,0,0,1,0,.06.39.39,0,0,1,0,.14.79.79,0,0,1-1.46.15l0-.08c0-.05,0-.1,0-.15v0a.15.15,0,0,1,0-.07l-1,.06v.13l0,.13a.81.81,0,0,1-.73.59.78.78,0,0,1-.73-.4l-.06-.13,0-.13a.31.31,0,0,1,0-.1l-.91.06-.09.09h0L235,379.61h0l-.2.21-.19.22-.38.43-.27.3h0l-1.21,1.36,2.18,44.6.33,0a.32.32,0,0,1,.34.31.34.34,0,0,1-.31.35l-.33,0,.38,7.81,2.48,2.24,1.54,1.39.09.09.91-.06v-.09s0,0,0-.07a.66.66,0,0,1,.06-.2.8.8,0,0,1,.69-.49.79.79,0,0,1,.78.5.5.5,0,0,1,0,.13.09.09,0,0,0,0,.05v.08l1-.06a.85.85,0,0,1,0-.23.13.13,0,0,1,0-.06l0-.06h0a.81.81,0,0,1,.7-.5.79.79,0,0,1,.77.48h0a.5.5,0,0,1,0,.13.07.07,0,0,1,0,0v.08l1-.05a.91.91,0,0,1,0-.17.75.75,0,0,1,0-.16.79.79,0,0,1,.71-.52.78.78,0,0,1,.76.46l0,.07s0,.05,0,.07a.77.77,0,0,1,0,.15l1-.06a.63.63,0,0,1,.05-.31.81.81,0,0,1,.71-.54.78.78,0,0,1,.75.45.65.65,0,0,1,.08.31l1-.06a.82.82,0,0,1,0-.22.14.14,0,0,1,0-.07.81.81,0,0,1,.72-.56.78.78,0,0,1,.74.43h0a.3.3,0,0,1,0,.08.19.19,0,0,1,0,.08.47.47,0,0,1,0,.17l1-.06V438s0,0,0-.07,0-.05,0-.07a.82.82,0,0,1,.72-.57.78.78,0,0,1,.74.41l0,.08,0,.09a.29.29,0,0,1,0,.09.28.28,0,0,1,0,.09l1-.06v-.12a.28.28,0,0,1,0-.13.79.79,0,0,1,.72-.6.81.81,0,0,1,.74.4.79.79,0,0,1,0,.09.78.78,0,0,1,.05.18.28.28,0,0,1,0,.09l1-.06v-.11a.5.5,0,0,1,0-.12A.8.8,0,0,1,259,437a.78.78,0,0,1,.73.38Zm-22.9-10.06a.32.32,0,0,1-.34-.3.33.33,0,0,1,.31-.35l.67,0a.31.31,0,0,1,.34.31.32.32,0,0,1-.31.34l-.67,0Zm25.33-2.16a.32.32,0,0,1,.34.31.34.34,0,0,1-.31.35l-.68,0a.32.32,0,0,1-.34-.31.33.33,0,0,1,.31-.35l.68,0Zm-7.38,1.1a.32.32,0,0,1-.34-.31.34.34,0,0,1,.31-.35l.68,0a.32.32,0,0,1,.34.31.33.33,0,0,1-.31.35l-.68,0Zm-2.24.13a.32.32,0,0,1-.34-.31.33.33,0,0,1,.31-.35l.67,0a.33.33,0,0,1,0,.66l-.67,0Zm-2.25.13a.34.34,0,0,1-.25-.09.4.4,0,0,1-.09-.21.35.35,0,0,1,.07-.23.31.31,0,0,1,.24-.12l.67,0a.32.32,0,0,1,.35.31.33.33,0,0,1-.31.34l-.68,0Zm-1.57.1-.67,0a.32.32,0,0,1-.34-.31A.33.33,0,0,1,248,426l.67,0a.32.32,0,0,1,.25.1.32.32,0,0,1,.1.21.35.35,0,0,1-.08.22.36.36,0,0,1-.24.13Zm-2.91.17a.33.33,0,0,1-.35-.31.34.34,0,0,1,.31-.35l.68,0a.33.33,0,0,1,0,.66l-.67,0Zm-2.25.14a.33.33,0,0,1,0-.66l.67,0a.33.33,0,0,1,.35.31.34.34,0,0,1-.31.35l-.68,0Zm-2.25.13a.32.32,0,0,1-.33-.31.33.33,0,0,1,.3-.35l.68,0a.32.32,0,0,1,.34.31.33.33,0,0,1-.31.35l-.68,0Zm-1.56.09-.68,0a.31.31,0,0,1-.32-.23v-.16a.31.31,0,0,1,.3-.26l.68-.05.09,0a.32.32,0,0,1,.25.29.34.34,0,0,1-.21.33l-.1,0Zm17.28-1a.31.31,0,0,1-.34-.31.32.32,0,0,1,.31-.34l.68,0a.33.33,0,0,1,0,.65l-.68,0Zm1.9-.44a.31.31,0,0,1,.21-.32.29.29,0,0,1,.1,0l.67,0a.32.32,0,0,1,.33.23.32.32,0,0,1,0,.16.31.31,0,0,1-.3.27l-.67,0h-.1a.32.32,0,0,1-.24-.3Z" transform="translate(-163.62 -174.32)"/><path class="cls-27" d="M260.66,434.3l1.47-1.65-.33-6.86-.29,0a.32.32,0,0,1-.34-.31.33.33,0,0,1,.31-.35l.29,0-2.14-43.64L258,380l-1.09-1-19.42,1.15L235,383l2.13,43.65.29,0a.32.32,0,0,1,.34.31.33.33,0,0,1-.31.35h-.29l.34,6.86,2.7,2.45,19.43-1.16,1-1.1Zm-1.49,0-18.53,1.1-2-1.85-2.45-50.25.44-.49,1-1.16.38-.43,18.53-1.1,1.56,1.41.48.43L261,432.26l-1.47,1.65-.38.43Z" transform="translate(-163.62 -174.32)"/><path class="cls-27" d="M248,395.67l8.75.81.07,1.57-8.62,1.84-.06-1.25,1.76-.34-.06-1.24-1.78-.13-.06-1.26Zm6,1.84.23-.05v-.07l-.22,0-2.76-.2,0,.88,2.72-.53Zm-5.68,4.08,8.69-.52,0,1a3.94,3.94,0,0,1-.13,1.42,1.46,1.46,0,0,1-.66.82,3.84,3.84,0,0,1-1.32.39,19.8,19.8,0,0,1-2.11.19c-.85.06-1.55.08-2.12.07a3.87,3.87,0,0,1-1.34-.24,1.43,1.43,0,0,1-.74-.73,4.08,4.08,0,0,1-.27-1.4Zm1.34,1.21a1.22,1.22,0,0,0,.11.52.56.56,0,0,0,.41.27,1.78,1.78,0,0,0,.38.06h.54l1.68-.09,1.68-.11c.2,0,.38,0,.53-.08a2.74,2.74,0,0,0,.39-.1.59.59,0,0,0,.37-.31,1.43,1.43,0,0,0,0-.53Zm-1,6.49,5.42-1.15.36-.07V408l-5.83.34-.05-1.19,8.68-.52.08,1.58-3.94,1-.45.09v0l.46,0,4,.53.08,1.57-8.69.52-.06-1.2,5.83-.34v-.07l-.36,0-5.5-.49,0-.55Zm8.92,4.3.06,1.28-8.68.52-.07-1.29,8.69-.51Zm-1.17,3,1.31-.08.18,3.72-1.31.08-.06-1.22-7.37.44-.06-1.29,7.37-.44-.06-1.21Z" transform="translate(-163.62 -174.32)"/><path class="cls-27" d="M241,405.05a2.26,2.26,0,0,1-1-.16,1.29,1.29,0,0,1-.35-.18,1.7,1.7,0,0,1-.31-.29,1.27,1.27,0,0,1-.24-.41,2.22,2.22,0,0,1-.11-.56,2.09,2.09,0,0,1,0-.58,1.48,1.48,0,0,1,.2-.44,1.74,1.74,0,0,1,.28-.32,3.15,3.15,0,0,1,.33-.22,2.3,2.3,0,0,1,.94-.27l5.12-.3a2,2,0,0,1,.49,0,2.13,2.13,0,0,1,.45.13,1.51,1.51,0,0,1,.36.18,1.37,1.37,0,0,1,.32.28,1.46,1.46,0,0,1,.23.41,2,2,0,0,1,.11.57,2.05,2.05,0,0,1-.05.57,1.48,1.48,0,0,1-.49.76,1.78,1.78,0,0,1-.33.23,2.89,2.89,0,0,1-.44.18,3.3,3.3,0,0,1-.49.09Zm5-1.59a1.31,1.31,0,0,0,.31-.06.79.79,0,0,0,.23-.14.23.23,0,0,0,.06-.12.61.61,0,0,0,0-.15.35.35,0,0,0-.12-.25.57.57,0,0,0-.22-.11.83.83,0,0,0-.32,0l-5.12.31a1.22,1.22,0,0,0-.31.06.71.71,0,0,0-.22.15.31.31,0,0,0-.08.25.35.35,0,0,0,.1.26.55.55,0,0,0,.23.11,1.05,1.05,0,0,0,.32,0Zm-2.15,4.8.4-.13v-.07l-4.93.29-.06-1.18,8.69-.51,0,1.14-4.46,1.52-.4.13v.07l4.93-.29.06,1.18-8.69.52,0-1.15,4.46-1.52Zm4.39,4.36.14,2.94-1.31.08L247,414l-2.28.14.06,1.19-1.4.08-.06-1.19-2.38.14L241,416l-1.31.08-.15-2.95,8.69-.51Z" transform="translate(-163.62 -174.32)"/><path class="cls-27" d="M243.49,432.74l.35-3.54.62,0,.7,3.48-.5,0-.13-.71-.49,0-.06.72-.49,0Zm.75-2.42,0-.09h0v.09l-.09,1.12.35,0-.2-1.1Z" transform="translate(-163.62 -174.32)"/><path class="cls-27" d="M247.48,431.78a.92.92,0,0,1-.07.38,1,1,0,0,1-.07.15l-.12.12a.44.44,0,0,1-.16.1.71.71,0,0,1-.22.05l-.23,0a.75.75,0,0,1-.18-.08.63.63,0,0,1-.12-.11l-.09-.14a1,1,0,0,1-.1-.37l-.1-2.07a1.34,1.34,0,0,1,0-.2.64.64,0,0,1,.06-.18.37.37,0,0,1,.07-.14.55.55,0,0,1,.28-.23.72.72,0,0,1,.22,0,.85.85,0,0,1,.23,0l.17.08a.49.49,0,0,1,.13.12l.09.13c0,.05.05.11.07.17l0,.2Zm-.61-2a.43.43,0,0,0,0-.12.18.18,0,0,0-.06-.09l0,0h-.06a.13.13,0,0,0-.1,0,.2.2,0,0,0-.05.09.57.57,0,0,0,0,.13l.1,2.07a.37.37,0,0,0,0,.12.35.35,0,0,0,.06.09.1.1,0,0,0,.1,0,.11.11,0,0,0,.1,0,.16.16,0,0,0,.05-.09.53.53,0,0,0,0-.13Zm.63,0,0-.33a.62.62,0,0,0,.26-.11l.16-.16.06-.09a.3.3,0,0,0,0-.1h.31l.17,3.5-.51,0-.13-2.75-.34,0Zm1.28.28v-.24a1.9,1.9,0,0,1,0-.34,1.32,1.32,0,0,1,.09-.3.51.51,0,0,1,.2-.21.65.65,0,0,1,.34-.1.82.82,0,0,1,.33.05.62.62,0,0,1,.22.17,1.11,1.11,0,0,1,.12.27,1.86,1.86,0,0,1,0,.34,2,2,0,0,1-.06.58c0,.21-.11.41-.18.62s-.16.4-.24.57-.15.32-.21.44l.8-.05,0,.51-1.39.08,0-.51c.14-.25.27-.5.39-.76s.09-.22.14-.34l.12-.37c0-.12.06-.24.08-.36a2,2,0,0,0,0-.34c0-.05,0-.1,0-.15l0-.14a.33.33,0,0,0-.06-.1.12.12,0,0,0-.09,0,.11.11,0,0,0-.09,0,.23.23,0,0,0,0,.1.51.51,0,0,0,0,.13V430l-.51,0Zm3.23,1.49a.92.92,0,0,1-.07.38.51.51,0,0,1-.07.15l-.12.12a.44.44,0,0,1-.16.1.71.71,0,0,1-.22.05l-.23,0a.49.49,0,0,1-.18-.08.63.63,0,0,1-.12-.11l-.09-.14a1,1,0,0,1-.1-.37l-.1-2.07a1.34,1.34,0,0,1,0-.2,1.27,1.27,0,0,1,.06-.18.37.37,0,0,1,.07-.14.55.55,0,0,1,.28-.23.72.72,0,0,1,.22,0,.85.85,0,0,1,.23,0l.17.08a.49.49,0,0,1,.13.12l.09.13a.75.75,0,0,1,.07.18l0,.19Zm-.61-2a.43.43,0,0,0,0-.12.18.18,0,0,0-.06-.09l0,0h-.06a.13.13,0,0,0-.1,0,.2.2,0,0,0-.05.09.57.57,0,0,0,0,.13l.1,2.07a.37.37,0,0,0,0,.12.35.35,0,0,0,.06.09.1.1,0,0,0,.1,0,.11.11,0,0,0,.1,0,.16.16,0,0,0,.05-.09.53.53,0,0,0,0-.13Zm1.16,1.14,0-.43a.58.58,0,0,0,.23-.06.18.18,0,0,0,.11-.12.5.5,0,0,0,0-.19l0-.28a.76.76,0,0,0,0-.15.77.77,0,0,0,0-.15.23.23,0,0,0-.05-.1.13.13,0,0,0-.1,0,.09.09,0,0,0-.07,0,.19.19,0,0,0,0,.1.82.82,0,0,0,0,.18c0,.08,0,.18,0,.29l-.5,0c0-.1,0-.21,0-.33a2,2,0,0,1,.06-.35.64.64,0,0,1,.18-.27.59.59,0,0,1,.37-.13.63.63,0,0,1,.38.08.66.66,0,0,1,.21.23,1.25,1.25,0,0,1,.09.25c0,.07,0,.13,0,.15a2.05,2.05,0,0,1,0,.6.72.72,0,0,1-.16.34h0a.75.75,0,0,1,.26.39,2.36,2.36,0,0,1,.08.56v.1a1.21,1.21,0,0,1,0,.18c0,.07,0,.15,0,.23a1.13,1.13,0,0,1-.11.22.69.69,0,0,1-.17.17.6.6,0,0,1-.27.07.56.56,0,0,1-.6-.34,1.22,1.22,0,0,1-.1-.34,1.82,1.82,0,0,1,0-.32l.5,0c0,.11,0,.21,0,.28a1.06,1.06,0,0,0,.05.18.19.19,0,0,0,.05.1.12.12,0,0,0,.08,0,.14.14,0,0,0,.1-.05.23.23,0,0,0,0-.11s0-.09,0-.14a.76.76,0,0,0,0-.15c0-.11,0-.21,0-.3a.48.48,0,0,0,0-.22.27.27,0,0,0-.12-.14l-.1,0h-.19Zm1.12-1.27a1.19,1.19,0,0,1,0-.19,1,1,0,0,1,.08-.26.5.5,0,0,1,.18-.23.65.65,0,0,1,.37-.12.57.57,0,0,1,.58.28.69.69,0,0,1,.09.25.89.89,0,0,1,0,.19l.1,2v.24a.9.9,0,0,1-.07.27.61.61,0,0,1-.19.24.65.65,0,0,1-.37.12.72.72,0,0,1-.38-.07.63.63,0,0,1-.21-.22,1.34,1.34,0,0,1-.09-.26c0-.09,0-.17,0-.24v-.22l.51,0c0,.12,0,.21,0,.29s0,.14,0,.19a.19.19,0,0,0,.05.09s0,0,.09,0a.12.12,0,0,0,.12-.1,1.11,1.11,0,0,0,0-.29l0-.66a.37.37,0,0,1-.12.07.28.28,0,0,1-.13,0,.44.44,0,0,1-.31-.07.47.47,0,0,1-.18-.19,1.17,1.17,0,0,1-.09-.24,1.91,1.91,0,0,1,0-.2Zm.81-.2a.16.16,0,0,0,0-.1.14.14,0,0,0-.12-.05.16.16,0,0,0-.12.07.23.23,0,0,0,0,.09l0,1a.18.18,0,0,0,0,.09.14.14,0,0,0,.12.06.17.17,0,0,0,.12-.06.19.19,0,0,0,0-.09Z" transform="translate(-163.62 -174.32)"/><polygon class="cls-27" points="95.8 214 95.48 207.43 93.11 205.28 74.13 206.41 71.97 208.83 72.3 215.4 95.8 214 95.8 214"/><path class="cls-26" d="M240.21,386.81l.35-3.54.63,0,.69,3.47-.5,0-.13-.71-.49,0-.06.72-.49,0Zm.75-2.42,0-.09h0v.1l-.09,1.11.35,0-.2-1.1Zm1.16,2.3-.17-3.5.4,0a1.58,1.58,0,0,1,.56,0,.57.57,0,0,1,.32.27,1.53,1.53,0,0,1,.15.53,6,6,0,0,1,.07.85c0,.34,0,.63,0,.85a1.59,1.59,0,0,1-.1.55.65.65,0,0,1-.29.3,1.58,1.58,0,0,1-.56.11Zm.49-.54a.54.54,0,0,0,.2,0,.27.27,0,0,0,.11-.17,1.57,1.57,0,0,0,0-.16v-.22c0-.16,0-.39,0-.67s0-.51,0-.68a1.25,1.25,0,0,0,0-.21c0-.06,0-.12,0-.16a.24.24,0,0,0-.12-.15.72.72,0,0,0-.22,0Zm2.13.39-.43-2.18,0-.15h0l.12,2.35-.48,0-.17-3.5.63,0,.38,1.58,0,.19h0l0-.19L245,383l.62,0,.17,3.5-.47,0-.12-2.35h0v.15l-.22,2.23Zm1.35-3.6.51,0,.17,3.51-.51,0-.17-3.51Zm.83.49,0-.53,1.48-.09,0,.53-.48,0,.14,3-.51,0-.14-3-.48,0Zm4,2a1,1,0,0,1-.07.39l-.07.14a.71.71,0,0,1-.12.13.42.42,0,0,1-.16.09.78.78,0,0,1-.23.05.75.75,0,0,1-.22,0,.49.49,0,0,1-.18-.08.43.43,0,0,1-.12-.11.51.51,0,0,1-.09-.13.93.93,0,0,1-.1-.38l-.1-2.06a1.27,1.27,0,0,1,0-.2.78.78,0,0,1,.05-.18,1.09,1.09,0,0,1,.08-.15.45.45,0,0,1,.11-.13.55.55,0,0,1,.17-.1.72.72,0,0,1,.22,0,.57.57,0,0,1,.23,0l.17.07.13.12.08.13a.67.67,0,0,1,.07.18,1.18,1.18,0,0,1,0,.2Zm-.61-2a.51.51,0,0,0,0-.13.47.47,0,0,0-.06-.09l-.05,0h-.06a.14.14,0,0,0-.1.05.19.19,0,0,0,0,.09.28.28,0,0,0,0,.13l.1,2.06a.51.51,0,0,0,0,.13.47.47,0,0,0,.06.09.15.15,0,0,0,.1,0,.16.16,0,0,0,.1-.05.19.19,0,0,0,0-.09.49.49,0,0,0,0-.13Zm1.34.88,0-.16h0l.1,2-.47,0-.17-3.5.45,0,.59,1.8,0,.16h0l-.1-2,.47,0,.17,3.51-.45,0-.59-1.79Zm1.15-1.75,1.17-.07,0,.53-.66,0,0,.92.48,0,0,.56-.47,0,.05,1,.66,0,0,.53-1.17.07-.17-3.5Z" transform="translate(-163.62 -174.32)"/><polygon class="cls-26" points="92.71 208.87 92.95 209.31 93.45 209.35 93.11 209.73 93.22 210.22 92.77 210.01 92.33 210.28 92.39 209.77 92.02 209.44 92.51 209.34 92.71 208.87 92.71 208.87"/><polygon class="cls-26" points="74.87 209.93 75.12 210.37 75.62 210.41 75.28 210.79 75.38 211.28 74.93 211.07 74.5 211.34 74.56 210.83 74.18 210.5 74.67 210.4 74.87 209.93 74.87 209.93"/><polygon class="cls-27" points="94.95 254.92 95.2 255.36 95.7 255.4 95.36 255.78 95.47 256.27 95.01 256.06 94.58 256.33 94.64 255.82 94.26 255.49 94.75 255.39 94.95 254.92 94.95 254.92"/><polygon class="cls-27" points="77.12 255.98 77.36 256.42 77.86 256.46 77.52 256.84 77.63 257.33 77.17 257.13 76.74 257.39 76.8 256.88 76.42 256.55 76.92 256.45 77.12 255.98 77.12 255.98"/><polygon class="cls-27" points="72.27 214.85 95.78 213.45 95.83 214.55 72.32 215.95 72.27 214.85 72.27 214.85"/><path class="cls-28" d="M258.77,441.59s0,.06,0,.1a851007099671.74,851007099671.74,0,0,0,0,.18.36.36,0,0,0,0,.09l.8.42.12,0,2-.64.37-.12.36-.12.74-.23,1.73-.56,3.61-7-.29-.15a.32.32,0,0,1-.13-.44.32.32,0,0,1,.44-.14l.28.15,20.64-39.73c-.19-.65-.37-1.21-.53-1.73h0c0-.1-.06-.21-.1-.31l-.09-.31c-.09-.28-.17-.56-.26-.85-.19-.61-.39-1.24-.62-2l0-.07a.14.14,0,0,0,0-.06l-.8-.42a.41.41,0,0,1-.05.09l-.06.07a.23.23,0,0,1-.07.07l-.07.06a.78.78,0,0,1-.82.06.83.83,0,0,1-.42-.87.49.49,0,0,1,0-.11,1,1,0,0,1,0-.1l-.85-.45a.35.35,0,0,0-.05.08.67.67,0,0,1-.14.15l-.06.05a.78.78,0,0,1-.83.06.81.81,0,0,1-.42-.84.93.93,0,0,1,0-.13.76.76,0,0,1,0-.11l-.85-.45a.22.22,0,0,1-.05.08.18.18,0,0,1-.05.07l-.06.07-.07.06a.79.79,0,0,1-.85.07.81.81,0,0,1-.42-.81s0-.06,0-.08,0,0,0-.07l0-.06s0,0,0-.06l-.86-.45a.22.22,0,0,1,0,.08.15.15,0,0,1,0,.06l-.06.07-.06.05h0a.79.79,0,0,1-.86.09.83.83,0,0,1-.42-.8.19.19,0,0,1,0-.07.48.48,0,0,1,.07-.21l-.86-.45a.82.82,0,0,1-.2.25.8.8,0,0,1-1.3-.68.85.85,0,0,1,.09-.31l-.86-.44a.68.68,0,0,1-.18.23h0a.79.79,0,0,1-1.31-.65h0a.88.88,0,0,1,0-.16.77.77,0,0,1,.07-.16l-.86-.45a.43.43,0,0,1,0,.07s0,0,0,.05l-.09.1a.77.77,0,0,1-.9.13.79.79,0,0,1-.43-.74s0-.06,0-.09a.83.83,0,0,1,0-.15s0,0,0,0l0-.06-.86-.45a.25.25,0,0,1,0,.07l0,0a.28.28,0,0,1-.09.1.79.79,0,0,1-1.34-.59.68.68,0,0,1,0-.14.65.65,0,0,1,0-.13l0-.09-.8-.41-.13,0h0l-2,.63h0l-.27.08-.28.09-.54.18-.38.12h0l-1.72.56-20.64,39.72.29.16a.32.32,0,0,1,.13.44.33.33,0,0,1-.44.14l-.29-.15-3.61,7,1,3.21c.18.6.38,1.24.61,2l0,.12.8.43a.41.41,0,0,0,.05-.09l.05-.05a.71.71,0,0,1,.15-.15.78.78,0,0,1,.83-.06.8.8,0,0,1,.42.83.5.5,0,0,1,0,.13s0,0,0,.05l0,.07.85.45a1.33,1.33,0,0,1,.14-.19s0,0,0,0l0,0h0a.78.78,0,0,1,1.26.74h0a.35.35,0,0,1,0,.14.43.43,0,0,0,0,.05.25.25,0,0,0,0,.07l.86.45a.67.67,0,0,1,.09-.14l.12-.11A.79.79,0,0,1,247,435a.8.8,0,0,1,.42.79.64.64,0,0,1,0,.07s0,.05,0,.08l-.06.14.85.45a.87.87,0,0,1,.21-.25.79.79,0,0,1,.87-.1.81.81,0,0,1,.43.77.85.85,0,0,1-.09.31l.85.45a.83.83,0,0,1,.13-.18l.06-.05a.79.79,0,0,1,.89-.12.81.81,0,0,1,.43.76h0v.08s0,.06,0,.08l-.06.16.85.45,0-.06,0-.06,0-.05.05-.05a.79.79,0,0,1,.91-.13.8.8,0,0,1,.42.74v.09s0,.06,0,.09l0,.08a.2.2,0,0,1,0,.08l.86.45.06-.1a.45.45,0,0,1,.09-.1.79.79,0,0,1,.92-.15.81.81,0,0,1,.43.72.31.31,0,0,1,0,.1,1.16,1.16,0,0,1,0,.18l0,.09.85.45.06-.1a.73.73,0,0,1,.08-.09.77.77,0,0,1,.94-.16.8.8,0,0,1,.43.71Zm-14.53-20.47a.33.33,0,0,1,.31-.59l.6.31a.33.33,0,0,1-.31.59l-.6-.31ZM267,432.25a.34.34,0,0,1,.14.45.33.33,0,0,1-.44.14l-.6-.31a.33.33,0,0,1,.31-.59l.59.31Zm-6.86-2.84a.33.33,0,1,1,.3-.58l.6.31a.33.33,0,0,1-.3.59l-.6-.32Zm-2-1a.33.33,0,0,1,.31-.59l.59.31a.34.34,0,0,1,.14.45.33.33,0,0,1-.44.14l-.6-.31Zm-2-1a.31.31,0,0,1-.16-.21.36.36,0,0,1,0-.23.35.35,0,0,1,.18-.16.36.36,0,0,1,.27,0l.59.32a.33.33,0,0,1-.3.58l-.6-.31Zm-1.39-.73-.6-.31a.32.32,0,0,1-.13-.44.33.33,0,0,1,.44-.14l.6.31a.34.34,0,0,1,.16.21.31.31,0,0,1,0,.23.33.33,0,0,1-.17.16.32.32,0,0,1-.27,0Zm-2.58-1.34a.34.34,0,0,1-.14-.45.33.33,0,0,1,.44-.14l.6.31a.33.33,0,0,1-.31.59l-.59-.31Zm-2-1a.34.34,0,0,1-.14-.45.33.33,0,0,1,.44-.14l.6.31a.33.33,0,1,1-.31.59l-.59-.31Zm-2-1a.34.34,0,0,1-.13-.44.34.34,0,0,1,.44-.15l.6.32a.32.32,0,0,1,.13.44.32.32,0,0,1-.44.14l-.6-.31Zm-1.38-.72-.6-.32a.32.32,0,0,1-.16-.36l.07-.14a.32.32,0,0,1,.4-.08l.6.31.07.06a.32.32,0,0,1,.06.38.33.33,0,0,1-.35.18l-.09,0Zm15.31,8A.33.33,0,0,1,262,430a.32.32,0,0,1,.44-.14l.6.31a.32.32,0,0,1,.13.44.33.33,0,0,1-.43.15l-.6-.32Zm1.85.6a.32.32,0,0,1,.34-.18l.1,0,.59.31a.32.32,0,0,1,.17.37l0,.08-.05.06a.31.31,0,0,1-.39.08l-.6-.31-.08-.06a.33.33,0,0,1-.05-.38Z" transform="translate(-163.62 -174.32)"/><path class="cls-27" d="M261.1,439.44l2.1-.67,3.17-6.11-.26-.13a.33.33,0,0,1,.31-.59l.25.13,20.2-38.88-.65-2.1-.43-1.41-17.21-9-3.49,1.13-20.2,38.88.26.13a.34.34,0,0,1,.13.45.33.33,0,0,1-.44.14l-.26-.14-3.17,6.11,1.08,3.51,17.21,9,1.4-.45Zm-1.29-.73-16.41-8.56-.82-2.65,23.26-44.76.62-.21,1.47-.47.54-.17,16.41,8.56.63,2,.19.63-23.26,44.76-2.09.68-.54.17Z" transform="translate(-163.62 -174.32)"/><path class="cls-27" d="M269.75,399.5l7.08,5.19-.72,1.4-8.31-2.83.58-1.12,1.68.61.57-1.1-1.46-1,.58-1.12Zm4.18,4.65.22.07,0-.06L274,404l-2.26-1.59-.4.78,2.59.94Zm-6.92.62,7.7,4-.47.9a3.81,3.81,0,0,1-.83,1.16,1.42,1.42,0,0,1-1,.37,4,4,0,0,1-1.33-.33c-.53-.22-1.16-.53-1.91-.92s-1.36-.73-1.84-1a4,4,0,0,1-1-.89,1.45,1.45,0,0,1-.26-1,3.81,3.81,0,0,1,.48-1.35Zm.54,1.73a1.25,1.25,0,0,0-.18.51.6.6,0,0,0,.22.44,1.64,1.64,0,0,0,.3.25,5.39,5.39,0,0,0,.46.29c.36.2.85.46,1.48.78s1.12.59,1.49.77l.49.21.38.11a.56.56,0,0,0,.48-.09,1.16,1.16,0,0,0,.31-.43Zm-4.1,5.13,5.22,1.78.35.13,0-.06-5.16-2.7.55-1.06,7.69,4-.72,1.4L267.53,414l-.43-.16v0l.38.26,3.16,2.52-.72,1.4-7.7-4,.55-1.06,5.16,2.69,0-.06-.31-.21-4.45-3.25.25-.49Zm5.47,8.3-.6,1.15-7.69-4,.59-1.14,7.7,4Zm-2.52,2,1.16.61-1.72,3.31-1.16-.61.56-1.08-6.53-3.41.6-1.15,6.53,3.41.56-1.08Z" transform="translate(-163.62 -174.32)"/><path class="cls-27" d="M259,404a2.19,2.19,0,0,1-.74-.63,1.63,1.63,0,0,1-.21-.34,2.2,2.2,0,0,1-.12-.41,1.24,1.24,0,0,1,0-.47,1.89,1.89,0,0,1,.2-.54,2.24,2.24,0,0,1,.33-.48,1.28,1.28,0,0,1,.39-.28,1.69,1.69,0,0,1,.4-.13,1.82,1.82,0,0,1,.4,0,2.32,2.32,0,0,1,.94.25l4.53,2.36a4.21,4.21,0,0,1,.41.28,2.54,2.54,0,0,1,.32.34,2.39,2.39,0,0,1,.21.34,1.4,1.4,0,0,1,.13.41,1.56,1.56,0,0,1,0,.48,1.9,1.9,0,0,1-.19.55,1.67,1.67,0,0,1-.34.46,1.38,1.38,0,0,1-.38.28,1.3,1.3,0,0,1-.41.13,1.38,1.38,0,0,1-.4,0,2.44,2.44,0,0,1-.46-.07,3,3,0,0,1-.47-.17Zm5.13,1.22a1,1,0,0,0,.29.11.57.57,0,0,0,.26,0,.25.25,0,0,0,.12-.07.62.62,0,0,0,.09-.12.33.33,0,0,0,0-.27.46.46,0,0,0-.14-.21.73.73,0,0,0-.26-.19L260,402.09a1.05,1.05,0,0,0-.3-.1.57.57,0,0,0-.26,0,.35.35,0,0,0-.2.18.34.34,0,0,0,0,.27.59.59,0,0,0,.14.22,1.17,1.17,0,0,0,.26.19Zm-4.27,3.06.41.09,0-.07L255.94,406l.54-1,7.7,4-.53,1-4.59-1-.4-.09,0,.06,4.37,2.28-.55,1.05-7.69-4,.53-1,4.58,1Zm1.56,6-1.36,2.62-1.16-.61.76-1.47-2-1.06-.55,1.06-1.24-.64.56-1.06L254.29,412l-.76,1.48-1.17-.61,1.37-2.62,7.69,4Z" transform="translate(-163.62 -174.32)"/><path class="cls-27" d="M247.2,429.27l2.08-2.88.55.29L248.68,430l-.44-.23.25-.68-.44-.22-.41.59-.44-.23Zm1.86-1.71,0-.08,0,0-.05.08-.65.92.31.16.39-1.06Z" transform="translate(-163.62 -174.32)"/><path class="cls-27" d="M251.1,430.49a1,1,0,0,1-.25.3l-.14.09-.16.05h-.19a.74.74,0,0,1-.22-.08.83.83,0,0,1-.18-.13.42.42,0,0,1-.11-.16.49.49,0,0,1,0-.16.86.86,0,0,1,0-.16,1.13,1.13,0,0,1,.1-.38l1-1.84a.91.91,0,0,1,.11-.16.57.57,0,0,1,.14-.13.38.38,0,0,1,.13-.09.49.49,0,0,1,.16-.05.41.41,0,0,1,.19,0,.63.63,0,0,1,.22.07.54.54,0,0,1,.18.14.39.39,0,0,1,.11.15.49.49,0,0,1,0,.16.49.49,0,0,1,0,.17.57.57,0,0,1,0,.18.62.62,0,0,1-.07.19Zm.5-2.07a.34.34,0,0,0,0-.12.21.21,0,0,0,0-.11s0,0,0-.05l-.05,0a.14.14,0,0,0-.11,0l-.08,0a.44.44,0,0,0-.08.11l-1,1.84a.56.56,0,0,0,0,.12.21.21,0,0,0,0,.11s0,.06.07.08a.12.12,0,0,0,.1,0,.18.18,0,0,0,.09-.06.35.35,0,0,0,.08-.11Zm.54.32.15-.29a.92.92,0,0,0,.28,0,.79.79,0,0,0,.22-.05l.09-.05.09-.05.27.14-1.62,3.12-.45-.24,1.27-2.44-.3-.16Zm1,.9.11-.22a1.75,1.75,0,0,1,.18-.29,1.15,1.15,0,0,1,.23-.21.5.5,0,0,1,.27-.08.75.75,0,0,1,.34.09.71.71,0,0,1,.26.21.52.52,0,0,1,.1.26.77.77,0,0,1,0,.3,1.44,1.44,0,0,1-.13.32,2.43,2.43,0,0,1-.34.47,4.89,4.89,0,0,1-.47.44c-.17.14-.33.27-.49.38l-.41.27.72.37-.24.45-1.22-.64.23-.45c.25-.14.49-.3.72-.46a2.09,2.09,0,0,0,.29-.23,3.47,3.47,0,0,0,.29-.25l.26-.27c.07-.1.14-.19.19-.28s0-.09.07-.14a.93.93,0,0,0,0-.13.24.24,0,0,0,0-.12.11.11,0,0,0-.06-.07.1.1,0,0,0-.09,0,.24.24,0,0,0-.09.06.53.53,0,0,0-.09.11l-.08.14-.11.22-.45-.24Zm2,2.94a1,1,0,0,1-.25.31l-.14.08-.16,0h-.19a.86.86,0,0,1-.21-.07.72.72,0,0,1-.19-.14.48.48,0,0,1-.11-.15,1.09,1.09,0,0,1-.05-.17.81.81,0,0,1,0-.16.92.92,0,0,1,.11-.37l1-1.84A1,1,0,0,1,255,430l.14-.13.14-.09.16-.05h.19a.6.6,0,0,1,.21.08.7.7,0,0,1,.19.13l.11.15a1.09,1.09,0,0,1,.05.17.43.43,0,0,1,0,.16,1.37,1.37,0,0,1,0,.19c0,.06,0,.12-.07.19Zm.5-2.07a.31.31,0,0,0,0-.12v-.11l0,0a.1.1,0,0,0,0,0,.14.14,0,0,0-.11,0,.16.16,0,0,0-.08.06.27.27,0,0,0-.08.1l-.95,1.84a.51.51,0,0,0-.05.12.37.37,0,0,0,0,.11.13.13,0,0,0,.07.08.14.14,0,0,0,.11,0,.16.16,0,0,0,.08-.06.29.29,0,0,0,.08-.1Zm.42,1.58.2-.38.23.07a.25.25,0,0,0,.16,0,.37.37,0,0,0,.11-.15l.13-.25a.91.91,0,0,0,.07-.14.78.78,0,0,0,.05-.14.17.17,0,0,0,0-.12s0-.06-.06-.08a.11.11,0,0,0-.08,0l-.08.06a1.42,1.42,0,0,0-.11.16,2.5,2.5,0,0,0-.14.25l-.44-.23a2.88,2.88,0,0,1,.16-.29,1.49,1.49,0,0,1,.23-.27.54.54,0,0,1,.29-.15.62.62,0,0,1,.38.08.6.6,0,0,1,.28.26.73.73,0,0,1,.07.31,1.5,1.5,0,0,1-.05.26l-.06.14a2.13,2.13,0,0,1-.34.51.78.78,0,0,1-.31.2h0a.75.75,0,0,1,0,.47,2.18,2.18,0,0,1-.21.52l-.05.09-.11.15a1.1,1.1,0,0,1-.15.16.66.66,0,0,1-.2.14.71.71,0,0,1-.24.06.54.54,0,0,1-.27-.07.59.59,0,0,1-.34-.61,1.07,1.07,0,0,1,.09-.34,2.09,2.09,0,0,1,.14-.3l.44.23a1.85,1.85,0,0,0-.12.26,1.24,1.24,0,0,0-.06.18.2.2,0,0,0,0,.11.09.09,0,0,0,.06.06.12.12,0,0,0,.1,0,.28.28,0,0,0,.09-.07l.08-.12.08-.14c.05-.1.09-.18.14-.26a.74.74,0,0,0,.07-.21.28.28,0,0,0,0-.18l-.07-.09-.12-.08Zm1.6-.53.1-.16a1.13,1.13,0,0,1,.19-.19.63.63,0,0,1,.28-.1.69.69,0,0,1,.37.09.58.58,0,0,1,.28.25.6.6,0,0,1,.08.29.67.67,0,0,1-.05.26.84.84,0,0,1-.07.18l-.92,1.77-.12.21a1,1,0,0,1-.2.2.54.54,0,0,1-.28.11.61.61,0,0,1-.37-.09.67.67,0,0,1-.29-.25.66.66,0,0,1-.07-.3.87.87,0,0,1,.05-.28,2.09,2.09,0,0,1,.1-.21l.1-.2.45.24c-.05.1-.09.19-.13.26l-.07.17a.2.2,0,0,0,0,.11.13.13,0,0,0,.06.07.14.14,0,0,0,.16,0,1,1,0,0,0,.16-.24l.3-.59h-.14l-.12,0a.47.47,0,0,1-.29-.49.74.74,0,0,1,.05-.25.61.61,0,0,1,.08-.18Zm.8.25a.16.16,0,0,0,0-.1s0-.08-.08-.12a.12.12,0,0,0-.13,0l-.08.06-.47.91a.25.25,0,0,0,0,.1.17.17,0,0,0,.08.11.2.2,0,0,0,.13,0,.16.16,0,0,0,.07-.07Z" transform="translate(-163.62 -174.32)"/><polygon class="cls-27" points="119.62 224.68 122.67 218.83 121.72 215.75 104.91 206.98 101.84 207.97 98.8 213.82 119.62 224.68 119.62 224.68"/><path class="cls-28" d="M267.56,387.82l2.09-2.87.55.28L269,388.6l-.44-.23.25-.68-.43-.23-.42.59-.44-.23Zm1.86-1.7,0-.09h0l-.06.07-.64.92.31.16.38-1.05Zm-.17,2.59,1.63-3.12.35.18a1.66,1.66,0,0,1,.46.33.59.59,0,0,1,.14.39,1.44,1.44,0,0,1-.14.54c-.09.21-.21.47-.37.77a7.51,7.51,0,0,1-.42.75,1.56,1.56,0,0,1-.36.42.57.57,0,0,1-.4.11,1.42,1.42,0,0,1-.53-.19Zm.7-.22a.41.41,0,0,0,.19.06.21.21,0,0,0,.18-.08l.1-.13.12-.18.31-.6c.14-.26.24-.46.31-.61a1.13,1.13,0,0,0,.09-.2c0-.06,0-.11,0-.15a.19.19,0,0,0,0-.19.4.4,0,0,0-.17-.13Zm1.63,1.43.72-2.11.06-.14,0,0-1.09,2.1-.41-.22,1.62-3.12.55.28-.47,1.57-.07.18h0l.11-.15,1-1.29.55.29-1.62,3.12-.42-.22,1.09-2.09,0,0-.08.13L271.77,390l-.19-.1Zm3-2.42.45.23-1.62,3.13-.45-.24,1.62-3.12Zm.47.84.24-.47,1.31.68-.24.47-.43-.22-1.38,2.65-.45-.24,1.38-2.65-.43-.22Zm2.38,3.8a.84.84,0,0,1-.25.3.57.57,0,0,1-.13.08.49.49,0,0,1-.17.06h-.19l-.21-.08a.58.58,0,0,1-.3-.29.47.47,0,0,1,0-.16.43.43,0,0,1,0-.16.94.94,0,0,1,.1-.38l.95-1.84.12-.16.13-.13a.55.55,0,0,1,.14-.09.44.44,0,0,1,.16-.06.41.41,0,0,1,.19,0,.7.7,0,0,1,.22.07,1.4,1.4,0,0,1,.18.13.42.42,0,0,1,.11.16.49.49,0,0,1,.05.16,1,1,0,0,1,0,.17.57.57,0,0,1,0,.18,1.07,1.07,0,0,1-.07.19Zm.51-2.07c0-.05,0-.09,0-.12a.21.21,0,0,0,0-.11s0,0,0,0l0,0a.11.11,0,0,0-.11,0,.26.26,0,0,0-.09.05.41.41,0,0,0-.07.11l-1,1.84a.28.28,0,0,0,0,.12.17.17,0,0,0,0,.1.14.14,0,0,0,.07.08.15.15,0,0,0,.11,0,.24.24,0,0,0,.09-.06.35.35,0,0,0,.07-.11Zm.7,1.45,0-.17h0l-.92,1.77-.42-.21,1.62-3.13.4.21-.4,1.86,0,.16,0,0,.92-1.77.41.21-1.62,3.12-.4-.21.4-1.85Zm1.87-.93,1,.54-.25.47-.58-.3-.43.82.42.22-.26.5-.42-.22-.44.86.58.3-.24.47-1-.54,1.62-3.12Z" transform="translate(-163.62 -174.32)"/><polygon class="cls-28" points="119.56 218.65 119.55 219.16 119.96 219.45 119.48 219.6 119.32 220.09 119.03 219.67 118.53 219.68 118.84 219.27 118.68 218.79 119.16 218.96 119.56 218.65 119.56 218.65"/><polygon class="cls-28" points="103.77 210.41 103.75 210.92 104.16 211.21 103.68 211.36 103.52 211.84 103.24 211.43 102.73 211.44 103.04 211.03 102.88 210.55 103.36 210.71 103.77 210.41 103.77 210.41"/><polygon class="cls-27" points="98.25 259.68 98.24 260.18 98.64 260.48 98.17 260.62 98.01 261.11 97.72 260.69 97.22 260.7 97.53 260.29 97.37 259.81 97.85 259.98 98.25 259.68 98.25 259.68"/><polygon class="cls-27" points="82.45 251.43 82.44 251.94 82.85 252.23 82.36 252.38 82.21 252.87 81.93 252.45 81.42 252.46 81.73 252.05 81.57 251.57 82.05 251.74 82.45 251.43 82.45 251.43"/><polygon class="cls-27" points="98.55 214.31 99.06 213.33 119.88 224.2 119.37 225.17 98.55 214.31 98.55 214.31"/><path class="cls-29" d="M254.39,448.82a.22.22,0,0,1,0,.08l-.06.08-.07.07-.07.06.51.75.13,0,2,.34.37.07.38.06.76.13,1.78.3,6.36-4.53-.19-.27a.34.34,0,0,1,.08-.46.33.33,0,0,1,.46.08l.19.27L303.34,420c.12-.67.23-1.25.32-1.8h0l.06-.33c0-.1,0-.21,0-.31.06-.3.11-.59.16-.89l.37-2.06v-.07s0,0,0-.06l-.52-.75-.09.06-.08,0-.09,0-.1,0a.8.8,0,0,1-.75-.34.81.81,0,0,1,0-1,.34.34,0,0,1,.09-.08.27.27,0,0,1,.08-.07l-.55-.8-.08,0a.68.68,0,0,1-.2.07l-.07,0a.78.78,0,0,1-.76-.33.81.81,0,0,1,0-.94l.09-.1.09-.08-.55-.8-.07.05-.08,0-.09,0-.09,0a.8.8,0,0,1-.78-.32.81.81,0,0,1,0-.93l.05-.06,0-.05,0,0,.06-.05-.56-.79-.08.05-.07,0-.07,0-.08,0h0a.76.76,0,0,1-.79-.32.82.82,0,0,1,0-.9l.05-.07a1.14,1.14,0,0,1,.16-.15l-.55-.8a.69.69,0,0,1-.29.13.77.77,0,0,1-.82-.32.8.8,0,0,1,0-.88A1,1,0,0,1,297,404l-.55-.79a.8.8,0,0,1-.27.12h0a.79.79,0,0,1-.86-1.18h0a1.13,1.13,0,0,1,.1-.13.69.69,0,0,1,.13-.11l-.56-.8-.07.05-.05,0-.13.05a.77.77,0,0,1-.85-.31.79.79,0,0,1,0-.86l.05-.07a.52.52,0,0,1,.1-.11l0,0,.05-.05-.55-.79-.07,0,0,0-.12,0a.78.78,0,0,1-.88-.3.82.82,0,0,1-.05-.84.5.5,0,0,1,.08-.12l.09-.1.08-.06-.53-.75-.12,0h0l-2.05-.35h0l-.28-.05-.28-.05-.57-.09-.38-.07h0l-1.78-.3-36.33,25.9.19.27a.33.33,0,0,1-.54.38l-.18-.27-6.37,4.53-.58,3.33c-.11.63-.23,1.28-.37,2.07l0,.12.52.75.08-.05.06,0a.73.73,0,0,1,.2-.05.79.79,0,0,1,.77.32.81.81,0,0,1,0,.94l-.09.1,0,0-.05.05.55.79a.54.54,0,0,1,.2-.1l.06,0h.06a.77.77,0,0,1,.79.32.8.8,0,0,1,0,.92h0a.31.31,0,0,1-.09.11s0,0,0,0l-.06.05.55.8.15-.08a.43.43,0,0,1,.16-.05.77.77,0,0,1,.8.32.8.8,0,0,1,0,.9l0,.06,0,.06-.12.1.56.79a.84.84,0,0,1,.29-.13.79.79,0,0,1,.81.32.79.79,0,0,1-.19,1.12l.55.8a.54.54,0,0,1,.2-.1l.07,0a.8.8,0,0,1,.84.32.79.79,0,0,1,0,.87h0a.18.18,0,0,1-.05.07l0,.07a.69.69,0,0,1-.13.11l.55.79.06,0,.06,0,.07,0,.07,0a.78.78,0,0,1,.85.32.79.79,0,0,1,0,.85l0,.08-.06.07-.06.06-.07.06.55.79.11-.06a.26.26,0,0,1,.12-.05.78.78,0,0,1,.88.3.82.82,0,0,1,0,.84.56.56,0,0,1,0,.08.86.86,0,0,1-.13.14l-.07.06.55.8.1-.06.11-.05a.79.79,0,0,1,.9.29.8.8,0,0,1,.06.83Zm-3.51-25a.31.31,0,0,1,.08-.45.31.31,0,0,1,.45.07l.39.56a.33.33,0,1,1-.54.38l-.38-.56Zm15.05,20.5a.33.33,0,1,1-.54.38l-.38-.55a.32.32,0,0,1,.08-.46.31.31,0,0,1,.45.07l.39.56Zm-4.78-5.71a.34.34,0,0,1,.09-.46.32.32,0,0,1,.45.07l.39.56a.34.34,0,0,1-.09.46.32.32,0,0,1-.45-.08l-.39-.55Zm-1.28-1.85a.33.33,0,0,1,.08-.46.31.31,0,0,1,.45.08l.39.55a.33.33,0,1,1-.54.38l-.38-.55Zm-1.29-1.85a.32.32,0,0,1,0-.27.33.33,0,0,1,.12-.19.32.32,0,0,1,.23-.06.33.33,0,0,1,.23.14l.38.55a.33.33,0,1,1-.53.38l-.39-.55Zm-.9-1.29-.38-.56a.34.34,0,0,1,.08-.46.33.33,0,0,1,.45.08l.39.56a.31.31,0,0,1,0,.26.34.34,0,0,1-.13.2.36.36,0,0,1-.22.05.34.34,0,0,1-.24-.13ZM256,431.2a.32.32,0,0,1,.09-.45.31.31,0,0,1,.45.07l.39.56a.34.34,0,0,1-.09.46.32.32,0,0,1-.45-.08l-.39-.56Zm-1.28-1.84a.33.33,0,0,1,.08-.46.33.33,0,0,1,.46.08l.38.55a.33.33,0,0,1-.08.46.32.32,0,0,1-.45-.08l-.39-.55Zm-1.29-1.86a.32.32,0,0,1,.09-.45.33.33,0,0,1,.45.07l.38.56a.32.32,0,0,1-.08.46.31.31,0,0,1-.45-.08l-.39-.56Zm-.89-1.28-.39-.56a.32.32,0,0,1,0-.4l.13-.09a.33.33,0,0,1,.39.11l.38.56a.18.18,0,0,1,0,.09.32.32,0,0,1-.12.37.31.31,0,0,1-.38,0l-.07-.07Zm9.89,14.22a.33.33,0,0,1,.08-.46.32.32,0,0,1,.45.08l.39.56a.33.33,0,0,1-.08.45.31.31,0,0,1-.45-.07l-.39-.56Zm1.36,1.39a.32.32,0,0,1,.39,0,.23.23,0,0,1,.07.07l.38.55a.33.33,0,0,1,0,.41l-.06.05-.07,0a.31.31,0,0,1-.38-.12l-.39-.55a.36.36,0,0,1,0-.09.33.33,0,0,1,.12-.37Z" transform="translate(-163.62 -174.32)"/><path class="cls-27" d="M257.43,448l2.16.37,5.58-4-.17-.24a.32.32,0,0,1,.09-.45.31.31,0,0,1,.45.07l.17.24,35.55-25.34.38-2.18.26-1.46-11.12-16-3.6-.62-35.55,25.35.17.24a.34.34,0,0,1-.08.46.33.33,0,0,1-.46-.08l-.16-.24-5.59,4-.64,3.64,11.12,16,1.44.25Zm-.81-1.25L246,431.49l.48-2.75,40.94-29.18.64.11,1.51.26.56.09,10.61,15.25-.37,2.1-.12.65L259.33,447.2l-2.15-.37-.56-.09Z" transform="translate(-163.62 -174.32)"/><path class="cls-27" d="M283.26,416.34l3.89,7.92-1.28.91-6.05-6.38,1-.73,1.21,1.32,1-.72-.82-1.59,1-.73Zm1.58,6.09.16.17.06-.05-.1-.2-1.27-2.47-.72.51,1.87,2Zm-6.4-2.66,5,7.15-.82.59a3.6,3.6,0,0,1-1.26.65,1.41,1.41,0,0,1-1-.12,3.77,3.77,0,0,1-1-.92c-.36-.43-.79-1-1.27-1.7s-.87-1.29-1.15-1.77a3.76,3.76,0,0,1-.5-1.28,1.42,1.42,0,0,1,.23-1,3.77,3.77,0,0,1,1-1Zm-.31,1.8a1.17,1.17,0,0,0-.39.37.61.61,0,0,0,0,.5,2.33,2.33,0,0,0,.15.36,4.41,4.41,0,0,0,.28.47c.22.34.54.8.95,1.39s.72,1,1,1.37a3.89,3.89,0,0,0,.34.41,2.45,2.45,0,0,0,.28.28.57.57,0,0,0,.46.15,1.59,1.59,0,0,0,.48-.25Zm-6,2.68,3.8,4,.25.27.06,0-3.34-4.79,1-.7,5,7.15-1.28.92-2.9-2.82-.31-.35h0l.22.42,1.65,3.71L275,433l-5-7.15,1-.69,3.34,4.79.05,0-.17-.33-2.46-5,.45-.31Zm1.05,9.94-1.05.75-5-7.15,1.05-.75,5,7.15Zm-3.13.62.75,1.08-3,2.16-.75-1.08,1-.71-4.22-6.07,1.05-.74,4.22,6.07,1-.71Z" transform="translate(-163.62 -174.32)"/><path class="cls-27" d="M271.71,415.37a2.3,2.3,0,0,1-.37-.9,2.6,2.6,0,0,1,0-.4,2.07,2.07,0,0,1,.08-.42,1.59,1.59,0,0,1,.22-.43,2.68,2.68,0,0,1,.42-.39,2.1,2.1,0,0,1,.51-.27,1.58,1.58,0,0,1,.47-.07,1.84,1.84,0,0,1,.42.07,2.37,2.37,0,0,1,.36.17,2.4,2.4,0,0,1,.71.65l2.93,4.21a3.19,3.19,0,0,1,.23.45,1.91,1.91,0,0,1,.13.45,1.75,1.75,0,0,1,0,.4,1.56,1.56,0,0,1-.08.42,1.35,1.35,0,0,1-.22.43,2.31,2.31,0,0,1-.42.4,2.05,2.05,0,0,1-.51.26,1.58,1.58,0,0,1-.47.07,2,2,0,0,1-.42-.07,2.48,2.48,0,0,1-.37-.17A1.84,1.84,0,0,1,275,420a2.91,2.91,0,0,1-.33-.37Zm4,3.47a1.2,1.2,0,0,0,.21.23.55.55,0,0,0,.24.12.29.29,0,0,0,.13,0,.42.42,0,0,0,.14-.06.35.35,0,0,0,.15-.24.69.69,0,0,0,0-.25,1,1,0,0,0-.15-.29l-2.93-4.21a1,1,0,0,0-.21-.23.52.52,0,0,0-.24-.11.32.32,0,0,0-.26.06.42.42,0,0,0-.16.23.6.6,0,0,0,0,.26.89.89,0,0,0,.15.29Zm-5.15.75.31.27.06,0-2.82-4.06,1-.68,5,7.15-.93.66-3.61-3-.31-.27-.06,0,2.82,4.06-1,.69-5-7.15.93-.67,3.61,3Zm-1.37,6.1-2.4,1.71-.75-1.08,1.35-1-1.3-1.87-1,.69-.8-1.15,1-.69-1.37-2-1.35,1-.75-1.08,2.4-1.71,5,7.15Z" transform="translate(-163.62 -174.32)"/><path class="cls-27" d="M249.77,432.46l3.16-1.6.35.51-2.55,2.47-.28-.41.52-.49-.28-.41-.63.34-.29-.41Zm2.42-.66.07-.06,0,0-.08,0-1,.53.2.28.81-.76Z" transform="translate(-163.62 -174.32)"/><path class="cls-27" d="M252.66,435.36a1,1,0,0,1-.35.15.45.45,0,0,1-.16,0,.51.51,0,0,1-.17,0,.38.38,0,0,1-.17-.08,1.29,1.29,0,0,1-.15-.17.71.71,0,0,1-.11-.21.61.61,0,0,1,0-.35.67.67,0,0,1,.06-.15.92.92,0,0,1,.27-.29l1.68-1.2a.56.56,0,0,1,.17-.09l.18-.06h.16l.17,0a.7.7,0,0,1,.17.09.86.86,0,0,1,.15.17.81.81,0,0,1,.11.2.65.65,0,0,1,0,.19.47.47,0,0,1,0,.17.52.52,0,0,1-.07.15.42.42,0,0,1-.11.15l-.14.14Zm1.39-1.62.1-.08a.42.42,0,0,0,0-.1,0,0,0,0,0,0-.05.14.14,0,0,0,0-.06.21.21,0,0,0-.1-.06H254l-.11.06-1.68,1.2-.1.09a.36.36,0,0,0,0,.09.12.12,0,0,0,0,.11s.05.06.08.06a.21.21,0,0,0,.11,0l.11-.06Zm.33.54.27-.19a.9.9,0,0,0,.23.15l.22.06h.21l.18.25-2.86,2-.29-.42,2.24-1.59-.2-.28Zm.44,1.25.2-.15.29-.17a.84.84,0,0,1,.3-.08.56.56,0,0,1,.28.05.8.8,0,0,1,.25.24.77.77,0,0,1,.14.31.65.65,0,0,1,0,.28.79.79,0,0,1-.17.25,2,2,0,0,1-.26.23,2.44,2.44,0,0,1-.51.26,4.37,4.37,0,0,1-.62.17,4.79,4.79,0,0,1-.6.11l-.48.05.46.67-.42.29-.79-1.14.42-.29c.28,0,.57,0,.84-.08l.36-.07a2.22,2.22,0,0,0,.37-.09l.35-.13a1.43,1.43,0,0,0,.3-.16l.12-.09.1-.09a.18.18,0,0,0,.05-.11.1.1,0,0,0,0-.09.1.1,0,0,0-.08-.05.14.14,0,0,0-.11,0,.34.34,0,0,0-.12.06l-.14.08-.2.15-.29-.42Zm.44,3.56a.92.92,0,0,1-.36.15h-.16a.51.51,0,0,1-.17,0,.44.44,0,0,1-.17-.08,1.29,1.29,0,0,1-.15-.17.67.67,0,0,1-.1-.21.63.63,0,0,1,0-.19.41.41,0,0,1,0-.16.69.69,0,0,1,.07-.15.88.88,0,0,1,.26-.29l1.68-1.2.18-.1.18-.05h.16a.44.44,0,0,1,.16,0,.56.56,0,0,1,.17.09.66.66,0,0,1,.16.17.75.75,0,0,1,.1.2.43.43,0,0,1,0,.19.47.47,0,0,1,0,.17.52.52,0,0,1-.06.15.83.83,0,0,1-.11.15l-.15.14Zm1.39-1.62.09-.08.05-.1a.13.13,0,0,0,0-.06l0-.05a.12.12,0,0,0-.09-.06h-.1l-.12.06-1.68,1.2a.38.38,0,0,0-.09.09.41.41,0,0,0-.05.09.23.23,0,0,0,0,.11.15.15,0,0,0,.09.06.18.18,0,0,0,.1,0l.12-.06Zm-.35,1.6.35-.25a.54.54,0,0,0,.17.17.16.16,0,0,0,.16,0,.37.37,0,0,0,.17-.08l.23-.16.12-.09.11-.1a.37.37,0,0,0,.06-.1.11.11,0,0,0,0-.11.07.07,0,0,0-.06,0,.13.13,0,0,0-.1,0,.63.63,0,0,0-.17.08l-.24.17-.28-.42.27-.18a1.56,1.56,0,0,1,.33-.14.69.69,0,0,1,.32,0,.56.56,0,0,1,.3.24.66.66,0,0,1,.13.37.61.61,0,0,1-.08.3.72.72,0,0,1-.16.21l-.12.1a2.32,2.32,0,0,1-.53.3.7.7,0,0,1-.37,0h0a.83.83,0,0,1-.19.43,2.67,2.67,0,0,1-.43.37l-.08.05-.16.09-.22.07a.66.66,0,0,1-.24,0,.46.46,0,0,1-.23-.06.47.47,0,0,1-.21-.19.64.64,0,0,1-.13-.37.65.65,0,0,1,.11-.32,1.18,1.18,0,0,1,.23-.27c.09-.08.18-.14.26-.2l.29.41a1.86,1.86,0,0,0-.23.18.52.52,0,0,0-.13.13.19.19,0,0,0-.05.1.08.08,0,0,0,0,.08.11.11,0,0,0,.09,0,.15.15,0,0,0,.11,0l.13-.07.12-.08.25-.17a.61.61,0,0,0,.16-.16.22.22,0,0,0,.05-.17.52.52,0,0,0,0-.11.83.83,0,0,0-.07-.13Zm1.65.27.16-.09a.72.72,0,0,1,.26-.08.59.59,0,0,1,.29,0,.74.74,0,0,1,.29.25.72.72,0,0,1,.13.36.65.65,0,0,1-.06.29,1,1,0,0,1-.16.22.64.64,0,0,1-.15.12l-1.62,1.16-.2.12a.62.62,0,0,1-.27.09.53.53,0,0,1-.3,0,.72.72,0,0,1-.29-.25.64.64,0,0,1-.13-.36.6.6,0,0,1,.07-.3.92.92,0,0,1,.17-.22l.19-.15.18-.13.29.42-.24.18-.14.12a.16.16,0,0,0-.05.09.16.16,0,0,0,0,.09.12.12,0,0,0,.15.05,1,1,0,0,0,.25-.14l.53-.38-.12-.07a.38.38,0,0,1-.09-.09.53.53,0,0,1-.11-.31.56.56,0,0,1,.07-.26,1.08,1.08,0,0,1,.32-.33Zm.6.59a.12.12,0,0,0,.05-.08.15.15,0,0,0,0-.14.14.14,0,0,0-.11-.06.13.13,0,0,0-.1,0l-.83.59a.18.18,0,0,0-.06.08.18.18,0,0,0,0,.14.14.14,0,0,0,.11.06.16.16,0,0,0,.1,0Z" transform="translate(-163.62 -174.32)"/><polygon class="cls-27" points="131.79 247.83 137.15 244.01 137.71 240.82 126.85 225.2 123.69 224.67 118.34 228.48 131.79 247.83 131.79 247.83"/><path class="cls-30" d="M286.64,404.9l3.16-1.6.35.51-2.55,2.47-.29-.41.53-.49-.28-.41-.63.34-.29-.41Zm2.42-.66.07-.06,0,0-.08,0-1,.53.2.28.81-.76Zm-1.32,2.24,2.85-2,.23.33a1.32,1.32,0,0,1,.25.51.54.54,0,0,1-.05.41,1.5,1.5,0,0,1-.37.42c-.17.15-.4.32-.68.52s-.51.35-.71.47a1.79,1.79,0,0,1-.5.21.6.6,0,0,1-.41-.09,1.54,1.54,0,0,1-.38-.41Zm.71.12a.51.51,0,0,0,.14.15.23.23,0,0,0,.2,0l.14-.06.19-.11.55-.39.55-.4.17-.14.11-.11a.25.25,0,0,0,.06-.19.5.5,0,0,0-.1-.19Zm.79,2,1.6-1.55.11-.1v0L289,408.32l-.27-.39,2.85-2,.36.51-1.13,1.18-.14.13h0l.16-.09,1.48-.68.36.51-2.86,2-.27-.39,1.92-1.37,0,0-.13.07-2,1-.12-.18Zm3.72-.78.29.42-2.85,2-.3-.42,2.86-2Zm0,1,.43-.31.84,1.21-.43.31-.27-.4-2.43,1.73-.29-.42,2.42-1.73-.27-.39Zm.38,4.49a.92.92,0,0,1-.36.15l-.16,0-.17,0a.7.7,0,0,1-.17-.09.86.86,0,0,1-.15-.17.75.75,0,0,1-.1-.2.44.44,0,0,1,0-.19.47.47,0,0,1,0-.17,1,1,0,0,1,.07-.15,1,1,0,0,1,.26-.29l1.68-1.2.18-.09.17-.06h.16a.47.47,0,0,1,.17,0,.35.35,0,0,1,.17.09.61.61,0,0,1,.16.16,1,1,0,0,1,.1.21.41.41,0,0,1,0,.19.51.51,0,0,1,0,.17.59.59,0,0,1-.06.14.91.91,0,0,1-.11.16l-.15.13Zm1.39-1.62a.34.34,0,0,0,.09-.08.31.31,0,0,0,0-.1.09.09,0,0,0,0-.05.14.14,0,0,0,0-.06l-.09-.06h-.1l-.12.06-1.68,1.2a.38.38,0,0,0-.09.09.19.19,0,0,0-.05.1.13.13,0,0,0,0,.1.1.1,0,0,0,.09.06.12.12,0,0,0,.1,0l.11-.06Zm0,1.63.11-.13,0,0-1.62,1.15-.27-.39,2.86-2,.26.37-1.21,1.47-.1.13v0l1.62-1.15.27.39-2.86,2-.26-.37,1.21-1.47Zm2.07,0,.67,1-.43.31-.38-.54-.75.53.27.39-.45.33-.28-.39-.78.56.38.54-.43.3-.67-1,2.85-2Z" transform="translate(-163.62 -174.32)"/><polygon class="cls-30" points="134.49 242.42 134.24 242.87 134.47 243.32 133.97 243.23 133.62 243.59 133.55 243.09 133.11 242.86 133.56 242.64 133.64 242.13 133.99 242.5 134.49 242.42 134.49 242.42"/><polygon class="cls-30" points="124.28 227.74 124.03 228.19 124.26 228.64 123.77 228.55 123.41 228.91 123.34 228.4 122.9 228.18 123.35 227.96 123.44 227.45 123.78 227.82 124.28 227.74 124.28 227.74"/><polygon class="cls-27" points="96.97 269.16 96.73 269.61 96.96 270.06 96.46 269.97 96.1 270.33 96.04 269.83 95.6 269.6 96.05 269.38 96.13 268.88 96.48 269.24 96.97 269.16 96.97 269.16"/><polygon class="cls-27" points="86.76 254.48 86.52 254.93 86.75 255.38 86.25 255.29 85.89 255.65 85.83 255.15 85.39 254.92 85.84 254.7 85.92 254.2 86.27 254.56 86.76 254.48 86.76 254.48"/><polygon class="cls-27" points="117.89 228.8 118.78 228.16 132.24 247.51 131.35 248.15 117.89 228.8 117.89 228.8"/></g></g></g></g></svg>