<?xml version="1.0" standalone="no"?>
<!DOCTYPE svg PUBLIC "-//W3C//DTD SVG 20010904//EN"
 "http://www.w3.org/TR/2001/REC-SVG-20010904/DTD/svg10.dtd">
<svg version="1.0" xmlns="http://www.w3.org/2000/svg"
 width="1317.000000pt" height="1317.000000pt" viewBox="0 0 1317.000000 1317.000000"
 preserveAspectRatio="xMidYMid meet">
<metadata>
Created by potrace 1.11, written by Peter Selinger 2001-2013
</metadata>
<g transform="translate(0.000000,1317.000000) scale(0.100000,-0.100000)"
fill="#000000" stroke="none">
<path d="M7360 13063 c-504 -259 -1005 -514 -1545 -788 -181 -91 -343 -180
-360 -196 l-30 -29 0 -3010 c0 -2215 3 -3012 11 -3020 9 -9 82 24 282 124 149
75 272 136 274 136 3 0 2 -4391 -1 -4398 0 -1 -7 2 -13 8 -7 5 -161 116 -343
247 -181 130 -352 253 -380 273 -50 38 -701 508 -955 690 -204 147 -524 378
-535 387 -5 5 -113 83 -240 173 -126 91 -237 170 -245 177 -16 13 -410 298
-447 323 -59 41 -339 245 -343 251 -11 14 -74 41 -104 44 -31 3 -67 -15 -1016
-498 -676 -343 -700 -356 -700 -368 0 -7 959 -711 1135 -833 17 -12 32 -23 35
-26 6 -6 1079 -789 1142 -833 22 -16 124 -90 227 -164 102 -75 213 -156 246
-180 33 -24 67 -50 76 -57 9 -7 42 -32 75 -54 32 -22 142 -102 244 -177 102
-75 205 -150 230 -168 25 -18 95 -69 155 -114 61 -44 178 -129 260 -189 153
-110 510 -371 555 -404 14 -10 113 -82 220 -160 106 -77 216 -160 243 -183 60
-51 64 -53 85 -35 9 8 69 41 132 73 63 32 196 99 295 150 99 51 338 172 530
270 193 98 454 230 580 295 127 65 307 156 402 204 124 62 178 95 194 117 l22
31 -1 961 c-1 529 -1 1888 -2 3020 0 1620 -3 2057 -12 2057 -7 0 -133 -61
-280 -135 -147 -74 -271 -135 -275 -135 -5 0 -8 987 -8 2194 0 2043 1 2193 17
2185 19 -10 231 -162 583 -417 138 -100 259 -188 270 -196 11 -8 61 -44 110
-80 50 -36 99 -72 110 -80 11 -8 295 -214 630 -457 336 -243 707 -512 825
-598 118 -85 220 -159 225 -164 13 -11 223 -163 255 -185 14 -9 59 -42 100
-72 41 -31 85 -62 97 -70 44 -30 228 -165 233 -170 3 -4 27 -21 53 -39 87 -59
82 -60 389 97 150 77 426 217 613 312 187 95 399 203 470 240 72 37 176 91
232 119 57 29 105 56 108 61 3 5 -8 17 -25 26 -16 10 -30 22 -30 26 0 4 -6 8
-14 8 -8 0 -16 4 -18 8 -1 5 -43 38 -93 73 -49 36 -163 119 -253 185 -90 65
-185 135 -212 154 -27 19 -129 94 -227 165 -98 72 -189 138 -203 147 -26 18
-688 501 -705 515 -5 5 -55 41 -110 80 -226 163 -324 235 -400 291 -44 33
-134 99 -200 146 -66 48 -131 96 -145 106 -23 17 -257 187 -323 235 -15 11
-43 31 -61 45 -19 14 -45 33 -58 42 -35 25 -581 423 -683 498 -49 36 -106 77
-125 90 -19 14 -39 28 -45 33 -5 4 -100 74 -210 153 -110 80 -211 154 -225
164 -260 193 -511 368 -535 373 -23 4 -69 -16 -235 -100z"/>
</g>
</svg>
