<svg xmlns="http://www.w3.org/2000/svg" viewBox="0 0 177.6 158.4"><defs><clipPath id="A" transform="translate(-332.1 -236.3)"><path d="M332 394.7h177.8V236.3H332v158.4z" fill="none" clip-rule="evenodd"/></clipPath><clipPath id="B" transform="translate(-332.1 -236.3)"><path d="M332 394.7h177.8V236.3H332v158.4z" fill="none"/></clipPath></defs><g clip-path="url(#A)"><g clip-path="url(#B)"><path d="M104.5 128.4l.2.1a1 1 0 0 1 .1.1c0 .1.1.1.1.2h.1l1.8-1c0-.1.1-.2.1-.3l1.7-5.3c.1-.3.2-.5.3-.8.2-.5.3-1 .5-1.6l1.2-4-7.7-15.5-.6.3c-.2.1-.4.1-.6.1s-.3-.2-.4-.4c-.1-.2-.1-.4 0-.6s.2-.3.4-.4l.6-.3-44.4-88.7L46 6.8l-1.8 1 .1.4c0 .1 0 .1 0 .2 0 .1 0 .1 0 .2 0 .7-.4 1.3-1 1.6-.7.4-1.5.2-2-.4-.1-.1-.1-.1-.2-.2 0-.1-.1-.1-.1-.2l-2 1c0 .1 0 .1.1.2 0 .1.1.3.1.5 0 .1 0 .1 0 .2 0 .7-.4 1.3-1 1.6-.7.3-1.5.2-2-.3-.1-.1-.1-.1-.2-.2-.1-.1-.1-.1-.1-.2l-2 1c0 .1 0 .1.1.2 0 .1 0 .1.1.2 0 .1 0 .1 0 .2 0 .1 0 .1 0 .2 0 .7-.4 1.3-1 1.6-.7.3-1.5.2-2-.3H31v-.1l-.1-.1-2 1v.2c0 .1 0 .1 0 .2 0 .1 0 .1 0 .2 0 .1 0 .1 0 .2 0 .7-.4 1.4-1 1.7-.7.3-1.5.2-2-.3 0 0-.1-.1-.1-.1-.1-.1-.2-.3-.3-.4l-2 1c.1.2.2.4.2.7 0 .7-.4 1.4-1 1.7-.6.3-1.4.2-2-.2-.2-.2-.3-.3-.4-.6l-2 1c.1.2.2.4.2.6.1.7-.3 1.4-1 1.8-.6.3-1.4.2-2-.2l-.3-.2c-.1-.1-.1-.2-.2-.3l-2 1v.2c0 0 0 .1 0 .1 0 .1 0 .2.1.3.1.7-.3 1.5-1 1.8-.6.3-1.3.2-2-.2-.1 0-.1-.1-.2-.1-.1-.1-.2-.2-.2-.3v-.1c0 0-.1-.1-.1-.1l-2 1 .1.2c0 0 0 .1 0 .1 0 .1 0 .2.1.3.1.8-.3 1.5-1 2-.6.3-1.3.2-2-.2-.1-.1-.2-.1-.2-.2s-.1-.2-.2-.2a1 1 0 0 1-.1-.2l-1.8 1-3.8 11.8 45 88.4c.2-.1.4-.1.6-.1s.3.2.4.4c.1.2.1.4.1.6s-.2.3-.4.4l-.6.3L53 146l11.7 4 1.8-1-.1-.2-.1-.1c0-.2-.1-.3-.1-.5 0-.7.4-1.3 1-1.6.7-.3 1.5-.2 2 .3a1 1 0 0 1 .2.2h.1c0 0 .1.1.1.1l2-1c-.1-.2-.1-.3-.2-.5 0 0 0-.1 0-.1 0 0 0-.1 0-.1 0-.7.4-1.3 1-1.7.7-.3 1.5-.2 2 .3.1.1.1.1.2.2l.2.3 2-1c-.1-.1-.1-.2-.1-.4 0-.1 0-.2-.1-.4 0-.7.4-1.4 1-1.7.7-.3 1.5-.2 2 .3l.1.1.1.1c.1.1.1.2.2.3l2-1c-.1-.2-.2-.4-.2-.7 0-.7.3-1.4 1-1.7.6-.3 1.4-.2 2 .2.2.2.3.3.4.6l2-1c-.1-.2-.1-.3-.2-.5 0-.1 0-.1 0-.2-.1-.7.3-1.4 1-1.8.6-.3 1.4-.2 2 .2l.1.1.1.1c.1.1.1.2.2.3l2-1v-.1c0 0 0-.1-.1-.1 0-.1 0-.1 0-.2v-.2c-.1-.8.3-1.5 1-1.8.6-.3 1.3-.2 2 .2l.2.1a1 1 0 0 1 .1.1c.1 0 .1.1.1.2a1 1 0 0 1 .1.2l2-1c0-.1-.1-.2-.1-.3s0-.2-.1-.3c-.1-.8.3-1.5 1-2 .6-.3 1.3-.2 2 .2a1 1 0 0 1 .2.1c.2.1.3.3.4.5l2-1c0-.1-.1-.1-.1-.2 0-.1-.1-.2-.1-.3-.1-.8.2-1.6 1-2 .6-.3 1.3-.3 1.8.1zm-55.6.1c-.2.1-.4.1-.6.1s-.3-.2-.4-.4c-.1-.2-.1-.4 0-.6s.2-.3.4-.4l1.3-.7c.2-.1.4-.1.6-.1s.3.2.4.4c.1.2.1.4.1.6s-.2.3-.4.4l-1.3.7zm49.6-27c.2-.1.4-.1.6-.1s.3.2.4.4c.1.2.1.4.1.6s-.2.3-.4.4l-1.3.7c-.2.1-.4.1-.6.1s-.3-.2-.4-.4c-.1-.2-.1-.4-.1-.6s.2-.3.4-.4l1.3-.7zm-14 8.8c-.2.1-.4.1-.6.1s-.3-.2-.4-.4c-.2-.4 0-.8.3-1l1.3-.7c.2-.1.4-.1.6-.1s.3.2.4.4c.2.4 0 .8-.3 1l-1.3.7zm-4.4 2.3c-.2.1-.4.1-.6.1s-.3-.2-.4-.4c-.2-.4 0-.8.3-1l1.3-.7c.2-.1.4-.1.6-.1s.3.2.4.4c.1.2.1.4.1.6s-.2.3-.4.4l-1.3.7zm-4.4 2.3c-.2.1-.4.1-.6 0-.2-.1-.3-.2-.4-.3-.1-.2-.1-.4-.1-.6s.2-.3.4-.4l1.3-.7c.2-.1.4-.1.6-.1s.3.2.4.4c.1.2.1.4.1.6s-.2.3-.4.4l-1.3.7zm-3 1.6l-1.3.7c-.2.1-.4.1-.6.1s-.3-.2-.4-.4c-.1-.2-.1-.4 0-.6s.2-.3.4-.4l1.3-.7c.2-.1.4-.1.6 0 .3.1.5.5.4 1-.1.2-.2.4-.4.5zm-5.8 3c-.2.1-.4.1-.6.1s-.3-.2-.4-.4c-.1-.2-.1-.4-.1-.6s.2-.3.4-.4l1.3-.7c.2-.1.4-.1.6-.1s.3.2.4.4c.1.2.1.4 0 .6s-.2.3-.4.4l-1.3.7zm-4.4 2.3c-.2.1-.4.1-.6.1s-.3-.2-.4-.4c-.1-.2-.1-.4 0-.6s.2-.3.4-.4l1.3-.7c.2-.1.4-.1.6-.1s.3.2.4.4c.1.2.1.4 0 .6s-.2.3-.4.4l-1.3.7zm-4.5 2.3c-.2.1-.4.1-.6.1s-.3-.2-.4-.4c-.1-.2-.1-.4-.1-.6s.2-.3.4-.4l1.4-.7c.2-.1.4-.1.6-.1s.3.2.4.4c.1.2.1.4 0 .6s-.2.3-.4.4l-1.3.7zm-3 1.6l-1.3.7c-.3.2-.7.1-1-.2l-.2-.3c-.1-.3.1-.7.4-.8l1.5-.7c.3-.1.6.1.8.4.2.3.1.6-.1 1 0 .1-.1.1-.2.1zM89 108c-.2.1-.4.1-.6.1s-.3-.2-.4-.4c-.2-.4 0-.8.3-1l1.4-.7c.2-.1.4-.1.6 0s.3.2.4.4c.1.2.1.4.1.6s-.2.3-.4.4l-1.3.7zm3.5-2.6c-.2-.3-.1-.6.1-.8 0-.1.1-.1.2-.1l1.3-.7c.3-.2.7-.1 1 .2 0 0 .1.1.1.2s0 .1.1.2c.1.3-.1.7-.4.8l-1.3.7c-.1 0-.1.1-.2.1-.3.1-.6-.1-.7-.4z" fill="#ef3d4f"/><g fill="#fff"><path d="M103.6 121.4l1.5-4.7-6.8-13.6-.6.3c-.2.1-.4.1-.6.1s-.3-.2-.4-.4-.1-.4 0-.6.2-.3.4-.4l.6-.3-43.5-87-7.7-2.5L8 32l-2.6 8 44 86.6c.2-.1.4-.1.6-.1s.3.2.4.4.1.4.1.6-.2.3-.4.4l-.6.3 6.8 13.7 7.7 2.6 39.5-23zm-3 1.4l-36.7 19-5.8-2-48-106 36.7-19 5.8 2 48.2 106zM43.2 54.2L61.8 48l1.6 3-16 11.5-1.2-2.5 3.3-2.3-1.2-2.5-3.7 1.3-1.2-2.5zM57 52.5l.4-.3V52L51 54.3l1 1.8 5-3.5zM49 66l17.2-9 1 2c.5 1 1 2 1 3 .1.8-.1 1.6-.6 2.3-.7.8-1.4 1.5-2.3 2q-1.6 1-4 2.3l-4.2 2c-1 .4-2 .7-3 .7-.8 0-1.6-.3-2-.8-.8-.7-1.4-1.6-1.8-2.6zm3.8 1.3c.2.4.4.7.7 1 .3.2.7.3 1 .2s.6-.1.8-.2l7.6-4c.3-.2.7-.4 1-.6.2-.2.5-.4.7-.6.3-.2.5-.6.5-1s-.2-.8-.4-1zm4 14l10.6-7.8-11.6 6-1.2-2.4 17.2-9 1.6 3-8 6.2 9.6-3 1.6 3-17.2 9-1.2-2.4L69 78.4l-11.6 4-.5-1zm22 .7l1.3 2.6-17 8.8-1.4-2.4 17.2-9zm.3 7l2.6-1.3 3.7 7.4-2.6 1.3-1.2-2.4-14.6 7.5-1.3-2.6 14.6-7.5L79 89zm-41.8-9.4c-.7.3-1.4.5-2 .5-.3 0-.6 0-1-.1-.3-.1-.6-.2-1-.3l-1-.6c-.3-.3-.5-.7-.7-1a4 4 0 0 1-.4-1.2c-.1-.4-.1-.7 0-1s.2-.6.3-1c.1-.3.3-.5.5-.7.5-.6 1-1 1.7-1.4l10-5.2c.3-.2.7-.3 1-.4s.7-.1 1-.2c.3 0 .6 0 1 .1.7.1 1.3.4 1.8 1 .3.3.5.7.7 1a4 4 0 0 1 .4 1.2c.1.4.1.7 0 1l-.3 1c-.1.3-.3.5-.5.8s-.5.5-.7.8c-.3.2-.6.5-1 .6zm8.8-7.8c.2-.1.4-.2.6-.4.1-.1.3-.3.3-.5v-.3c0-.1 0-.2-.1-.3-.1-.2-.2-.3-.5-.4h-.6c-.2 0-.5.1-.7.2l-10 5.2c-.2.1-.4.3-.6.4-.1.1-.3.3-.3.5-.1.2 0 .4.1.6s.2.3.4.4a1 1 0 0 0 .6 0c.2 0 .5-.1.7-.2zM46 83.5l.7-.6v-.1l-9.8 5-1-2.3 17-9 1 2.3-8.3 8 9.8-5 1.2 2.4-17 8.8-1-2.3 7.7-7zm12.8 5l3 6-2.6 1.3-1.6-3.3L53 95l1.2 2.4-2.8 1.4-1.2-2.4-4.7 2.4 1.7 3.3-2.6 1.3-3-6L59 88.5zm8.5 45L65 126l1.2-.6 4.5 6.4-1 .5-1-1.3-1 .5.5 1.5-1 .5zm-.6-5.6h-.1l.8 2.4.7-.4-1.4-2z"/><path d="M74.6 128c.1.3.2.5.2.8v.4c0 .1-.1.2-.1.4-.1.1-.1.2-.2.3s-.3.2-.4.3-.3.1-.5.2h-.4c-.1 0-.2-.1-.4-.1-.1-.1-.2-.1-.3-.2-.2-.2-.4-.4-.5-.7l-2-4c-.1-.1-.1-.3-.1-.4a2 2 0 0 1-.1-.4v-.4a1 1 0 0 1 .1-.4c.1-.1.1-.2.3-.3.1-.1.3-.2.4-.3s.3-.1.5-.2h.4c.1 0 .2.1.4.1l.3.2.3.3a2 2 0 0 1 .3.4zm-3-3.6c0-.1-.1-.2-.2-.2-.1-.1-.1-.1-.2-.1H71c-.1 0-.1.1-.2.2v.2c0 .1.1.2.1.3l2 4c0 .1.1.2.2.2.1.1.1.1.2.1h.2c.1 0 .1-.1.2-.2v-.2c0-.1 0-.2-.1-.3zm1.3-.6l-.3-.7c.2-.1.3-.3.4-.5.1-.1.1-.3.2-.5a2 2 0 0 0 0-.2v-.2l.6-.3 3.5 7-1 .5-2.7-5.5-.7.4zm3-.6l-1-1.2c-.1-.2-.1-.5-.1-.7s.1-.4.2-.6c.2-.2.4-.4.6-.5s.5-.2.7-.2.4 0 .6.1a2 2 0 0 1 .5.4c.2.2.3.4.4.6.2.4.3.8.4 1.2l.2 1.4q0 .7 0 1.4v1l1.6-.8.5 1L78 128l-.5-1 .1-2.7c0-.3-.1-.6-.1-.8a10 10 0 0 0-.2-.8c-.1-.2-.1-.5-.2-.7 0-.1-.1-.2-.2-.3s-.1-.2-.2-.2c-.1-.1-.1-.1-.2-.1h-.2c-.1 0-.1.1-.1.2v.2c0 .1.1.2.1.3s.1.2.2.3l.2.5-1 .5zm8 .1c.1.3.2.6.2.8v.4c0 .1-.1.2-.1.4a1 1 0 0 1-.2.3c-.1.1-.3.2-.4.3s-.3.1-.5.2a1 1 0 0 1-.4 0 1 1 0 0 1-.4-.1c-.1-.1-.2-.1-.3-.2-.2-.2-.4-.4-.6-.7l-2-4c-.1-.1-.1-.3-.2-.4 0-.1-.1-.3-.1-.4v-.4c0-.1.1-.2.1-.4.1-.1.1-.2.3-.3.1-.1.3-.2.4-.3s.3-.1.5-.2h.4c.1 0 .3.1.4.1.1.1.2.1.3.2a2 2 0 0 1 .3.3c.1.1.2.2.3.4zm-3-3.6l-.1-.2c-.1-.1-.1-.1-.2-.1h-.2c-.1 0-.1.1-.2.2v.2c0 .1 0 .2.1.3l2 4c0 .1.1.2.2.2 0 .1.1.1.2.1h.2c.1 0 .1-.1.2-.2v-.2a1 1 0 0 0-.1-.3zm3 1.3l-.4-1c.2-.1.3-.2.4-.3s.1-.2.1-.3 0-.3-.1-.4l-.4-1c0-.1-.1-.2-.2-.3l-.2-.2H83c-.1 0-.1.1-.1.1v.2c0 .1.1.3.1.4l.3.6-1 .5-.3-.7c-.1-.2-.2-.5-.2-.8 0-.2 0-.5.1-.7.1-.3.4-.5.6-.6.3-.1.6-.2.8-.2s.4.1.6.3a2 2 0 0 1 .4.4c.1.1.1.2.2.3.2.4.4.8.5 1.3.1.3.1.6 0 .8.3.1.7.3 1 .6s.5.7.7 1c0 .1.1.1.1.2.1.1.1.2.1.4s.1.3.1.5a2 2 0 0 1 0 .5c0 .2-.1.4-.2.5-.1.2-.3.3-.5.4-.3.1-.6.2-1 .2-.2 0-.5-.2-.7-.3-.2-.2-.4-.4-.5-.6l-.4-.6 1-.5.3.6.3.3c0 .1.1.1.2.1h.2c.1 0 .1-.1.1-.2v-.3c0-.1-.1-.2-.1-.3s-.1-.2-.1-.3l-.3-.6c-.1-.1-.2-.3-.3-.4s-.2-.2-.4-.2h-.2c-.1 0-.2.1-.3.1zm1-3.6a3 3 0 0 1-.1-.4c-.1-.2-.1-.4-.1-.6s.1-.4.2-.6l.6-.6c.2-.1.5-.2.8-.2.2 0 .4.1.6.2s.3.3.4.4a2 2 0 0 1 .2.4l2 4c.1.2.1.3.2.5s.1.4.1.6 0 .5-.2.7c-.2.3-.4.4-.7.6-.3.1-.5.2-.8.2-.2 0-.4-.1-.6-.3-.2-.1-.3-.3-.4-.4s-.2-.3-.3-.5l-.2-.4 1-.5.3.6c.1.1.1.2.2.4 0 .1.1.1.2.1h.2c.1-.1.2-.2.2-.3 0-.2-.1-.4-.2-.6l-.7-1.3c-.1.1-.1.2-.2.3a1 1 0 0 1-.2.2c-.2.1-.5.2-.7.1-.2 0-.4-.1-.5-.2l-.4-.4c-.1-.1-.2-.2-.2-.4zm1.5-1c0-.1-.1-.1-.2-.2H86c-.1 0-.2.1-.2.3v.2l1 2c0 .1.1.1.2.1h.3c.1 0 .2-.1.2-.2v-.2zM60 29l-6.6-13-6.8-2.2L9 33l-2.2 6.8 6.5 13L60 29z"/></g><g fill="#ef3d4f"><path d="M19.4 43L17 35.7l1.2-.6 4.5 6.4-1 .5-1-1.3-1 .5.5 1.5-1 .5zm-.6-5.6l-.1-.2h-.1l.1.2.8 2.3.7-.4-1.4-2zm4.4 3.6l-3.5-7 .8-.4c.4-.2.8-.3 1.2-.4.3 0 .6.1 1 .3.3.3.6.6.8 1a28 28 0 0 1 .9 1.7L25 38c.2.4.3.8.3 1.2 0 .3-.1.6-.3 1-.3.3-.6.6-1 .7zm.5-1.5c.1-.1.3-.2.4-.3s.1-.3.1-.4q0-.1-.1-.3c-.1-.1-.1-.3-.2-.4l-1.4-2.7c-.1-.2-.2-.3-.2-.4l-.2-.3c-.1-.1-.2-.2-.4-.2s-.3.1-.4.2zm4.7-1l-3-4.3 2.3 4.7-1 .5-3.5-7 1.2-.6 2.3 2.8-1-3.5 1.2-.6 3.5 7-1 .5-2.4-4.7v.3l1 5zM28 30l1-.5 3.5 7-1 .5-3.5-7zm2 .2l-.5-1 3-1.5.5 1-1 .5 3 6-1 .5-3-6-1 .5zm10 .5a2 2 0 0 1 .2.8v.4c0 .1-.1.2-.1.4-.1.1-.1.2-.2.4-.1.1-.3.2-.4.3s-.3.1-.5.2h-.4c-.1 0-.2-.1-.4-.1-.1-.1-.2-.1-.3-.2-.2-.2-.4-.4-.5-.7l-2-4c-.1-.1-.1-.3-.1-.4s0-.3-.1-.4V27c0-.1.1-.3.1-.4.1-.1.1-.2.3-.3.1-.1.3-.2.4-.3s.3-.1.5-.2h.4c.1 0 .2.1.4.1.1.1.2.1.3.2l.3.3c.1.1.2.2.3.4zM37 27c0-.1-.1-.2-.1-.2-.1-.1-.1-.1-.2-.1h-.2c-.1 0-.1.1-.2.2v.2c0 .1 0 .2.1.3l2 4c0 .1.1.2.2.2.1.1.1.1.2.1h.2l.2-.2v-.2c0-.1 0-.2-.1-.3zm3.5.6l-.2-.3 2 4-1 .5-3.5-7 1-.5 3 3.4-2-4 1-.5 3.5 7-1 .5-2.8-3zm.8-4.6l2.3-1.2.5 1-1.3.7 1 1.8 1-.5.6 1-1 .5 1 2 1.3-.7.5 1L45 30l-3.5-7zm7.7-1.8l1 .7 1-.4-.4 1 .7 1h-1l-.7 1-.3-1-1-.3 1-.6v-1zM13.7 39.5l1 .7 1-.4-.4 1 .7 1h-1l-.6 1-.3-1-1-.3 1-.6v-1z"/></g><g fill="#fff"><path d="M95 113l1 .7 1-.4-.4 1 .7 1h-1l-.6 1-.3-1-1-.3 1-.7v-1zm-35.5 18l1 .7 1-.4-.4 1 .7 1h-1l-.6 1-.3-1-1-.3 1-.7v-1zM12.8 51.8l46.6-24 1 2.2-47.6 21.8z"/></g><path d="M106.3 138c0 .1.1.1.1.2l.1.2c0 .1 0 .1 0 .2 0 .1 0 .1 0 .2l2 .1 9.2-8.2.4-17.4c-.4 0-.7-.4-.7-.8s.4-.7.8-.7h.7l2.8-103.5-4.5-5.2-2-.1c0 .1 0 .1 0 .2s0 .1 0 .2c0 .1 0 .1-.1.2v.2c-.3.6-1 1-1.6.8-.8-.1-1.4-.6-1.6-1.4v-.5l-2.2-.1c0 .1 0 .1 0 .2 0 .2-.1.3-.1.4a1 1 0 0 1-.1.2c-.3.6-1 1-1.6 1-.8-.1-1.4-.6-1.6-1.3a1 1 0 0 1 0-.3c0-.1 0-.2 0-.3l-2-.1c0 .1 0 .1 0 .2s0 .1-.1.2c0 .1 0 .1-.1.2 0 .1 0 .1-.1.2-.3.6-1 1-1.7 1-.7-.1-1.4-.6-1.6-1.3a1 1 0 0 1 0-.2V2h-2c0 .1 0 .1 0 .2 0 .1 0 .1 0 .2 0 .1 0 .1-.1.2 0 .1 0 .1-.1.2-.3.6-1 1-1.7 1S95.3 3 95 2.3v-.2a2 2 0 0 1 0-.5l-2-.1a2 2 0 0 1-.2.7c-.3.6-1 1-1.7 1s-1.3-.5-1.6-1.2c-.1-.2-.1-.5-.1-.7l-2-.2c0 .2-.1.4-.2.6-.3.7-1 1-1.7 1s-1.3-.5-1.6-1.2a2 2 0 0 1-.1-.4c0-.1 0-.3 0-.4L81.6.8c0 .1 0 .1 0 .2h0c0 .1-.1.2-.1.3-.3.7-1 1-1.6 1s-1.4-.5-1.6-1c0-.1-.1-.1-.1-.2L78 .8V.7c0-.1 0-.1 0-.2L76 .4a1 1 0 0 1 0 .2v.1c0 .1 0 .2-.1.3-.3.7-1 1-1.6 1s-1.4-.4-1.6-1c0-.1-.1-.2-.1-.3 0-.1 0-.2 0-.3V.1l-2-.1-9.3 8.2-5.6 99.4c.4 0 .7.4.7.8s-.4.7-.8.7h-.7l-1 17.4 8 9.4 2 .1v-.2c0 0 0-.1 0-.1 0-.1.1-.3.2-.4.4-.6 1-1 1.8-1s1.3.6 1.5 1.3c0 .1 0 .2 0 .3 0 0 0 .1 0 .1v.2l2 .1c0-.2 0-.3.1-.5 0 0 0-.1.1-.1v-.1c.3-.6 1-1 1.7-1s1.3.6 1.5 1.3a1 1 0 0 1 0 .3v.1c0 .1 0 .1 0 .2l2.2.1c0-.1 0-.2.1-.4s.1-.2.1-.3c.3-.6 1-1 1.7-1 .7.1 1.3.5 1.6 1.2 0 .1 0 .1 0 .2 0 .1 0 .1 0 .2 0 .1 0 .2 0 .3h2c0-.2.1-.5.2-.7.3-.6 1-1 1.7-1s1.3.5 1.6 1.2c.1.2.1.5.1.7l2 .1a2 2 0 0 1 .1-.5l.1-.2c.3-.7 1-1 1.7-1s1.3.5 1.6 1.2c0 .1 0 .1.1.2 0 .1 0 .1 0 .2 0 .1 0 .3 0 .4l2 .1c0 0 0-.1 0-.1v-.2a1 1 0 0 1 0-.2c0 0 0-.1 0-.1.3-.7 1-1 1.7-1 .7 0 1.3.5 1.5 1 0 .1.1.1.1.2v.2c0 .1 0 .1 0 .2v.2h2c0-.1 0-.2 0-.3 0-.1 0-.2.1-.3.3-.7 1-1 1.6-1s1.4.4 1.6 1l.1.2c0 .1.1.3.1.4v.2l2 .1v-.2c0-.1 0-.2.1-.3.2-.7 1-1 1.6-1.2s1.4.4 1.7 1zm-48-28.6c-.4 0-.7-.4-.7-.8s.4-.7.8-.7l1.5.1c.4 0 .7.4.7.8 0 .2-.1.4-.2.5s-.3.2-.5.2l-1.5-.1zm56.3 2.2c.4 0 .7.4.7.8s-.4.7-.8.7H113c-.4-.1-.6-.4-.6-.8s.3-.7.7-.7l1.5.1zm-16.5.4c-.4-.1-.6-.4-.6-.8s.3-.7.7-.7l1.5.1c.4 0 .7.4.7.8 0 .2-.1.4-.2.5s-.3.2-.5.2h-1.5zm-5-.3c-.2 0-.4-.1-.5-.2s-.2-.3-.2-.5.1-.4.2-.5.3-.2.5-.2l1.5.1c.4 0 .7.4.7.8s-.4.7-.8.7l-1.5-.1zm-5-.3c-.2 0-.4-.1-.5-.3-.1-.1-.2-.3-.1-.5s.1-.3.2-.5c.1-.1.4-.2.6-.2l1.5.1c.4 0 .7.4.7.8s-.4.7-.8.7l-1.5-.1zm-3.5-.2h-1.5c-.4 0-.7-.4-.7-.8 0-.2.1-.4.2-.5s.3-.2.5-.2l1.5.1c.2 0 .4.1.5.3.1.1.2.3.2.5 0 .2-.1.3-.2.5-.1.1-.4.2-.6.2zm-6.5-.4c-.4 0-.7-.4-.7-.8s.4-.7.8-.7l1.5.1c.3.1.6.4.6.7s-.2.6-.6.7l-1.5-.1zm-5-.3c-.4 0-.7-.4-.7-.8s.4-.7.8-.7l1.5.1c.2 0 .4.1.5.2s.2.3.2.5c0 .2-.1.4-.2.5s-.3.2-.5.2l-1.5-.1zm-5-.3c-.4 0-.7-.4-.7-.8s.4-.7.8-.7l1.5.1c.4 0 .7.4.7.8s-.4.7-.8.7h-1.5zm-3.5-.2l-1.5-.1c-.3 0-.6-.3-.7-.6v-.3c.1-.3.4-.5.7-.5H65c.1 0 .1 0 .2.1.3.1.5.4.5.7 0 .3-.2.6-.6.7-.1 0-.1 0-.2 0zm38.3 2.5c-.4 0-.7-.4-.7-.8s.4-.7.8-.7l1.5.1c.4 0 .7.4.7.8s-.4.7-.8.7l-1.5-.1zm4.3-.4c0-.3.2-.6.5-.7.1 0 .1 0 .2 0l1.5.1c.3 0 .6.3.7.6 0 .1 0 .1 0 .2 0 .1 0 .1 0 .2-.1.3-.4.5-.7.5l-1.5-.1c-.1 0-.2 0-.2-.1-.3-.1-.5-.4-.5-.7z" fill="#354fa1"/><g fill="#fff"><path d="M109.2 131.4l3.6-3.2.4-15.3c-.4-.1-.6-.4-.6-.8s.3-.7.7-.7h.6l3-101-2-2.5L72 5l-6 5.4-6 97.5c.2 0 .4.1.5.2s.2.3.2.5-.1.4-.2.5-.3.2-.5.2h-.6l-1 15.3 5.3 6.2 43 3 2.4-2.2zm-3.3-.3l-41-2.7-4-4.6 11.8-116 44 6.2 1 1-7 112-4.7 4zM91 42.4l19 4.2-.2 3.5-19.4 1.7.2-2.8 4-.3.2-2.7-4-.8.2-2.8zm12.7 5.7h.5l-6.5-1.3-.1 2 6-.4zM90 55.7l19.3 1.3-.2 2.3a8 8 0 0 1-.6 3c-.3.7-1 1.3-1.7 1.6a8 8 0 0 1-3 .5c-1.3 0-2.8 0-4.7-.2s-3.4-.3-4.7-.4c-1-.1-2-.4-3-1-.7-.4-1.2-1-1.4-1.8-.3-1-.4-2-.2-3.2zm2.6 3c-.1.4 0 .8.1 1.2.2.3.5.6.8.7l.8.2a13 13 0 0 0 1.2.2q1.4.1 3.7.3l3.7.2a11 11 0 0 0 1.2 0l1-.1c.4-.1.7-.3 1-.6a3 3 0 0 0 .2-1.2zm-3.7 14l13-1.3-13-1v-2.6l19.3 1.3-.2 3.5-9 1.4 8.7 2.3V80l-19.2-1.3.2-2.7 13 .7L89 74v-1.2zm18.6 12l-.2 3L88 86.4l.2-3 19.3 1.3zm-3.3 6.3l3 .2-.5 8.3-3-.2.2-2.7-16.3-1 .2-3 16.3 1 .2-2.7zM73 61.2c-.7-.1-1.4-.3-2-.6-.5-.3-1-.7-1.3-1.2a3 3 0 0 1-.4-1c-.1-.4-.1-.8-.1-1.3 0-.4.1-1 .3-1.3.1-.3.3-.6.5-1 .2-.2.4-.5.7-.6.2-.2.5-.3.8-.4.7-.3 1.4-.4 2-.3l11.3.8c.4 0 .7.1 1 .2s.6.2 1 .4a4 4 0 0 1 .7.5c.2.2.5.4.6.7a3 3 0 0 1 .4 1c.1.4.1 1 .1 1.3s-.1.8-.3 1.3c-.1.3-.3.6-.5 1-.2.2-.4.5-.7.6a3 3 0 0 1-.8.4c-.3.1-.7.2-1 .3-.4.1-.7.1-1 .1zm11.5-2h.7c.2 0 .4-.1.5-.2l.2-.2c0-.1.1-.2.1-.3 0-.2-.1-.5-.2-.6s-.3-.2-.5-.3-.5-.1-.7-.2l-11.3-.7c-.2 0-.5 0-.7.1s-.4.1-.5.3c-.1.1-.2.3-.2.5s0 .4.2.6c.1.1.3.3.5.3.2.1.5.1.7.2zm-6 10h1V69l-11-.7.2-2.6 19.3 1v2.5l-11 2.5 11 .7-.2 2.6-19.2-1.3.2-2.6L79 69zm8.6 11l-.4 6.6-3-.2.2-3.7-5-.3V85l-3-.2v-2.6l-5.3-.4-.2 3.7-3-.2.4-6.6L87.3 80zm-15.3 43l1.7-7.7 1.4.1.7 8-1-.1-.1-1.6-1-.1-.3 1.6-1-.1zm2.3-5H74l-.5 2.4.8.1-.2-2.5z"/><path d="M80.8 122.2c0 .3-.1.6-.2.8-.1.1-.1.2-.2.3l-.3.3c-.1.1-.3.1-.4.2h-.5c-.2 0-.3 0-.5-.1a1 1 0 0 1-.4-.2c-.1-.1-.2-.2-.2-.3-.1-.1-.1-.2-.1-.3-.1-.3-.2-.6-.1-1l.3-4.6c0-.1 0-.3.1-.4 0-.1.1-.3.2-.4s.1-.2.2-.3l.3-.3c.1-.1.3-.1.4-.2h.5c.2 0 .3 0 .5.1.1 0 .3.1.4.2l.3.3c.1.1.1.2.2.3 0 .1.1.3.1.4v.4zm-.8-4.7v-.3c0-.1 0-.2-.1-.2h-.2c-.1 0-.2 0-.2.1-.1.1-.1.1-.1.2s-.1.2-.1.3l-.3 4.7c0 .1.1.1.1.2s.1.1.2.1.2 0 .2-.1c.1-.1.1-.1.1-.2s.1-.2.1-.3zm1.4.2l.1-.7c.2 0 .4-.1.6-.2.1-.1.3-.2.4-.3s.1-.1.1-.2.1-.1.1-.2l.7.1-.5 7.8h-1l.4-6h-.8zm2.8 1v-.5c0-.3 0-.5.1-.7a2 2 0 0 1 .3-.6c.1-.2.3-.3.5-.4s.5-.1.8-.1.5.1.7.2.3.3.4.4c.1.2.2.4.2.6v.8c0 .4-.1 1-.3 1.3-.2.4-.3 1-.6 1.3-.2.4-.4.8-.7 1.2l-.6 1h1.8l-.1 1-3-.2.1-1c.4-.5.7-1 1-1.6.1-.2.3-.5.4-.7l.6-1.6c.1-.2.1-.5.1-.7v-.6c0-.1 0-.2-.1-.2 0-.1-.1-.1-.2-.1s-.1 0-.2.1-.1.1-.1.2-.1.2-.1.3v1h-1zm6.8 4c0 .3-.1.6-.2.8-.1.1-.1.2-.2.3s-.2.2-.3.2c-.1.1-.2.1-.4.2h-.5c-.2 0-.3 0-.5-.1a1 1 0 0 1-.4-.2c-.1-.1-.2-.2-.2-.3-.1-.1-.1-.2-.1-.3-.1-.3-.2-.6-.1-1l.3-4.6c0-.1 0-.3.1-.4 0-.1.1-.3.2-.4s.1-.2.2-.3.2-.2.3-.2c.1-.1.3-.1.4-.2h.5c.2 0 .3 0 .5.1.1 0 .2.1.4.2l.3.3c.1.1.1.2.2.3 0 .1.1.3.1.4v.4zm-.8-4.7v-.3c0-.1-.1-.2-.1-.2v-.1H90c-.1 0-.2 0-.2.1-.1.1-.1.1-.1.2s-.1.2-.1.3l-.3 5c0 .1.1.1.1.2s.1.1.2.1.2 0 .2-.1c.1-.1.1-.1.1-.2s.1-.2.1-.3zm2.3 2.8l.1-1c.2 0 .4 0 .5-.1.1 0 .2-.1.3-.2s.1-.3.1-.4v-1.3c0-.1 0-.2-.1-.2 0-.1-.1-.1-.2-.1H93c-.1.1-.1.1-.1.2l-.1.4c0 .2 0 .4-.1.6h-1c0-.2 0-.5.1-.7 0-.3.1-.5.2-.8.1-.2.3-.4.5-.6.3-.1.5-.2.8-.2s.6.1.8.3c.2.1.3.3.4.6.1.2.1.4.1.6v.3c0 .4-.1 1-.2 1.3s-.2.5-.4.7c.3.2.4.6.5 1s.1.8 0 1.3v.2a4 4 0 0 1-.1.4l-.2.5a2 2 0 0 1-.3.5c-.1.1-.3.3-.4.3-.2.1-.4.1-.6.1-.3 0-.6-.1-.8-.3s-.3-.4-.4-.6-.1-.5-.1-.8v-.7h1v1c0 .1.1.2.1.2s.1.1.2.1.2 0 .2-.1c.1-.1.1-.1.1-.2s.1-.2.1-.3v-.3c0-.2 0-.5.1-.7v-.5c0-.1-.1-.3-.2-.3a1 1 0 0 0-.2-.1c-.1 0-.2-.1-.3-.1zm2.8-2.5c0-.1 0-.3.1-.4a2 2 0 0 1 .2-.6c.1-.2.3-.3.5-.5.3-.1.5-.2.8-.2s.6.1.8.3c.2.1.3.3.4.5s.1.4.1.6l-.3 4.8c0 .1 0 .3-.1.5 0 .2-.1.4-.2.6s-.3.4-.5.5c-.3.1-.6.2-.8.2-.3 0-.6-.1-.8-.3-.2-.1-.3-.3-.4-.5s-.1-.4-.1-.6a3 3 0 0 1 0-.5v-.5h1v1c0 .1 0 .2.1.2s.1.1.2.1.3-.1.3-.2c.1-.2.1-.4.1-.6l.1-1.5-.3.1h-.3c-.2 0-.5-.1-.7-.2s-.3-.3-.4-.5-.1-.4-.1-.6v-.4zm1.8-.2c0-.1 0-.1-.1-.2s-.2-.2-.3-.2-.2 0-.3.1c0 .1-.1.1-.1.2l-.1 2.3c0 .1 0 .2.1.2.1.1.1.1.3.1.1 0 .2 0 .3-.1s.1-.1.1-.2zm21-88.8l1-14.6-4.7-5.4-42-2.8-5.3 4.8L66 26l52 3.4z"/></g><g fill="#354fa1"><path d="M76 20.7l1.7-7.7H79l.7 8h-1l-.1-1.6h-1l-.3 1.6h-1zm2.3-5v-.2h-.1v.2l-.5 2.4h.8l-.2-2.5zm2 5.4l.5-7.8 1 .1c.4 0 .8.1 1.2.3.3.1.5.4.6.7a5 5 0 0 1 .2 1.2l-.1 2c0 .6-.1 1.3-.2 2 0 .4-.2.8-.4 1.2-.2.3-.4.5-.7.6-.4.1-.8.2-1.2.1zm1.2-1h.5l.3-.3c0-.1.1-.2.1-.3s0-.3.1-.5c0-.4.1-1 .1-1.5v-2c0-.1 0-.2-.1-.3 0-.2-.1-.3-.2-.4s-.3-.1-.5-.1zm4.6 1.5l-.4-5V16h-.1l-.3 5.2h-1l.5-7.8 1.4.1.6 3.6 1-3.5 1.4.1-.5 7.8-1-.1.2-5-1 5h-1zm4-7.6h1l-.5 7.8-1-.1.5-7.8zm1.7 1.3L92 14l3.3.2v1.2h-1l-.4 6.6h-1l.4-6.6h-1zM100 21c0 .3-.1.6-.2.8-.1.1-.1.2-.2.3s-.2.2-.3.2c-.1.1-.2.1-.4.2h-.5c-.2 0-.3 0-.5-.1-.1 0-.3-.1-.4-.2s-.2-.2-.2-.3-.1-.2-.2-.3c-.1-.3-.1-.6-.1-1V16c0-.1 0-.3.1-.4l.2-.4c.1-.1.1-.2.2-.3s.2-.2.3-.2c.1-.1.3-.1.4-.2h.5c.2 0 .3 0 .5.1.1 0 .3.1.4.2.3.3.5.6.5 1v.5zm-1-5v-.3c0-.1-.1-.2-.1-.2l-.1-.1h-.1c-.1 0-.2 0-.2.1s-.1.1-.1.2-.1.2-.1.3l-.3 5c0 .1.1.1.1.2s.1.1.2.1.2 0 .2-.1.1-.1.1-.2.1-.2.1-.3zm2.7 2.3l-.1-.4h-.1l-.3 4.4-1-.1.5-7.8 1 .1 1 4.5.3-4.4h1l-.5 7.8h-1l-.8-4zm3-3.6l2.6.2-.1 1.2h-1.5l-.1 2h1v1.3h-1l-.1 2.2 1.4.1V23l-2.6-.2.5-7.8zm7.7 2.3l.4 1 1 .2-.8.7v1l-1-.6-1 .5.3-1-.7-.8h1l.5-1zM73 14.5l.4 1 1 .2-.8.7.1 1-1-.6-1 .5.3-1-.7-.8 1-.1.6-1z"/></g><g fill="#fff"><path d="M105.8 119.7l.4 1 1 .2-.8.7.1 1-1-.6-1 .5.3-1-.7-.8 1-.1.5-1zM66.3 117l.4 1 1 .2-.8.7v1l-1-.6-1 .5.3-1-.7-.8h1l.6-1zm-.6-90l.2-2.4 52 6-52-3.4z"/></g><path d="M104 156.5c0 .1 0 .1 0 .2 0 .1-.1.3-.1.4 0 .1-.1.1-.1.2l2 1 4.5-1c.3-.1.6-.1.8-.2l6.4-1.6 9-15-.6-.4c-.3-.2-.5-.7-.2-1 .2-.3.7-.5 1-.2l.6.4L177.6 54l-1-4c0-.2-.1-.5-.2-.7l-1.7-7.4-1.7-1c0 .1-.1.1-.1.2 0 .1-.1.1-.1.1 0 .1-.1.1-.2.1-.1 0-.1.1-.2.1-.6.3-1.3.3-1.8 0-.7-.4-1-1.2-.8-2 0-.1.1-.2.1-.3 0-.1.1-.1.1-.2l-1.8-1c0 .1-.1.1-.1.2-.1.1-.2.2-.3.3l-.1.1c-.6.4-1.3.4-2 0-.7-.4-1-1.2-.8-2 0-.1 0-.2.1-.3 0-.1.1-.2.1-.2l-1.8-1a1 1 0 0 1-.1.2l-.3.3-.2.1c-.6.4-1.3.4-2 0-.6-.4-1-1-.8-2 0-.1 0-.1 0-.2v-.1-.1c0-.1.1-.1.1-.1l-1.8-1-.2.3-.3.2c-.6.4-1.3.4-2 .1-.6-.4-1-1-.8-1.8 0-.1 0-.1 0-.2a2 2 0 0 1 .2-.5l-1.8-1c-.1.2-.3.4-.5.5-.6.4-1.3.5-2 .1-.6-.4-1-1-.8-1.8 0-.2.1-.5.2-.7l-1.8-1c-.1.2-.3.4-.4.5-.6.5-1.4.5-2 .1-.6-.4-1-1-1-1.7 0-.1 0-.2.1-.4 0-.1.1-.2.2-.3l-1.8-1-.2.3c-.1.1-.1.1-.2.2-.6.5-1.4.5-2 .1-.6-.4-1-1-1-1.7v-.2l.1-.4c0-.1.1-.1.1-.1l-1.7-1-.2.2a1 1 0 0 1-.2.2c-.6.5-1.4.6-2 .2-.6-.4-1-1-.8-1.7 0-.1 0-.2 0-.3 0-.1.1-.2.1-.3 0-.1.1-.1.1-.2l-1.7-1-12 3-50 85.6c.3.2.4.7.2 1-.1.2-.3.3-.4.3s-.4 0-.6-.1l-.6-.4-9 15 3 12 1.7 1c0-.1.1-.1.1-.2l.1-.1c.1-.1.2-.2.4-.3.6-.4 1.3-.4 2 0 .6.4 1 1.2.8 2 0 .1 0 .2-.1.3 0 0 0 .1-.1.1 0 .1 0 .1-.1.2l1.8 1c.1-.2.2-.3.3-.4 0 0 .1-.1.1-.1 0 0 .1-.1.1-.1.6-.4 1.3-.4 2 0 .6.4 1 1 .8 2 0 .1 0 .2-.1.3 0 0 0 .1 0 .1l-.1.2 1.8 1c.1-.1.1-.2.2-.3.1-.1.2-.2.3-.2.6-.4 1.3-.4 2-.1.6.4 1 1 .8 1.8 0 .1 0 .1 0 .2 0 .1 0 .1 0 .2 0 .1-.1.2-.1.3l1.8 1c.1-.2.3-.4.5-.5.6-.4 1.4-.5 2-.1.8.5 1 1.6.6 2.5l1.8 1c.1-.1.2-.3.3-.4 0 0 .1-.1.1-.1.6-.5 1.4-.5 2-.1.6.4 1 1 .8 1.7 0 .1 0 .1 0 .2v.2c0 .1-.1.2-.2.4l2 1 .2-.2.1-.1c.6-.5 1.4-.5 2-.1.6.4 1 1 1 1.7 0 .1 0 .1 0 .2 0 .1 0 .1-.1.2 0 .1 0 .1-.1.2l-.1.2 1.8 1c.1-.2.2-.3.4-.4.6-.5 1.4-.6 2-.2.6.4 1 1 1 1.7 0 .1 0 .1 0 .2 0 .1-.1.3-.1.4v.2l1.8 1v-.2l.2-.2c.5-.5 1.3-.7 2-.3s1 1 1 1.8zm-29.6-47.7c-.3-.2-.4-.7-.2-1 .1-.2.3-.3.4-.3s.4 0 .6.1l1.3.8c.3.2.5.7.3 1-.1.2-.3.3-.4.3s-.4 0-.6-.1l-1.3-.8zm49 28.2c.3.2.4.7.2 1-.1.2-.3.3-.4.3s-.4 0-.6-.1l-1.3-.8c-.3-.2-.5-.7-.2-1 .1-.2.3-.3.4-.3s.4 0 .6.1l1.3.8zm-14.8-7.4c-.3-.2-.4-.7-.2-1 .1-.2.3-.3.4-.3s.4 0 .6.1l1.3.8c.3.2.5.7.3 1-.1.2-.3.3-.4.3s-.4 0-.6-.1l-1.3-.8zm-4.3-2.6c-.3-.2-.5-.7-.2-1 .1-.2.3-.3.4-.3s.4 0 .6.1l1.3.8c.3.2.4.7.2 1-.1.2-.3.3-.4.3s-.4 0-.6-.1l-1.3-.8zm-4.3-2.6c-.2-.1-.3-.3-.3-.5 0-.2 0-.4.1-.5.1-.2.3-.3.4-.3s.4 0 .6.1l1.3.8c.3.2.5.7.3 1-.1.2-.3.3-.4.3s-.4 0-.6-.1l-1.3-.8zm-3-1.8l-1.3-.8c-.3-.2-.5-.7-.2-1 .1-.2.3-.3.4-.3s.4 0 .6.1l1.3.8c.2.1.3.3.3.5 0 .2 0 .4-.1.5-.1.1-.2.3-.4.3-.2.1-.4 0-.6-.1zm-5.6-3.4c-.3-.2-.5-.7-.2-1 .1-.2.3-.3.4-.3s.4 0 .6.1l1.3.8c.3.2.4.7.2 1-.1.2-.3.3-.4.3s-.4 0-.6-.1l-1.3-.8zm-4.3-2.6c-.3-.2-.4-.7-.2-1 .1-.2.3-.3.4-.3s.4 0 .6.1l1.3.8c.3.2.4.7.2 1-.1.2-.3.3-.4.3s-.4 0-.6-.1l-1.3-.8zM83 114c-.3-.2-.4-.7-.2-1 .1-.2.3-.3.4-.3s.4 0 .6.1l1.3.8c.3.2.4.7.2 1-.1.2-.3.3-.4.3s-.4 0-.6-.1L83 114zm-3-1.8l-1.3-.8c-.3-.2-.4-.5-.3-.8l.2-.3c.2-.2.6-.3 1-.1l1.3.8c.1 0 .1.1.2.1.2.2.2.6.1 1s-.5.4-.8.3c-.1 0-.1 0-.2-.1zm33 20c-.3-.2-.5-.7-.2-1 .1-.2.3-.3.4-.3s.4 0 .6.1l1.3.8c.3.2.4.7.2 1-.1.2-.3.3-.4.3s-.4 0-.6-.1l-1.3-.8zm4 1.6c.2-.3.5-.4.8-.3.1 0 .1 0 .2.1l1.3.8c.3.2.4.5.3.8 0 .1 0 .1-.1.2s-.1.1-.1.1c-.2.2-.6.3-1 .1l-1.3-.8c-.1 0-.1-.1-.2-.2-.2-.2-.2-.6-.1-1z" fill="#fee337"/><g fill="#fff"><path d="M109.4 152l4.7-1.2 7.8-13-.6-.3c-.3-.2-.4-.7-.2-1 .1-.2.3-.3.4-.3s.4 0 .6.1l.6.3L172.2 53l-2-8-37-22.6-8 2-49 83.8c.3.2.5.7.3 1-.1.2-.3.3-.4.3s-.4 0-.6-.1l-.6-.3-7.8 13 2 8 40.2 21.8zm-2.8-1.8l-35.2-21.5-1.5-6L133 25l36.6 27.6-63 97.6zm27-85.6l15 12.6-1.8 3-18-7.5 1.4-2.4 3.7 1.6 1.4-2.4-3-2.5 1.4-2.4zm8.7 11l.5.2v-.1l-5.2-4.3-1 1.7 5.6 2.5zm-15.4.3l16.5 10-1 2c-.5 1-1.2 1.8-2 2.5-.6.5-1.4.7-2.2.7-1-.1-2-.5-3-1q-1.7-.8-4-2.3l-4-2.6c-.8-.6-1.6-1.3-2.2-2-.4-.7-.6-1.5-.5-2.3.2-1 .6-2 1.2-3zm1 4c-.2.3-.4.7-.4 1 0 .4.1.7.4 1l.6.6c.3.3.7.5 1 .7l3.2 2a75 75 0 0 0 3.2 1.9l1 .5.8.3c.4.1.7.1 1-.1.3-.3.6-.6.7-1zM118 90.6l12.2 5-11-6.8 1.4-2.3 16.5 10-1.8 3-8.6-3 6.7 6-1.8 3-16.5-10 1.4-2.3 10.5 6-9.4-8 .6-1zm11 19.3l-1.5 2.5-16.6-10 1.5-2.5 16.5 10zm-5.8 4l2.5 1.5-4.2 7-2.5-1.5 1.4-2.3-14-8.6 1.5-2.5 14 8.6 1.4-2.3z"/><path d="M109 73c-.6-.4-1.2-1-1.6-1.5a4 4 0 0 1-.4-.8c-.1-.3-.2-.6-.2-1s0-.7.1-1c.1-.4.3-.8.5-1.2s.5-.7.8-1c.3-.2.6-.4 1-.6.3-.1.6-.2 1-.2h1c.7.1 1.4.3 2 .7L124 73c.3.2.5.5.7.8a4 4 0 0 1 .4.8c.3.6.3 1.3.2 2-.1.4-.3.8-.5 1.2s-.5.7-.8 1l-1 .6a3 3 0 0 1-.9.2h-1c-.3 0-.7-.1-1-.2s-.7-.3-1-.5zm11.2 3.5l.6.3h.6c.1 0 .2 0 .3-.1s.2-.2.2-.3c.1-.2.1-.4.1-.6s-.1-.3-.3-.5l-.6-.5-11-6.3c-.2 0-.4.2-.5.4s-.2.4-.1.6a1 1 0 0 0 .3.5c.1.2.3.3.5.5zm-9.8 6.2l1 .3h.1l-9.5-6 1.3-2.2L120 85l-1.3 2.2-11-3L117 90l-1.3 2.3-16.5-10 1.3-2.2 10 3zm2.7 13.6l-3 5.7-2.5-1.5 2-3.2-4.3-2.6-1.4 2.3-2.7-1.6 1.4-2.3-4.5-2.8-1.8 3.2-2.5-1.5 3.3-5.6 16.5 10zm-33 31l5-6 1.2.7-3 7.3-1-.6.6-1.5-1-.6-1 1.3-1-.6zm4.3-3.5l.1-.2-.1.2-1.5 2 .7.4 1-2.3zm4 6.8c-.2.2-.4.5-.6.6-.1.1-.2.1-.3.2-.1 0-.2.1-.4.1a1 1 0 0 1-.4 0c-.2 0-.3-.1-.5-.2-.1-.1-.3-.2-.4-.3s-.2-.2-.2-.4c0-.1-.1-.2-.1-.4v-.4c0-.3.1-.6.3-.8l2.4-4c.1-.1.2-.2.3-.4l.3-.3c.1-.1.2-.1.3-.2.1 0 .2-.1.4-.1h.4c.2 0 .3.1.5.2.1.1.3.2.4.3s.2.2.2.4c0 .1.1.2.1.4v.4c0 .1 0 .3-.1.4s-.1.3-.2.4zm1.4-4.5c0-.1.1-.2.1-.2v-.3l-.1-.1h-.2c-.1 0-.1.1-.2.1l-.2.2-2.3 4a1 1 0 0 0-.1.3 1 1 0 0 0 0 .2c0 .1.1.1.1.2.1 0 .1.1.2.1s.1-.1.2-.1l.2-.2zm1 .8l.4-.6c.2.1.4.1.6.1s.3 0 .5-.1l.2-.1c.1 0 .1-.1.2-.1l.6.4-4 6.7-1-.6 3-5.2-.6-.4zm2 2.2v-.5a4 4 0 0 1 .4-.6 2 2 0 0 1 .5-.4c.2-.1.4-.2.6-.1.3 0 .5.1.7.3.2.1.4.3.5.5s.2.4.2.6a2 2 0 0 1-.1.7l-.3.7c-.2.4-.5.7-.8 1l-2 1.8-1 .5 1.5 1-.6 1-2.6-1.6.6-1 2.3-1.4c.2-.2.5-.3.7-.5l.6-.6c.2-.2.3-.4.5-.6l.2-.3c0-.1.1-.2.1-.3v-.2c0-.1-.1-.1-.1-.2h-.2c-.1 0-.1.1-.2.1l-.2.2-.4.7-1-.6zm4 6.8c-.2.2-.4.5-.6.6-.1.1-.2.1-.3.2-.1 0-.2.1-.4.1a1 1 0 0 1-.4 0c-.2 0-.3-.1-.5-.2-.1-.1-.3-.2-.4-.3s-.2-.2-.2-.4c0-.1-.1-.2-.1-.4a2 2 0 0 1 0-.3c0-.3.1-.6.3-.8l2.3-4c.1-.1.2-.2.3-.4l.3-.3c.1-.1.2-.1.3-.2.1 0 .2-.1.4-.1h.4c.2 0 .3.1.5.2.1.1.3.2.4.3a1 1 0 0 1 .2.4c0 .1.1.2.1.4v.4c0 .1 0 .3-.1.4s-.1.3-.2.4zm1.4-4.5c0-.1.1-.2.1-.2v-.3H98 98c-.1 0-.1.1-.2.1l-.2.2-2.3 4a1 1 0 0 0-.1.3 1 1 0 0 0 0 .2c0 .1.1.1.2.2.1 0 .1.1.2.1s.1-.1.2-.1l.2-.2zm.7 3.6l.5-.8c.2.1.3.2.5.2.1 0 .2 0 .3-.1a1 1 0 0 0 .3-.3l.5-.8c.1-.1.1-.2.1-.3v-.3c0-.1-.1-.1-.1-.2h-.2c-.1 0-.1.1-.2.1l-.3.3c-.1.1-.2.3-.3.5l-1-.6a7 7 0 0 1 .4-.6c.1-.2.3-.4.5-.6s.4-.3.7-.3.6.1.8.2c.5.3.8.8.7 1.3 0 .2-.1.4-.1.6l-.2.3c-.2.4-.5.8-.8 1-.2.2-.4.3-.7.4.1.3.1.7 0 1-.1.4-.3.8-.5 1 0 .1-.1.1-.1.2l-.2.3-.4.4c-.1.1-.3.2-.5.3s-.3.1-.5.1-.4-.1-.6-.2c-.3-.1-.5-.4-.6-.6s-.1-.5-.1-.7c0-.3.1-.5.2-.7l.4-.6 1 .6-.3.6c-.1.1-.1.3-.1.4v.3c0 .1.1.1.1.1h.2c.1 0 .2-.1.2-.1l.2-.2v-.3a12 12 0 0 1 .4-.6c.1-.1.2-.3.2-.4v-.4l-.2-.2a2 2 0 0 0-.3-.2zm3.6-1l.2-.3a2 2 0 0 1 .5-.4c.2-.1.4-.2.6-.2.6 0 1 .4 1.4 1 .1.2.1.4.1.6a2 2 0 0 1-.1.6c-.1.1-.1.3-.2.4l-2.3 3.8c-.1.2-.2.3-.3.4-.1.2-.3.3-.5.4s-.4.2-.6.2c-.6 0-1-.4-1.4-1-.1-.2-.1-.4-.1-.7a2 2 0 0 1 .1-.6l.5-1 1 .6-.3.6c-.1.1-.1.2-.2.4h0c0 .1.1.1.1.2.1.1.2.1.3 0 .1-.2.3-.3.4-.5l.8-1.3h-.3c-.1 0-.2 0-.3-.1-.2-.1-.4-.3-.5-.5s-.1-.4-.1-.6.1-.4.2-.6c.1-.1.1-.3.2-.4zm1.7.7v-.2c0-.1-.1-.2-.2-.3s-.2 0-.3 0-.1.1-.2.1l-1.2 2.2c0 .1.1.2.2.3h.3c.1 0 .1-.1.2-.1zm59.3-69.3L171 53l-1.7-7-36-22-7 1.7-7.5 12.6 44.7 27.3z"/></g><g fill="#fdd423"><path d="M130 38.3l5-6 1.2.7-3 7.3-1-.6.6-1.5-1-.6-1 1.3-1-.6zm4.3-3.5v-.2h-.1l-.1.1-1.5 2 .7.4 1-2.3zm-.7 5.7l4-6.7.8.5c.4.2.7.5 1 .8.2.3.3.6.3 1s-.2.8-.4 1.2-.5 1-1 1.7l-1 1.6c-.2.3-.5.6-.8 1-.3.2-.6.2-1 .2-.4-.1-.8-.3-1.2-.5zm1.6-.4c.1.1.3.2.4.2.2 0 .3-.1.4-.2h.2c.1-.1.2-.3.3-.4q.3-.5.8-1.3l.8-1.3c.1-.1.2-.3.2-.4.1-.1.1-.2.1-.3.1-.1.1-.3 0-.4s-.2-.2-.4-.3zm3.4 3.4l2-5L138 43l-1-.6 4-6.7 1.2.7L141 40l2.4-2.7 1.2.7-4 6.7-1-.6 2.6-4.5-3.2 4-.4-.2zm7-5l1 .6-4 6.7-1-.6 4-6.7zm1 2l.6-1 2.8 1.7-.6 1-1-.6-3.4 5.7-1-.6 3.4-5.7-1-.6zm4.8 8.8c-.2.2-.4.5-.6.6-.1.1-.2.1-.3.2s-.2.1-.4.1a1 1 0 0 1-.4 0c-.2 0-.3-.1-.5-.2-.1-.1-.3-.2-.4-.3s-.2-.2-.2-.4c0-.1-.1-.2-.1-.4a2 2 0 0 1 0-.3c0-.3.1-.6.3-.8l2.4-4c.1-.1.2-.2.3-.4l.3-.3c.1-.1.2-.1.3-.2.1 0 .2-.1.4-.1h.4c.2 0 .3.1.5.2.1.1.3.2.4.3s.2.2.2.4c0 .1.1.2.1.4v.4c0 .1 0 .3-.1.4a3 3 0 0 1-.2.4zm1.4-4.5c0-.1.1-.2.1-.2v-.2s0-.1-.1-.1-.1-.1-.1-.1h-.2c-.1 0-.1.1-.2.1l-.2.2-2.3 4c0 .1-.1.2-.1.3v.2s.1.1.1.2c.1 0 .2.1.2.1.1 0 .1-.1.2-.1l.2-.2zm1.4 3.3l.1-.4h-.1l-2.3 3.8-1-.5 4-6.7 1 .5-1.2 4.4 2.3-3.8 1 .5-4 6.7-1-.5 1-4zm4.3-1.8l2.2 1.4-.6 1-1.2-.8-1 1.8 1 .5-.6 1-1-.6-1 2 1.3.8-.6 1-2.2-1.4 4-6.7zM164 52v1l1 .7-1 .3-.4 1-.6-1h-1l.7-1-.3-1 1 .4 1-.6zm-34-20.6v1l1 .7-1 .3-.4 1-.6-1h-1l.7-1-.3-1 1 .4 1-.6z"/></g><g fill="#fff"><path d="M111.7 140v1l1 .7-1 .3-.4 1-.6-1h-1l.7-1-.3-1 1 .4 1-.6zm-34-20.6l-.1 1 1 .7-1 .3-.4 1-.6-1-1-.1.7-1-.3-1 1 .4 1-.6zM118 39.2l1.3-2L164 64.4l-1.2 2L118 39.2z"/></g></g></g></svg>