<svg id="Layer_1" data-name="Layer 1" xmlns="http://www.w3.org/2000/svg" xmlns:xlink="http://www.w3.org/1999/xlink" viewBox="0 0 177.6 158.4"><defs><style>.cls-1,.cls-2{fill:none;}.cls-1{clip-rule:evenodd;}.cls-3{clip-path:url(#clip-path);}.cls-4{clip-path:url(#clip-path-2);}.cls-5{fill:#ef3d4f;}.cls-6{fill:#fff;}.cls-7{fill:#354fa1;}.cls-8{fill:#fee337;}.cls-9{fill:#fdd423;}</style><clipPath id="clip-path" transform="translate(-332.14 -236.34)"><polygon class="cls-1" points="332.07 394.74 509.82 394.74 509.82 236.34 332.07 236.34 332.07 394.74 332.07 394.74"/></clipPath><clipPath id="clip-path-2" transform="translate(-332.14 -236.34)"><polygon class="cls-2" points="332.07 394.74 509.82 394.74 509.82 236.34 332.07 236.34 332.07 394.74 332.07 394.74"/></clipPath></defs><title>Paskong Pinoy</title><g id="Ticket"><g class="cls-3"><g class="cls-4"><path class="cls-5" d="M436.59,364.73l.17.14a1,1,0,0,1,.14.15,1.09,1.09,0,0,1,.13.17,1.18,1.18,0,0,1,.11.19l1.79-.92c0-.1.06-.18.09-.27.54-1.68,1-3.09,1.43-4.44.08-.27.17-.54.26-.82s.18-.54.26-.81c.18-.54.35-1.09.54-1.65.38-1.17.78-2.42,1.24-3.86L435,337.07l-.64.33a.72.72,0,0,1-1-.32.74.74,0,0,1,.32-1l.64-.33L389.89,247l-3.8-1.26h0l-.68-.23-.68-.22-1.87-.62-4.37-1.45-.14,0-.13-.05-1.79.92.09.21a1.46,1.46,0,0,1,.05.2,1.12,1.12,0,0,1,0,.21,1.55,1.55,0,0,1,0,.22,1.77,1.77,0,0,1-1,1.56,1.73,1.73,0,0,1-2.07-.36,1.84,1.84,0,0,1-.17-.22c0-.07-.09-.13-.13-.21l-1.91,1c0,.06,0,.13.08.19a1.8,1.8,0,0,1,.09.45,1.11,1.11,0,0,1,0,.17,1.8,1.8,0,0,1-1,1.59,1.74,1.74,0,0,1-2-.32,1.45,1.45,0,0,1-.19-.23,1.76,1.76,0,0,1-.14-.23l-1.91,1c0,.07.05.13.08.19a1.05,1.05,0,0,1,.05.19,1.42,1.42,0,0,1,0,.2.71.71,0,0,1,0,.2,1.81,1.81,0,0,1-1,1.63,1.77,1.77,0,0,1-2-.28l-.11-.12-.1-.12-.08-.12-.08-.13-1.91,1,.08.2a1.42,1.42,0,0,1,0,.16,1.29,1.29,0,0,1,0,.19,1.1,1.1,0,0,1,0,.18h0a1.8,1.8,0,0,1-1,1.67,1.76,1.76,0,0,1-2-.26.46.46,0,0,1-.12-.12,1.77,1.77,0,0,1-.29-.41l-1.91,1a1.88,1.88,0,0,1,.19.68,1.81,1.81,0,0,1-1,1.72,1.74,1.74,0,0,1-1.94-.22,1.89,1.89,0,0,1-.44-.56l-1.91,1a1.85,1.85,0,0,1,.18.65h0a1.81,1.81,0,0,1-1,1.76,1.76,1.76,0,0,1-1.92-.2h0a3.07,3.07,0,0,1-.26-.25,2.49,2.49,0,0,1-.2-.32l-1.91,1a1.11,1.11,0,0,0,.07.16s0,.08,0,.13a1.59,1.59,0,0,1,.06.3,1.78,1.78,0,0,1-.95,1.81,1.73,1.73,0,0,1-1.88-.18.93.93,0,0,1-.15-.13,1.78,1.78,0,0,1-.22-.26l0-.08a.46.46,0,0,1-.08-.13l-1.92,1,.07.16a.42.42,0,0,0,0,.1,1.59,1.59,0,0,1,.06.3,1.8,1.8,0,0,1-1,1.85,1.76,1.76,0,0,1-1.85-.16,1.51,1.51,0,0,1-.23-.21,1.43,1.43,0,0,1-.19-.24,1,1,0,0,1-.1-.18l-1.81.93-.09.27h0c-.54,1.67-1,3.08-1.43,4.43h0c-.07.2-.14.4-.2.61l-.2.61-.39,1.22-.28.84h0c-.37,1.17-.78,2.41-1.24,3.86l44.44,88.76.65-.34a.71.71,0,0,1,1,.33.73.73,0,0,1-.32,1l-.64.33L385,382.29l7.05,2.33,4.38,1.45.27.09,1.8-.92a1.67,1.67,0,0,1-.08-.2l-.05-.15a1.76,1.76,0,0,1-.06-.46,1.82,1.82,0,0,1,1-1.61,1.76,1.76,0,0,1,2,.33,1,1,0,0,1,.19.22l.06.1a.64.64,0,0,1,.08.14l1.92-1a1.87,1.87,0,0,1-.16-.49.57.57,0,0,1,0-.13.68.68,0,0,1,0-.14h0a1.79,1.79,0,0,1,1-1.65,1.74,1.74,0,0,1,2,.29h0a1.5,1.5,0,0,1,.2.23l.07.1.09.16,1.92-1a2.67,2.67,0,0,1-.14-.36,1.5,1.5,0,0,1-.05-.37,1.78,1.78,0,0,1,1-1.69,1.73,1.73,0,0,1,2,.27l.12.11.11.13a1.34,1.34,0,0,1,.18.28l1.92-1a1.74,1.74,0,0,1-.19-.69,1.78,1.78,0,0,1,1-1.72,1.76,1.76,0,0,1,1.94.23,1.74,1.74,0,0,1,.44.56l1.92-1a1.7,1.7,0,0,1-.16-.48.86.86,0,0,1,0-.17,1.79,1.79,0,0,1,1-1.76,1.75,1.75,0,0,1,1.91.2h0l.14.12.12.14a2.2,2.2,0,0,1,.21.32l1.91-1-.06-.14a1.21,1.21,0,0,1-.05-.14.94.94,0,0,1,0-.16l0-.15a1.82,1.82,0,0,1,1-1.82,1.73,1.73,0,0,1,1.87.18l.16.13a1,1,0,0,1,.13.15.48.48,0,0,1,.12.16,1,1,0,0,1,.11.17l1.91-1a1.45,1.45,0,0,1-.11-.26,1.4,1.4,0,0,1-.06-.28,1.79,1.79,0,0,1,.94-1.87,1.76,1.76,0,0,1,1.85.16,1,1,0,0,1,.16.14,1.48,1.48,0,0,1,.37.49l1.92-1a.92.92,0,0,1-.09-.23,1.12,1.12,0,0,1-.08-.26,1.79,1.79,0,0,1,.94-1.92,1.71,1.71,0,0,1,1.82.13Zm-55.6.08a.72.72,0,0,1-1-.32.74.74,0,0,1,.32-1l1.34-.68a.72.72,0,0,1,1,.32.73.73,0,0,1-.32,1l-1.34.69Zm49.57-27.12a.71.71,0,0,1,1,.32.74.74,0,0,1-.31,1l-1.34.68a.71.71,0,0,1-1-.32.73.73,0,0,1,.32-1l1.33-.69Zm-14,8.84a.72.72,0,0,1-1-.32.75.75,0,0,1,.32-1l1.34-.69a.72.72,0,0,1,1,.32.75.75,0,0,1-.32,1l-1.33.68Zm-4.45,2.29a.71.71,0,0,1-1-.32.75.75,0,0,1,.31-1l1.34-.68a.71.71,0,0,1,1,.32.73.73,0,0,1-.32,1l-1.33.69Zm-4.45,2.28a.68.68,0,0,1-.59,0,.7.7,0,0,1-.38-.34.73.73,0,0,1,.32-1l1.33-.69a.71.71,0,0,1,1,.33.73.73,0,0,1-.32,1l-1.33.68Zm-3.11,1.61-1.33.68a.72.72,0,0,1-1-.32.74.74,0,0,1,.32-1l1.33-.68a.72.72,0,0,1,.59,0,.72.72,0,0,1,.44.86.79.79,0,0,1-.38.48Zm-5.78,3a.71.71,0,0,1-1-.33.73.73,0,0,1,.32-1l1.34-.69a.72.72,0,0,1,1,.32.74.74,0,0,1-.32,1l-1.34.69ZM394.33,358a.72.72,0,0,1-1-.32.74.74,0,0,1,.32-1L395,356a.72.72,0,0,1,1,.32.74.74,0,0,1-.32,1l-1.33.68Zm-4.46,2.29a.72.72,0,0,1-1-.33.74.74,0,0,1,.31-1l1.35-.69a.72.72,0,0,1,1,.32.74.74,0,0,1-.32,1l-1.35.69Zm-3.1,1.59-1.33.69a.7.7,0,0,1-.87-.18l-.16-.31a.73.73,0,0,1,.38-.82l1.33-.69.21-.06a.7.7,0,0,1,.76.38.71.71,0,0,1-.14.85.4.4,0,0,1-.18.14ZM421,344.25a.71.71,0,0,1-1-.32.75.75,0,0,1,.31-1l1.35-.69a.73.73,0,0,1,1,.33.74.74,0,0,1-.31,1l-1.34.69Zm3.47-2.61a.71.71,0,0,1,.14-.85.59.59,0,0,1,.17-.13l1.33-.69a.72.72,0,0,1,.88.18.56.56,0,0,1,.1.15.69.69,0,0,1,.05.17.72.72,0,0,1-.37.81l-1.34.69a.51.51,0,0,1-.21.06.69.69,0,0,1-.75-.39Z" transform="translate(-332.14 -236.34)"/><path class="cls-6" d="M435.78,357.71l1.51-4.68-6.83-13.64-.57.29a.72.72,0,0,1-1-.32.74.74,0,0,1,.32-1l.57-.29-43.49-86.86-4.61-1.53-3.1-1-38.47,19.78-2.52,7.81,43.48,86.86.57-.29a.71.71,0,0,1,1,.33.73.73,0,0,1-.32,1l-.57.29,6.83,13.65,7.71,2.55,38.47-19.78,1-3.13Zm-3,1.41L396.1,378l-5.81-1.93-50.07-100,.45-1.39,1.06-3.29.39-1.21,36.7-18.86,4.43,1.46,1.37.46,50.07,100-1.51,4.68-.39,1.21Z" transform="translate(-332.14 -236.34)"/><path class="cls-6" d="M375.38,290.52l18.52-6.21,1.57,3.12-15.89,11.48-1.24-2.49,3.27-2.28-1.24-2.46L376.63,293l-1.25-2.49Zm13.78-1.63.41-.3-.07-.14-.48.15-5.8,2.06.88,1.75,5.06-3.52Zm-7.89,13.4,17.2-8.85,1,2a8.65,8.65,0,0,1,1,3,3.26,3.26,0,0,1-.61,2.25,8.6,8.6,0,0,1-2.33,2q-1.6,1-4.13,2.28c-1.67.87-3.08,1.55-4.24,2a8.46,8.46,0,0,1-2.95.73,3.2,3.2,0,0,1-2.15-.83,8.47,8.47,0,0,1-1.8-2.6Zm3.81,1.26a2.84,2.84,0,0,0,.68,1,1.31,1.31,0,0,0,1.08.18,6.42,6.42,0,0,0,.83-.23c.32-.12.69-.27,1.11-.47.83-.4,1.94-1,3.34-1.68s2.5-1.3,3.31-1.74a9.52,9.52,0,0,0,1-.62,6.64,6.64,0,0,0,.69-.55,1.28,1.28,0,0,0,.47-1,2.85,2.85,0,0,0-.37-1.13Zm3.86,14.06,10-7.21.68-.46-.07-.14L388,315.73l-1.19-2.37L404,304.51l1.56,3.13-7.1,5.58-.85.58,0,.05,1-.35,8.62-2.53,1.56,3.12-17.2,8.85-1.19-2.38L402,314.63l-.07-.14-.77.28-11.63,3.93-.55-1.09Zm22,.74,1.28,2.56L395,329.75l-1.28-2.56,17.2-8.84Zm.32,7.15,2.6-1.33,3.7,7.4L415,332.9l-1.21-2.42L399.15,338l-1.29-2.56,14.61-7.51-1.21-2.42Z" transform="translate(-332.14 -236.34)"/><path class="cls-6" d="M369.48,315.9a5.27,5.27,0,0,1-2.09.54,3.78,3.78,0,0,1-.88-.07,3.74,3.74,0,0,1-.89-.3,2.81,2.81,0,0,1-.86-.62,4.48,4.48,0,0,1-.71-1.05,4,4,0,0,1-.42-1.22,2.75,2.75,0,0,1,0-1.07,3.52,3.52,0,0,1,.29-.9,4.79,4.79,0,0,1,.48-.75,5.23,5.23,0,0,1,1.66-1.39l10.13-5.21a5.4,5.4,0,0,1,1-.37,4.66,4.66,0,0,1,1-.15,3.83,3.83,0,0,1,.89.05,2.93,2.93,0,0,1,1.75.92,4.23,4.23,0,0,1,.73,1.05,4,4,0,0,1,.4,1.21,3.14,3.14,0,0,1,0,1.06,3.81,3.81,0,0,1-.29.92,4.1,4.1,0,0,1-.48.76,4.69,4.69,0,0,1-.73.75,5.44,5.44,0,0,1-.91.63Zm8.85-7.77a2.58,2.58,0,0,0,.57-.39,1.58,1.58,0,0,0,.34-.5.56.56,0,0,0,0-.29.79.79,0,0,0-.1-.32.74.74,0,0,0-.45-.41,1.33,1.33,0,0,0-.56,0,2.19,2.19,0,0,0-.68.23l-10.13,5.21a2.29,2.29,0,0,0-.58.42,1.3,1.3,0,0,0-.32.49.81.81,0,0,0,.06.6.78.78,0,0,0,.44.41,1,1,0,0,0,.57,0,1.76,1.76,0,0,0,.68-.23Zm-.06,11.7.69-.63-.07-.14-9.76,5L368,321.73l17.2-8.84,1.14,2.27-7.72,7.1-.68.62.07.14,9.76-5,1.17,2.35-17.2,8.84-1.14-2.28,7.72-7.09Zm12.82,4.92L394,330.6l-2.6,1.34-1.65-3.3L385.26,331l1.19,2.38-2.77,1.42-1.19-2.37-4.72,2.42,1.65,3.3-2.6,1.34-2.93-5.86,17.2-8.84Z" transform="translate(-332.14 -236.34)"/><path class="cls-6" d="M399.45,369.94,397,362.43l1.24-.63,4.53,6.44-1,.5-.89-1.33-1,.5.53,1.52-1,.51Zm-.64-5.59-.12-.16-.05,0,.06.19.81,2.35.69-.36-1.39-2Z" transform="translate(-332.14 -236.34)"/><path class="cls-6" d="M406.72,364.41a2.26,2.26,0,0,1,.21.84,2.19,2.19,0,0,1,0,.36,1.27,1.27,0,0,1-.12.36,1.29,1.29,0,0,1-.24.35,2.05,2.05,0,0,1-.42.29,2.14,2.14,0,0,1-.48.17,1.17,1.17,0,0,1-.42,0,1.37,1.37,0,0,1-.36-.11,1.87,1.87,0,0,1-.29-.2,2.06,2.06,0,0,1-.55-.67L402,361.68a3.52,3.52,0,0,1-.15-.42,2,2,0,0,1-.05-.41,1.45,1.45,0,0,1,0-.36,1,1,0,0,1,.11-.37,1.29,1.29,0,0,1,.25-.34,1.74,1.74,0,0,1,.42-.3,1.54,1.54,0,0,1,.47-.16,1.48,1.48,0,0,1,.42,0,1.09,1.09,0,0,1,.36.12,2.32,2.32,0,0,1,.31.19,2.07,2.07,0,0,1,.29.3,2,2,0,0,1,.25.37Zm-3.07-3.59a.84.84,0,0,0-.16-.23.52.52,0,0,0-.19-.14.25.25,0,0,0-.12,0,.38.38,0,0,0-.13,0,.34.34,0,0,0-.16.18.6.6,0,0,0,0,.23,1.43,1.43,0,0,0,.09.27l2.06,4.11a.91.91,0,0,0,.16.24.63.63,0,0,0,.2.13.32.32,0,0,0,.23,0,.33.33,0,0,0,.17-.18.45.45,0,0,0,0-.23.6.6,0,0,0-.09-.28Zm1.28-.56-.33-.66a1.75,1.75,0,0,0,.41-.47,2.14,2.14,0,0,0,.19-.46,2,2,0,0,0,0-.24,1.93,1.93,0,0,0,0-.24l.61-.31,3.49,7-1,.52-2.74-5.46-.67.35Zm2.86-.59-.25-.49a5.11,5.11,0,0,1-.28-.7,2.38,2.38,0,0,1-.08-.68,1.15,1.15,0,0,1,.21-.61,1.6,1.6,0,0,1,.6-.5,1.64,1.64,0,0,1,.72-.2,1.21,1.21,0,0,1,.6.15,2,2,0,0,1,.49.44,3.79,3.79,0,0,1,.41.65,5.22,5.22,0,0,1,.4,1.23,10.8,10.8,0,0,1,.18,1.42q0,.74,0,1.38c0,.42,0,.79,0,1.08l1.6-.82.5,1-2.74,1.41-.51-1a17.58,17.58,0,0,0,.11-1.9c0-.27,0-.54,0-.83s-.05-.56-.09-.85-.09-.55-.15-.82a4.55,4.55,0,0,0-.25-.71,2.69,2.69,0,0,0-.16-.29,1.8,1.8,0,0,0-.18-.25.58.58,0,0,0-.21-.15.25.25,0,0,0-.22,0,.26.26,0,0,0-.13.16.57.57,0,0,0,0,.23,1.71,1.71,0,0,0,.09.3,2.41,2.41,0,0,0,.15.33l.24.49-1,.52Zm7.9.12a2.3,2.3,0,0,1,.21.85,1.14,1.14,0,0,1,0,.36,1.27,1.27,0,0,1-.12.36,1,1,0,0,1-.24.34,1.58,1.58,0,0,1-.41.29,1.46,1.46,0,0,1-.48.17,1,1,0,0,1-.43,0,1,1,0,0,1-.35-.12,1.53,1.53,0,0,1-.3-.19,2.33,2.33,0,0,1-.55-.67l-2.05-4.11a1.77,1.77,0,0,1-.15-.42,1.52,1.52,0,0,1-.06-.42,1.5,1.5,0,0,1,0-.36,1.65,1.65,0,0,1,.11-.36,1.15,1.15,0,0,1,.25-.34,1.74,1.74,0,0,1,.42-.3,1.43,1.43,0,0,1,.48-.16.94.94,0,0,1,.41,0,1.23,1.23,0,0,1,.37.12,1.53,1.53,0,0,1,.3.19,2,2,0,0,1,.29.29,2.19,2.19,0,0,1,.25.37Zm-3.07-3.59a1.53,1.53,0,0,0-.15-.23.53.53,0,0,0-.2-.13.16.16,0,0,0-.12,0,.19.19,0,0,0-.12,0,.28.28,0,0,0-.16.18.45.45,0,0,0,0,.23.78.78,0,0,0,.09.27l2.05,4.11a.72.72,0,0,0,.17.23.41.41,0,0,0,.19.13.3.3,0,0,0,.24,0,.34.34,0,0,0,.16-.18.44.44,0,0,0,0-.23,1,1,0,0,0-.09-.28Zm3.37,1.28-.42-.86a1.64,1.64,0,0,0,.43-.34.46.46,0,0,0,.11-.33.86.86,0,0,0-.12-.4l-.28-.56a3,3,0,0,0-.16-.31,1.27,1.27,0,0,0-.18-.27.52.52,0,0,0-.2-.17.24.24,0,0,0-.23,0,.22.22,0,0,0-.12.13.37.37,0,0,0,0,.23,2.92,2.92,0,0,0,.13.39c.07.16.16.36.28.59l-1,.51c-.1-.2-.2-.42-.3-.67a3.1,3.1,0,0,1-.19-.77,1.25,1.25,0,0,1,.12-.72,1.28,1.28,0,0,1,.62-.59,1.33,1.33,0,0,1,.85-.17,1.38,1.38,0,0,1,.63.27,2,2,0,0,1,.4.43,1.77,1.77,0,0,1,.18.29,4.78,4.78,0,0,1,.47,1.26,1.62,1.62,0,0,1,0,.83v0a1.54,1.54,0,0,1,.88.56,5.25,5.25,0,0,1,.66,1.05,1.23,1.23,0,0,1,.09.21,2.09,2.09,0,0,1,.13.38,3.69,3.69,0,0,1,.1.5,2,2,0,0,1,0,.54,1.42,1.42,0,0,1-.21.51,1.15,1.15,0,0,1-.48.4,1.38,1.38,0,0,1-.85.16,1.35,1.35,0,0,1-.67-.32,2.66,2.66,0,0,1-.5-.6c-.14-.23-.26-.44-.36-.64l1-.51c.12.23.22.42.31.56a1.4,1.4,0,0,0,.25.33.39.39,0,0,0,.2.14.23.23,0,0,0,.18,0,.27.27,0,0,0,.14-.18.46.46,0,0,0,0-.26,1.21,1.21,0,0,0-.11-.3,2.92,2.92,0,0,0-.14-.31c-.11-.22-.21-.42-.29-.6a1.72,1.72,0,0,0-.28-.41.67.67,0,0,0-.36-.17l-.25,0a1.39,1.39,0,0,0-.31.1Zm1.14-3.59a3,3,0,0,1-.15-.39,1.89,1.89,0,0,1-.09-.6,1.28,1.28,0,0,1,.17-.64,1.5,1.5,0,0,1,.64-.56,1.43,1.43,0,0,1,.81-.18,1.17,1.17,0,0,1,.62.23,1.67,1.67,0,0,1,.42.42,2,2,0,0,1,.22.36l2,4a2.91,2.91,0,0,1,.2.49,1.8,1.8,0,0,1,.11.62,1.28,1.28,0,0,1-.16.65,1.48,1.48,0,0,1-.65.57,1.44,1.44,0,0,1-.83.19,1.19,1.19,0,0,1-.62-.25,1.66,1.66,0,0,1-.43-.45,3.88,3.88,0,0,1-.26-.46l-.22-.44,1-.52.3.58a2.76,2.76,0,0,0,.22.35.33.33,0,0,0,.19.14.25.25,0,0,0,.2,0,.29.29,0,0,0,.16-.31,2.17,2.17,0,0,0-.24-.61l-.65-1.3a1.64,1.64,0,0,1-.19.25,1,1,0,0,1-.23.18,1.29,1.29,0,0,1-.71.14,1.26,1.26,0,0,1-.54-.24,1.88,1.88,0,0,1-.38-.42,2.55,2.55,0,0,1-.23-.38Zm1.48-1.14a.41.41,0,0,0-.16-.16.34.34,0,0,0-.31,0,.33.33,0,0,0-.17.25.47.47,0,0,0,0,.22l1,2a.43.43,0,0,0,.17.15.32.32,0,0,0,.3,0,.37.37,0,0,0,.18-.22.42.42,0,0,0,0-.23Z" transform="translate(-332.14 -236.34)"/><polygon class="cls-6" points="59.88 28.95 53.33 15.88 46.57 13.64 8.99 32.96 6.78 39.8 13.32 52.88 59.88 28.95 59.88 28.95"/><path class="cls-5" d="M351.59,279.47,349.14,272l1.23-.63,4.53,6.43-1,.51-.9-1.33-1,.5.53,1.52-1,.51Zm-.65-5.59-.11-.16-.06,0,.06.2.81,2.35.7-.36-1.4-2.05Zm4.43,3.64-3.49-7,.8-.41a3.37,3.37,0,0,1,1.19-.41,1.22,1.22,0,0,1,.88.25,3.56,3.56,0,0,1,.79.94c.26.44.56,1,.9,1.68s.61,1.25.8,1.72a3.42,3.42,0,0,1,.28,1.19,1.28,1.28,0,0,1-.33.87,3.12,3.12,0,0,1-1,.73Zm.5-1.54a1.27,1.27,0,0,0,.39-.28.55.55,0,0,0,.07-.44q0-.13-.09-.33c-.05-.13-.11-.28-.19-.45-.16-.34-.38-.79-.66-1.36s-.51-1-.69-1.34c-.08-.16-.17-.29-.24-.41l-.22-.28a.52.52,0,0,0-.39-.19,1.15,1.15,0,0,0-.44.15Zm4.69-1.13-2.84-4.05-.18-.27-.06,0,2.34,4.67-.93.49-3.5-7,1.24-.63,2.2,2.87.23.35h0l-.14-.39-1-3.5,1.24-.63,3.49,7-.94.48-2.34-4.67-.06,0,.11.32,1.55,4.71-.43.22Zm-.48-8.51,1-.52,3.49,7-1,.52-3.49-7Zm2.12.23-.53-1.05,2.92-1.51.53,1.06-1,.49,3,5.92-1,.52-3-5.92-.95.49Zm9.91.54a2,2,0,0,1,.21.85,1.45,1.45,0,0,1,0,.36,1.69,1.69,0,0,1-.12.36,1.33,1.33,0,0,1-.25.35,1.73,1.73,0,0,1-.41.29,2.14,2.14,0,0,1-.48.17,1.24,1.24,0,0,1-.43,0,1.42,1.42,0,0,1-.35-.11,1.24,1.24,0,0,1-.29-.2,1.94,1.94,0,0,1-.55-.67l-2.06-4.11a3.52,3.52,0,0,1-.15-.42,3.12,3.12,0,0,1-.06-.41,2.17,2.17,0,0,1,0-.36,1.23,1.23,0,0,1,.12-.37,1.1,1.1,0,0,1,.25-.34,1.89,1.89,0,0,1,.41-.3,1.69,1.69,0,0,1,.48-.16,1.18,1.18,0,0,1,.42,0,1.09,1.09,0,0,1,.36.12,1.53,1.53,0,0,1,.3.19,1.7,1.7,0,0,1,.3.3,2.65,2.65,0,0,1,.25.37ZM369,263.53a.66.66,0,0,0-.15-.23.62.62,0,0,0-.19-.14.25.25,0,0,0-.12,0,.33.33,0,0,0-.13,0,.34.34,0,0,0-.16.18.6.6,0,0,0,0,.23.72.72,0,0,0,.09.27l2.06,4.11a.91.91,0,0,0,.16.24.51.51,0,0,0,.2.12.27.27,0,0,0,.23,0,.36.36,0,0,0,.17-.18.45.45,0,0,0,0-.23.75.75,0,0,0-.09-.28Zm3.53.58-.25-.28-.05,0,2,4-.93.47-3.49-7,.9-.46,2.8,3.13.25.28.05,0-2-4,.93-.47,3.49,7-.9.46-2.8-3.13Zm.77-4.59,2.31-1.19.53,1.05-1.3.67.92,1.83.93-.48.56,1.12-.93.48,1,1.92,1.3-.67.52,1.05-2.31,1.19-3.49-7Z" transform="translate(-332.14 -236.34)"/><polygon class="cls-5" points="48.99 21.3 49.88 21.98 50.94 21.61 50.58 22.68 51.24 23.59 50.13 23.57 49.48 24.49 49.15 23.41 48.09 23.07 49 22.43 48.99 21.3 48.99 21.3"/><polygon class="cls-5" points="13.66 39.45 14.55 40.13 15.61 39.77 15.25 40.84 15.91 41.75 14.8 41.73 14.16 42.65 13.83 41.57 12.76 41.23 13.68 40.58 13.66 39.45 13.66 39.45"/><polygon class="cls-6" points="94.86 112.94 95.75 113.62 96.81 113.26 96.45 114.33 97.11 115.23 96 115.22 95.36 116.14 95.03 115.06 93.96 114.72 94.87 114.07 94.86 112.94 94.86 112.94"/><polygon class="cls-6" points="59.53 131.1 60.43 131.78 61.49 131.41 61.13 132.49 61.79 133.39 60.68 133.38 60.03 134.3 59.7 133.22 58.64 132.88 59.55 132.23 59.53 131.1 59.53 131.1"/><polygon class="cls-6" points="12.78 51.8 59.33 27.86 60.42 30.04 13.87 53.97 12.78 51.8 12.78 51.8"/><path class="cls-7" d="M438.47,374.23a1.8,1.8,0,0,1,.08.21,1.46,1.46,0,0,1,.05.2,1.64,1.64,0,0,1,0,.22.81.81,0,0,1,0,.22l2,.13.21-.19,3.46-3.08.63-.57c.22-.19.43-.37.64-.57l1.29-1.14,3-2.68L451,349.59l-.72,0a.74.74,0,0,1-.68-.78.73.73,0,0,1,.77-.68l.73.05,6.34-99.32-2.64-3.05h0l-.48-.55-.47-.54-1.29-1.49-3-3.51-.1-.11-.09-.11-2-.13a.78.78,0,0,1,0,.22.65.65,0,0,1-.05.2,1.59,1.59,0,0,1-.07.2l-.11.2a1.73,1.73,0,0,1-1.61.84,1.77,1.77,0,0,1-1.61-1.38,2.51,2.51,0,0,1,0-.27,1.92,1.92,0,0,1,0-.24l-2.15-.15a1.36,1.36,0,0,1,0,.21,1.63,1.63,0,0,1-.15.44,1,1,0,0,1-.07.15,1.8,1.8,0,0,1-1.64.87,1.76,1.76,0,0,1-1.59-1.33,1,1,0,0,1,0-.3,1.22,1.22,0,0,1,0-.27l-2.14-.14a1.5,1.5,0,0,1,0,.2.77.77,0,0,1-.05.19,1.07,1.07,0,0,1-.07.19,1.54,1.54,0,0,1-.08.19,1.8,1.8,0,0,1-1.66.9,1.77,1.77,0,0,1-1.58-1.28,1,1,0,0,1,0-.17l0-.15s0-.1,0-.15v-.15l-2.13-.15a1.46,1.46,0,0,1,0,.22.94.94,0,0,1,0,.16.64.64,0,0,1-.06.18,1.3,1.3,0,0,1-.08.17h0a1.76,1.76,0,0,1-3.24-.3,1.09,1.09,0,0,1-.05-.17,2,2,0,0,1,0-.49l-2.14-.14a2,2,0,0,1-.18.68,1.76,1.76,0,0,1-3.25-.21,1.83,1.83,0,0,1-.1-.7l-2.14-.15a1.79,1.79,0,0,1-.17.65h0a1.75,1.75,0,0,1-3.25-.15h0a2,2,0,0,1-.09-.35,1.6,1.6,0,0,1,0-.38l-2.15-.14a1.1,1.1,0,0,0,0,.18l0,.13a1.42,1.42,0,0,1-.1.29,1.75,1.75,0,0,1-3.25-.06.6.6,0,0,1-.06-.19,1.91,1.91,0,0,1-.06-.33V237a.43.43,0,0,1,0-.16l-2.15-.14a1,1,0,0,1,0,.17s0,.07,0,.11a1.4,1.4,0,0,1-.09.29,1.76,1.76,0,0,1-3.26,0,.85.85,0,0,1-.09-.31,1.45,1.45,0,0,1-.05-.3v-.21l-2-.12-.22.19h0c-1.3,1.15-2.4,2.14-3.46,3.07h0l-.48.43-.47.42c-.32.29-.63.57-1,.85l-.65.58h0l-3,2.68-6.34,99.32.72.05a.73.73,0,0,1-.1,1.46l-.72,0-1.11,17.39,4.89,5.64,3,3.51.19.22,2,.13a1.65,1.65,0,0,1,0-.21.83.83,0,0,1,0-.15,2.26,2.26,0,0,1,.17-.43,1.76,1.76,0,0,1,3.24.45,2.5,2.5,0,0,1,.05.29.45.45,0,0,0,0,.11v.18l2.14.14a1.59,1.59,0,0,1,.11-.5.5.5,0,0,1,.05-.13l.06-.12h0a1.75,1.75,0,0,1,3.24.36h0a1,1,0,0,1,.05.3s0,.08,0,.12a1.15,1.15,0,0,1,0,.19l2.15.14a2.2,2.2,0,0,1,.06-.37,1.73,1.73,0,0,1,.14-.34,1.76,1.76,0,0,1,1.68-1,1.79,1.79,0,0,1,1.57,1.24.75.75,0,0,1,0,.16.65.65,0,0,1,0,.16,1.37,1.37,0,0,1,0,.35l2.14.14a1.72,1.72,0,0,1,.19-.69,1.76,1.76,0,0,1,3.25.21,1.68,1.68,0,0,1,.09.71l2.15.14a2,2,0,0,1,.1-.49l.06-.16a1.76,1.76,0,0,1,3.26.13h0a.85.85,0,0,1,.06.17,1.13,1.13,0,0,1,0,.18,1.59,1.59,0,0,1,0,.38l2.13.14a.77.77,0,0,0,0-.15l0-.15a1,1,0,0,1,0-.16.58.58,0,0,1,.05-.14,1.77,1.77,0,0,1,1.74-1.07,1.73,1.73,0,0,1,1.52,1.11,1.07,1.07,0,0,1,.07.19c0,.07,0,.13,0,.2a1.36,1.36,0,0,1,0,.2v.2l2.13.14a1.17,1.17,0,0,1,0-.27.83.83,0,0,1,.08-.28,1.76,1.76,0,0,1,3.27,0,1.72,1.72,0,0,1,.07.21,1.67,1.67,0,0,1,.07.4v.22l2.14.14a1.87,1.87,0,0,1,0-.25,1.11,1.11,0,0,1,.07-.26,1.76,1.76,0,0,1,3.27-.11Zm-47.9-28.6a.73.73,0,0,1,.1-1.46l1.49.09a.74.74,0,0,1,.68.78.73.73,0,0,1-.77.69l-1.5-.1Zm56.3,2.22a.73.73,0,0,1-.1,1.46l-1.49-.09a.74.74,0,0,1,.1-1.47l1.49.1Zm-16.51.39a.74.74,0,0,1,.1-1.47l1.49.1a.73.73,0,0,1,.67.78.72.72,0,0,1-.77.68l-1.49-.09Zm-5-.33a.73.73,0,0,1-.68-.78.72.72,0,0,1,.77-.68l1.5.1a.73.73,0,0,1-.1,1.46l-1.49-.1Zm-5-.33a.7.7,0,0,1-.52-.28.71.71,0,0,1-.15-.5.73.73,0,0,1,.21-.47.74.74,0,0,1,.56-.21l1.49.1a.73.73,0,0,1-.1,1.46l-1.49-.1Zm-3.48-.22-1.49-.1a.73.73,0,0,1-.67-.78.71.71,0,0,1,.77-.68l1.49.1a.68.68,0,0,1,.52.28.72.72,0,0,1,.16.5.8.8,0,0,1-.22.47.74.74,0,0,1-.56.21Zm-6.46-.43a.73.73,0,0,1,.1-1.46l1.49.1A.73.73,0,0,1,412,347l-1.49-.1Zm-5-.32a.74.74,0,0,1-.67-.79.73.73,0,0,1,.77-.68l1.49.1a.72.72,0,0,1,.67.78.71.71,0,0,1-.77.68l-1.49-.09Zm-5-.33a.73.73,0,0,1-.67-.77.74.74,0,0,1,.76-.69l1.5.1a.73.73,0,0,1-.09,1.46l-1.5-.1Zm-3.47-.23-1.49-.1a.7.7,0,0,1-.66-.6l0-.35a.71.71,0,0,1,.73-.51l1.5.1a.46.46,0,0,1,.21.05.72.72,0,0,1,.46.73.72.72,0,0,1-.55.66.53.53,0,0,1-.22,0Zm38.3,2.51a.73.73,0,0,1,.09-1.46l1.51.1a.73.73,0,0,1-.09,1.46l-1.51-.1Zm4.29-.45a.72.72,0,0,1,.55-.66.53.53,0,0,1,.22,0l1.49.09a.7.7,0,0,1,.66.61.5.5,0,0,1,0,.17,1.16,1.16,0,0,1,0,.18.71.71,0,0,1-.73.51l-1.49-.1a.55.55,0,0,1-.22-.06.7.7,0,0,1-.46-.72Z" transform="translate(-332.14 -236.34)"/><path class="cls-6" d="M441.3,367.77l3.65-3.25,1-15.26-.64,0a.74.74,0,0,1,.1-1.47l.64,0,6.21-97.19L449,246.9l-2.15-2.48-43.05-2.82L397.73,247l-6.21,97.2.64,0a.72.72,0,0,1,.67.78.71.71,0,0,1-.77.68l-.64,0-1,15.27,5.35,6.18L438.85,370l2.45-2.18Zm-3.29-.32L397,364.75l-4-4.65,7.14-111.91,1.09-1,2.56-2.28,1-.84,41.06,2.69,3.08,3.55.95,1.1-7.14,111.91L439,366.61l-.95.84Z" transform="translate(-332.14 -236.34)"/><path class="cls-6" d="M423.06,278.78,442.12,283l-.22,3.5-19.44,1.68.18-2.78,4-.28.18-2.75-3.9-.79.18-2.79Zm12.68,5.71.5-.05v-.16l-.49-.11-6-1.22-.13,2,6.13-.42ZM422.22,292l19.25,1.26-.15,2.26a8.58,8.58,0,0,1-.64,3.1,3.16,3.16,0,0,1-1.66,1.62,8,8,0,0,1-3,.51c-1.26,0-2.82,0-4.7-.16s-3.43-.26-4.66-.45a8.27,8.27,0,0,1-2.9-.9,3.23,3.23,0,0,1-1.44-1.82,8.39,8.39,0,0,1-.24-3.16Zm2.65,3.05a2.75,2.75,0,0,0,.09,1.19,1.31,1.31,0,0,0,.84.71,5.52,5.52,0,0,0,.83.23c.34.07.73.12,1.19.17q1.37.12,3.72.27c1.57.11,2.81.18,3.72.22a11,11,0,0,0,1.18,0,6,6,0,0,0,.88-.11,1.34,1.34,0,0,0,.9-.6,3,3,0,0,0,.24-1.17Zm-3.75,14.1,12.22-1.05.82-.05v-.16L421.26,307l.17-2.65,19.25,1.26-.23,3.5-8.91,1.14-1,.06v.06l1,.19,8.7,2.27-.23,3.5-19.25-1.26.17-2.66,12.91.85v-.16l-.8-.16-12-2.61.07-1.22Zm18.57,12-.18,2.87-19.25-1.27.18-2.86,19.25,1.26Zm-3.32,6.32,2.9.2-.53,8.27-2.9-.19L436,333l-16.34-1.08.18-2.86,16.34,1.07.18-2.71Z" transform="translate(-332.14 -236.34)"/><path class="cls-6" d="M405.23,297.58a5.12,5.12,0,0,1-2.07-.61,3.77,3.77,0,0,1-1.34-1.23,3,3,0,0,1-.42-1,4.25,4.25,0,0,1-.09-1.27,4.2,4.2,0,0,1,.25-1.26,2.87,2.87,0,0,1,.54-.92,3.73,3.73,0,0,1,.7-.63,4.51,4.51,0,0,1,.79-.4,5.33,5.33,0,0,1,2.13-.34l11.34.75a6.08,6.08,0,0,1,1.08.21,4.75,4.75,0,0,1,.95.4,4,4,0,0,1,.74.5,3.08,3.08,0,0,1,.63.71,3.44,3.44,0,0,1,.42,1,4.69,4.69,0,0,1,.1,1.28,4.12,4.12,0,0,1-.27,1.25,3.11,3.11,0,0,1-.53.91,3.88,3.88,0,0,1-.71.64,4.33,4.33,0,0,1-.8.41,5.45,5.45,0,0,1-1,.27,5.65,5.65,0,0,1-1.1.07Zm11.52-2.12a2.18,2.18,0,0,0,.69,0,1.56,1.56,0,0,0,.54-.25.61.61,0,0,0,.17-.24,1.14,1.14,0,0,0,.08-.33A.85.85,0,0,0,418,294a1.18,1.18,0,0,0-.47-.3,2.12,2.12,0,0,0-.7-.16l-11.34-.74a2.17,2.17,0,0,0-.7.05,1.56,1.56,0,0,0-.53.27.76.76,0,0,0-.24.54.79.79,0,0,0,.17.59,1.08,1.08,0,0,0,.48.31,2.09,2.09,0,0,0,.7.15Zm-5.93,10,.91-.18v-.16l-10.92-.72.17-2.63,19.24,1.27-.16,2.55-10.21,2.12-.9.18v.16l10.92.72-.17,2.62-19.25-1.26.16-2.55,10.21-2.12Zm8.57,10.85L419,322.9l-2.91-.19.24-3.69-5.06-.33-.17,2.65-3.09-.2.17-2.65-5.29-.35-.23,3.69-2.91-.19.42-6.55,19.25,1.26Z" transform="translate(-332.14 -236.34)"/><path class="cls-6" d="M403.89,359.56l1.66-7.72,1.38.09.67,7.88-1.1-.08-.11-1.6-1.09-.07-.31,1.58-1.1-.08Zm2.25-5.14,0-.2h-.06l0,.2-.48,2.44.77.05-.17-2.49Z" transform="translate(-332.14 -236.34)"/><path class="cls-6" d="M412.92,358.55a2.12,2.12,0,0,1-.24.83,1.48,1.48,0,0,1-.21.3,1.72,1.72,0,0,1-.28.25,1.39,1.39,0,0,1-.39.17,1.58,1.58,0,0,1-.5,0,1.42,1.42,0,0,1-.49-.1,1,1,0,0,1-.37-.22,1.62,1.62,0,0,1-.25-.28,1.87,1.87,0,0,1-.15-.32,2.13,2.13,0,0,1-.14-.86l.3-4.6a2.14,2.14,0,0,1,.08-.44,1.45,1.45,0,0,1,.16-.38,1.49,1.49,0,0,1,.2-.31,1.14,1.14,0,0,1,.28-.25,1.39,1.39,0,0,1,.39-.17,1.56,1.56,0,0,1,.5,0,1.69,1.69,0,0,1,.49.11,1.22,1.22,0,0,1,.36.21,1.75,1.75,0,0,1,.26.29,2.49,2.49,0,0,1,.16.33,2.34,2.34,0,0,1,.11.4,2.23,2.23,0,0,1,0,.45Zm-.84-4.67a.82.82,0,0,0,0-.28.54.54,0,0,0-.09-.22l-.1-.07a.28.28,0,0,0-.13,0,.29.29,0,0,0-.23.07.44.44,0,0,0-.12.19.65.65,0,0,0-.06.29l-.3,4.59a.86.86,0,0,0,0,.29.51.51,0,0,0,.1.21.3.3,0,0,0,.21.1.36.36,0,0,0,.24-.07.52.52,0,0,0,.12-.19,1.05,1.05,0,0,0,.06-.29Zm1.38.17.05-.73a1.58,1.58,0,0,0,.59-.2,2.17,2.17,0,0,0,.4-.29,1.39,1.39,0,0,0,.15-.19,1.37,1.37,0,0,0,.13-.2l.68.05-.5,7.8-1.13-.08.39-6.11-.76-.05Zm2.76,1,0-.54a3.67,3.67,0,0,1,.11-.75,2,2,0,0,1,.27-.63,1.19,1.19,0,0,1,.49-.42,1.49,1.49,0,0,1,.76-.12,1.65,1.65,0,0,1,.72.2,1.24,1.24,0,0,1,.44.44,1.85,1.85,0,0,1,.2.64,3.16,3.16,0,0,1,0,.76,5.11,5.11,0,0,1-.28,1.27,9.85,9.85,0,0,1-.55,1.31,13.18,13.18,0,0,1-.67,1.2c-.22.37-.41.67-.58.92l1.79.11-.07,1.14-3.07-.2.07-1.14c.38-.52.73-1,1.05-1.58.14-.23.27-.47.4-.72s.24-.51.35-.78.2-.53.27-.78a3.56,3.56,0,0,0,.15-.75c0-.11,0-.22,0-.33a1.55,1.55,0,0,0,0-.31.54.54,0,0,0-.1-.23.29.29,0,0,0-.2-.11.26.26,0,0,0-.19.07.58.58,0,0,0-.13.2,2.21,2.21,0,0,0-.07.3c0,.12,0,.24,0,.36l0,.54-1.13-.07ZM423,359.2a2.17,2.17,0,0,1-.24.84,2.61,2.61,0,0,1-.2.3,1.68,1.68,0,0,1-.29.24,1.21,1.21,0,0,1-.38.18,1.67,1.67,0,0,1-.51,0,1.47,1.47,0,0,1-.49-.1,1,1,0,0,1-.37-.22,1.62,1.62,0,0,1-.25-.28,2.3,2.3,0,0,1-.15-.32,2.16,2.16,0,0,1-.14-.86l.3-4.6a2.14,2.14,0,0,1,.08-.44,1.68,1.68,0,0,1,.16-.39,1.74,1.74,0,0,1,.2-.3A1.14,1.14,0,0,1,421,353a1.39,1.39,0,0,1,.39-.17,1.59,1.59,0,0,1,.5,0,1.53,1.53,0,0,1,.5.11,1.09,1.09,0,0,1,.35.21,1.75,1.75,0,0,1,.26.29,2.49,2.49,0,0,1,.16.33,2.34,2.34,0,0,1,.11.4,2.2,2.2,0,0,1,0,.45Zm-.84-4.67a1.17,1.17,0,0,0,0-.27.74.74,0,0,0-.1-.22.23.23,0,0,0-.1-.07.28.28,0,0,0-.13,0,.29.29,0,0,0-.23.07.44.44,0,0,0-.12.19.64.64,0,0,0-.06.28l-.3,4.6a.86.86,0,0,0,0,.29.51.51,0,0,0,.1.21.3.3,0,0,0,.21.1.36.36,0,0,0,.24-.07.56.56,0,0,0,.12-.2.9.9,0,0,0,.06-.28Zm2.27,2.84.06-1a1.57,1.57,0,0,0,.54-.07.42.42,0,0,0,.26-.23.9.9,0,0,0,.1-.4l0-.63c0-.11,0-.23,0-.34a1.72,1.72,0,0,0,0-.33.44.44,0,0,0-.09-.25.22.22,0,0,0-.2-.11.25.25,0,0,0-.17,0,.51.51,0,0,0-.11.21,2.47,2.47,0,0,0-.08.41c0,.17,0,.38-.06.64l-1.11-.07c0-.22,0-.47.08-.74a2.88,2.88,0,0,1,.22-.76,1.33,1.33,0,0,1,.46-.56,1.35,1.35,0,0,1,.84-.18,1.42,1.42,0,0,1,.81.29,1.38,1.38,0,0,1,.41.56,2.27,2.27,0,0,1,.13.58c0,.17,0,.29,0,.34a5.19,5.19,0,0,1-.23,1.32,1.74,1.74,0,0,1-.45.71h0a1.6,1.6,0,0,1,.47.93,5.11,5.11,0,0,1,0,1.25s0,.11,0,.22a4,4,0,0,1-.08.4,4.59,4.59,0,0,1-.17.48,2,2,0,0,1-.28.46,1.27,1.27,0,0,1-.43.33,1.33,1.33,0,0,1-.62.1,1.36,1.36,0,0,1-.81-.3,1.33,1.33,0,0,1-.41-.63,2.76,2.76,0,0,1-.14-.77c0-.27,0-.51,0-.74l1.11.08c0,.25,0,.47,0,.64a2.09,2.09,0,0,0,0,.41.49.49,0,0,0,.11.23.24.24,0,0,0,.17.07.26.26,0,0,0,.21-.08.62.62,0,0,0,.12-.23,1.52,1.52,0,0,0,.06-.32l0-.34c0-.24,0-.46.05-.66a1.47,1.47,0,0,0,0-.49.6.6,0,0,0-.22-.34,1,1,0,0,0-.23-.11,1.4,1.4,0,0,0-.32-.06Zm2.78-2.5a2.08,2.08,0,0,1,.06-.42,2,2,0,0,1,.22-.56,1.38,1.38,0,0,1,.47-.46,1.58,1.58,0,0,1,.83-.16,1.49,1.49,0,0,1,.8.27,1.38,1.38,0,0,1,.42.52,1.82,1.82,0,0,1,.14.58,2.06,2.06,0,0,1,0,.42l-.28,4.44c0,.14,0,.32-.06.52a1.93,1.93,0,0,1-.22.59,1.38,1.38,0,0,1-.48.48,1.56,1.56,0,0,1-.84.16,1.49,1.49,0,0,1-.81-.27,1.34,1.34,0,0,1-.41-.54,1.87,1.87,0,0,1-.14-.61,3,3,0,0,1,0-.53l0-.49,1.13.08c0,.26,0,.47,0,.65a2.55,2.55,0,0,0,0,.41.45.45,0,0,0,.09.22.28.28,0,0,0,.19.08.27.27,0,0,0,.29-.19,2.34,2.34,0,0,0,.11-.64l.09-1.46-.29.12a.7.7,0,0,1-.29,0,1.1,1.1,0,0,1-.67-.24,1.11,1.11,0,0,1-.35-.49,1.81,1.81,0,0,1-.12-.55,2.35,2.35,0,0,1,0-.45Zm1.84-.23a.34.34,0,0,0-.06-.21.31.31,0,0,0-.26-.16.32.32,0,0,0-.27.12.49.49,0,0,0-.1.21l-.14,2.26a.37.37,0,0,0,.07.22.29.29,0,0,0,.25.15.33.33,0,0,0,.27-.09.42.42,0,0,0,.1-.2Z" transform="translate(-332.14 -236.34)"/><polygon class="cls-6" points="117.91 29.31 118.85 14.68 114.15 9.27 72.09 6.51 66.75 11.27 65.82 25.9 117.91 29.31 117.91 29.31"/><path class="cls-7" d="M408.13,257l1.66-7.73,1.39.09.66,7.88-1.1-.07-.11-1.61-1.09-.07-.31,1.58-1.1-.07Zm2.25-5.14v-.21h-.07l0,.2-.48,2.44.77.05-.17-2.48Zm2,5.42.5-7.81.89.06a3.32,3.32,0,0,1,1.22.26,1.31,1.31,0,0,1,.64.67,3.37,3.37,0,0,1,.2,1.22c0,.51,0,1.15-.06,1.91a18.46,18.46,0,0,1-.18,1.89,3.32,3.32,0,0,1-.35,1.17,1.25,1.25,0,0,1-.72.58,3.14,3.14,0,0,1-1.25.1Zm1.2-1.08a1.13,1.13,0,0,0,.47,0,.52.52,0,0,0,.28-.34,1.28,1.28,0,0,0,.09-.34c0-.14,0-.3.07-.48,0-.37.07-.88.11-1.51s.07-1.14.08-1.51a3.83,3.83,0,0,0,0-.48,2.43,2.43,0,0,0-.05-.35.51.51,0,0,0-.23-.37,1.16,1.16,0,0,0-.46-.1Zm4.61,1.46-.42-5,0-.33h-.06l-.33,5.23-1.05-.07.5-7.8,1.38.09.45,3.61,0,.42h0l.08-.41.9-3.52L421,250l-.5,7.8-1-.07.34-5.23h-.06l-.07.32-1,4.86-.48,0Zm3.86-7.58,1.13.07-.5,7.8-1.13-.07.5-7.8Zm1.71,1.29.07-1.18,3.27.22-.08,1.17-1.07-.07-.42,6.63-1.13-.08.42-6.62-1.06-.07ZM432,257a2.17,2.17,0,0,1-.24.84,1.74,1.74,0,0,1-.2.3,1.37,1.37,0,0,1-.29.24,1.11,1.11,0,0,1-.38.18,1.6,1.6,0,0,1-.5,0,1.48,1.48,0,0,1-.5-.1,1.09,1.09,0,0,1-.36-.22,1.29,1.29,0,0,1-.25-.28,1.59,1.59,0,0,1-.16-.32,2.16,2.16,0,0,1-.13-.86l.29-4.6a3.11,3.11,0,0,1,.08-.44,3.52,3.52,0,0,1,.16-.39,2.61,2.61,0,0,1,.2-.3,1.35,1.35,0,0,1,.28-.25,1.15,1.15,0,0,1,.39-.17,1.65,1.65,0,0,1,.51,0,1.41,1.41,0,0,1,.49.11,1.26,1.26,0,0,1,.36.21,1.84,1.84,0,0,1,.52,1,3.19,3.19,0,0,1,0,.45Zm-.83-4.67a1.14,1.14,0,0,0,0-.27.55.55,0,0,0-.1-.22.2.2,0,0,0-.09-.07.31.31,0,0,0-.13,0,.31.31,0,0,0-.24.07.76.76,0,0,0-.12.19,1.15,1.15,0,0,0-.06.28l-.29,4.6a.88.88,0,0,0,0,.29.53.53,0,0,0,.11.21.28.28,0,0,0,.21.1.32.32,0,0,0,.23-.07.37.37,0,0,0,.12-.2.55.55,0,0,0,.06-.28Zm2.74,2.33-.08-.37h-.06l-.28,4.43-1-.07.5-7.8,1,.07.83,4.13.08.37h.06l.28-4.43,1,.07-.5,7.8-1-.07-.83-4.13Zm3-3.56,2.59.17-.08,1.18-1.46-.1-.13,2,1.05.07-.08,1.25-1-.07-.13,2.15,1.45.09L439,259l-2.59-.17.5-7.8Z" transform="translate(-332.14 -236.34)"/><polygon class="cls-7" points="112.38 17.1 112.81 18.14 113.9 18.38 113.06 19.12 113.17 20.24 112.22 19.65 111.2 20.11 111.46 19.01 110.72 18.17 111.83 18.08 112.38 17.1 112.38 17.1"/><polygon class="cls-7" points="72.86 14.51 73.28 15.56 74.37 15.79 73.53 16.52 73.64 17.65 72.69 17.06 71.67 17.52 71.93 16.42 71.19 15.58 72.3 15.49 72.86 14.51 72.86 14.51"/><polygon class="cls-6" points="105.83 119.65 106.26 120.7 107.35 120.93 106.51 121.66 106.63 122.79 105.67 122.2 104.65 122.66 104.91 121.56 104.17 120.72 105.28 120.63 105.83 119.65 105.83 119.65"/><polygon class="cls-6" points="66.31 117.06 66.74 118.1 67.83 118.34 66.98 119.07 67.09 120.19 66.14 119.61 65.13 120.07 65.38 118.97 64.64 118.13 65.75 118.04 66.31 117.06 66.31 117.06"/><polygon class="cls-6" points="65.74 27.12 65.9 24.68 117.99 28.1 117.84 30.53 65.74 27.12 65.74 27.12"/><path class="cls-8" d="M436.06,392.87a1.66,1.66,0,0,1,0,.22,2.28,2.28,0,0,1-.12.4c0,.07-.07.14-.11.2l1.72,1.05.28-.07,4.47-1.13c.28-.07.55-.13.82-.21l.83-.21,1.66-.41,3.89-1,8.87-14.94-.62-.37a.74.74,0,0,1-.25-1,.73.73,0,0,1,1-.25l.62.38,50.66-85.26c-.36-1.47-.68-2.75-1-3.94h0c0-.24-.11-.48-.17-.71l-.17-.7c-.16-.64-.31-1.27-.47-1.93l-1.11-4.53,0-.14,0-.14-1.72-1.05a1.33,1.33,0,0,1-.14.19.93.93,0,0,1-.13.15,1.07,1.07,0,0,1-.16.14c-.06,0-.11.09-.18.13a1.75,1.75,0,0,1-1.82,0,1.8,1.8,0,0,1-.8-2,1.34,1.34,0,0,1,.09-.26,1.5,1.5,0,0,1,.11-.22l-1.84-1.12a1.13,1.13,0,0,1-.12.18,1.62,1.62,0,0,1-.32.32l-.14.1a1.76,1.76,0,0,1-1.85,0,1.79,1.79,0,0,1-.81-1.93,1.31,1.31,0,0,1,.09-.28,1.15,1.15,0,0,1,.12-.25l-1.84-1.12a1,1,0,0,1-.11.17l-.13.15-.14.14-.17.12a1.73,1.73,0,0,1-1.88,0,1.79,1.79,0,0,1-.82-1.87.75.75,0,0,1,0-.16s0-.1,0-.15l.06-.14c0-.05.05-.09.07-.14l-1.83-1.11-.12.17-.11.13-.13.13-.15.11h0a1.74,1.74,0,0,1-1.91.05,1.8,1.8,0,0,1-.84-1.82.85.85,0,0,1,0-.17,2,2,0,0,1,.19-.46l-1.84-1.12a1.57,1.57,0,0,1-.47.52,1.73,1.73,0,0,1-1.95.08,1.78,1.78,0,0,1-.84-1.78,1.75,1.75,0,0,1,.24-.67l-1.84-1.12a1.88,1.88,0,0,1-.44.49h0a1.75,1.75,0,0,1-2,.11,1.78,1.78,0,0,1-.85-1.75h0a2.29,2.29,0,0,1,.07-.36,2.6,2.6,0,0,1,.16-.34l-1.84-1.12-.1.15-.08.1a2.18,2.18,0,0,1-.22.21,1.76,1.76,0,0,1-2,.15,1.79,1.79,0,0,1-.85-1.72l0-.19a3,3,0,0,1,.1-.32l0-.09c0-.05.05-.09.07-.13L471,256.36l-.1.14-.07.09a1,1,0,0,1-.21.21,1.74,1.74,0,0,1-2.05.16,1.8,1.8,0,0,1-.85-1.67,1.12,1.12,0,0,1,.05-.31,1.66,1.66,0,0,1,.1-.29.76.76,0,0,1,.09-.18l-1.73-1.06-.27.07h0l-4.46,1.12h0l-.62.15-.62.15-1.23.31-.84.22h0l-3.89,1-50.65,85.26.62.38a.74.74,0,0,1,.24,1,.72.72,0,0,1-1,.25l-.62-.38L394,357.91l1.78,7.29c.34,1.38.7,2.82,1.12,4.53l.07.28,1.73,1.06a.94.94,0,0,1,.12-.18l.1-.12a1.64,1.64,0,0,1,.35-.29,1.76,1.76,0,0,1,1.86,0,1.81,1.81,0,0,1,.81,1.92,1.29,1.29,0,0,1-.08.28s0,.07-.05.1a.6.6,0,0,1-.08.16l1.84,1.12a1.44,1.44,0,0,1,.33-.4.39.39,0,0,1,.1-.08.39.39,0,0,1,.1-.08h0a1.73,1.73,0,0,1,1.89,0,1.78,1.78,0,0,1,.82,1.88h0a1.11,1.11,0,0,1-.08.3s0,.08,0,.11l-.09.17,1.84,1.12a2.32,2.32,0,0,1,.22-.3,2.09,2.09,0,0,1,.28-.24,1.76,1.76,0,0,1,1.93-.07,1.83,1.83,0,0,1,.83,1.83.75.75,0,0,1,0,.16,1.42,1.42,0,0,1-.05.16,1.73,1.73,0,0,1-.14.31l1.84,1.12a1.71,1.71,0,0,1,.47-.53,1.73,1.73,0,0,1,2-.08,1.8,1.8,0,0,1,.6,2.46l1.84,1.12a1.76,1.76,0,0,1,.32-.39.65.65,0,0,1,.12-.11,1.75,1.75,0,0,1,2-.11,1.78,1.78,0,0,1,.85,1.74h0a1.13,1.13,0,0,1,0,.18,1.21,1.21,0,0,1-.05.18,1.58,1.58,0,0,1-.16.35l1.83,1.12.09-.13.09-.12.11-.12.12-.1a1.76,1.76,0,0,1,2-.14,1.79,1.79,0,0,1,.85,1.7,1.38,1.38,0,0,1,0,.2c0,.06,0,.13-.05.19a1.07,1.07,0,0,1-.07.19l-.09.18,1.83,1.12a1.86,1.86,0,0,1,.36-.44,1.76,1.76,0,0,1,2.07-.17,1.82,1.82,0,0,1,.85,1.66,1.66,1.66,0,0,1,0,.22,1.46,1.46,0,0,1-.12.39l-.1.19,1.84,1.12a1.43,1.43,0,0,1,.14-.2,1.81,1.81,0,0,1,.18-.21,1.77,1.77,0,0,1,3,1.42Zm-29.58-47.71a.73.73,0,0,1-.24-1,.71.71,0,0,1,1-.25l1.28.78a.74.74,0,0,1,.25,1,.72.72,0,0,1-1,.24l-1.28-.78Zm49,28.19a.73.73,0,0,1,.24,1,.71.71,0,0,1-1,.25l-1.28-.78a.74.74,0,0,1-.25-1,.72.72,0,0,1,1-.24l1.28.78ZM440.64,366a.74.74,0,0,1-.24-1,.72.72,0,0,1,1-.25l1.28.78a.74.74,0,0,1,.25,1,.72.72,0,0,1-1,.25l-1.28-.78Zm-4.27-2.61a.73.73,0,0,1-.25-1,.72.72,0,0,1,1-.25l1.28.78a.73.73,0,0,1,.24,1,.7.7,0,0,1-1,.25l-1.28-.78Zm-4.27-2.6a.79.79,0,0,1-.34-.5.77.77,0,0,1,.09-.51.72.72,0,0,1,1-.25l1.28.78a.73.73,0,0,1,.25,1,.72.72,0,0,1-1,.25l-1.28-.78Zm-3-1.83-1.28-.78a.73.73,0,0,1-.25-1,.72.72,0,0,1,1-.25l1.28.78a.73.73,0,0,1,.34.5.78.78,0,0,1-.09.51.71.71,0,0,1-.4.31.74.74,0,0,1-.6-.07Zm-5.55-3.38a.74.74,0,0,1-.25-1,.72.72,0,0,1,1-.25l1.28.78a.74.74,0,0,1,.24,1,.72.72,0,0,1-1,.25l-1.28-.78ZM419.29,353a.74.74,0,0,1-.24-1,.72.72,0,0,1,1-.24l1.28.78a.73.73,0,0,1,.24,1,.71.71,0,0,1-1,.25l-1.28-.78ZM415,350.37a.74.74,0,0,1-.24-1,.72.72,0,0,1,1-.26l1.3.79a.74.74,0,0,1,.24,1,.71.71,0,0,1-1,.25l-1.29-.79Zm-3-1.81-1.28-.78a.74.74,0,0,1-.31-.85l.18-.3a.7.7,0,0,1,.88-.11l1.28.78a.61.61,0,0,1,.17.15.74.74,0,0,1,.08.86.71.71,0,0,1-.79.33.9.9,0,0,1-.21-.08Zm32.88,20.05a.74.74,0,0,1-.25-1,.72.72,0,0,1,1-.24l1.29.79a.74.74,0,0,1,.24,1,.72.72,0,0,1-1,.26l-1.3-.79Zm4,1.6a.71.71,0,0,1,.79-.33.5.5,0,0,1,.2.08l1.28.78a.73.73,0,0,1,.32.85.46.46,0,0,1-.07.16.76.76,0,0,1-.11.14.7.7,0,0,1-.88.11l-1.29-.78a.57.57,0,0,1-.16-.15.72.72,0,0,1-.08-.86Z" transform="translate(-332.14 -236.34)"/><path class="cls-6" d="M441.5,388.45l4.71-1.18L454,374.16l-.55-.34a.74.74,0,0,1-.24-1,.71.71,0,0,1,1-.24l.55.33,49.58-83.44-1.17-4.78-.78-3.2-37-22.55-7.87,2L408,344.36l.55.33a.74.74,0,0,1,.25,1,.72.72,0,0,1-1,.25l-.55-.34-7.79,13.11,2,8,37,22.55,3.16-.8Zm-2.77-1.82-35.25-21.5-1.48-6L459.09,263l1.4-.35,3.31-.84,1.22-.3,35.25,21.5,1.12,4.59.35,1.42-57.08,96.08L440,386.33l-1.22.3Z" transform="translate(-332.14 -236.34)"/><path class="cls-6" d="M465.64,300.91l15,12.62-1.78,3-18-7.55,1.42-2.39,3.65,1.6,1.4-2.37-3.1-2.51,1.42-2.4Zm8.68,11,.47.19.08-.14-.39-.33-4.8-3.88-1,1.68,5.64,2.48Zm-15.39.33,16.52,10.08-1.15,1.94a8.51,8.51,0,0,1-2,2.46,3.15,3.15,0,0,1-2.21.66,8.35,8.35,0,0,1-2.89-.94q-1.7-.84-4.1-2.33c-1.62-1-2.93-1.83-3.94-2.58a8.3,8.3,0,0,1-2.17-2.14,3.28,3.28,0,0,1-.45-2.29,8.55,8.55,0,0,1,1.21-2.92Zm1,3.94a2.78,2.78,0,0,0-.45,1.1,1.32,1.32,0,0,0,.42,1,4.83,4.83,0,0,0,.64.59,9.35,9.35,0,0,0,1,.71c.77.5,1.83,1.15,3.17,2s2.42,1.47,3.21,1.92a9.71,9.71,0,0,0,1.06.54,6.92,6.92,0,0,0,.83.31,1.26,1.26,0,0,0,1.07-.12,2.8,2.8,0,0,0,.74-.92Zm-9.71,10.78,11.33,4.76.75.33.08-.13-11.09-6.77,1.36-2.28,16.52,10.09-1.79,3-8.42-3.15-.95-.42,0,.05.81.65,6.69,6.06-1.79,3-16.52-10.08,1.35-2.28,11.09,6.76.08-.13-.65-.52-9.45-7.9.62-1.05Zm11.05,19.29-1.46,2.46L443.25,338.6l1.46-2.45,16.52,10.08Zm-5.81,4.07,2.49,1.52-4.22,7.11-2.5-1.53,1.39-2.32-14-8.56,1.46-2.46,14,8.56,1.38-2.32Z" transform="translate(-332.14 -236.34)"/><path class="cls-6" d="M441.28,309.31a5.1,5.1,0,0,1-1.56-1.5,4,4,0,0,1-.41-.8,3.75,3.75,0,0,1-.22-.92,2.81,2.81,0,0,1,.07-1.07,4.07,4.07,0,0,1,.49-1.17,4.39,4.39,0,0,1,.8-1,2.73,2.73,0,0,1,.9-.57,3.38,3.38,0,0,1,.9-.22,3.69,3.69,0,0,1,.88,0,5.07,5.07,0,0,1,2,.68l9.74,5.94a6.82,6.82,0,0,1,.87.7,4.13,4.13,0,0,1,.66.8,4,4,0,0,1,.43.79,3.08,3.08,0,0,1,.16,2,4.48,4.48,0,0,1-.49,1.19,4.25,4.25,0,0,1-.8,1,3.07,3.07,0,0,1-.89.56,3,3,0,0,1-.92.23,3.87,3.87,0,0,1-.9,0,5.39,5.39,0,0,1-1-.22,6.45,6.45,0,0,1-1-.46Zm11.19,3.48a2.86,2.86,0,0,0,.63.29,1.52,1.52,0,0,0,.6,0A.73.73,0,0,0,454,313a1.16,1.16,0,0,0,.22-.26.75.75,0,0,0,.09-.61,1.09,1.09,0,0,0-.27-.48,1.93,1.93,0,0,0-.55-.46l-9.74-5.94a2.14,2.14,0,0,0-.65-.29,1.42,1.42,0,0,0-.58,0,.74.74,0,0,0-.47.36.8.8,0,0,0-.11.6,1,1,0,0,0,.29.5,1.74,1.74,0,0,0,.55.46ZM442.66,319l.89.26.08-.14-9.38-5.72,1.34-2.25,16.53,10.08-1.3,2.19-10-2.87-.89-.26-.08.14,9.37,5.72-1.34,2.25-16.52-10.08,1.3-2.19,10,2.87Zm2.69,13.62L442,338.2l-2.5-1.52,1.88-3.17-4.34-2.65-1.35,2.28L433,331.52l1.36-2.28-4.54-2.77L428,329.64l-2.5-1.52,3.34-5.63,16.53,10.08Z" transform="translate(-332.14 -236.34)"/><path class="cls-6" d="M412,363.74l5-6.09,1.19.73-3,7.3-.94-.57.63-1.48-.93-.57-1,1.26-.95-.58Zm4.33-3.51.08-.19,0,0-.13.16-1.54,1.94.66.41,1-2.28Z" transform="translate(-332.14 -236.34)"/><path class="cls-6" d="M420.47,367a2.11,2.11,0,0,1-.59.63,1.34,1.34,0,0,1-.31.17,2.22,2.22,0,0,1-.37.09,1,1,0,0,1-.42,0,1.4,1.4,0,0,1-.46-.2,1.93,1.93,0,0,1-.4-.32,1.1,1.1,0,0,1-.22-.37,1.19,1.19,0,0,1-.09-.36,2.16,2.16,0,0,1,0-.36,2.3,2.3,0,0,1,.27-.83l2.35-3.94a2.42,2.42,0,0,1,.27-.36,2.69,2.69,0,0,1,.32-.27,2.27,2.27,0,0,1,.31-.17,1.36,1.36,0,0,1,.36-.1,1.3,1.3,0,0,1,.43,0,1.4,1.4,0,0,1,.46.2,1.59,1.59,0,0,1,.39.32,1.16,1.16,0,0,1,.22.36,1.7,1.7,0,0,1,.1.37,1.51,1.51,0,0,1,0,.37,2.12,2.12,0,0,1-.08.41c-.05.13-.11.27-.18.41Zm1.38-4.54a1.06,1.06,0,0,0,.11-.25.65.65,0,0,0,0-.24.37.37,0,0,0-.05-.11l-.1-.09a.33.33,0,0,0-.25,0,.72.72,0,0,0-.19.11.84.84,0,0,0-.18.23l-2.34,3.94a1,1,0,0,0-.12.27,1,1,0,0,0,0,.24.32.32,0,0,0,.15.18.29.29,0,0,0,.23.05.41.41,0,0,0,.2-.12.85.85,0,0,0,.18-.22Zm1.14.8.38-.63a1.58,1.58,0,0,0,.61.11,2.18,2.18,0,0,0,.49-.08l.22-.1a.82.82,0,0,0,.2-.12l.58.36-4,6.7-1-.59,3.12-5.25-.65-.4Zm2,2.15.28-.47a4,4,0,0,1,.44-.61,2,2,0,0,1,.53-.44,1.18,1.18,0,0,1,.62-.14,1.55,1.55,0,0,1,.73.25,1.61,1.61,0,0,1,.55.51,1.21,1.21,0,0,1,.19.6,2,2,0,0,1-.1.66,3.61,3.61,0,0,1-.33.69,5.23,5.23,0,0,1-.82,1,10.64,10.64,0,0,1-1.09.9c-.39.29-.77.54-1.13.76s-.68.4-.93.54l1.53.94-.58,1-2.63-1.6.58-1a18.85,18.85,0,0,0,1.65-.92c.22-.14.45-.29.67-.45s.45-.34.67-.53a5.44,5.44,0,0,0,.6-.57,4.19,4.19,0,0,0,.47-.59l.16-.29a2.12,2.12,0,0,0,.11-.29.74.74,0,0,0,0-.25.31.31,0,0,0-.13-.19.24.24,0,0,0-.2,0,.47.47,0,0,0-.2.12,1.6,1.6,0,0,0-.21.23l-.2.31L426,366l-1-.59Zm4.09,6.85a2.11,2.11,0,0,1-.59.63,1.87,1.87,0,0,1-.31.17,2.22,2.22,0,0,1-.37.09,1,1,0,0,1-.42,0,1.4,1.4,0,0,1-.46-.2,1.93,1.93,0,0,1-.4-.32,1.1,1.1,0,0,1-.22-.37,1.18,1.18,0,0,1-.09-.37,2,2,0,0,1,0-.35,2.3,2.3,0,0,1,.27-.83l2.35-3.94a2.42,2.42,0,0,1,.27-.36,2.69,2.69,0,0,1,.32-.27,2.27,2.27,0,0,1,.31-.17,1.36,1.36,0,0,1,.36-.1,1.3,1.3,0,0,1,.43,0,1.4,1.4,0,0,1,.46.2,1.59,1.59,0,0,1,.39.32,1,1,0,0,1,.22.36,1.7,1.7,0,0,1,.1.37,1.51,1.51,0,0,1,0,.37,2.12,2.12,0,0,1-.08.41,3.52,3.52,0,0,1-.18.4Zm1.38-4.54a1.06,1.06,0,0,0,.11-.25.65.65,0,0,0,0-.24.37.37,0,0,0,0-.11l-.1-.09a.33.33,0,0,0-.25,0,.52.52,0,0,0-.19.11.84.84,0,0,0-.18.23l-2.34,3.94a1,1,0,0,0-.12.27,1,1,0,0,0,0,.24.32.32,0,0,0,.15.18.29.29,0,0,0,.23.05.41.41,0,0,0,.2-.12.85.85,0,0,0,.18-.22Zm.72,3.58.49-.83a1.48,1.48,0,0,0,.51.19.4.4,0,0,0,.34-.08,1,1,0,0,0,.28-.31l.32-.54c.05-.1.11-.2.17-.3a1.94,1.94,0,0,0,.13-.3.49.49,0,0,0,0-.26.29.29,0,0,0-.14-.19.21.21,0,0,0-.17,0,.38.38,0,0,0-.19.13,2.22,2.22,0,0,0-.26.33c-.09.14-.21.32-.34.54l-.95-.58a7,7,0,0,1,.4-.62,2.44,2.44,0,0,1,.54-.57,1.29,1.29,0,0,1,.66-.28,1.33,1.33,0,0,1,.83.22,1.35,1.35,0,0,1,.7,1.32,2.23,2.23,0,0,1-.15.58,3.11,3.11,0,0,1-.15.31,5.08,5.08,0,0,1-.8,1.07,1.57,1.57,0,0,1-.72.41h0a1.68,1.68,0,0,1,0,1,5.32,5.32,0,0,1-.54,1.14.86.86,0,0,1-.12.18,2.85,2.85,0,0,1-.25.32,4.19,4.19,0,0,1-.37.35,1.64,1.64,0,0,1-.46.27,1.14,1.14,0,0,1-.52.09,1.23,1.23,0,0,1-.6-.19,1.44,1.44,0,0,1-.59-.65,1.42,1.42,0,0,1-.08-.74,2.83,2.83,0,0,1,.23-.75,6.37,6.37,0,0,1,.35-.65l1,.58c-.13.22-.23.41-.31.56a2.1,2.1,0,0,0-.14.39.43.43,0,0,0,0,.25.24.24,0,0,0,.12.14.29.29,0,0,0,.22,0,.62.62,0,0,0,.22-.15,2.71,2.71,0,0,0,.19-.25l.18-.29c.12-.21.24-.4.35-.57a1.41,1.41,0,0,0,.19-.45.64.64,0,0,0-.05-.41l-.15-.2a2,2,0,0,0-.26-.21Zm3.61-.93a2.81,2.81,0,0,1,.24-.34,2,2,0,0,1,.45-.4,1.41,1.41,0,0,1,.63-.19,1.71,1.71,0,0,1,1.4.86,1.38,1.38,0,0,1,.13.65,2,2,0,0,1-.13.59,2.57,2.57,0,0,1-.18.37l-2.27,3.81a3.65,3.65,0,0,1-.29.44,2.06,2.06,0,0,1-.46.42,1.27,1.27,0,0,1-.64.2,1.74,1.74,0,0,1-1.42-.86,1.33,1.33,0,0,1-.12-.67,2,2,0,0,1,.15-.61,4.57,4.57,0,0,1,.25-.46l.25-.42,1,.59c-.14.22-.24.41-.33.56a2.69,2.69,0,0,0-.17.38.38.38,0,0,0,0,.23.25.25,0,0,0,.13.16.29.29,0,0,0,.35,0,2.48,2.48,0,0,0,.38-.52l.75-1.26a1.58,1.58,0,0,1-.32,0,.64.64,0,0,1-.26-.1,1.19,1.19,0,0,1-.5-.53,1.24,1.24,0,0,1-.09-.59,1.85,1.85,0,0,1,.15-.55,2.45,2.45,0,0,1,.2-.4Zm1.74.66a.43.43,0,0,0,0-.22.3.3,0,0,0-.16-.26.32.32,0,0,0-.3,0,.39.39,0,0,0-.18.14l-1.15,1.94a.43.43,0,0,0,0,.22.35.35,0,0,0,.16.26.32.32,0,0,0,.28,0,.52.52,0,0,0,.18-.13Z" transform="translate(-332.14 -236.34)"/><polygon class="cls-6" points="163.43 65.48 170.89 52.91 169.18 45.92 133.07 23.89 126.17 25.63 118.7 38.2 163.43 65.48 163.43 65.48"/><path class="cls-9" d="M462.26,274.62l5-6.09,1.18.72-3,7.31-.94-.58.63-1.48-.94-.57-1,1.26-.94-.57Zm4.33-3.52.07-.19-.05,0-.13.15L465,273l.66.4,1-2.28Zm-.69,5.74,4-6.7.76.46a3.31,3.31,0,0,1,1,.81,1.24,1.24,0,0,1,.26.89,3.34,3.34,0,0,1-.37,1.18c-.22.45-.53,1-.92,1.66s-.72,1.18-1,1.59a3.25,3.25,0,0,1-.84.88,1.22,1.22,0,0,1-.91.18,3.15,3.15,0,0,1-1.15-.49Zm1.55-.4a1.09,1.09,0,0,0,.44.19.54.54,0,0,0,.4-.17,2.1,2.1,0,0,0,.23-.26,3.86,3.86,0,0,0,.28-.4q.3-.46.78-1.29c.32-.54.58-1,.76-1.3a2.81,2.81,0,0,0,.21-.43,1.5,1.5,0,0,0,.12-.33.57.57,0,0,0,0-.44,1.33,1.33,0,0,0-.37-.3Zm3.43,3.44,1.88-4.59.13-.31-.05,0-2.67,4.49-.9-.55,4-6.69,1.19.72-1.24,3.42-.17.38h0l.25-.33,2.4-2.71,1.18.72-4,6.7-.9-.55,2.67-4.49-.05,0-.2.26-3.12,3.83-.42-.25Zm6.87-4.94,1,.59-4,6.7-1-.59,4-6.7Zm.93,1.95.6-1,2.8,1.72-.6,1-.91-.56-3.38,5.68-1-.59,3.37-5.68-.91-.56Zm4.8,8.8a2.11,2.11,0,0,1-.59.63,1.62,1.62,0,0,1-.32.17,1.9,1.9,0,0,1-.36.09,1,1,0,0,1-.42,0,1.65,1.65,0,0,1-.46-.2,1.7,1.7,0,0,1-.4-.32,1.1,1.1,0,0,1-.22-.37,1.18,1.18,0,0,1-.09-.37,2,2,0,0,1,0-.35,2.3,2.3,0,0,1,.27-.83l2.35-3.95a2.33,2.33,0,0,1,.27-.35,2.08,2.08,0,0,1,.32-.27,1.8,1.8,0,0,1,.31-.17,1.36,1.36,0,0,1,.36-.1,1.54,1.54,0,0,1,.42,0,1.75,1.75,0,0,1,.47.21,1.39,1.39,0,0,1,.39.32,1.13,1.13,0,0,1,.22.36,1.7,1.7,0,0,1,.1.37,1.51,1.51,0,0,1,0,.37,1.89,1.89,0,0,1-.08.4,3,3,0,0,1-.18.41Zm1.38-4.54a1.06,1.06,0,0,0,.11-.25.65.65,0,0,0,0-.24.24.24,0,0,0-.06-.11.45.45,0,0,0-.1-.09.3.3,0,0,0-.24,0,.45.45,0,0,0-.19.11.71.71,0,0,0-.18.23l-2.35,3.94a1.4,1.4,0,0,0-.11.27.59.59,0,0,0,0,.23.29.29,0,0,0,.14.19.32.32,0,0,0,.24.05.47.47,0,0,0,.2-.12.85.85,0,0,0,.18-.22Zm1.38,3.34.1-.36-.06,0L484,287.9l-.89-.55,4-6.69.86.52-1.13,4.07-.1.36.05,0,2.26-3.8.89.54-4,6.7-.87-.52,1.14-4.07Zm4.25-1.78,2.22,1.36-.6,1-1.25-.76-1.05,1.76.9.54-.64,1.08-.9-.55L488.08,289l1.25.77-.6,1-2.22-1.36,4-6.7Z" transform="translate(-332.14 -236.34)"/><polygon class="cls-9" points="164.05 52.06 163.96 53.18 164.82 53.9 163.74 54.16 163.33 55.22 162.75 54.25 161.64 54.18 162.37 53.33 162.08 52.23 163.11 52.67 164.05 52.06 164.05 52.06"/><polygon class="cls-9" points="130.12 31.36 130.03 32.48 130.89 33.2 129.8 33.46 129.4 34.51 128.82 33.54 127.71 33.48 128.43 32.62 128.15 31.53 129.18 31.97 130.12 31.36 130.12 31.36"/><polygon class="cls-6" points="111.74 140.1 111.65 141.23 112.51 141.94 111.43 142.2 111.02 143.25 110.44 142.28 109.33 142.22 110.06 141.36 109.78 140.27 110.81 140.71 111.74 140.1 111.74 140.1"/><polygon class="cls-6" points="77.81 119.4 77.72 120.52 78.58 121.24 77.49 121.49 77.09 122.55 76.51 121.58 75.4 121.52 76.12 120.66 75.84 119.57 76.87 120 77.81 119.4 77.81 119.4"/><polygon class="cls-6" points="118.08 39.24 119.33 37.15 164.05 64.44 162.81 66.53 118.08 39.24 118.08 39.24"/></g></g></g></svg>