<svg xmlns="http://www.w3.org/2000/svg" viewBox="0 0 104 449" width="100" height="410">
	<defs>
		<clipPath clipPathUnits="userSpaceOnUse" id="cp1">
			<path d="M0 0L104 0L104 449L0 449Z" />
		</clipPath>
	</defs>
	<style>
		tspan { white-space:pre }
		.shp0 { fill: #f9f7ea } 
	</style>
	<g id="Page 1" clip-path="url(#cp1)">
		<path id="Path 1" class="shp0" d="M2.85 -0.2C3.54 1.39 4.79 2.98 4.82 4.58C5 15.35 4.91 26.13 4.91 36.9C4.91 38.25 4.91 39.6 4.91 41.52C9.83 41.52 14.48 41.63 19.12 41.38C19.73 41.35 20.71 39.46 20.73 38.42C20.88 30.99 20.82 23.56 20.81 16.12C20.8 14.21 20.72 11.91 23.28 12.17C24.17 12.26 25.43 14.7 25.46 16.1C25.67 24.38 25.56 32.67 25.56 41.51C30.53 41.51 35.19 41.65 39.83 41.36C40.46 41.32 41.42 39.16 41.44 37.98C41.56 26.95 41.45 15.93 41.58 4.91C41.6 3.2 42.52 1.5 43.03 -0.2L44.51 -0.2C45.02 1 45.95 2.2 45.96 3.4C46.05 17.13 46 30.87 45.97 44.6C45.97 44.96 45.81 45.32 45.66 46L0.05 46C0.05 31.56 0.02 17.35 0.11 3.14C0.12 2.02 0.93 0.91 1.36 -0.2L2.85 -0.2ZM46.03 427.64C46.02 433.46 46.15 439.29 45.93 445.11C45.88 446.38 44.61 447.61 43.91 448.86C43.11 447.56 41.64 446.27 41.62 444.96C41.43 434.18 41.52 423.4 41.5 412.61C41.5 407.77 41.12 407.42 36.15 407.39C33.92 407.38 31.69 407.45 29.46 407.38C26.66 407.29 25.48 408.43 25.52 411.35C25.65 420.4 25.58 429.45 25.56 438.5C25.55 447.1 23.67 448.98 15.09 448.97C12.37 448.97 9.62 449.1 6.92 448.82C2.28 448.33 0.16 446.21 0.11 441.58C-0.04 429.81 0 418.03 0.15 406.26C0.16 405.19 1.55 404.14 2.31 403.08C3.17 404.15 4.78 405.22 4.79 406.31C4.98 417.34 4.9 428.37 4.91 439.4C4.92 444.05 4.98 444.1 9.77 444.12C11.63 444.12 13.49 444.12 15.35 444.12C20.8 444.11 20.81 444.11 20.81 438.82C20.82 429.77 20.8 420.72 20.82 411.67C20.83 404.91 22.7 403.03 29.36 403C32.08 402.99 34.81 402.99 37.54 403C44.31 403.03 45.99 404.74 46.02 411.65C46.05 416.98 46.03 422.31 46.03 427.64ZM46.02 154.18C46.02 160.13 46.13 166.09 45.93 172.03C45.89 173.14 44.65 174.22 43.96 175.31C43.14 174.19 41.65 173.09 41.63 171.96C41.45 161.06 41.52 150.15 41.5 139.24C41.5 134.38 41.39 134.3 36.47 134.29C34.12 134.28 31.75 134.43 29.41 134.25C26.47 134.03 25.49 135.27 25.53 138.13C25.64 147.05 25.59 155.98 25.55 164.9C25.54 166.75 25.37 168.61 25.07 170.44C24.6 173.4 22.68 175.11 19.77 175.23C15.19 175.42 10.6 175.46 6.02 175.25C2.45 175.08 0.22 172.8 0.16 168.82C-0.03 156.68 0.02 144.53 0.16 132.39C0.17 131.42 1.59 130.46 2.36 129.49C3.21 130.77 4.77 132.03 4.8 133.32C5 144.09 4.91 154.88 4.91 165.66C4.92 170.79 4.99 170.91 10.08 170.87C22.68 170.77 20.66 172.38 20.8 160.35C20.88 152.67 20.77 144.98 20.83 137.3C20.87 131.94 23.2 129.58 28.51 129.44C31.98 129.35 35.45 129.3 38.92 129.46C43.69 129.68 45.91 131.95 45.99 136.71C46.09 142.53 46.01 148.36 46.02 154.18Z" />
		<path id="Path 2" fill-rule="evenodd" class="shp0" d="M45.59 102.92L0.26 102.92C0.18 101.68 0.06 100.6 0.06 99.52C0.04 88.37 0.03 77.21 0.05 66.05C0.07 59.39 2.03 57.18 8.52 57.12C18.81 57.02 29.1 57.07 39.39 57.22C43.71 57.29 45.92 59.42 45.95 63.63C46.06 76.27 45.98 88.91 45.96 101.56C45.96 101.91 45.77 102.26 45.59 102.92ZM4.92 98.34C16.64 98.34 27.79 98.31 38.93 98.36C40.89 98.37 41.52 97.51 41.51 95.67C41.48 85.51 41.47 75.34 41.52 65.18C41.53 62.84 40.46 61.66 38.22 61.65C28.18 61.61 18.14 61.54 8.1 61.74C7.03 61.77 5.08 63.46 5.06 64.41C4.85 75.54 4.92 86.67 4.92 98.34ZM46.02 369.1C46.02 374.3 46.1 379.5 45.99 384.7C45.9 389.57 43.84 391.75 38.92 391.81C28.39 391.94 17.86 391.94 7.33 391.8C2.39 391.74 0.14 389.4 0.09 384.35C-0.02 374.07 -0.03 363.78 0.09 353.5C0.16 348.25 2.72 345.95 8.08 345.93C18.11 345.89 28.14 345.89 38.18 345.93C43.79 345.95 45.95 348.14 46.01 353.86C46.07 358.94 46.02 364.02 46.02 369.1ZM23.18 350.62C18.35 350.62 13.52 350.65 8.69 350.6C6.18 350.58 4.83 351.36 4.86 354.25C4.99 364.03 4.98 373.82 4.87 383.61C4.83 386.42 6.07 387.38 8.63 387.37C18.29 387.35 27.96 387.36 37.62 387.37C40.14 387.38 41.55 386.45 41.53 383.66C41.46 373.87 41.45 364.09 41.53 354.3C41.55 351.54 40.25 350.57 37.68 350.6C32.85 350.66 28.02 350.62 23.18 350.62ZM20.79 227.62C20.79 215.77 20.85 204.52 20.67 193.28C20.65 192.51 18.83 191.19 17.79 191.13C13.1 190.9 8.38 191.18 3.68 190.91C2.46 190.84 1.32 189.45 0.13 188.67C1.35 187.95 2.56 186.62 3.79 186.61C16.67 186.45 29.55 186.45 42.43 186.61C43.61 186.62 44.77 187.98 45.94 188.72C44.78 189.48 43.65 190.84 42.45 190.91C37.75 191.18 33.03 190.9 28.34 191.15C27.38 191.2 25.71 192.68 25.7 193.51C25.56 204.53 25.65 215.55 25.71 226.57C25.71 226.78 25.9 226.99 26.22 227.62C31.3 227.62 36.59 227.62 41.88 227.63C43.77 227.63 46.12 227.54 45.75 230.18C45.62 231.11 43.33 232.37 42.01 232.39C29.37 232.55 16.74 232.56 4.11 232.38C2.77 232.37 0.38 231.01 0.32 230.14C0.15 227.68 2.39 227.61 4.33 227.62C9.63 227.64 14.94 227.62 20.79 227.62ZM20.88 335.15C15.3 335.15 9.72 335.3 4.16 335.05C2.78 334.98 0.41 333.72 0.33 332.82C0.08 330.32 2.33 330.28 4.27 330.28C15.17 330.3 26.07 330.19 36.97 330.35C40.34 330.4 41.63 329.34 41.56 325.9C41.39 317.6 41.4 309.3 41.56 301C41.62 297.55 40.23 296.45 36.92 296.49C26.02 296.61 15.12 296.61 4.23 296.44C2.85 296.42 0.42 295.25 0.33 294.41C0.05 291.89 2.36 291.8 4.25 291.79C15.15 291.77 26.05 291.69 36.95 291.82C44.27 291.91 46.01 293.86 46.02 301.27C46.04 309.81 46.06 318.36 46.01 326.91C45.98 332.78 43.82 335.02 37.97 335.13C32.27 335.24 26.57 335.15 20.88 335.15ZM4.91 264.55C4.91 269.91 4.89 274.72 4.92 279.53C4.93 281.48 4.85 283.71 2.39 283.53C1.52 283.46 0.17 281.06 0.15 279.7C-0.03 268.06 -0.02 256.41 0.15 244.76C0.17 243.46 1.44 241.22 2.39 241.07C5.12 240.65 4.9 243.06 4.9 244.91C4.92 249.71 4.91 254.51 4.91 259.79C7.24 259.79 9.18 259.79 11.12 259.79C21.41 259.79 31.69 259.71 41.97 259.89C43.31 259.92 45.62 261.14 45.76 262.07C46.18 264.84 43.72 264.53 41.9 264.53C31.12 264.56 20.34 264.55 9.56 264.55C8.21 264.55 6.87 264.55 4.91 264.55ZM22.94 113.8C29.26 113.8 35.58 113.79 41.9 113.81C43.78 113.81 46.14 113.74 45.76 116.39C45.62 117.31 43.34 118.55 42.02 118.56C29.38 118.73 16.74 118.73 4.1 118.56C2.76 118.54 1.44 117.11 0.12 116.34C1.4 115.49 2.66 113.97 3.98 113.92C10.29 113.66 16.62 113.8 22.94 113.8ZM58.01 288.98C58.01 282.69 58.01 276.65 58.01 270.61C58.01 264.04 57.98 257.47 58.02 250.9C58.06 245.75 60.33 243.34 65.49 243.29C75.78 243.19 86.07 243.2 96.36 243.29C101.2 243.33 103.8 245.63 103.85 250.15C103.97 262.67 103.89 275.2 103.87 287.72C103.87 288.06 103.69 288.4 103.52 288.98L58.01 288.98ZM80.89 284.72C85.84 284.72 90.78 284.63 95.73 284.76C98.2 284.82 99.26 284.13 99.22 281.43C99.09 271.66 99.09 261.89 99.21 252.12C99.25 249.09 98.22 248.01 95.11 248.06C85.72 248.23 76.31 248.3 66.92 248.04C63.26 247.93 62.4 249.6 62.41 252.62C62.41 262.27 62.46 271.91 62.37 281.56C62.34 284.02 63.33 284.8 65.68 284.75C70.74 284.64 75.82 284.72 80.89 284.72ZM103.92 138.75C103.92 144.2 103.99 149.66 103.89 155.11C103.85 156.88 104.84 159.63 101.68 159.65C98.39 159.66 99.22 156.8 99.2 154.89C99.13 144.36 99.06 133.82 99.23 123.3C99.29 119.76 98.17 118.27 94.56 118.63C92.35 118.86 90.08 118.85 87.88 118.64C84.28 118.28 83.01 119.81 83.05 123.32C83.18 132.86 83.11 142.4 83.09 151.94C83.08 157.81 81.19 159.72 75.33 159.78C71.74 159.82 68.15 159.87 64.56 159.75C60.34 159.62 58.08 157.45 58.05 153.29C57.96 141.27 57.96 129.25 58.11 117.23C58.12 116.14 59.49 115.06 60.23 113.97C60.95 115.04 62.28 116.1 62.29 117.18C62.45 127.84 62.38 138.49 62.4 149.15C62.42 155.14 62.7 155.47 68.71 155.39C79.04 155.26 78.74 157.24 78.71 145.46C78.69 137.53 78.67 129.6 78.73 121.67C78.76 116.44 80.58 114.32 85.68 113.96C89.37 113.7 93.12 113.7 96.81 113.96C101.79 114.31 103.82 116.62 103.9 121.65C103.98 127.35 103.92 133.05 103.92 138.75ZM58.01 424.24C58.01 418.29 57.91 412.34 58.1 406.4C58.14 405.28 59.19 403.43 60.05 403.25C62.39 402.76 62.39 404.78 62.39 406.43C62.4 416.96 62.38 427.49 62.4 438.02C62.42 443.93 62.64 444.13 68.38 444.13C70.24 444.13 72.12 443.94 73.95 444.17C77.65 444.64 78.75 442.84 78.73 439.49C78.66 430.08 78.68 420.66 78.72 411.25C78.74 404.85 80.53 403.06 86.84 403.02C90.31 403 93.78 402.95 97.24 403.05C101.37 403.17 103.78 405.32 103.83 409.48C103.98 421.62 103.96 433.76 103.82 445.89C103.81 446.89 102.46 447.88 101.73 448.87C100.89 447.84 99.36 446.85 99.31 445.79C99.04 440.72 99.17 435.63 99.17 430.56C99.17 424.11 99.1 417.67 99.2 411.23C99.24 408.54 98.16 407.37 95.5 407.4C81.2 407.56 83.24 405.59 83.11 419.05C83.04 426.49 83.12 433.92 83.08 441.35C83.06 446.16 81.38 448.36 76.68 448.75C72.51 449.1 68.25 449.09 64.08 448.69C59.8 448.27 58.07 446.01 58.03 441.7C57.97 435.88 58.01 430.06 58.01 424.24Z" />
		<path id="Path 3" fill-rule="evenodd" class="shp0" d="M58.01 193.93C58.01 188.73 57.97 183.53 58.02 178.32C58.07 173.4 60.09 171.07 64.88 171.01C75.53 170.87 86.19 170.88 96.84 171.01C101.64 171.07 103.83 173.37 103.88 178.21C103.98 188.62 103.97 199.02 103.88 209.43C103.84 214.35 101.42 216.81 96.57 216.85C86.16 216.94 75.75 216.93 65.35 216.85C60.38 216.82 58.08 214.45 58.02 209.54C57.97 204.34 58.01 199.14 58.01 193.93ZM99.16 194.08C99.16 189.13 99.1 184.17 99.19 179.21C99.24 176.78 98.37 175.44 95.83 175.44C85.91 175.44 76 175.45 66.09 175.43C63.81 175.42 62.57 176.53 62.56 178.76C62.5 188.79 62.49 198.82 62.52 208.86C62.53 211.03 63.61 212.2 65.99 212.19C75.9 212.13 85.81 212.15 95.72 212.19C98.24 212.2 99.25 211.1 99.19 208.58C99.09 203.75 99.16 198.91 99.16 194.08ZM79.11 300.36C84.94 300.35 90.76 300.29 96.59 300.37C101.58 300.45 103.84 302.66 103.89 307.71C103.98 317.13 103.99 326.56 103.88 335.98C103.82 340.87 101.39 343.28 96.46 343.32C84.81 343.41 73.16 343.42 61.51 343.25C60.34 343.23 59.2 341.77 58.05 340.97C59.23 340.21 60.4 338.79 61.6 338.77C72.38 338.59 83.17 338.69 93.95 338.65C99.02 338.63 99.16 338.46 99.17 333.43C99.18 325.62 99.18 317.81 99.17 310C99.16 305.01 99.02 304.87 93.86 304.87C83.82 304.86 73.78 304.87 63.74 304.86C62.75 304.86 61.63 305.13 60.8 304.76C59.76 304.29 58.96 303.29 58.06 302.52C59 301.8 59.93 300.49 60.89 300.46C66.96 300.26 73.04 300.36 79.11 300.36ZM58.01 372.83C58.01 367 57.89 361.17 58.11 355.36C58.15 354.14 59.24 352.12 60.15 351.93C62.5 351.46 62.37 353.59 62.38 355.2C62.41 359.16 62.53 363.14 62.35 367.09C62.22 369.85 63.16 370.75 65.96 370.71C76.61 370.57 87.27 370.65 97.93 370.65C98.8 370.65 99.83 370.37 100.5 370.73C101.73 371.39 102.74 372.43 103.85 373.31C102.73 374.01 101.62 375.3 100.49 375.31C89.21 375.46 77.93 375.55 66.65 375.32C63.11 375.25 62.12 376.45 62.34 379.77C62.58 383.35 62.59 386.97 62.3 390.54C62.18 391.94 61.11 394.31 60.27 394.4C57.85 394.66 58.01 392.43 58.01 390.68C58.01 384.73 58.01 378.78 58.01 372.83ZM80.74 227.64C87.06 227.64 93.38 227.64 99.7 227.64C101.6 227.64 103.92 227.57 103.66 230.15C103.57 231.05 101.23 232.38 99.89 232.4C87.26 232.57 74.61 232.57 61.97 232.4C60.66 232.38 58.36 231.1 58.25 230.18C57.92 227.55 60.28 227.65 62.15 227.64C68.35 227.63 74.54 227.64 80.74 227.64Z" />
	</g>
</svg>