<svg xmlns="http://www.w3.org/2000/svg" viewBox="0 0 1185 1317" width="1185" height="1317">
	<defs>
		<clipPath clipPathUnits="userSpaceOnUse" id="cp1">
			<path d="M0 0L1185 0L1185 1317L0 1317Z" />
		</clipPath>
	</defs>
	<style>
		tspan { white-space:pre }
		.shp0 { fill: #ff3343 } 
	</style>
	<g id="Page 1" clip-path="url(#cp1)">
		<path id="Path 1" class="shp0" d="M490.59 1317C487.3 1314.12 484.21 1310.96 480.68 1308.39C323.52 1193.83 166.32 1079.32 9.12 964.8C6.41 962.83 3.74 960.79 0 957.98C4.17 955.65 7.61 953.58 11.18 951.76C62.47 925.67 113.84 899.72 165.02 873.41C171.07 870.3 175.2 870.53 180.78 874.57C295.04 957.34 409.45 1039.9 523.84 1122.48C526.48 1124.39 529.25 1126.11 533.54 1128.97L533.54 688.73C515.12 697.96 496.8 707.14 477.53 716.8C477.04 707.14 476.25 698.81 476.25 690.48C476.18 499.83 476.24 309.18 476.02 118.53C476.02 111.49 478.49 108.28 484.53 105.23C552.19 71.05 619.76 36.7 687.11 1.94C693.65 -1.43 696.92 1.53 701.17 4.62C849.72 112.87 998.27 221.12 1146.83 329.36C1159.06 338.28 1171.28 347.2 1184.64 356.94C1172.35 363.3 1161.03 369.23 1149.65 375.02C1105.62 397.44 1061.54 419.75 1017.58 442.31C1012.44 444.94 1008.93 444.7 1004.08 441.17C890.2 358.36 776.16 275.77 662.15 193.15C659.29 191.08 656.35 189.15 651.5 185.81L651.5 625.78C670.05 616.45 688.63 607.1 708.49 597.12C708.76 600.62 709.12 603.21 709.12 605.8C709.15 802.92 709.11 1000.03 709.31 1197.15C709.32 1203.92 706.82 1206.95 701.12 1209.84C633.23 1244.17 565.47 1278.76 497.69 1313.32C495.77 1314.31 494.08 1315.76 492.28 1317L490.59 1317Z" />
	</g>
</svg>