<svg xmlns="http://www.w3.org/2000/svg" viewBox="0 0 449 104" width="449" height="104">
	<defs>
		<clipPath clipPathUnits="userSpaceOnUse" id="cp1">
			<path d="M448 -1L448 103L-1 103L-1 -1L448 -1Z" />
		</clipPath>
	</defs>
	<style>
		tspan { white-space:pre }
		.shp0 { fill: #f9f7ea } 
	</style>
	<g id="Clip-Path: Page 1" clip-path="url(#cp1)">
		<g id="Page 1">
			<path id="Path 1" class="shp0" d="M448.2 1.85C446.61 2.54 445.02 3.79 443.42 3.82C432.65 4 421.87 3.91 411.1 3.91C409.75 3.91 408.4 3.91 406.48 3.91C406.48 8.83 406.37 13.48 406.62 18.12C406.65 18.73 408.54 19.71 409.58 19.73C417.01 19.88 424.44 19.82 431.88 19.81C433.79 19.8 436.09 19.72 435.83 22.28C435.74 23.17 433.3 24.43 431.9 24.46C423.62 24.67 415.33 24.56 406.49 24.56C406.49 29.53 406.35 34.19 406.64 38.83C406.68 39.46 408.84 40.42 410.02 40.44C421.05 40.56 432.07 40.45 443.09 40.58C444.8 40.6 446.5 41.52 448.2 42.03L448.2 43.51C447 44.02 445.8 44.95 444.6 44.96C430.87 45.05 417.13 45 403.4 44.97C403.04 44.97 402.68 44.81 402 44.66L402 -0.95C416.44 -0.95 430.65 -0.98 444.86 -0.89C445.98 -0.88 447.09 -0.07 448.2 0.36L448.2 1.85ZM20.36 45.03C14.54 45.02 8.71 45.15 2.89 44.93C1.62 44.88 0.39 43.61 -0.86 42.91C0.44 42.11 1.73 40.64 3.04 40.62C13.82 40.43 24.6 40.52 35.39 40.5C40.23 40.5 40.58 40.12 40.61 35.15C40.62 32.92 40.55 30.69 40.62 28.46C40.71 25.66 39.57 24.48 36.65 24.52C27.6 24.65 18.55 24.58 9.5 24.56C0.9 24.55 -0.98 22.67 -0.97 14.09C-0.97 11.37 -1.1 8.62 -0.82 5.92C-0.33 1.28 1.79 -0.84 6.42 -0.89C18.19 -1.04 29.97 -1 41.74 -0.85C42.81 -0.84 43.86 0.55 44.92 1.31C43.85 2.17 42.78 3.78 41.69 3.79C30.66 3.98 19.63 3.9 8.6 3.91C3.95 3.92 3.9 3.98 3.88 8.77C3.88 10.63 3.88 12.49 3.88 14.35C3.89 19.8 3.89 19.81 9.18 19.81C18.23 19.82 27.28 19.8 36.33 19.82C43.09 19.83 44.97 21.7 45 28.36C45.01 31.08 45.01 33.81 45 36.54C44.97 43.31 43.26 44.99 36.35 45.02C31.02 45.05 25.69 45.03 20.36 45.03ZM293.82 45.02C287.87 45.02 281.91 45.13 275.97 44.93C274.86 44.89 273.78 43.65 272.69 42.96C273.81 42.14 274.91 40.65 276.04 40.63C286.94 40.45 297.85 40.52 308.76 40.5C313.62 40.5 313.7 40.39 313.71 35.47C313.72 33.12 313.57 30.75 313.75 28.41C313.97 25.47 312.73 24.49 309.87 24.53C300.95 24.64 292.02 24.59 283.1 24.55C281.25 24.54 279.39 24.37 277.56 24.07C274.6 23.6 272.89 21.68 272.77 18.77C272.58 14.19 272.54 9.6 272.75 5.02C272.92 1.45 275.2 -0.78 279.18 -0.84C291.32 -1.03 303.47 -0.98 315.61 -0.84C316.58 -0.83 317.54 0.59 318.51 1.36C317.23 2.21 315.97 3.77 314.68 3.8C303.91 4 293.12 3.91 282.34 3.91C277.21 3.92 277.09 3.99 277.13 9.08C277.23 21.68 275.62 19.66 287.65 19.8C295.33 19.88 303.02 19.77 310.7 19.83C316.06 19.87 318.42 22.2 318.56 27.51C318.65 30.98 318.7 34.45 318.54 37.92C318.32 42.69 316.05 44.91 311.29 44.99C305.47 45.09 299.64 45.01 293.82 45.02Z" />
			<path id="Path 2" fill-rule="evenodd" class="shp0" d="M345.08 44.59L345.08 -0.74C346.32 -0.82 347.4 -0.94 348.48 -0.94C359.63 -0.96 370.79 -0.97 381.95 -0.95C388.61 -0.93 390.82 1.03 390.88 7.52C390.98 17.81 390.93 28.1 390.78 38.39C390.71 42.71 388.58 44.92 384.37 44.95C371.73 45.06 359.09 44.98 346.44 44.96C346.09 44.96 345.74 44.77 345.08 44.59ZM349.66 3.92C349.66 15.64 349.69 26.79 349.64 37.93C349.63 39.89 350.49 40.52 352.33 40.51C362.49 40.48 372.66 40.47 382.82 40.52C385.16 40.53 386.34 39.46 386.35 37.22C386.39 27.18 386.46 17.14 386.26 7.1C386.23 6.03 384.54 4.08 383.59 4.06C372.46 3.85 361.33 3.92 349.66 3.92ZM78.9 45.02C73.7 45.02 68.5 45.1 63.3 44.99C58.43 44.9 56.25 42.84 56.19 37.92C56.06 27.39 56.06 16.86 56.2 6.33C56.26 1.39 58.6 -0.86 63.65 -0.91C73.93 -1.02 84.22 -1.03 94.5 -0.91C99.75 -0.84 102.05 1.72 102.07 7.08C102.11 17.11 102.11 27.14 102.07 37.18C102.05 42.79 99.86 44.95 94.14 45.01C89.06 45.07 83.98 45.02 78.9 45.02ZM97.38 22.18C97.38 17.35 97.35 12.52 97.4 7.69C97.42 5.18 96.64 3.83 93.75 3.86C83.97 3.99 74.18 3.98 64.39 3.87C61.58 3.83 60.62 5.07 60.63 7.63C60.65 17.29 60.64 26.96 60.63 36.62C60.62 39.14 61.55 40.55 64.34 40.53C74.13 40.46 83.91 40.45 93.7 40.53C96.46 40.55 97.43 39.25 97.4 36.68C97.34 31.85 97.38 27.02 97.38 22.18ZM220.38 19.79C232.23 19.79 243.48 19.85 254.72 19.67C255.49 19.65 256.81 17.83 256.87 16.79C257.1 12.1 256.82 7.38 257.09 2.68C257.16 1.46 258.55 0.32 259.33 -0.87C260.05 0.35 261.38 1.56 261.39 2.79C261.55 15.67 261.55 28.55 261.39 41.43C261.38 42.61 260.02 43.77 259.28 44.94C258.52 43.78 257.16 42.65 257.09 41.45C256.82 36.75 257.1 32.03 256.85 27.34C256.8 26.38 255.32 24.71 254.49 24.7C243.47 24.56 232.45 24.65 221.43 24.71C221.22 24.71 221.01 24.9 220.38 25.22C220.38 30.3 220.38 35.59 220.37 40.88C220.37 42.77 220.46 45.12 217.82 44.75C216.89 44.62 215.63 42.33 215.61 41.01C215.45 28.37 215.44 15.74 215.62 3.11C215.63 1.77 216.99 -0.62 217.86 -0.68C220.32 -0.85 220.39 1.39 220.38 3.33C220.36 8.63 220.38 13.94 220.38 19.79ZM112.85 19.88C112.85 14.3 112.7 8.72 112.95 3.16C113.02 1.78 114.28 -0.59 115.18 -0.67C117.68 -0.92 117.72 1.33 117.72 3.27C117.7 14.17 117.81 25.07 117.65 35.97C117.6 39.34 118.66 40.63 122.1 40.56C130.4 40.39 138.7 40.4 147 40.56C150.45 40.62 151.55 39.23 151.51 35.92C151.39 25.02 151.39 14.12 151.56 3.23C151.58 1.85 152.75 -0.58 153.59 -0.67C156.11 -0.95 156.2 1.36 156.21 3.25C156.23 14.15 156.31 25.05 156.18 35.95C156.09 43.27 154.14 45.01 146.73 45.02C138.19 45.04 129.64 45.06 121.09 45.01C115.22 44.98 112.98 42.82 112.87 36.97C112.76 31.27 112.85 25.57 112.85 19.88ZM183.45 3.91C178.09 3.91 173.28 3.89 168.47 3.92C166.52 3.93 164.29 3.85 164.47 1.39C164.54 0.52 166.94 -0.83 168.3 -0.85C179.94 -1.03 191.59 -1.02 203.24 -0.85C204.54 -0.83 206.78 0.44 206.93 1.39C207.35 4.12 204.94 3.9 203.09 3.9C198.29 3.92 193.49 3.91 188.21 3.91C188.21 6.24 188.21 8.18 188.21 10.12C188.21 20.41 188.29 30.69 188.11 40.97C188.08 42.31 186.86 44.62 185.93 44.76C183.16 45.18 183.47 42.72 183.47 40.9C183.44 30.12 183.45 19.34 183.45 8.56C183.45 7.21 183.45 5.87 183.45 3.91ZM334.2 21.94C334.2 28.26 334.21 34.58 334.19 40.9C334.19 42.78 334.26 45.14 331.61 44.76C330.69 44.62 329.45 42.34 329.44 41.02C329.27 28.38 329.27 15.74 329.44 3.1C329.46 1.76 330.89 0.44 331.66 -0.88C332.51 0.4 334.03 1.66 334.08 2.98C334.34 9.29 334.2 15.62 334.2 21.94ZM159.02 57.01C165.31 57.01 171.35 57.01 177.39 57.01C183.96 57.01 190.53 56.98 197.1 57.02C202.25 57.06 204.66 59.33 204.71 64.49C204.81 74.78 204.8 85.07 204.71 95.36C204.67 100.2 202.37 102.8 197.85 102.85C185.33 102.97 172.8 102.89 160.28 102.87C159.94 102.87 159.6 102.69 159.02 102.52L159.02 57.01ZM163.28 79.89C163.28 84.84 163.37 89.78 163.24 94.73C163.18 97.2 163.87 98.26 166.57 98.22C176.34 98.09 186.11 98.09 195.88 98.21C198.91 98.25 199.99 97.22 199.94 94.11C199.77 84.72 199.7 75.31 199.96 65.92C200.07 62.26 198.4 61.4 195.38 61.41C185.73 61.41 176.09 61.46 166.44 61.37C163.98 61.34 163.2 62.33 163.25 64.68C163.36 69.74 163.28 74.82 163.28 79.89ZM309.25 102.92C303.8 102.92 298.34 102.99 292.89 102.89C291.12 102.85 288.37 103.84 288.35 100.68C288.34 97.39 291.2 98.22 293.11 98.2C303.64 98.13 314.18 98.06 324.7 98.23C328.24 98.29 329.73 97.17 329.37 93.56C329.14 91.35 329.15 89.08 329.36 86.88C329.72 83.28 328.19 82.01 324.68 82.05C315.14 82.18 305.6 82.11 296.06 82.09C290.19 82.08 288.28 80.19 288.22 74.33C288.18 70.74 288.13 67.15 288.25 63.56C288.38 59.34 290.55 57.08 294.71 57.05C306.73 56.96 318.75 56.96 330.77 57.11C331.86 57.12 332.94 58.49 334.03 59.23C332.96 59.95 331.9 61.28 330.82 61.29C320.16 61.45 309.51 61.38 298.85 61.4C292.86 61.42 292.53 61.7 292.61 67.71C292.74 78.04 290.76 77.74 302.54 77.71C310.47 77.69 318.4 77.67 326.33 77.73C331.56 77.76 333.68 79.58 334.04 84.68C334.3 88.37 334.3 92.12 334.04 95.81C333.69 100.79 331.38 102.82 326.35 102.9C320.65 102.98 314.95 102.92 309.25 102.92ZM23.76 57.01C29.71 57.01 35.66 56.91 41.6 57.1C42.72 57.14 44.57 58.19 44.75 59.05C45.24 61.39 43.22 61.39 41.57 61.39C31.04 61.4 20.51 61.38 9.98 61.4C4.07 61.42 3.87 61.64 3.87 67.38C3.87 69.24 4.06 71.12 3.83 72.95C3.36 76.65 5.16 77.75 8.51 77.73C17.92 77.66 27.34 77.68 36.75 77.72C43.15 77.74 44.94 79.53 44.98 85.84C45 89.31 45.05 92.78 44.95 96.24C44.83 100.37 42.68 102.78 38.52 102.83C26.38 102.98 14.24 102.96 2.11 102.82C1.11 102.81 0.12 101.46 -0.87 100.73C0.16 99.89 1.15 98.36 2.21 98.31C7.28 98.04 12.37 98.17 17.44 98.17C23.89 98.17 30.33 98.1 36.77 98.2C39.46 98.24 40.63 97.16 40.6 94.5C40.44 80.2 42.41 82.24 28.95 82.11C21.51 82.04 14.08 82.12 6.65 82.08C1.84 82.06 -0.36 80.38 -0.75 75.68C-1.1 71.51 -1.09 67.25 -0.69 63.08C-0.27 58.8 1.99 57.07 6.3 57.03C12.12 56.97 17.94 57.01 23.76 57.01Z" />
			<path id="Path 3" fill-rule="evenodd" class="shp0" d="M254.07 57.01C259.27 57.01 264.47 56.97 269.68 57.02C274.6 57.07 276.93 59.09 276.99 63.88C277.13 74.53 277.12 85.19 276.99 95.84C276.93 100.64 274.63 102.83 269.79 102.88C259.38 102.98 248.98 102.97 238.57 102.88C233.65 102.84 231.19 100.42 231.15 95.57C231.06 85.16 231.07 74.75 231.15 64.35C231.18 59.38 233.55 57.08 238.46 57.02C243.66 56.97 248.86 57.01 254.07 57.01ZM253.92 98.16C258.87 98.16 263.83 98.1 268.79 98.19C271.22 98.24 272.56 97.37 272.56 94.83C272.56 84.91 272.55 75 272.57 65.09C272.58 62.81 271.47 61.57 269.24 61.56C259.21 61.5 249.18 61.49 239.14 61.52C236.97 61.53 235.8 62.61 235.81 64.99C235.87 74.9 235.85 84.81 235.81 94.72C235.8 97.24 236.9 98.25 239.42 98.19C244.25 98.09 249.09 98.16 253.92 98.16ZM147.64 78.11C147.65 83.94 147.71 89.76 147.63 95.59C147.55 100.58 145.34 102.84 140.29 102.89C130.87 102.98 121.44 102.99 112.02 102.88C107.13 102.82 104.72 100.39 104.68 95.46C104.59 83.81 104.58 72.16 104.75 60.51C104.77 59.34 106.23 58.2 107.03 57.05C107.79 58.23 109.21 59.4 109.23 60.6C109.41 71.38 109.31 82.17 109.35 92.95C109.37 98.02 109.54 98.16 114.57 98.17C122.38 98.18 130.19 98.18 138 98.17C142.99 98.16 143.13 98.02 143.13 92.86C143.14 82.82 143.13 72.78 143.14 62.74C143.14 61.75 142.87 60.63 143.24 59.8C143.71 58.76 144.71 57.96 145.48 57.06C146.2 58 147.51 58.93 147.54 59.89C147.74 65.96 147.64 72.04 147.64 78.11ZM75.17 57.01C81 57.01 86.83 56.89 92.64 57.11C93.86 57.15 95.88 58.24 96.07 59.15C96.54 61.5 94.41 61.37 92.8 61.38C88.84 61.41 84.86 61.53 80.91 61.35C78.15 61.22 77.25 62.16 77.29 64.96C77.43 75.61 77.35 86.27 77.35 96.93C77.35 97.8 77.63 98.83 77.27 99.5C76.61 100.73 75.57 101.74 74.69 102.85C73.99 101.73 72.7 100.62 72.69 99.49C72.54 88.21 72.45 76.93 72.68 65.65C72.75 62.11 71.55 61.12 68.23 61.34C64.65 61.58 61.03 61.59 57.46 61.3C56.06 61.18 53.69 60.11 53.6 59.27C53.34 56.85 55.57 57.01 57.32 57.01C63.27 57.01 69.22 57.01 75.17 57.01ZM220.36 79.74C220.36 86.06 220.36 92.38 220.36 98.7C220.36 100.6 220.43 102.92 217.85 102.66C216.95 102.57 215.62 100.23 215.6 98.89C215.43 86.26 215.43 73.61 215.6 60.97C215.62 59.66 216.9 57.36 217.82 57.25C220.45 56.92 220.35 59.28 220.36 61.15C220.37 67.35 220.36 73.54 220.36 79.74Z" />
		</g>
	</g>
</svg>